<?xml version="1.0" encoding="utf-8"?>
<!-- Generator: Adobe Illustrator 23.0.6, SVG Export Plug-In . SVG Version: 6.00 Build 0)  -->
<svg version="1.1" id="Layer_1" xmlns="http://www.w3.org/2000/svg" xmlns:xlink="http://www.w3.org/1999/xlink" x="0px" y="0px"
	 viewBox="0 0 1970 1080" style="enable-background:new 0 0 1970 1080;" xml:space="preserve">
<style type="text/css">
	.st0{fill:#FFFFFF;}
</style>
<g>
	<g>
		<path class="st0" d="M913.1,1077.9l-97.7-239.7h-452l-97.8,239.7H26L484,1.5h216.9l458,1076.5H913.1z M589.4,283.9l-142,346.6h284
			L589.4,283.9z"/>
	</g>
	<g>
		<path class="st0" d="M1084.2,0.7h76.2v96.5h97v74h-97v96.5h-76.2v-96.5h-97.1v-74h97.1V0.7z"/>
		<path class="st0" d="M1427.4,0.7h76.2v96.5h97.1v74h-97.1v96.5h-76.2v-96.5h-97v-74h97V0.7z"/>
		<path class="st0" d="M1770.8,0.7h76.2v96.5h97v74h-97v96.5h-76.2v-96.5h-97.1v-74h97.1V0.7z"/>
	</g>
</g>
</svg>
