<svg id="Layer_1" data-name="Layer 1" xmlns="http://www.w3.org/2000/svg" viewBox="0 0 721 721"><defs><style>.cls-1{fill:#fff;}</style></defs><title>about_icon</title><path class="cls-1" d="M341.4,520.58a66.68,66.68,0,0,1-66.69-66.69v-34.4a191.54,191.54,0,0,1,108.06-171.8c.54-.27,1.08-.53,1.6-.76a57.18,57.18,0,1,0-81-52A66.7,66.7,0,0,1,170,195C170,89.88,255.43,4.41,360.5,4.41S551.05,89.88,551.05,195A191.15,191.15,0,0,1,441.21,367.59l-.44.22a57.52,57.52,0,0,0-32.68,51.68v34.4A66.69,66.69,0,0,1,341.4,520.58Z"/><path class="cls-1" d="M342.53,716.59a71.71,71.71,0,1,1,71.71-71.7A71.78,71.78,0,0,1,342.53,716.59Z"/></svg>