<?xml version="1.0" encoding="utf-8"?>
<!-- Generator: Adobe Illustrator 23.1.1, SVG Export Plug-In . SVG Version: 6.00 Build 0)  -->
<svg version="1.1" id="Layer_1" xmlns="http://www.w3.org/2000/svg" xmlns:xlink="http://www.w3.org/1999/xlink" x="0px" y="0px"
	 viewBox="0 0 1920 849.91" style="enable-background:new 0 0 1920 849.91;" xml:space="preserve">
<style type="text/css">
	.st0{fill:#FFFFFF;}
</style>
<path class="st0" d="M1873.55,340.26L1363.71,15.54c-46.61-29.53-108.75-15.69-138.38,30.74c-14.43,22.55-19.19,49.4-13.42,75.59
	c5.8,26.25,21.46,48.66,44.15,63.11l199.43,127H112.95C50.67,311.97,0,362.65,0,424.92c0,62.27,50.67,112.95,112.95,112.95H1455.5
	l-199.41,127c-22.69,14.42-38.35,36.81-44.18,63.06c-5.8,26.19-1.04,53.05,13.42,75.63c18.53,29.01,50.2,46.34,84.65,46.34
	c19,0,37.56-5.39,53.89-15.69l509.77-324.69c29.02-18.56,46.36-50.19,46.36-84.6S1902.67,358.88,1873.55,340.26z"/>
</svg>
