<?xml version="1.0" encoding="utf-8"?>
<!-- Generator: Adobe Illustrator 23.1.1, SVG Export Plug-In . SVG Version: 6.00 Build 0)  -->
<svg version="1.1" id="Layer_1" xmlns="http://www.w3.org/2000/svg" xmlns:xlink="http://www.w3.org/1999/xlink" x="0px" y="0px"
	 viewBox="0 0 1920 849.91" style="enable-background:new 0 0 1920 849.91;" xml:space="preserve">
<style type="text/css">
	.st0{fill:#FFFFFF;}
</style>
<path class="st0" d="M46.45,340.26L556.29,15.54C602.9-13.99,665.04-0.16,694.67,46.28c14.43,22.55,19.19,49.4,13.42,75.59
	c-5.8,26.25-21.46,48.66-44.15,63.11l-199.43,127h1342.54c62.27,0,112.95,50.67,112.95,112.95c0,62.27-50.67,112.95-112.95,112.95
	H464.5l199.41,127c22.69,14.42,38.35,36.81,44.18,63.06c5.8,26.19,1.04,53.05-13.42,75.63c-18.53,29.01-50.2,46.34-84.65,46.34
	c-19,0-37.56-5.39-53.89-15.69L46.36,509.52C17.33,490.96,0,459.33,0,424.92C0,390.51,17.33,358.88,46.45,340.26z"/>
</svg>
