<?xml version="1.0" encoding="utf-8"?>
<!-- Generator: Adobe Illustrator 23.0.6, SVG Export Plug-In . SVG Version: 6.00 Build 0)  -->
<svg version="1.1" id="Layer_1" xmlns="http://www.w3.org/2000/svg" xmlns:xlink="http://www.w3.org/1999/xlink" x="0px" y="0px"
	 viewBox="0 0 1722 1080" style="enable-background:new 0 0 1722 1080;" xml:space="preserve">
<style type="text/css">
	.st0{fill:#FFFFFF;}
</style>
<g>
	<path class="st0" d="M1405.7,486.3c-35.6,0-69.7,6.3-101.3,17.8l-117.9-240.5l207.7-207.7c9.1-9.1,11.7-22.6,6.8-34.5
		c-4.9-11.8-16.4-19.5-29.2-19.5h-199c-17.5,0-31.7,14.2-31.7,31.6c0,17.5,14.2,31.6,31.7,31.6h122.7L1135,225.7H772.5h-55.7h-84.6
		l-20-57.9h41.1c17.4,0,31.6-14.2,31.6-31.6c0-17.5-14.2-31.6-31.6-31.6h-171c-17.5,0-31.7,14.2-31.7,31.6
		c0,17.5,14.2,31.6,31.7,31.6h63l26.8,77.3L429,508.6c-34.8-14.4-72.8-22.3-112.7-22.3C152.9,486.3,20,619.3,20,782.7
		C20,946.1,152.9,1079,316.3,1079s296.4-132.9,296.4-296.3c0-9.2-0.5-18.4-1.3-27.4l54.7-11.1c18.3,33.7,54,56.5,94.9,56.5
		c59.6,0,108-48.4,108-108c0-9.3-1.3-18.2-3.5-26.8l344.5-210.6l37.7,76.9c-83,52.6-138.3,145.2-138.3,250.5
		c0,163.4,133,296.3,296.3,296.3c163.4,0,296.4-132.9,296.4-296.3C1702,619.3,1569.1,486.3,1405.7,486.3z M454.2,594.9
		c37.5,27.6,66.5,66.2,82.1,111l-159.9,32.3L454.2,594.9z M316.3,1015.8c-128.5,0-233.1-104.6-233.1-233.1
		c0-128.5,104.6-233.1,233.1-233.1c29,0,56.7,5.4,82.3,15.1L288.5,767.6c-5.8,10.8-4.9,24,2.4,33.9c6,8.2,15.5,12.8,25.4,12.8
		c2.1,0,4.2-0.2,6.3-0.6l226.3-45.8c0.3,4.9,0.5,9.8,0.5,14.7C549.4,911.2,444.9,1015.8,316.3,1015.8z M653.5,682.2l-54.7,11
		c-20-63.2-60.8-117.3-114.3-154.3L600,326.1l96.8,280C673,623.8,656.6,651,653.5,682.2z M761,737.5c-24.7,0-44.7-20.1-44.7-44.8
		c0-24.7,20.1-44.7,44.7-44.7c24.7,0,44.7,20.1,44.7,44.7C805.7,717.4,785.6,737.5,761,737.5z M832.4,612
		c-19.1-16.9-44.1-27.2-71.5-27.2c-1.5,0-3,0.2-4.5,0.2L654.1,288.9h62.7h55.7h355.9l53.6,109.3L832.4,612z M1405.7,1015.8
		c-128.5,0-233.1-104.6-233.1-233.1c0-80.4,40.9-151.4,103-193.3l101.6,207.3c5.5,11.2,16.7,17.7,28.4,17.7c4.7,0,9.4-1,13.9-3.2
		c15.7-7.7,22.1-26.6,14.5-42.3l-101.6-207.3c23-7.7,47.7-11.9,73.2-11.9c128.5,0,233.1,104.6,233.1,233.1
		C1638.8,911.2,1534.2,1015.8,1405.7,1015.8z"/>
</g>
</svg>
