<?xml version="1.0" encoding="utf-8"?>
<!-- Generator: Adobe Illustrator 24.0.3, SVG Export Plug-In . SVG Version: 6.00 Build 0)  -->
<svg version="1.1" id="Layer_1" xmlns="http://www.w3.org/2000/svg" xmlns:xlink="http://www.w3.org/1999/xlink" x="0px" y="0px"
	 viewBox="0 0 1722 1080" style="enable-background:new 0 0 1722 1080;" xml:space="preserve">
<style type="text/css">
	.st0{fill:#FFFFFF;}
	.st1{fill:#FFFFFF;stroke:#FFFFFF;stroke-width:30;stroke-linejoin:round;stroke-miterlimit:10;}
</style>
<g>
	<path class="st0" d="M740.2,308.1c1.4,0.4,2.9,0.6,4.3,0.6c5.7,0,11.1-3.3,13-8.6c9.1-25.2,27.9-46.7,52.9-60.4
		c6.5-3.5,8.6-11.2,4.7-17.1c-3.9-5.9-12.3-7.8-18.7-4.3c-30.7,16.8-53.7,43.1-64.8,74C729.1,298.9,733,306,740.2,308.1z"/>
	<path class="st0" d="M1012.8,646.8H709.2c-7.5,0-13.6,5.6-13.6,12.5s6.1,12.5,13.6,12.5h303.5c7.5,0,13.6-5.6,13.6-12.5
		S1020.3,646.8,1012.8,646.8z"/>
	<path class="st0" d="M1012.8,812H709.2c-7.5,0-13.6,5.6-13.6,12.5c0,6.9,6.1,12.5,13.6,12.5h303.5c7.5,0,13.6-5.6,13.6-12.5
		C1026.4,817.6,1020.3,812,1012.8,812z"/>
	<path class="st0" d="M1012.8,973.4H709.2c-7.5,0-13.6,5.6-13.6,12.5s6.1,12.5,13.6,12.5h303.5c7.5,0,13.6-5.6,13.6-12.5
		S1020.3,973.4,1012.8,973.4z"/>
	<path class="st0" d="M1012.8,481.6H709.2c-7.5,0-13.6,5.6-13.6,12.5c0,6.9,6.1,12.5,13.6,12.5h303.5c7.5,0,13.6-5.6,13.6-12.5
		C1026.4,487.2,1020.3,481.6,1012.8,481.6z"/>
	<path class="st0" d="M1012.8,338.6H709.2c-7.5,0-13.6,5.6-13.6,12.5c0,6.9,6.1,12.5,13.6,12.5h303.5c7.5,0,13.6-5.6,13.6-12.5
		C1026.4,344.2,1020.3,338.6,1012.8,338.6z"/>
	<path class="st1" d="M1082.5,446.8v-59.1c0-14.9-8.1-28.7-21.2-37.1v-19.9c0-75-50-142.2-125.3-170.1v-12.4h17.2V72.3
		c0-25.2-22.4-45.8-50-45.8h-84.5c-27.6,0-50,20.5-50,45.8v75.9H786v12.4c-75.4,27.9-125.3,95.1-125.3,170.1v19.9
		c-13.1,8.4-21.2,22.2-21.2,37.1v59.1c0,14.9,8.1,28.7,21.2,37.1v33c-13.1,8.4-21.2,22.2-21.2,37.1v59.1c0,14.9,8.1,28.7,21.2,37.1
		v33c-13.1,8.4-21.2,22.2-21.2,37.1v59.1c0,14.9,8.1,28.7,21.2,37.1v33c-13.1,8.4-21.2,22.2-21.2,37.1v59.1
		c0,14.9,8.1,28.7,21.2,37.1v70.7h400.7v-70.7c13.1-8.4,21.2-22.2,21.2-37.1v-59.1c0-14.9-8.1-28.7-21.2-37.1v-33
		c13.1-8.4,21.2-22.2,21.2-37.1v-59.1c0-14.9-8.1-28.7-21.2-37.1v-33c13.1-8.4,21.2-22.2,21.2-37.1v-59.1c0-14.9-8.1-28.7-21.2-37.1
		v-33C1074.5,475.5,1082.5,461.7,1082.5,446.8z M796,96.5V72.3c0-11.5,10.2-20.8,22.7-20.8h84.5c12.5,0,22.7,9.3,22.7,20.8v24.2
		v26.7h-17.2h-95.5H796V96.5z M1055.3,446.8c0,7.9-5.2,15.2-13.1,18.5l-8.1,3.3v63.6l8.1,3.3c8,3.3,13.1,10.5,13.1,18.4v59.1
		c0,7.9-5.2,15.2-13.1,18.4l-8.1,3.3v63.7l8.1,3.3c8,3.3,13.1,10.5,13.1,18.4v59.1c0,7.9-5.2,15.2-13.1,18.4l-8.1,3.3v63.6l8.1,3.3
		c8,3.3,13.1,10.5,13.1,18.5v59.1c0,7.9-5.2,15.2-13.1,18.4l-8.1,3.3v61.1H687.9v-61.1l-8.1-3.3c-8-3.3-13.1-10.5-13.1-18.4v-59.1
		c0-7.9,5.2-15.2,13.1-18.5l8.1-3.3v-63.6l-8.1-3.3c-8-3.3-13.1-10.5-13.1-18.4v-59.1c0-7.9,5.1-15.2,13.1-18.4l8.1-3.3v-63.7
		l-8.1-3.3c-8-3.3-13.1-10.5-13.1-18.4v-59.1c0-7.9,5.1-15.2,13.1-18.4l8.1-3.3v-63.6l-8.1-3.3c-8-3.3-13.1-10.5-13.1-18.5v-59.1
		c0-7.9,5.1-15.2,13.1-18.4l8.1-3.3v-35.2c0-67.3,46.7-127.4,116.2-149.6l9.2-2.9v-30h95.5v30l9.2,2.9
		c69.5,22.2,116.2,82.3,116.2,149.6v35.2l8.1,3.3c8,3.3,13.1,10.5,13.1,18.4V446.8z"/>
</g>
</svg>
