<?xml version="1.0" encoding="utf-8"?>
<!-- Generator: Adobe Illustrator 23.1.1, SVG Export Plug-In . SVG Version: 6.00 Build 0)  -->
<svg version="1.1" id="Layer_1" xmlns="http://www.w3.org/2000/svg" xmlns:xlink="http://www.w3.org/1999/xlink" x="0px" y="0px"
	 viewBox="0 0 500 42" style="enable-background:new 0 0 500 42;" xml:space="preserve">
<style type="text/css">
	.st0{fill:#FFFFFF;}
</style>
<g>
	<path class="st0" d="M14.5,33.4C7.3,33.4,2,27.9,2,20.9v-0.1C2,13.9,7.2,8.3,14.7,8.3c4.6,0,7.3,1.5,9.6,3.8l-3.4,3.9
		c-1.9-1.7-3.8-2.7-6.2-2.7c-4.1,0-7,3.4-7,7.6v0.1c0,4.2,2.9,7.6,7,7.6c2.8,0,4.5-1.1,6.4-2.8l3.4,3.4
		C21.9,31.7,19.2,33.4,14.5,33.4z"/>
	<path class="st0" d="M52.2,33l-5.2-7.8h-4.2V33h-5.3V8.7h11.1c5.7,0,9.2,3,9.2,8v0.1c0,3.9-2.1,6.4-5.2,7.5l5.9,8.7H52.2z M52.3,17
		c0-2.3-1.6-3.5-4.2-3.5h-5.3v7h5.4C50.8,20.5,52.3,19.1,52.3,17L52.3,17z"/>
	<path class="st0" d="M71.4,33V8.7h5.3V33H71.4z"/>
	<path class="st0" d="M100.2,33.3c-3.7,0-7.4-1.3-10.3-3.9l3.2-3.8c2.2,1.8,4.5,3,7.3,3c2.2,0,3.5-0.9,3.5-2.3v-0.1
		c0-1.4-0.8-2-4.9-3.1c-4.9-1.3-8.1-2.6-8.1-7.4v-0.1c0-4.4,3.5-7.3,8.5-7.3c3.5,0,6.6,1.1,9,3.1l-2.8,4c-2.2-1.5-4.3-2.4-6.3-2.4
		c-2,0-3.1,0.9-3.1,2.1v0.1c0,1.6,1,2.1,5.2,3.2c4.9,1.3,7.7,3.1,7.7,7.3v0.1C109.1,30.6,105.4,33.3,100.2,33.3z"/>
	<path class="st0" d="M132.9,13.6V33h-5.3V13.6h-7.4V8.7h20.1v4.9H132.9z"/>
	<path class="st0" d="M153.4,33V8.7h5.3V33H153.4z"/>
	<path class="st0" d="M190.5,33l-11.8-15.5V33h-5.3V8.7h4.9l11.4,15v-15h5.3V33H190.5z"/>
	<path class="st0" d="M227.7,33l-2.2-5.5h-10.3L213,33h-5.4l10.4-24.5h4.9L233.3,33H227.7z M220.3,14.9l-3.2,7.9h6.5L220.3,14.9z"/>
	<path class="st0" d="M275.8,13.6V33h-5.3V13.6h-7.4V8.7h20.1v4.9H275.8z"/>
	<path class="st0" d="M311,33l-2.2-5.5h-10.3l-2.2,5.5h-5.4l10.4-24.5h4.9L316.6,33H311z M303.6,14.9l-3.2,7.9h6.5L303.6,14.9z"/>
	<path class="st0" d="M343.8,33l-5.2-7.8h-4.2V33H329V8.7h11.1c5.7,0,9.2,3,9.2,8v0.1c0,3.9-2.1,6.4-5.2,7.5L350,33H343.8z
		 M343.9,17c0-2.3-1.6-3.5-4.2-3.5h-5.3v7h5.4C342.4,20.5,343.9,19.1,343.9,17L343.9,17z"/>
	<path class="st0" d="M384.5,33.7l-2.7-2.4c-2.1,1.3-4.5,2.1-7.2,2.1c-7.5,0-12.9-5.6-12.9-12.5v-0.1c0-6.9,5.5-12.6,13-12.6
		c7.5,0,12.9,5.6,12.9,12.5v0.1c0,2.5-0.8,5-2.2,7l2.5,2.1L384.5,33.7z M382,20.8c0-4.2-3.1-7.6-7.4-7.6s-7.3,3.4-7.3,7.6v0.1
		c0,4.2,3.1,7.6,7.4,7.6c1.2,0,2.3-0.2,3.2-0.7l-4-3.4l3.4-3.8l4,3.6C381.8,23.2,382,22.1,382,20.8L382,20.8z"/>
	<path class="st0" d="M411.1,33.4c-6.5,0-10.5-3.6-10.5-10.8V8.7h5.3v13.8c0,4,2,6,5.2,6c3.3,0,5.2-2,5.2-5.8V8.7h5.3v13.7
		C421.8,29.8,417.7,33.4,411.1,33.4z"/>
	<path class="st0" d="M436.2,33V8.7h5.3V33H436.2z"/>
	<path class="st0" d="M473.3,33l-11.8-15.5V33h-5.3V8.7h4.9l11.4,15v-15h5.3V33H473.3z"/>
	<path class="st0" d="M492.7,33V8.7h5.3V33H492.7z"/>
</g>
</svg>
