<svg id="Layer_1" data-name="Layer 1" xmlns="http://www.w3.org/2000/svg" viewBox="0 0 31.69 39.92">
  <title>Export_Animal</title>
  <g>
    <g>
      <polygon points="23.57 39.92 26.84 37.94 23.27 31.08 31.69 31.47 13.31 12.43 13.31 38.88 20.33 32.33 23.57 39.92" style="fill: #ccc;opacity: 0.21"/>
      <g>
        <polygon points="12.91 12.69 12.91 36.99 19.64 30.71 22.93 38.41 25.4 36.92 21.66 29.74 29.74 30.11 12.91 12.69"/>
        <path d="M1388.41,789l-3.25-7.59-7,6.55V761.5l18.38,19-8.43-.39,3.58,6.86Zm-2.92-9.12,3.34,7.82,1.66-1-3.9-7.5,7.72.36-15.26-15.81v22.16Z" transform="translate(-1365.68 -749.92)" style="fill: #fff"/>
      </g>
    </g>
    <g>
      <path d="M1378.62,757.24a.81.81,0,0,1-.81-.81v-5.7a.81.81,0,0,1,1.62,0v5.7A.81.81,0,0,1,1378.62,757.24Z" transform="translate(-1365.68 -749.92)" style="fill: #fff"/>
      <path d="M1383.16,759.12a.83.83,0,0,1-.57-.23.81.81,0,0,1,0-1.15l4-4a.81.81,0,0,1,1.15,1.15l-4,4A.85.85,0,0,1,1383.16,759.12Z" transform="translate(-1365.68 -749.92)" style="fill: #fff"/>
      <path d="M1390.74,763.67H1385a.82.82,0,0,1-.81-.82.81.81,0,0,1,.81-.81h5.7a.82.82,0,0,1,.82.81A.82.82,0,0,1,1390.74,763.67Z" transform="translate(-1365.68 -749.92)" style="fill: #fff"/>
      <path d="M1370.05,772.24a.82.82,0,0,1-.58-.24.83.83,0,0,1,0-1.15l4-4a.81.81,0,1,1,1.15,1.15l-4,4A.8.8,0,0,1,1370.05,772.24Z" transform="translate(-1365.68 -749.92)" style="fill: #fff"/>
      <path d="M1372.2,763.67h-5.7a.82.82,0,0,1-.82-.82.82.82,0,0,1,.82-.81h5.7a.81.81,0,0,1,.81.81A.82.82,0,0,1,1372.2,763.67Z" transform="translate(-1365.68 -749.92)" style="fill: #fff"/>
      <path d="M1374.08,759.12a.85.85,0,0,1-.58-.23l-4-4a.83.83,0,0,1,0-1.15.81.81,0,0,1,1.15,0l4,4a.81.81,0,0,1,0,1.15A.83.83,0,0,1,1374.08,759.12Z" transform="translate(-1365.68 -749.92)" style="fill: #fff"/>
      <path d="M1378.62,757.24a.81.81,0,0,1-.81-.81v-5.7a.81.81,0,0,1,1.62,0v5.7A.81.81,0,0,1,1378.62,757.24Z" transform="translate(-1365.68 -749.92)" style="fill: #fff"/>
    </g>
  </g>
</svg>
