<svg id="Layer_1" data-name="Layer 1" xmlns="http://www.w3.org/2000/svg" viewBox="0 0 41.5 28.36">
  <title>Desktop_Timeline</title>
  <g>
    <g>
      <g style="opacity: 0.21">
        <polygon points="28.05 28.36 31.32 26.37 27.75 19.51 36.18 19.9 17.79 0.85 17.79 27.32 24.81 20.76 28.05 28.36" style="fill: #ccc"/>
      </g>
      <g>
        <polygon points="17.38 1.11 17.38 25.43 24.12 19.14 27.41 26.85 29.88 25.36 26.14 18.17 34.22 18.55 17.38 1.11"/>
        <path d="M1388,783.2l-3.24-7.59-7,6.55V755.7l18.39,19-8.43-.39,3.57,6.87Zm-2.92-9.12,3.34,7.82,1.67-1-3.91-7.51,7.73.36-15.28-15.82v22.17Z" transform="translate(-1360.78 -755.7)" style="fill: #fff"/>
      </g>
    </g>
    <polygon points="30.47 6.93 39.07 6.93 35.83 8.55 36.17 9.23 41.5 6.55 36.17 3.88 35.83 4.55 39.07 6.18 30.47 6.18 30.47 6.93" style="fill: #fff"/>
    <polygon points="11.03 6.18 2.43 6.18 5.67 4.55 5.33 3.88 0 6.56 5.33 9.23 5.67 8.55 2.43 6.93 11.03 6.93 11.03 6.18" style="fill: #fff"/>
  </g>
</svg>
