<?xml version="1.0" encoding="utf-8"?>
<!-- Generator: Adobe Illustrator 23.1.1, SVG Export Plug-In . SVG Version: 6.00 Build 0)  -->
<svg version="1.1" id="Layer_1" xmlns="http://www.w3.org/2000/svg" xmlns:xlink="http://www.w3.org/1999/xlink" x="0px" y="0px"
	 viewBox="0 0 41.5 28.4" style="enable-background:new 0 0 41.5 28.4;" xml:space="preserve">
<style type="text/css">
	.st0{opacity:0.21;}
	.st1{fill:#CCCCCC;}
	.st2{fill:#FFFFFF;}
</style>
<title>Desktop_Timeline</title>
<g>
	<g>
		<g>
			<g class="st0">
				<polygon class="st1" points="28,28.4 31.3,26.4 27.8,19.5 36.2,19.9 17.8,0.9 17.8,27.3 24.8,20.8 				"/>
			</g>
			<g>
				<polygon points="17.4,1.1 17.4,25.4 24.1,19.1 27.4,26.9 29.9,25.4 26.1,18.2 34.2,18.5 				"/>
				<path class="st2" d="M27.2,27.5L24,19.9l-7,6.5V0l18.4,19l-8.4-0.4l3.6,6.9L27.2,27.5z M24.3,18.4l3.3,7.8l1.7-1l-3.9-7.5
					l7.7,0.4L17.8,2.2v22.2L24.3,18.4z"/>
			</g>
		</g>
	</g>
	<path class="st2" d="M10.2,5.7H3.5l1.3-1.2c0.4-0.4,0.4-1,0-1.4C4.6,2.8,4.3,2.7,4.1,2.7C3.8,2.7,3.6,2.8,3.4,3L0.3,6
		C0.1,6.2-0.1,6.5,0,6.8c0,0.3,0.1,0.5,0.4,0.7c1.1,0.9,2.9,2.4,3.1,2.6s0.4,0.3,0.7,0.3c0.4,0,0.8-0.3,0.9-0.7c0-0.3-0.1-0.7-0.4-1
		l0,0L4.6,8.6C4.5,8.5,4.4,8.4,4.2,8.2C4,8.1,3.7,7.8,3.3,7.5h6.8c0.5,0,0.9-0.4,0.9-0.9C11.1,6.1,10.7,5.7,10.2,5.7z"/>
	<path class="st2" d="M30.5,6.6c0,0.5,0.4,0.9,0.9,0.9h6.8c-0.4,0.3-0.7,0.6-0.9,0.7c-0.2,0.2-0.3,0.3-0.4,0.4l-0.1,0.1l0,0
		c-0.3,0.3-0.4,0.7-0.4,1c0.1,0.4,0.5,0.7,0.9,0.7c0.3,0,0.5-0.1,0.7-0.3c0.2-0.2,2-1.7,3.1-2.6c0.3-0.2,0.4-0.4,0.4-0.7
		c0.1-0.3-0.1-0.6-0.3-0.8l-3.1-3c-0.2-0.2-0.4-0.3-0.7-0.3c-0.2,0-0.5,0.1-0.7,0.4c-0.4,0.4-0.4,1,0,1.4L38,5.7h-6.7
		C30.8,5.7,30.4,6.1,30.5,6.6z"/>
</g>
</svg>
