<?xml version="1.0" encoding="utf-8"?>
<!-- Generator: Adobe Illustrator 24.0.3, SVG Export Plug-In . SVG Version: 6.00 Build 0)  -->
<svg version="1.1" id="Layer_1" xmlns="http://www.w3.org/2000/svg" xmlns:xlink="http://www.w3.org/1999/xlink" x="0px" y="0px"
	 viewBox="0 0 1722 1080" style="enable-background:new 0 0 1722 1080;" xml:space="preserve">
<style type="text/css">
	.st0{fill:#FFFFFF;}
</style>
<g>
	<path class="st0" d="M1546.2,593.2L1546.2,593.2c-3.3-2.6-7-4.9-10.9-6.9l6.1-6.1c6.9-6.9,9.3-17,6.2-26.4
		c-6.8-20.3-22.7-47.7-43.8-75.1c-25.8-33.6-58-65.9-93.2-93.5c-43.3-34-90.8-60.9-141.3-79.9c-59.4-22.5-122.5-33.9-187.6-33.9
		c-40.7,0-85.4,4-132.8,11.9c-0.3-0.5-0.7-1-1-1.5c-11.5-15.4-41.7-55.3-75.8-92.3c-44.4-48.2-77.8-72.7-99.4-72.7
		c-27.9,0-93.5,63.3-112.9,82.7c-40.4,40.3-83.5,91.2-88.8,113.8c-5.8,25.2,8.6,56.7,19.2,75.5c-15.1,5.7-29.9,11.4-43.1,16.4
		c-54.9,21-111.6,42.7-127.6,42.7c-1.4,0-7.1-1.7-21.5-24.1c-9.4-14.6-19.3-32.9-27.2-47.5l-0.1-0.2c-39-72.3-92.5-171.2-194-171.2
		c-14.2,0-25.7,11.6-25.7,25.8c0,85.6,14.5,140.9,27.4,189.9c9,34.3,16.8,64,16.8,97V540c0,33.1-7.8,62.7-16.8,97.1
		C165.5,686,151,741.5,151,826.9c0,14.2,11.6,25.7,25.7,25.7c101.5,0,155-98.9,194-171l0.1-0.2c7.9-14.7,17.9-33,27.2-47.5
		c9.2-14.3,14.8-20.2,18-22.6c5.1,81.8,88.3,186.7,140.6,234.5c29.8,27.3,42.2,55.5,36.5,83.7c-0.8,4-2.9,14.4,5,24.1
		c5,6,12.2,9.4,20,9.4c31.2,0,69.6-24.6,89.8-39.2c27-19.7,53.4-44.6,64.1-60.6c0.5-0.8,1-1.7,1.5-2.5c35.8,17.9,71,31.8,104.8,41.4
		c39.2,11.1,78,16.7,115.1,16.7c64.7,0,134.1-10.3,206.2-30.4c62.9-17.6,127-42.8,185.2-72.8c53.8-27.8,100.1-58.1,133.8-87.9
		c23.9-21.1,52.4-51.6,52.4-77.5C1571,619.2,1557.5,602.1,1546.2,593.2z M892.6,294.2c-96.8,21.1-190.2,53.4-253.4,76.5
		c-10.4-16.4-19.4-38.9-18.1-45.4c3.4-11.2,30.6-44.2,68-82.3c36.1-36.9,69.6-66,84.3-73.7C791.6,178.6,842.2,229.3,892.6,294.2z
		 M1390,433.3c53.7,44.3,88.1,91.9,102.9,122.7l-32,32.1c-8.2,8.2-9.9,20.8-4.2,30.9c5.7,10,17.4,15,28.6,12.3
		c5-1.2,21.9-3.1,29.2,2.6c3.2,2.6,5,8.1,5,16.1c-2.8,18.2-63.6,72.7-166.9,125c-0.1,0-0.2,0-0.2-0.1
		c-79.2-17.9-134.5-87.3-134.5-168.6C1217.9,511.1,1295,433.8,1390,433.3z M228.1,650.2L228.1,650.2c9.5-36.3,18.4-70.5,18.4-110.2
		v-22.1c0-39.7-8.9-73.9-18.4-110.1v-0.1c-10.4-39.7-22.2-84.5-25-147.2c55.1,16,90.8,81.9,122.3,140.3
		c29.8,55.1,53.4,98.7,94.1,98.7c24.4,0,66.9-15.8,146.1-46.1c135.7-51.9,340.9-130.4,516.2-130.4c48.7,0,96.2,6.9,141.4,20.7
		c36.9,11.2,72.5,26.9,106,46.9c-44.6,12.8-84.8,39.6-114,76.2c-15.5,19.4-27.5,41.1-35.9,64.4c-8.6,24.1-13,49.4-13,75.1
		c0,43.1,12.1,84.8,34.8,120.8c21.1,33.1,50.4,60,85.2,78.1c-71,29.1-177.2,62.3-293,62.3c-170.7,0-334.5-135.7-442.8-225.4l0,0
		c-68.1-56.5-102.2-83.6-131-83.6c-40.7,0-64.2,43.6-94.1,98.8c-31.5,58.3-67.1,124.2-122.3,140.3
		C206,734.7,217.7,689.9,228.1,650.2z M517.7,681.7c57.6,47.7,129,106.9,210.5,154.5c-14.6,20.6-55.6,51.7-82.9,66.1
		c-5-41.7-31.7-74.2-53.9-94.4c-42-38.4-92.8-103.7-114.1-159.3C490.8,659.5,505,671.1,517.7,681.7z"/>
	<path class="st0" d="M1390.8,609.9c26.4,0,47.8-21.5,47.8-47.8s-21.5-47.8-47.8-47.8c-26.4,0-47.9,21.5-47.9,47.8
		S1364.4,609.9,1390.8,609.9z"/>
	<path class="st0" d="M983.8,806.8l110.4,44.1c3.1,1.2,6.3,1.8,9.6,1.8c4,0,7.9-0.9,11.5-2.7l88.3-44.1c6.1-3.1,10.7-8.3,12.9-14.9
		c2.1-6.5,1.7-13.5-1.4-19.7c-3.1-6.2-8.3-10.7-14.9-12.9c-4.1-1.4-8.4-1.7-12.6-0.9c4.8-4.5,7.6-10.6,8-17.1
		c0.9-14.1-9.9-26.4-24.1-27.3c-1.3-0.1-32.8-2.1-72.9,3.3c-51.7,7-92.6,22.7-121.7,46.7c-7,5.8-10.5,14.9-9.1,23.8
		C969.4,795.7,975.5,803.4,983.8,806.8z M1102.6,798.7l-48.9-19.6c50.3-17.4,107.9-15.2,114.7-14.8h0.1c1,0.1,2,0.1,3,0.1
		L1102.6,798.7z"/>
</g>
</svg>
