<svg id="content" xmlns="http://www.w3.org/2000/svg" xmlns:xlink="http://www.w3.org/1999/xlink" viewBox="0 0 1338 256"><defs><style>.cls-1{fill:none;}.cls-2{clip-path:url(#clip-path);}.cls-3{fill:#fff;}</style><clipPath id="clip-path"><rect class="cls-1" width="1338" height="256"/></clipPath></defs><title>gac</title><g class="cls-2"><path class="cls-3" d="M504.54,160,539.1,68.35h13.31L587,160H573.91l-8.83-24.83H526.55l-9,24.83Zm26-35.84H561L546,82.82h-.51Z"/><path class="cls-3" d="M605,97.28v10.24h.51a16.26,16.26,0,0,1,7.61-8.64,24.53,24.53,0,0,1,12.23-3.14,38.56,38.56,0,0,1,4.22.26v11.52a45.41,45.41,0,0,0-4.73-.26q-8.46,0-13.89,4.93t-5.44,13.51V160H593.75V97.28ZM669.53,161q-9.85,0-15-5.24t-5.19-14.85V108h-11V97.28h11V78.08h11.78v19.2h15.36V108H661.08v32q0,10.25,8.45,10.24a12.61,12.61,0,0,0,5.37-1l4.1,10.11A23.83,23.83,0,0,1,669.53,161Z"/><path class="cls-3" d="M709.72,162.05q-10.5,0-17.34-5.12a30.23,30.23,0,0,1-10-12.8l10.49-4.35q5,11.78,17,11.77a15.56,15.56,0,0,0,9-2.43,7.43,7.43,0,0,0,3.52-6.4q0-6.15-8.58-8.32l-12.67-3.07a30.23,30.23,0,0,1-11.39-5.83,14,14,0,0,1-5.37-11.58q0-8.33,7.35-13.5a29.55,29.55,0,0,1,17.48-5.19A29.07,29.07,0,0,1,724.05,99a21.28,21.28,0,0,1,9.35,10.81l-10.24,4.23q-3.46-8.33-14.34-8.32A16.73,16.73,0,0,0,700,107.9a6.64,6.64,0,0,0-3.58,5.89q0,5.38,8.32,7.3L717.14,124q8.83,2.06,13.06,7a17,17,0,0,1,4.22,11.27,17.45,17.45,0,0,1-6.91,14.08Q720.6,162,709.72,162.05Z"/><path class="cls-3" d="M838.74,127.23l-10.62,17,8.57,11.13-8.83,6.66-6.27-8.32a30.18,30.18,0,0,1-21.25,8.32,32.91,32.91,0,0,1-23.68-9.35,30.64,30.64,0,0,1-9.73-23,30,30,0,0,1,4.23-15.23,32.65,32.65,0,0,1,11.64-11.77q-6.64-8.84-6.65-15.24a19.75,19.75,0,0,1,6.53-15,22,22,0,0,1,15.61-6.15,19.66,19.66,0,0,1,13,4.42,23.69,23.69,0,0,1,7.49,11.07l-10.11,5.38q-3.58-9.6-10.37-9.6A10.54,10.54,0,0,0,791,80.19a9.17,9.17,0,0,0-3,7.23,13.2,13.2,0,0,0,3,8.2l30.33,39.68,8.19-13.7Zm-38.4,24.07a19.28,19.28,0,0,0,14.72-6.15L789.2,111.23a23.07,23.07,0,0,0-8.38,7.94,19.45,19.45,0,0,0-3.14,10.49,20.25,20.25,0,0,0,6.6,15.49A22.66,22.66,0,0,0,800.34,151.3Z"/><path class="cls-3" d="M918.61,162.05q-20.22,0-33.92-13.7T871,114.18q0-20.49,13.7-34.18t33.92-13.7q20.73,0,33.66,15l-8.19,7.94q-9.35-11.65-25.47-11.65a34.72,34.72,0,0,0-25.28,10.11Q883,97.79,883,114.18t10.3,26.49a34.72,34.72,0,0,0,25.28,10.11q16.51,0,28.16-13.31l8.19,8.19a44.57,44.57,0,0,1-15.74,12A48.12,48.12,0,0,1,918.61,162.05Z"/><path class="cls-3" d="M1019.86,160h-11.27v-8.7h-.51a21.87,21.87,0,0,1-8.19,7.61,23.18,23.18,0,0,1-11.65,3.14q-11.78,0-17.85-7.17t-6.08-19.2V97.28h11.77v36.48q0,17.53,15.49,17.54a14.45,14.45,0,0,0,11.9-5.89,21.37,21.37,0,0,0,4.61-13.57V97.28h11.78Z"/><path class="cls-3" d="M1046,160h-11.78V68.35H1046Z"/><path class="cls-3" d="M1088.08,161q-9.86,0-15-5.24t-5.19-14.85V108h-11V97.28h11V78.08h11.78v19.2H1095V108h-15.36v32q0,10.25,8.45,10.24a12.61,12.61,0,0,0,5.37-1l4.1,10.11A23.83,23.83,0,0,1,1088.08,161Z"/><path class="cls-3" d="M1160,160h-11.26v-8.7h-.51a22,22,0,0,1-8.2,7.61,23.17,23.17,0,0,1-11.64,3.14q-11.79,0-17.86-7.17t-6.08-19.2V97.28h11.78v36.48q0,17.53,15.48,17.54a14.46,14.46,0,0,0,11.91-5.89,21.43,21.43,0,0,0,4.61-13.57V97.28H1160Z"/><path class="cls-3" d="M1184.84,160h-11.77V97.28h11.26v10.24h.51a16.12,16.12,0,0,1,7.36-8.45A21.09,21.09,0,0,1,1203,95.74a22.49,22.49,0,0,1,8.83,1.54l-4.48,11a17.68,17.68,0,0,0-6.27-.9,15.4,15.4,0,0,0-11.33,5.06q-4.92,5.05-4.93,13.25Z"/><path class="cls-3" d="M1244.11,162.05q-14.22,0-23.11-9.47t-8.89-23.94a34.52,34.52,0,0,1,8.64-23.55,28.05,28.05,0,0,1,22.08-9.86q14,0,22.33,9.09t8.39,24.32l-.13,2.18h-49.54q.51,9.47,6.34,15a19.22,19.22,0,0,0,13.63,5.51q12.68,0,17.15-10.76l10.5,4.36a28.13,28.13,0,0,1-10.11,12.22Q1254.34,162,1244.11,162.05Zm16.89-41q-.37-5.39-4.93-10.24t-13.5-4.87a16.91,16.91,0,0,0-11.33,4.1,20.88,20.88,0,0,0-6.59,11Z"/><path class="cls-3" d="M64.72,109.57C64.72,80.64,89,57.08,118,57.08a50,50,0,0,1,36,14.47L143.83,81.66A36.55,36.55,0,0,0,118,71.42c-21.12,0-37.63,17-37.63,38.15S96.85,147.71,118,147.71c13.7,0,21.51-5.5,26.5-10.5,4.1-4.09,6.78-10,7.81-18H118V104.83h48.26a46.9,46.9,0,0,1,.77,9c0,10.75-2.94,24.06-12.42,33.54-9.21,9.6-21,14.72-36.61,14.72C89,162.05,64.72,138.5,64.72,109.57Z"/><path class="cls-3" d="M206,94.46c-18.69,0-33.92,14.21-33.92,33.79s15.23,33.8,33.92,33.8,33.92-14.34,33.92-33.8S224.69,94.46,206,94.46Zm0,54.28c-10.24,0-19.07-8.45-19.07-20.49s8.83-20.48,19.07-20.48,19.07,8.32,19.07,20.48S216.24,148.74,206,148.74Z"/><path class="cls-3" d="M280,94.46c-18.69,0-33.92,14.21-33.92,33.79s15.23,33.8,33.92,33.8,33.92-14.34,33.92-33.8S298.69,94.46,280,94.46Zm0,54.28c-10.24,0-19.07-8.45-19.07-20.49s8.83-20.48,19.07-20.48,19.07,8.32,19.07,20.48S290.24,148.74,280,148.74Z"/><path class="cls-3" d="M370.83,96.51V102h-.51c-3.33-4-9.73-7.55-17.79-7.55-16.9,0-32.39,14.85-32.39,33.92s15.49,33.67,32.39,33.67c8.06,0,14.46-3.59,17.79-7.68h.51v4.86c0,12.93-6.91,19.84-18.05,19.84-9.09,0-14.72-6.53-17-12l-12.93,5.38a32.2,32.2,0,0,0,29.95,20c17.41,0,32.13-10.24,32.13-35.21V96.51Zm-17,52.23c-10.24,0-18.82-8.58-18.82-20.36s8.58-20.61,18.82-20.61,18,8.71,18,20.61S363.92,148.74,353.81,148.74Z"/><rect class="cls-3" x="395.15" y="60.67" width="14.85" height="99.33"/><path class="cls-3" d="M450.71,148.74c-7.56,0-12.93-3.46-16.39-10.24l45.19-18.69L478,116c-2.81-7.56-11.39-21.51-28.93-21.51s-31.87,13.7-31.87,33.79c0,18.95,14.33,33.8,33.54,33.8a33.61,33.61,0,0,0,28.16-15l-11.52-7.68C463.51,145,458.26,148.74,450.71,148.74Zm-1.16-41.22c5.89,0,10.88,2.94,12.55,7.17l-30.21,12.54C431.5,114.17,442,107.52,449.55,107.52Z"/></g></svg>