<?xml version="1.0" encoding="utf-8"?>
<!-- Generator: Adobe Illustrator 23.1.1, SVG Export Plug-In . SVG Version: 6.00 Build 0)  -->
<svg version="1.1" id="Layer_1" xmlns="http://www.w3.org/2000/svg" xmlns:xlink="http://www.w3.org/1999/xlink" x="0px" y="0px"
	 viewBox="0 0 500 51" style="enable-background:new 0 0 500 51;" xml:space="preserve">
<style type="text/css">
	.st0{fill:#FFFFFF;}
</style>
<g>
	<path class="st0" d="M24.2,23.1h21c0,2.2-0.1,4.1-0.3,5.9c-0.2,1.8-0.5,3.4-1.1,4.9c-0.8,2.1-1.8,4-3.1,5.6c-1.3,1.6-2.8,3-4.6,4.1
		c-1.7,1.1-3.7,1.9-5.7,2.5c-2.1,0.6-4.3,0.9-6.6,0.9c-3.2,0-6.1-0.5-8.7-1.6c-2.6-1-4.8-2.5-6.7-4.4c-1.9-1.9-3.3-4.2-4.4-6.8
		c-1-2.6-1.6-5.6-1.6-8.8c0-3.2,0.5-6.1,1.5-8.7c1-2.6,2.5-4.9,4.4-6.8s4.2-3.3,6.8-4.4C18,4.5,20.9,4,24.2,4c4.2,0,8,0.9,11.2,2.8
		c3.2,1.8,5.7,4.7,7.6,8.5l-10,4.2c-0.9-2.2-2.2-3.8-3.6-4.8c-1.5-1-3.2-1.5-5.1-1.5c-1.6,0-3,0.3-4.3,0.9c-1.3,0.6-2.4,1.4-3.3,2.5
		c-0.9,1.1-1.6,2.4-2.2,4c-0.5,1.5-0.8,3.3-0.8,5.2c0,1.7,0.2,3.3,0.7,4.8c0.5,1.5,1.1,2.8,2,3.8c0.9,1.1,2,1.9,3.3,2.5
		c1.3,0.6,2.9,0.9,4.6,0.9c1,0,2.1-0.1,3-0.4c1-0.2,1.8-0.6,2.6-1.1s1.4-1.2,1.9-2c0.5-0.8,0.8-1.8,1-3h-8.7V23.1z"/>
	<path class="st0" d="M85.7,45.9H72.6L62.5,30.2v15.7H51.9V5.1h16.5c2.3,0,4.2,0.3,5.9,1c1.7,0.7,3.1,1.6,4.2,2.7
		c1.1,1.2,1.9,2.5,2.5,4c0.6,1.5,0.8,3.1,0.8,4.9c0,3.1-0.7,5.6-2.2,7.5s-3.7,3.2-6.6,3.9L85.7,45.9z M62.5,23.3h2
		c2.1,0,3.7-0.4,4.8-1.3c1.1-0.9,1.7-2.1,1.7-3.7c0-1.6-0.6-2.9-1.7-3.7c-1.1-0.9-2.7-1.3-4.8-1.3h-2V23.3z"/>
	<path class="st0" d="M115.1,38.8H100l-2.4,7.1H86.3l15.5-40.7h11.6l15.5,40.7h-11.3L115.1,38.8z M112.3,30.7l-4.7-13.5l-4.7,13.5
		H112.3z"/>
	<path class="st0" d="M144,20.9h15.3V5.1h10.6v40.7h-10.6V29.1H144v16.8h-10.6V5.1H144V20.9z"/>
	<path class="st0" d="M203.4,38.8h-15.1l-2.4,7.1h-11.3L190,5.1h11.6l15.5,40.7h-11.3L203.4,38.8z M200.6,30.7l-4.7-13.5l-4.7,13.5
		H200.6z"/>
	<path class="st0" d="M219.9,45.9l6.9-40.7h10.5l8.2,21.7l8.1-21.7H264l6.9,40.7h-10.5l-3.5-23.4l-9.6,23.4H243l-9.1-23.4l-3.5,23.4
		H219.9z"/>
	<path class="st0" d="M329.8,45.9h-13.2l-10.1-15.7v15.7h-10.6V5.1h16.5c2.3,0,4.2,0.3,5.9,1c1.7,0.7,3.1,1.6,4.2,2.7
		c1.1,1.2,1.9,2.5,2.5,4c0.6,1.5,0.8,3.1,0.8,4.9c0,3.1-0.7,5.6-2.2,7.5s-3.7,3.2-6.6,3.9L329.8,45.9z M306.5,23.3h2
		c2.1,0,3.7-0.4,4.8-1.3c1.1-0.9,1.7-2.1,1.7-3.7c0-1.6-0.6-2.9-1.7-3.7c-1.1-0.9-2.7-1.3-4.8-1.3h-2V23.3z"/>
	<path class="st0" d="M357.4,14.1h-12.6v6.8h11.9v9h-11.9v7h12.6v9h-23.2V5.1h23.2V14.1z"/>
	<path class="st0" d="M388.1,14.1h-12.6v6.8h11.9v9h-11.9v7h12.6v9H365V5.1h23.2V14.1z"/>
	<path class="st0" d="M403,5.1l9.8,24.8l9.9-24.8h11.5L417,45.9h-8.4L391.5,5.1H403z"/>
	<path class="st0" d="M461.6,14.1H449v6.8h11.9v9H449v7h12.6v9h-23.2V5.1h23.2V14.1z"/>
	<path class="st0" d="M491.5,15.6c-1.2-0.9-2.3-1.6-3.5-2.1c-1.2-0.4-2.3-0.7-3.3-0.7c-1.4,0-2.5,0.3-3.3,1
		c-0.9,0.6-1.3,1.5-1.3,2.5c0,0.7,0.2,1.3,0.6,1.8c0.4,0.5,1,0.9,1.7,1.2c0.7,0.3,1.5,0.6,2.4,0.9c0.9,0.3,1.8,0.5,2.6,0.8
		c3.5,1.2,6,2.7,7.6,4.6s2.4,4.4,2.4,7.5c0,2.1-0.4,4-1.1,5.7c-0.7,1.7-1.7,3.1-3.1,4.3c-1.4,1.2-3,2.1-5,2.8c-2,0.7-4.2,1-6.7,1
		c-5.1,0-9.9-1.5-14.3-4.6l4.5-8.5c1.6,1.4,3.1,2.4,4.7,3.1c1.5,0.7,3.1,1,4.6,1c1.7,0,3-0.4,3.9-1.2c0.8-0.8,1.3-1.7,1.3-2.7
		c0-0.6-0.1-1.1-0.3-1.6c-0.2-0.4-0.6-0.9-1.1-1.2c-0.5-0.4-1.2-0.7-2-1.1c-0.8-0.3-1.8-0.7-2.9-1.1c-1.4-0.4-2.7-0.9-4-1.4
		c-1.3-0.5-2.5-1.2-3.5-2.1c-1-0.9-1.9-2-2.5-3.3c-0.6-1.3-0.9-3-0.9-5s0.3-3.8,1-5.5s1.6-3,2.8-4.2c1.2-1.2,2.7-2.1,4.4-2.7
		c1.7-0.6,3.7-1,5.9-1c2,0,4.1,0.3,6.3,0.8c2.2,0.6,4.3,1.4,6.3,2.5L491.5,15.6z"/>
</g>
</svg>
