<?xml version="1.0" encoding="utf-8"?>
<!-- Generator: Adobe Illustrator 24.0.3, SVG Export Plug-In . SVG Version: 6.00 Build 0)  -->
<svg version="1.1" id="Layer_1" xmlns="http://www.w3.org/2000/svg" xmlns:xlink="http://www.w3.org/1999/xlink" x="0px" y="0px"
	 viewBox="0 0 1118 1080" style="enable-background:new 0 0 1118 1080;" xml:space="preserve">
<style type="text/css">
	.st0{fill:#FFFFFF;}
</style>
<g>
	<path class="st0" d="M673.9,603.9c-6.8,5.1-13.6,10.1-20.4,15.2c-0.4,0.3-0.8,0.7-1.2,0.9c-9.1,3.6-18.2,7.3-27.4,10.5
		c-5.2,1.8-5.8,1.8-6.6,7.4c-1.4,10.2-2.9,20.4-4.1,30.6c-0.6,5.4-0.8,10.8-1.2,16.2c-0.3,3.6-2.1,5.6-5.6,6.8
		c-7.2,2.5-13.1-0.5-17.3-5.6c-2.2-2.7-3-7.2-3-10.9c-0.2-7.5,0.5-15,0.9-22.5c0.2-3.5,0.9-7,1.1-10.6c0-0.9-0.8-2.3-1.6-2.6
		c-5-2.1-8.2-6.2-11.1-10.3c-1.3-1.8-2.1-4.5-1.9-6.7c0.5-4.9,1.5-9.8,2.7-14.7c0.8-3.3,3.4-5,6.8-5c6.7,0,10.2-4.4,9.9-10.1
		c-0.2-2.7,0-5.4,0.4-8.1c0.6-4.2-2.7-5.5-5.8-5.3c-5.8,0.5-11,2.2-16.2,5c-5.8,3-12.1,2.5-17.4-2.3c-1.6-1.5-3.9-0.7-4.2,1.4
		c-0.3,2.6-1.4,5.2,0.4,8c1,1.5,0.5,4.1,0.5,6.2c-0.1,5-0.3,10-0.5,14.9c-0.3,7.1-0.5,14.2-1,21.2c-0.3,5.5-1,10.9-1.3,16.4
		c-0.1,2.2,0,4.4,0.4,6.6c1.4,8.2,1.9,16.3-0.1,24.4c-0.6,2.4-1.6,4.8-2.6,7.1c-0.9,2.2-2.7,3.6-5.1,3.7c-4.1,0.2-8.3,0.4-12.4-0.2
		c-4.3-0.7-6.4-4.5-8.4-8c-2.6-4.7-2.4-10.1-3.3-15.2c-1.1-6-4.3-11-7.5-15.9c-4.1-6.4-9.1-12.3-12.2-19.4c-0.9-2.1-2.9-3.7-4.6-5.3
		c-0.7-0.6-2.3-0.9-3.1-0.5c-1,0.4-1.9,1.7-2.2,2.7c-1.6,6-3,12.1-4.4,18.2c-0.4,1.7-0.7,3.5-0.9,5.2c-0.2,3.9-0.5,7.8-0.5,11.6
		c0,5.1-1.1,9.9-2.8,14.6c-1.4,3.9-2.6,4.5-6.6,4c-3.4-0.4-6.8-0.5-10.1-1c-5.4-0.8-6.4-2-8-7.2c-1.2-4.2-1-8.3-0.6-12.5
		c0.1-1.5-0.1-3,0.1-4.5c1.3-12.8,4.2-25.3,7-37.8c2.1-9.5,3.3-19.1,3.6-28.9c0.1-5.3,0.1-10.4-1.7-15.5c-0.4-1.1-0.4-2.5-0.3-3.8
		c0.5-5,0.9-9.9,1.7-14.8c1.2-7.5,7.4-11.7,15.1-11.3c4.8,0.3,8.4,3,12.3,4.9c1.5,0.7,2.7,3.5,2.9,5.5c0.6,6.6,0.4,13.3,0.8,20
		c0.4,5.5,1.8,10.9,5.2,15.5c3.5,4.7,6.9,9.6,10.4,14.2c2.9,3.8,6,7.5,9,11.2c1.5,1.8,3.4,1.6,3.8-0.8c0.8-3.9,1.4-8,1.7-12
		c0.6-7.7,0.8-15.5,1.4-23.2c0.2-3.2,1.2-6.3,1.6-9.5c0.3-2.5,0.1-5,0.1-7.5c0.1-2.5,0.2-5.1,0.3-7.6c0.2-5,5.1-8.7,9.9-7.4
		c6.3,1.7,10.6,5.5,11.9,12.2c0.2,1.2,1.6,2.2,2.4,3.3c1-0.8,2.3-1.4,2.8-2.4c2-3.7,4.7-6,9-6.5c1.4-0.2,2.6-1.5,3.9-2.2
		c1.5-0.8,3.1-1.8,4.7-2.2c9-2.4,18.3-3.9,27.6-3.8c12.5,0.2,25,1.1,37.5,2c5.1,0.4,10.3,1,15.3,2.4c4.7,1.3,10.1,1.7,13.2,6.2
		c3,4.2,5.6,8.8,7.8,13.4c1.4,3,1.8,6.4,2.5,9.7c1.1,4.7,0.1,9.4-0.8,14.1c-0.2,1,0.2,2.2,0.4,3.3c1-0.5,2.3-0.8,3-1.6
		c3.9-4.5,6.6-9.7,8.8-15.2c2.6-6.4,5.6-12.7,8.9-18.9c0.7-1.4,3.2-2.2,5-2.5c6.5-1.4,13.2-2.1,19.7-3.7c12.6-3,25-6.5,37.5-9.7
		c3.6-0.9,7.2-1.9,10.9-2.4c1.6-0.2,3.5,0.2,5,0.9c4,1.8,6.1,5.1,7.4,9.3c1.6,5.6,4,10.9,3.5,17c-0.5,5.3-1.9,7.8-7.1,8.9
		c-6.6,1.4-13.3,2.4-19.9,3.8c-9.7,2-19.4,4.3-29.1,6.4c-3.9,0.9-7.7,1.8-11.6,2.5c-4.8,0.9-8.5,3.1-10.6,7.7c-0.6,1.4-2,2.5-2.7,4
		c-0.7,1.5-2,4-1.4,4.7c1.2,1.4,3.5,2.5,5.4,2.7c3.3,0.2,6.8-0.2,10.1-0.6c4.8-0.6,9.7-0.8,14.2-2.2c5.1-1.5,10-3.9,14.8-6.2
		c3.1-1.5,7.4-1,8.7,2c2.3,5.6,4.5,11.3,5.8,17.2c1.3,6-2.9,12.9-9.8,14c-8.4,1.3-16.9,2.5-25.3,3.7c-10.6,1.4-21.2,2.6-31.7,4.2
		c-2.6,0.4-5.1,2.1-7.3,3.7c-1.8,1.2-1.7,3.3-0.4,4.9c4.8,6,10.8,9.4,19.6,7.1c6.9-1.8,13.5-4.7,20.2-7.1c1.4-0.5,2.7-0.9,4.1-1.2
		c4.2-0.8,6.6,0.7,8.4,4.7c3.3,7,3,14.3,1.9,21.6c-0.5,3.6-3,6.1-6,7.8c-4.4,2.3-8.9,4.5-13.5,6.1c-3.5,1.2-7.4,2-11.1,1.9
		c-8.3-0.2-16.7-0.7-24.7-3.6c-5.8-2.1-11.5-5.1-15.5-9.7c-4.6-5.2-9-10.9-9.1-18.5c-0.1-5.1-1-10.3-0.4-15.4
		c0.7-6.2,2.1-12.5,3.9-18.5c2.1-7,4.9-13.8,7.3-20.7c0.4-1.1,0.4-2.3,0.6-3.4C674.4,604.3,674.2,604.1,673.9,603.9z M617.5,582.4
		c-0.1,0-0.2,0-0.4,0.1c0.7,3.2,1.5,6.4,2.1,9.6c1,5,2.9,5.6,7.9,4.6c5.7-1.1,10.7-4.1,15.3-7.4c1.8-1.3,3.2-3.4,4.3-5.3
		c0.9-1.6,0.5-3.3-1.7-4c-1.3-0.4-2.5-1.1-3.8-1.3c-5.9-1.1-11.7-2.6-17.6-3c-6.1-0.4-7.3,0-6.2,6
		C617.5,581.9,617.5,582.2,617.5,582.4z"/>
	<path class="st0" d="M1118,576.3c-0.1,2.5-0.1,5-0.4,7.4c-0.4,2.7-1.6,3.7-4.3,3.5c-3.9-0.3-7.7-0.9-11.6-1.1
		c-3.4-0.2-6.9-0.1-10.4,0.1c-5.5,0.3-10.9,0.7-16.4,1.1c-12.5,1-24.9,1.8-37.4,3c-5.7,0.5-11.4,1.4-17,2.7c-2.1,0.5-4.3,2-5.6,3.7
		c-2.3,3-4.2,6.3-5.7,9.7c-0.7,1.5-0.2,3.6,2.1,3.9c11.2,1.3,22.4,2.4,33.5-0.2c0.5-0.1,1.1-0.2,1.4-0.5c1.5-1.4,3.3-2.2,5.1-1.2
		c2.5,1.4,5,3,7.1,5c1.4,1.3,1.9,3.4,3.1,4.9c4.2,5.2,3.9,11.3,3.5,17.4c0,0.1,0,0.2,0,0.3c-2.3,4.6-4.4,9.4-10.1,11.1
		c-1.8,0.5-3.5,1.3-5.1,2.1c-1.8,0.9-1.9,2.3-0.8,3.7c1.2,1.4,2.3,3,3.8,4c1.7,1.2,2.2,2.6,2.1,4.5c-0.4,5.5,0,11.2-2.3,16.5
		c-0.9,2.1-2.2,3.5-4.3,4.6c-8.1,4.3-17,4.9-25.8,5.8c-4.4,0.5-8.8,1.1-13.1,1c-7.8-0.2-15.2-1.9-21.9-6.7
		c-5.5-3.9-10.4-8.2-14.5-13.5c-1.5-2-2.8-1.9-4,0.3c-2,3.6-3.8,7.3-5.7,11c-5.2,9.6-13.4,12.8-23.9,11.9
		c-7.9-0.7-15.5-2.4-22.8-5.1c-8.4-3-16.2-7-23.4-12.3c-4.9-3.6-9.8-7.2-14.6-10.9c-5.5-4.3-9.8-9.7-13.5-15.6
		c-0.3-0.5-0.6-1.1-1-1.4c-0.9-0.7-1.8-1.3-2.7-1.9c-0.5,0.8-1.1,1.6-1.4,2.5c-1.7,4.9-1.5,9.9-1.1,15c0.5,6,0.6,12,0.2,18
		c-0.2,2.5-1.6,5.1-2.9,7.4c-2.5,4.6-7,3.7-11,3c-4.8-0.9-9.2-3.1-11.1-7.8c-1.3-3.1-1.7-6.7-1.8-10.1c-0.2-5.6,0.3-11.2,0.4-16.7
		c0.1-4.1-2.1-6.1-6.2-6.3c-9.3-0.5-18.1,1.8-26.9,4c-3.6,0.9-6.7,3.1-8.4,6.8c-2,4.5-4,9.1-6.3,13.5c-2.4,4.6-4.2,9.6-8.4,13.1
		c-3.1,2.5-3.1,2.6-6.6,0.8c-2.5-1.3-5.1-2.3-7.4-3.8c-1.5-1-3.1-2.5-3.8-4.1c-3.3-7.2-2-14.2,1.6-20.8c3.1-5.8,6.9-11.4,9.9-17.2
		c1.8-3.4,2.9-7.2,4.2-10.8c0.4-1.2,0.6-2.6,0.6-3.9c-0.2-3.7,1.1-6.6,4.3-8.5c3.2-1.9,5.4-4.5,6.8-8.1c1.8-4.4,4.3-8.6,6.6-12.8
		c2.8-5.4,5.4-10.9,8.6-16.1c3.9-6.3,7.9-12.6,12.5-18.3c4.1-5,9.1-9.2,13.8-13.7c0.5-0.4,1.2-0.9,1.7-0.9c4.6,0.3,9.6,0,12.9,4
		c4.7,5.7,9.3,11.6,12.3,18.5c0.4,0.9,0.7,1.9,0.9,2.9c1.9,9.2,3.8,18.5,5.7,27.8c0.3,1.2,0.3,2.5,0.7,3.7c0.3,0.8,1.1,1.4,1.6,2.1
		c0.7-0.6,1.5-1,1.9-1.7c2.3-3.7,4.4-7.6,6.7-11.3c0.7-1.2,1.8-2.2,2.7-3.3c2.3-2.4,4.3-5.3,7.1-7.1c8.8-5.6,17.2-12,27.4-15
		c8.3-2.5,16.7-4.7,25.2-6.6c4.8-1.1,9.9-1.2,14.8-1.7c3.3-0.3,6.2,1.3,8.2,3.4c3.6,3.8,6.9,8,9.8,12.4c1.4,2.2,2.1,5,2.5,7.6
		c1.2,7.5,0.8,14.9-2.5,21.8c-1.7,3.6-4.3,6.8-6.7,10.1c-0.6,0.8-2,1.5-3,1.4c-3.9-0.1-8,0.2-11.7-0.9c-3.3-1-6.2-3.6-9.1-5.7
		c-0.8-0.6-1.1-2.2-1-3.3c0.4-4.8,0.9-9.5,1.5-14.3c0.3-2.2,0.6-4.7-1.4-5.8c-1.5-0.9-3.9-0.9-5.7-0.4c-4.2,1.3-8.4,2.9-12.4,4.7
		c-2.3,1.1-4.5,2.6-6.5,4.2c-6,4.9-11.3,10.7-15.4,17.3c-2.2,3.6-4,7.4-5.9,11.1c-0.4,0.8-0.5,1.8-0.6,2.7c-0.5,3.4,0.8,5.7,3.8,7.7
		c4.7,3,8.8,6.9,13.5,9.8c5.5,3.4,11.2,6.3,17.6,7.9c7.1,1.7,14.1,1.7,21-0.2c3.3-1,6.3-3.4,9.3-5.3c1.4-0.8,2.6-1.8,4.1-2.5
		c2.6-1.2,3.8,1,5.3,2.3c1.1,1,2,3,3.6,1.9c1.2-0.9,2.4-2.9,2.4-4.3c-0.6-13.4,5-25.2,9.4-37.2c1.5-4.1,3.9-7.9,5.5-11.9
		c0.7-1.8,1.1-4,0.8-5.9c-0.8-4,0.3-7.6,1.9-11c1.5-3.3,2.9-6.7,6.3-8.6c1.7-0.9,3.4-2,5.2-2.4c9.4-1.7,18.8-3.2,28.2-4.8
		c6.4-1.1,12.8-2.4,19.2-3.5c3.2-0.5,6.6-0.7,9.8-1.2c11.4-1.7,22.9-3.3,34.3-5.2c3.3-0.5,6.5-1.7,9.7-2.4c2.6-0.6,4.8-0.1,6.9,1.9
		c4.7,4.3,8.4,9.3,10.2,15.4C1117.7,570.9,1117.7,573.7,1118,576.3z M1012.8,658.2c9.7-1.3,19.4-2.6,29.1-4c0.7-0.1,1.9-1.5,1.7-1.8
		c-0.4-0.9-1.2-1.8-2.1-2.3c-0.7-0.4-1.8-0.2-2.7-0.3c-5.1-0.5-10.1-1.3-15.2-1.6c-6.5-0.3-13.1-0.2-19.7-0.2
		c-1.1,0-2.4-0.2-3.2,0.2c-1.2,0.6-2.3,1.6-2.9,2.8c-0.3,0.5,0.6,2.1,1.4,2.6C1003.2,656.1,1007.5,658.4,1012.8,658.2z M832.9,600.4
		c-0.4-3.3-0.7-7.1-1.3-11c-0.1-0.9-1.2-1.8-2-2.2c-0.4-0.2-1.7,0.4-2,1c-3.4,7-6.8,13.9-9.9,21c-1.6,3.5,0.4,5.6,4.2,4.8
		c1.3-0.3,2.6-0.7,3.9-0.7c3.1-0.1,5.5-1.9,6-5C832.3,605.9,832.5,603.5,832.9,600.4z"/>
	<path class="st0" d="M0.8,634c-1.5-7.7-0.1-15.3,2-22.6c1.2-4,3.6-7.8,6.1-11.2c3.9-5.4,8.5-10.3,12.2-15.8
		c4.7-7,11.7-11.5,17.6-17.3c5.1-5,11.3-8.8,16.9-13.2c3.3-2.6,6.4-5.6,9.8-8.2c7.3-5.6,15.7-8,24.9-7.2c9.5,0.8,16.5,5.4,21.1,13.7
		c0.7,1.2,0.9,2.7,1.3,4.1c1.1,3.9,2.2,7.8,3.3,11.6c1.5,5.1-1,9.5-6.1,11.3c-8.3,3-10.9,2.2-14.4-6.6c-1.4-3.6-2.8-7.6-6.9-9.3
		c-0.9-0.4-2.2-0.5-3-0.1c-6.5,3.2-13.2,6.2-19.2,10.1c-4.8,3.1-9,7.3-13.3,11.3c-4.8,4.5-9.2,9.3-13.8,14c-0.7,0.7-1.2,1.6-1.8,2.4
		c-2.7,3.6-5.8,7-8.2,10.8C25.6,618,20.5,623.6,19,631c-1,5-0.6,10.2,3,13.8c2.2,2.2,5.8,3.2,9,4.2c5.8,1.9,11.8,3.5,17.7,5
		c2.4,0.6,5,0.4,7.6,0.7c3.1,0.3,6.2,0.7,9.3,1c0.5,0.1,1,0.1,1.5,0.1c9.2-1.1,18.5-2.4,26.6-7.3c2.9-1.7,5.5-4.1,6.4-7.8
		c0.8-3.6-0.2-5.2-3.8-4.6c-4.2,0.7-8.4,1.6-12.7,2.4c-9.3,1.7-18.6,3.3-27.9,4.9c-3.7,0.6-6.4-0.6-8.2-4c-1.3-2.4-2.5-5-3.7-7.5
		c-0.2-0.4-0.5-1-0.4-1.4c0.9-5.3,0.8-10.9,4.3-15.4c1.2-1.5,3.3-2.6,5.2-3c4.1-1,8.3-1.3,12.5-2c6.4-1.2,12.8-2.7,19.3-3.8
		c4.8-0.8,9.7-1.1,14.6-1.8c3.3-0.5,6.6-1.4,9.9-2.1c6.7-1.3,13.4-1.3,19.9,1.3c0.8,0.3,1.7,1,2.1,1.8c1.8,4,3.4,8,5,12
		c0.8,2,1.3,4,1.9,6c1.1,3.9,0.7,7.5-1.5,10.9c-4.2,6.6-6.4,13.9-8.1,21.4c-1.2,5.3-2.9,10.6-3.5,16c-0.6,5.7-1.9,11.4-0.9,17.3
		c0.9,5.3,0.3,10.6-2.1,15.6c-0.5,1-1.4,1.8-2.4,2.4c-1,0.7-2.3,1.1-3.4,1.7c-3.8,2.2-7.4,3-11.4-0.1c-2-1.6-4.9-2.1-7.3-3.4
		c-0.8-0.4-1.2-1.8-1.6-2.8c-1.7-5.2-0.2-10.5-0.5-15.8c-0.1-2.6,0.3-5.2,0.4-7.8c0-1.4-0.1-2.9-0.3-4.3c-0.3-2-1.5-2.5-3.3-2
		c-6.7,1.9-13.4,4.1-20.2,5.6c-3.8,0.8-7.9,0.8-11.8,0.7c-6.5-0.2-13.1-0.1-19.4-1.2c-9.6-1.6-19-4.3-27.2-9.6c-5.4-3.5-10-8-11-15
		c-0.9-6.3-1.7-12.7-2.6-19C0.3,634,0.5,634,0.8,634z"/>
	<path class="st0" d="M244.1,662.1c0.7,4.2-1.1,7.2-3.9,10c-1,0.9-1.8,2-2.5,3.2c-5.1,8-13.6,8.7-20,3.1c-5.1-4.5-9.5-9.8-14.6-14.3
		c-5.4-4.8-11.2-9.1-16.9-13.7c-2.5-2.1-5.1-4-7.6-6.2c-1.7-1.5-3-1.6-4.1,0.3c-2.2,3.9-4,7.9-3.3,12.7c0.8,5.8,1.1,11.8,1.8,17.6
		c0.5,4.5-1.6,8-4.1,11.4c-0.4,0.6-1.6,1-2.4,1c-1.3,0.1-2.7-0.4-4-0.3c-4.8,0.4-8-2.2-10.8-5.5c-3-3.4-4.9-7.5-4.7-12
		c0.3-7.7,1.2-15.3,1.9-22.9c0.3-3.3,0.6-6.6,0.6-9.9c0-1.1-0.6-2.5-1.4-3.3c-5.7-6.1-4.8-13.3-3.8-20.6c2.6-2,2.8-6.6,7.5-6.4
		c3.5,0.1,4.6-3,5.5-5.7c2-5.9,3.9-11.8,5.9-17.7c0.6-1.9,0.5-3.4-1-4.9c-5-5.1-6.6-11.2-5.9-18.2c0.8-8.2,8-15.9,16.1-17.4
		c1.8-0.4,3.5-1.1,5.3-1.4c4.8-0.9,9.3-0.1,13.9,1.4c4,1.3,8.1,2.2,12.2,3.1c2.3,0.5,4.6,0.9,6.1,3.2c0.5,0.8,2.1,0.9,2.8,1.6
		c2.5,2.7,4.9,5.5,7.1,8.4c1.1,1.4,1.6,3.2,2.6,4.6c3.6,4.7,5,10.3,6.4,15.8c1,4.1,1,8.5,1.4,12.8c0.1,0.9-0.1,1.9-0.3,2.7
		c-1,3.9-2,7.8-3.1,11.7c-1.8,6.1-5,11.4-9.1,16.2c-1.2,1.4-2.3,2.9-3.6,4.1c-1.7,1.7-1.5,3.3,0.1,4.8c3.2,3.1,6.3,6.4,9.8,9.1
		c3,2.3,6.7,3.6,9.6,5.9c3.4,2.7,6.7,5.7,9.3,9.1C244.1,657.1,243.8,659.9,244.1,662.1z M185,599.4c0.3,0.7,0.5,2.7,1.1,2.8
		c1.3,0.3,3.1,0,4.3-0.7c4.7-3.1,8.6-7.1,11.4-12c1.6-2.8,2.7-5.8,2-9.1c-0.9-4.6-4.3-6.8-8.2-8.5c-5.4-2.3-7.4-1.1-8.1,4.7
		c-0.1,0.7,0,1.5,0,2.3c-0.1,3.1-0.1,6.2-0.5,9.3C186.5,591.8,185.7,595.3,185,599.4z"/>
	<path class="st0" d="M388.4,654.6c5.5-0.9,10.3-1.4,15-2.5c2.2-0.6,4.2-2.3,6.2-3.6c3.4-2.2,6-1.9,7.9,1.2c1.9,3.1,3.8,6.3,5.4,9.6
		c3.4,6.8,2,13.6-0.6,20.1c-0.8,2.1-3,3.5-5.5,4.5c-7.2,2.9-14.9,3-22.3,4.3c-2.7,0.5-5.7,0.1-8.5-0.5c-7.2-1.6-14.5-3.5-21.6-5.6
		c-1.8-0.5-3.6-2-4.7-3.6c-1.9-2.7-3.1-5.8-4.7-8.6c-0.9-1.5-2.2-2.9-3.5-4.2c-2.9-2.9-4-6.6-4.8-10.4c-1.6-7.1-0.4-14.1,1-21.1
		c1.6-8.1,2.7-16.3,4.7-24.3c1.4-5.3,3.7-10.5,6.1-15.5c3.6-7.6,7.1-15.2,6.6-23.9c-0.2-3.9,3-5.6,5.8-7c6.9-3.6,14.4-4.9,22.1-6
		c7.4-1,14.7-3.1,22-4.4c7.4-1.2,14.8-2.3,22.2-2.9c4.6-0.4,8.8,1.2,12,4.9c0.3,0.3,0.7,0.6,0.9,0.9c1.7,2.9,3.2,5.9,5,8.7
		c2.6,3.8,2.2,7.6,0.8,11.6c-0.6,1.7-1.7,2.6-3.5,2.8c-5.5,0.6-11.1,1.3-16.6,2c-10,1.2-20.1,2.3-30.1,3.6c-5.8,0.8-10.4,4-14.1,8.3
		c-2,2.3-3.2,5.5-4.6,8.3c-1,2,0.8,4.1,3.5,3.7c5.2-0.7,10.4-1.2,15.5-2.5c5.4-1.4,10.8-3.3,15.9-5.7c3.5-1.7,6.4-0.5,9.5,2.4
		c2.3,2.2,3.6,5.6,5.4,8.4c3,4.6,3,9.7,2.7,14.9c-0.1,2.9-2.1,5.4-5,6.3c-11.1,3.7-22.3,6.6-34,7.5c-6.4,0.5-12.7,1.5-19,2.3
		c-2.1,0.3-4.2,0.6-6.2,1c-1.5,0.3-4.1,3.5-4.3,5.2c-0.4,2.5,0.4,4.8,2.8,5.6C378.8,652.1,383.9,653.3,388.4,654.6z"/>
	<path class="st0" d="M295.2,605.7c6.3-1.1,13.3-1.7,19.9-3.6c3.2-0.9,6.3-1.4,9.6-1.9c2.8-0.4,5.1,0.5,6.3,3.1
		c1.7,4,3.4,8.1,4.8,12.2c1,2.8,1.6,5.7,2.3,8.5c1.1,4.5,0.8,4.9-3.5,6.6c-6.4,2.4-13.1,2.8-19.9,3.1c-6,0.2-11.9,1.2-17.9,1.9
		c-4.4,0.5-8.9,1.2-13.3,1.7c-3.7,0.4-7.1,3.2-7.5,7.3c-0.2,2,0.5,3.5,2.1,4.5c4.8,3.2,10.4,4.5,15.8,4.8c4.2,0.2,8.9-0.5,12.7-3.3
		c3.3-2.4,5.8-1.9,8.3,1.3c3.2,4.1,6.6,8.1,6.7,13.6c0,3.3-0.6,6.5-1,9.8c-0.2,1.4-0.5,2.8-1,4.2c-1.2,3.5-3.5,5.9-7.2,6.9
		c-3.1,0.9-6.1,2.2-9.3,2.5c-2.7,0.3-5.6-0.1-8.2-0.8c-7.8-2.1-15.6-4.2-23.2-7.1c-4.7-1.8-9.1-4.5-12.2-8.9
		c-0.9-1.3-2.7-2.1-3.6-3.4c-4-5.4-5.7-11.6-6.7-18.2c-1-6.8-0.9-13.5,0.6-20.1c1.4-5.9,3.6-11.5,5.6-17.2c1.4-4,3.1-7.8,4.3-11.8
		c0.3-1.1-0.3-2.7-0.9-3.8c-2-3.3-4.3-6.4-6.3-9.6c-0.5-0.9-0.8-2.1-0.8-3.1c-0.1-3.3,0-6.6,0-9.9c0-3.3,1.4-5.8,4-7.8
		c1.1-0.8,1.8-2.1,3-2.7c1.8-0.9,3.8-1.5,5.7-2.2c1.8-0.6,3.8-0.8,5.5-1.5c4.3-1.8,8.6-3.1,13.3-3.5c5.1-0.4,10.1-2,15.1-3.1
		c5.7-1.3,11.4-3,17.2-4.1c5.7-1.1,11.5-1.5,17.3-2.4c5-0.8,8.2,1.1,11.2,5c3.3,4.5,4.8,9.8,7,14.8c0.2,0.5,0.5,1.1,0.8,1.6
		c2.1,4.1,0.5,8.5-3.9,9.8c-4,1.2-8.2,1.9-12.4,2.6c-6.4,1.2-12.9,1.9-19.2,3.3c-7.8,1.7-15.5,3.8-23.2,5.8c-4.2,1.1-7.5,6.6-7,10.9
		c0.2,1.9,1.3,3.1,3.2,3.4C291.1,605.3,292.9,605.4,295.2,605.7z"/>
</g>
</svg>
