<svg id="Layer_1" data-name="Layer 1" xmlns="http://www.w3.org/2000/svg" viewBox="0 0 44.89 38.7">
  <title>Mobile_Swirls</title>
  <g>
    <path d="M1378.83,757.08l-.83.83,1.13,1.12.82-.82c.48-.48,1.63-.24,2.18.3l3.85,3.86,1.12-1.12-3.85-3.86C1382.13,756.28,1380,755.91,1378.83,757.08Z" transform="translate(-1359.08 -750.69)" style="fill: #fff"/>
    <path d="M1401.23,773.94c-.13-2.09-.29-4.7-5.47-9.88L1388,756.3a3.11,3.11,0,0,0-4.27-.15l1.12,1.12a1.54,1.54,0,0,1,2,.16l7.76,7.75c4.76,4.76,4.89,6.94,5,8.86a11.61,11.61,0,0,0,.16,1.5.72.72,0,0,0,.22.41l2.83,2.83,1.12-1.12-2.65-2.65C1401.28,774.67,1401.26,774.31,1401.23,773.94Z" transform="translate(-1359.08 -750.69)" style="fill: #fff"/>
    <path d="M1389.92,785.21a16.62,16.62,0,0,1-7.35-.87,37.28,37.28,0,0,0-6.13-1.39l-.5-.07c-1.19-.16-4.8-.65-5.5-1.21a1.17,1.17,0,0,1-.42-1,2.16,2.16,0,0,1,1-1.62,3.59,3.59,0,0,1,3-.23c.51.13,5,1.25,6.35-.18a.79.79,0,0,0,0-1.09l-17-17a1.87,1.87,0,0,1,0-2.76,1.84,1.84,0,0,1,2.73.08L1377,768.8l1.12-1.12-10.86-10.86a3.5,3.5,0,1,0-5,4.9l16.08,16.08a13.49,13.49,0,0,1-3.89-.48,5.07,5.07,0,0,0-4.35.48,3.72,3.72,0,0,0-1.69,2.87,2.73,2.73,0,0,0,1,2.23c.87.7,3.14,1.13,6.29,1.55l.49.07a35,35,0,0,1,5.89,1.34,18,18,0,0,0,7.56,1l2.57,2.57,1.12-1.12-2.82-2.83A.82.82,0,0,0,1389.92,785.21Z" transform="translate(-1359.08 -750.69)" style="fill: #fff"/>
    <path d="M1382.53,764.37l-12.69-12.69a3.37,3.37,0,0,0-4.77,0l-.2.19a3.38,3.38,0,0,0-.63,3.89,3.63,3.63,0,0,0-1.9,1l0,0a3.46,3.46,0,0,0,0,5l13.93,13.92,1.12-1.12-13.91-13.91a1.88,1.88,0,0,1,0-2.73l0,0a1.86,1.86,0,0,1,2.73.08L1377,768.8l1.12-1.12-10.86-10.86-1.29-1.3a1.79,1.79,0,0,1,0-2.53l.19-.19a1.79,1.79,0,0,1,2.53,0l12.69,12.69Z" transform="translate(-1359.08 -750.69)" style="fill: #fff"/>
    <polygon points="3.18 23.96 1.68 23.21 5.39 23.21 5.74 23.21 5.74 23.56 5.74 27.27 4.99 25.77 4.52 26 6 28.95 7.48 26 7.01 25.77 6.26 27.27 6.26 23.56 6.26 23.21 6.61 23.21 10.32 23.21 8.82 23.96 9.05 24.43 12 22.95 9.05 21.47 8.82 21.94 10.32 22.69 6.61 22.69 6.26 22.69 6.26 22.34 6.26 18.63 7.01 20.13 7.48 19.9 6 16.95 4.52 19.9 4.99 20.13 5.74 18.63 5.74 22.34 5.74 22.69 5.39 22.69 1.68 22.69 3.18 21.94 2.95 21.47 0 22.95 2.95 24.43 3.18 23.96" style="fill: #fff"/>
  </g>
</svg>
