<?xml version="1.0" encoding="utf-8"?>
<!-- Generator: Adobe Illustrator 23.1.1, SVG Export Plug-In . SVG Version: 6.00 Build 0)  -->
<svg version="1.1" id="Layer_1" xmlns="http://www.w3.org/2000/svg" xmlns:xlink="http://www.w3.org/1999/xlink" x="0px" y="0px"
	 viewBox="0 0 44.9 46.1" style="enable-background:new 0 0 44.9 46.1;" xml:space="preserve">
<style type="text/css">
	.st0{fill:#FFFFFF;}
	.st1{fill:none;stroke:#FFFFFF;stroke-width:4;stroke-linejoin:round;stroke-miterlimit:10;}
</style>
<g>
	<g>
		<g>
			<path class="st1" d="M35.6,45.7v-3.9c0.2-0.3,0.5-0.6,0.7-0.9c1.4-1.6,4.4-2.1,5.2-7.3v-8.4c0-1.7-1.4-3.1-3.1-3.2l-1.3,0
				c-0.2-1.5-1.4-3-3-3h-1.2l-1.5,0c-0.3-1.6-1.7-2.9-3.4-2.9h-0.7l-1.4,0V7.3c0.1-2-1.4-3.6-3.4-3.7c-0.1,0-0.1,0-0.2,0
				c-2-0.1-3.7,1.5-3.7,3.5v0.1v16.4c-1.3,0-2.6,0.6-3.5,1.5c-1,1-1.5,2.4-1.5,3.9c0.1,8,2.3,9.8,6.5,13.2v3.5"/>
		</g>
	</g>
	<g>
		<g>
			<path class="st0" d="M8.5,12.4c-0.7,0.7-1.9,0.7-2.6,0L1.5,8c-0.7-0.7-0.7-1.9,0-2.6L5.9,1c0.7-0.7,1.9-0.7,2.6,0
				c0.7,0.7,0.7,1.9,0,2.6l-3,3l3,3C9.2,10.4,9.2,11.6,8.5,12.4z"/>
		</g>
		<g>
			<path class="st0" d="M15.3,8c-0.3,0.3-0.8,0.5-1.3,0.5H2.8C1.8,8.5,1,7.7,1,6.7c0-1,0.8-1.9,1.9-1.9H14c1,0,1.9,0.8,1.9,1.9
				C15.8,7.2,15.6,7.7,15.3,8z"/>
		</g>
	</g>
	<g>
		<g>
			<path class="st0" d="M36,12.4c0.7,0.7,1.9,0.7,2.6,0L43,8c0.7-0.7,0.7-1.9,0-2.6L38.7,1C38,0.3,36.8,0.3,36,1
				c-0.7,0.7-0.7,1.9,0,2.6l3,3l-3,3C35.3,10.4,35.3,11.6,36,12.4z"/>
		</g>
		<g>
			<path class="st0" d="M29.3,8c0.3,0.3,0.8,0.5,1.3,0.5h11.1c1,0,1.9-0.8,1.9-1.9c0-1-0.8-1.9-1.9-1.9H30.6c-1,0-1.9,0.8-1.9,1.9
				C28.7,7.2,28.9,7.7,29.3,8z"/>
		</g>
	</g>
</g>
</svg>
