<?xml version="1.0" encoding="utf-8"?>
<!-- Generator: Adobe Illustrator 23.1.1, SVG Export Plug-In . SVG Version: 6.00 Build 0)  -->
<svg version="1.1" id="Layer_1" xmlns="http://www.w3.org/2000/svg" xmlns:xlink="http://www.w3.org/1999/xlink" x="0px" y="0px"
	 viewBox="0 0 38 46.1" style="enable-background:new 0 0 38 46.1;" xml:space="preserve">
<style type="text/css">
	.st0{fill:#FFFFFF;}
</style>
<title>Mobile_Timeline</title>
<g>
	<g>
		<path class="st0" d="M33.7,15.4v1.3V17v4.6h-1.3v-5.7c0-1.6-1.3-3.5-3-3.5h-1.2v1.1v0.6v6.4h-1.4V13c0-1.9-1.6-3.5-3.5-3.5h-0.7
			v1.1v0.5v9.4h-1.4v-0.8v-16c0.1-2-1.4-3.6-3.4-3.7c-0.1,0-0.1,0-0.2,0c-2-0.1-3.7,1.5-3.7,3.5c0,0,0,0.1,0,0.1V20
			c-1.3,0-2.6,0.6-3.5,1.5c-1,1-1.5,2.4-1.5,3.9c0.1,8,2.3,13.8,6.5,17.2v3.5h5.8v0h10h0.3h1.4v-3.9c0.2-0.3,0.5-0.6,0.7-0.9
			c1.4-1.6,3.2-3.7,3.2-11.3V18.6C36.8,16.9,35.4,15.5,33.7,15.4z"/>
	</g>
	<path class="st0" d="M11.5,4H4.8l1.3-1.2c0.4-0.4,0.4-1,0-1.4C5.9,1.1,5.6,1,5.4,1C5.1,1,4.9,1.1,4.7,1.3l-3.1,3
		C1.4,4.5,1.2,4.8,1.3,5.1c0,0.3,0.1,0.5,0.4,0.7c1.1,0.9,2.9,2.4,3.1,2.6c0.2,0.2,0.4,0.3,0.7,0.3c0.4,0,0.8-0.3,0.9-0.7
		C6.4,7.7,6.3,7.3,6,7c0,0,0,0,0,0c0,0-0.1-0.1-0.1-0.1C5.8,6.8,5.7,6.7,5.5,6.5C5.3,6.4,5,6.1,4.6,5.8h6.8c0.5,0,0.9-0.4,0.9-0.9
		C12.4,4.4,12,4,11.5,4z"/>
	<path class="st0" d="M23.7,4h6.7l-1.3-1.2c-0.4-0.4-0.4-1,0-1.4C29.3,1.1,29.5,1,29.8,1c0.3,0,0.5,0.1,0.7,0.3l3.1,3
		c0.2,0.2,0.3,0.5,0.3,0.7c0,0.3-0.1,0.5-0.4,0.7c-1.1,0.9-2.9,2.4-3.1,2.6c-0.2,0.2-0.4,0.3-0.7,0.3c-0.4,0-0.8-0.3-0.9-0.7
		c-0.1-0.4,0-0.8,0.3-1.1c0,0,0,0,0,0c0,0,0.1-0.1,0.1-0.1c0.1-0.1,0.2-0.2,0.4-0.3c0.2-0.2,0.5-0.5,0.9-0.8h-6.8
		c-0.5,0-0.9-0.4-0.9-0.9C22.8,4.4,23.2,4,23.7,4z"/>
</g>
</svg>
