<?xml version="1.0" encoding="utf-8"?>
<!-- Generator: Adobe Illustrator 23.1.1, SVG Export Plug-In . SVG Version: 6.00 Build 0)  -->
<svg version="1.1" id="Layer_1" xmlns="http://www.w3.org/2000/svg" xmlns:xlink="http://www.w3.org/1999/xlink" x="0px" y="0px"
	 viewBox="0 0 26 46.1" style="enable-background:new 0 0 26 46.1;" xml:space="preserve">
<style type="text/css">
	.st0{fill:#FFFFFF;}
</style>
<title>Mobile_Animal</title>
<g>
	<path class="st0" d="M12.5,1.9c-1.2-1-2.8-1.5-4.4-1.5c0,0,0,0-0.1,0c-3.9,0-7,3.2-7,7.1c0,1.6,0.5,3.2,1.5,4.5
		C2.7,12,2.9,12.1,3,12.1c0.1,0,0.1,0,0.2,0c0.2-0.1,0.3-0.3,0.3-0.5v-1.5c0-0.1,0-0.2-0.1-0.2C2.1,7.3,3.1,4.1,5.7,2.8
		C7,2.1,8.4,2,9.8,2.5c1.3,0.4,2.4,1.4,3.1,2.6c0.4,0.7,0.6,1.6,0.6,2.4c0,0.8-0.2,1.7-0.6,2.4c0,0.1-0.1,0.1-0.1,0.2v1.5
		c0,0.2,0.1,0.4,0.3,0.5c0.2,0.1,0.4,0,0.5-0.2C16.1,8.8,15.6,4.4,12.5,1.9z"/>
	<g>
		<g>
			<path class="st0" d="M22.8,18.1v1.2v0.3v4.1h-1.2v-5.1c0-1.4-1.2-3.2-2.7-3.2h-1.1v1v0.5v5.8h-1.3V16c0-1.7-1.4-3.2-3.2-3.2h-0.6
				v1v0.5v8.5h-1.3V22V7.6c0.1-1.8-1.3-3.2-3.1-3.3c-0.1,0-0.1,0-0.2,0C6.5,4.2,5,5.6,5,7.4v0.1v14.8c-1.2,0-2.3,0.5-3.2,1.4
				c-0.9,0.9-1.4,2.2-1.4,3.5c0.1,7.2,2.1,12.4,5.9,15.5v3.2h5.2l0,0h9h0.3h1.3v-3.5c0.2-0.3,0.5-0.5,0.6-0.8
				c1.3-1.4,2.9-3.3,2.9-10.2V21C25.6,19.5,24.3,18.2,22.8,18.1z"/>
		</g>
	</g>
</g>
</svg>
