<svg id="Layer_1" data-name="Layer 1" xmlns="http://www.w3.org/2000/svg" viewBox="0 0 37.99 46.12">
  <title>Mobile_Timeline</title>
  <g>
    <polygon points="6.24 6.98 2.67 5.19 13.38 5.19 13.38 4.37 2.67 4.37 6.24 2.58 5.87 1.84 0 4.78 5.87 7.72 6.24 6.98" style="fill: #fff"/>
    <polygon points="31.14 6.98 31.51 7.72 37.38 4.78 31.51 1.84 31.14 2.58 34.7 4.37 23.99 4.37 23.99 5.19 34.7 5.19 31.14 6.98" style="fill: #fff"/>
    <path d="M1374.1,768.32a5.45,5.45,0,0,0-1.47,3.86c.12,8.05,2.3,13.85,6.49,17.25v3.51h1.66V789a.82.82,0,0,0-.33-.66c-4-3-6-8.49-6.16-16.22a3.84,3.84,0,0,1,1-2.67,3.4,3.4,0,0,1,2.29-1V771h1.66V750.5a2,2,0,1,1,4,0v16h1.65v-16a3.57,3.57,0,0,0-3.57-3.72,3.62,3.62,0,0,0-3.74,3.64v16.41A5,5,0,0,0,1374.1,768.32Z" transform="translate(-1362.54 -746.83)" style="fill: #fff"/>
    <path d="M1388.9,759.8v7.54h1.65V759.8a3.53,3.53,0,0,0-3.52-3.52h-.72v1.66h.72A1.87,1.87,0,0,1,1388.9,759.8Z" transform="translate(-1362.54 -746.83)" style="fill: #fff"/>
    <path d="M1394.56,762.73v5.69h1.66v-5.69c0-1.64-1.3-3.48-3-3.48H1392v1.65h1.21C1393.88,760.9,1394.56,762,1394.56,762.73Z" transform="translate(-1362.54 -746.83)" style="fill: #fff"/>
    <path d="M1398.87,765.44v11.43c0,7-1.51,8.71-2.84,10.22a12.15,12.15,0,0,0-1,1.22.79.79,0,0,0-.15.46v4.17h1.66V789c.21-.29.46-.57.71-.86,1.45-1.64,3.25-3.68,3.25-11.31V765.44a3.23,3.23,0,0,0-3-3.26v1.65A1.61,1.61,0,0,1,1398.87,765.44Z" transform="translate(-1362.54 -746.83)" style="fill: #fff"/>
  </g>
</svg>
