<?xml version="1.0" encoding="utf-8"?>
<!-- Generator: Adobe Illustrator 24.0.3, SVG Export Plug-In . SVG Version: 6.00 Build 0)  -->
<svg version="1.1" id="Layer_1" xmlns="http://www.w3.org/2000/svg" xmlns:xlink="http://www.w3.org/1999/xlink" x="0px" y="0px"
	 viewBox="0 0 44.9 46.1" style="enable-background:new 0 0 44.9 46.1;" xml:space="preserve">
<style type="text/css">
	.st0{fill:none;stroke:#FFFFFF;stroke-width:2;stroke-linejoin:round;stroke-miterlimit:10;}
	.st1{fill:#FFFFFF;}
</style>
<g>
	<g>
		<g>
			<path class="st0" d="M35.8,45.2v-3.9c0.2-0.3,0.5-0.6,0.7-0.9c1.4-1.6,4.4-2.1,5.2-7.3v-8.4c0-1.7-1.4-3.1-3.1-3.2h-1.3
				c-0.2-1.5-1.4-3-3-3h-1.2h-1.5c-0.3-1.6-1.7-2.9-3.4-2.9h-0.7h-1.4V6.8c0.1-2-1.4-3.6-3.4-3.7c-0.1,0-0.1,0-0.2,0
				c-2-0.1-3.7,1.5-3.7,3.5v0.1v16.4c-1.3,0-2.6,0.6-3.5,1.5c-1,1-1.5,2.4-1.5,3.9c0.1,8,2.3,9.8,6.5,13.2v3.5"/>
		</g>
	</g>
	<g>
		<g>
			<path class="st1" d="M8.7,11.9c-0.7,0.7-1.9,0.7-2.6,0L1.7,7.5C1,6.8,1,5.6,1.7,4.9l4.4-4.4c0.7-0.7,1.9-0.7,2.6,0s0.7,1.9,0,2.6
				l-3,3l3,3C9.4,9.9,9.4,11.1,8.7,11.9z"/>
		</g>
		<g>
			<path class="st1" d="M15.5,7.5C15.2,7.8,14.7,8,14.2,8H3C2,8,1.2,7.2,1.2,6.2S2,4.3,3.1,4.3h11.1c1,0,1.9,0.8,1.9,1.9
				C16,6.7,15.8,7.2,15.5,7.5z"/>
		</g>
	</g>
	<g>
		<g>
			<path class="st1" d="M36.2,11.9c0.7,0.7,1.9,0.7,2.6,0l4.4-4.4c0.7-0.7,0.7-1.9,0-2.6l-4.3-4.4c-0.7-0.7-1.9-0.7-2.7,0
				c-0.7,0.7-0.7,1.9,0,2.6l3,3l-3,3C35.5,9.9,35.5,11.1,36.2,11.9z"/>
		</g>
		<g>
			<path class="st1" d="M29.5,7.5C29.8,7.8,30.3,8,30.8,8h11.1c1,0,1.9-0.8,1.9-1.9c0-1-0.8-1.9-1.9-1.9H30.8c-1,0-1.9,0.8-1.9,1.9
				C28.9,6.7,29.1,7.2,29.5,7.5z"/>
		</g>
	</g>
</g>
</svg>
