<?xml version="1.0" encoding="utf-8"?>
<!-- Generator: Adobe Illustrator 24.0.3, SVG Export Plug-In . SVG Version: 6.00 Build 0)  -->
<svg version="1.1" id="Layer_1" xmlns="http://www.w3.org/2000/svg" xmlns:xlink="http://www.w3.org/1999/xlink" x="0px" y="0px"
	 viewBox="0 0 35.9 52.1" style="enable-background:new 0 0 35.9 52.1;" xml:space="preserve">
<style type="text/css">
	.st0{fill:none;stroke:#FFFFFF;stroke-width:2;stroke-linejoin:round;stroke-miterlimit:10;}
	.st1{fill:#FFFFFF;}
</style>
<title>Mobile_Animal</title>
<g>
	<g>
		<g>
			<path class="st0" d="M27.7,51.5v-3.9c0.2-0.3,0.5-0.6,0.7-0.9c1.4-1.6,4.4-2.1,5.2-7.3v-8.4c0-1.7-1.4-3.1-3.1-3.2h-1.3
				c-0.2-1.5-1.4-3-3-3H25h-1.5c-0.3-1.6-1.7-2.9-3.4-2.9h-0.7H18V13c0.1-2-1.4-3.6-3.4-3.7c-0.1,0-0.1,0-0.2,0
				c-2-0.1-3.7,1.5-3.7,3.5v0.1v16.4c-1.3,0-2.6,0.6-3.5,1.5c-1,1-1.5,2.4-1.5,3.9c0.1,8,2.3,9.8,6.5,13.2v3.5"/>
		</g>
	</g>
	<g>
		<path class="st1" d="M25.9,12.4c0-6.5-5.3-11.8-11.8-11.8S2.4,5.9,2.4,12.4c0,4,2,7.5,5,9.6v-5.8c-0.6-1.1-1-2.4-1-3.8
			c0-4.3,3.5-7.8,7.8-7.8S22,8.1,22,12.4c0,0.9-0.2,1.8-0.5,2.6v6.6C24.2,19.5,25.9,16.2,25.9,12.4z"/>
	</g>
</g>
</svg>
