<svg id="Layer_1" data-name="Layer 1" xmlns="http://www.w3.org/2000/svg" viewBox="0 0 26.03 46.14">
  <title>Mobile_Animal</title>
  <g>
    <path d="M1380,753.38a3.41,3.41,0,1,0-6.82-.08v15.32a4.78,4.78,0,0,0-3.25,1.34,5.11,5.11,0,0,0-1.36,3.6c.1,7.52,2.14,12.93,6,16.11V793h1.55v-3.66a.77.77,0,0,0-.31-.61c-3.72-2.84-5.65-7.93-5.75-15.14a3.59,3.59,0,0,1,.92-2.49,3.19,3.19,0,0,1,2.15-.89v2.3h1.54V753.33a1.87,1.87,0,1,1,3.73,0v14.94H1380Z" transform="translate(-1368.52 -746.8)" style="fill: #fff"/>
    <path d="M1376.55,746.8a6.36,6.36,0,0,0-6.35,6.35,6.29,6.29,0,0,0,1.39,4V755.7a5.57,5.57,0,1,1,10.53-2.55,5.46,5.46,0,0,1-.62,2.55v1.41a6.35,6.35,0,0,0-5-10.31Z" transform="translate(-1368.52 -746.8)" style="fill: #fff"/>
    <path d="M1382,758.73h-.67v1.54h.67a1.67,1.67,0,0,1,.83.23,1.72,1.72,0,0,1,.91,1.51v7h1.55v-7a3.31,3.31,0,0,0-3.29-3.28Z" transform="translate(-1368.52 -746.8)" style="fill: #fff"/>
    <path d="M1386.57,761.5V763h1.14c.65,0,1.28,1,1.28,1.71v5.3h1.55v-5.3c0-1.54-1.21-3.25-2.83-3.25Z" transform="translate(-1368.52 -746.8)" style="fill: #fff"/>
    <path d="M1393,767.27v10.67c0,6.54-1.4,8.14-2.65,9.54a12,12,0,0,0-.92,1.14.84.84,0,0,0-.13.44V793h1.54V789.3c.21-.27.43-.53.67-.8,1.35-1.53,3-3.43,3-10.56V767.27a3,3,0,0,0-2.83-3v1.54A1.5,1.5,0,0,1,1393,767.27Z" transform="translate(-1368.52 -746.8)" style="fill: #fff"/>
  </g>
</svg>
