<svg id="Layer_1" data-name="Layer 1" xmlns="http://www.w3.org/2000/svg" viewBox="0 0 1944 182"><defs><style>.cls-1{fill:#fff;}</style></defs><title>NewChromantics_Logo</title><path class="cls-1" d="M12,161.27V20.73H48.53L116,106.66V20.73h36.34V161.27H116L48.53,75.34v85.93Z"/><path class="cls-1" d="M246.67,51.67H203.24V75.16h41V106.1h-41v24.23h43.43v30.94h-80V20.73h80Z"/><path class="cls-1" d="M295.5,20.73l24.23,90.77,29.82-90.77h29.08l29.82,90.77,24.23-90.77h38.21L429,161.27H391.68L364.09,79.82l-27.58,81.45H299.23L257.29,20.73Z"/><path class="cls-1" d="M638.46,67.7q-12.68-15.47-31.32-15.47a38.43,38.43,0,0,0-15.19,3,37,37,0,0,0-12,8.11A37.53,37.53,0,0,0,572,75.53a40,40,0,0,0-2.89,15.28A40.5,40.5,0,0,0,572,106.28a37.2,37.2,0,0,0,20,20.51,37.07,37.07,0,0,0,14.91,3q17.52,0,31.5-14.91V158.1l-3.73,1.3a108.6,108.6,0,0,1-15.66,4.39,76,76,0,0,1-14.35,1.39,73.33,73.33,0,0,1-51.35-21,77,77,0,0,1-16.31-23.68,72.17,72.17,0,0,1-6.15-29.91A71.84,71.84,0,0,1,537,60.9a74.23,74.23,0,0,1,67.94-44.08,77,77,0,0,1,16.49,1.77,99.68,99.68,0,0,1,17.06,5.5Z"/><path class="cls-1" d="M689,75h52.75V20.73h36.53V161.27H741.72v-58H689v58H652.43V20.73H689Z"/><path class="cls-1" d="M909.47,161.27H864l-34.86-54.05v54.05H792.6V20.73h56.85A55.75,55.75,0,0,1,870,24.18a38.57,38.57,0,0,1,23,23.2,48,48,0,0,1,2.89,16.78q0,16-7.73,26t-22.84,13.51ZM829.13,83.55H836q10.8,0,16.59-4.48t5.78-12.86q0-8.38-5.78-12.86T836,48.88h-6.9Z"/><path class="cls-1" d="M900.71,91A72.42,72.42,0,0,1,947,22.5a89.41,89.41,0,0,1,62.72,0,74.06,74.06,0,0,1,24.69,15.75,72.16,72.16,0,0,1,16.13,23.58A73.44,73.44,0,0,1,1056.35,91a73.44,73.44,0,0,1-5.78,29.17,72.16,72.16,0,0,1-16.13,23.58,74.06,74.06,0,0,1-24.69,15.75,89.41,89.41,0,0,1-62.72,0A72.7,72.7,0,0,1,900.71,91Zm38.21,0a37.33,37.33,0,0,0,3.17,15.47,39.15,39.15,0,0,0,8.57,12.3,38.65,38.65,0,0,0,12.58,8.11,41.36,41.36,0,0,0,30.38,0,39.74,39.74,0,0,0,12.68-8.11,38.63,38.63,0,0,0,8.67-12.3,39.33,39.33,0,0,0,0-30.94,38.63,38.63,0,0,0-8.67-12.3,41,41,0,0,0-43.06-8.11,38.69,38.69,0,0,0-21.15,20.41A37.33,37.33,0,0,0,938.92,91Z"/><path class="cls-1" d="M1059.14,161.27,1083,20.73h36.16l28.14,74.93,28-74.93h36.16l23.86,140.54h-36.35l-12.11-80.89-33.18,80.89H1139.1l-31.5-80.89-12.11,80.89Z"/><path class="cls-1" d="M1342.26,136.85h-52.19l-8.38,24.42h-39l53.5-140.54h39.88l53.5,140.54h-39Zm-9.69-27.77-16.4-46.79-16.4,46.79Z"/><path class="cls-1" d="M1398,161.27V20.73h36.53L1502,106.66V20.73h36.35V161.27H1502l-67.48-85.93v85.93Z"/><path class="cls-1" d="M1618.68,51.67v109.6h-36.53V51.67h-30V20.73h96.55V51.67Z"/><path class="cls-1" d="M1699,20.73V161.27h-36.53V20.73Z"/><path class="cls-1" d="M1819.05,67.7q-12.67-15.47-31.32-15.47a38.43,38.43,0,0,0-15.19,3,36.4,36.4,0,0,0-19.94,20.32,40,40,0,0,0-2.89,15.28,40.5,40.5,0,0,0,2.89,15.47,37.28,37.28,0,0,0,35,23.49q17.51,0,31.5-14.91V158.1l-3.73,1.3a108.6,108.6,0,0,1-15.66,4.39,76,76,0,0,1-14.35,1.39,73.33,73.33,0,0,1-51.35-21,76.8,76.8,0,0,1-16.31-23.68,72.17,72.17,0,0,1-6.15-29.91,71.84,71.84,0,0,1,6.06-29.73,74.23,74.23,0,0,1,67.94-44.08A77,77,0,0,1,1802,18.59a99.68,99.68,0,0,1,17.06,5.5Z"/><path class="cls-1" d="M1911.68,56.7a44.86,44.86,0,0,0-11.93-7.17,31.76,31.76,0,0,0-11.55-2.33q-7.1,0-11.56,3.35a10.46,10.46,0,0,0-4.47,8.76,8.7,8.7,0,0,0,2.24,6.16,19.34,19.34,0,0,0,5.87,4.19,49.11,49.11,0,0,0,8.2,3.07q4.56,1.32,9,2.8,17.88,6,26.18,15.94t8.3,26a50.48,50.48,0,0,1-3.64,19.57,40.75,40.75,0,0,1-10.62,15,48.8,48.8,0,0,1-17.15,9.69,71.35,71.35,0,0,1-23,3.45q-26.65,0-49.39-15.84l15.66-29.45a63.28,63.28,0,0,0,16.21,10.81,39,39,0,0,0,15.84,3.54q9,0,13.33-4.1a12.7,12.7,0,0,0,3.26-14.82,11.83,11.83,0,0,0-3.73-4.28,29.41,29.41,0,0,0-6.8-3.64q-4.18-1.68-10.16-3.73-7.08-2.23-13.88-4.94a43.63,43.63,0,0,1-12.12-7.17,33.24,33.24,0,0,1-8.57-11.28Q1834,73.49,1834,63a49.81,49.81,0,0,1,3.44-18.92,42,42,0,0,1,9.7-14.54,43.29,43.29,0,0,1,15.28-9.41,57.73,57.73,0,0,1,20.23-3.35,88.33,88.33,0,0,1,21.8,2.89,95.84,95.84,0,0,1,21.81,8.48Z"/></svg>