<?xml version="1.0" encoding="utf-8"?>
<!-- Generator: Adobe Illustrator 23.0.6, SVG Export Plug-In . SVG Version: 6.00 Build 0)  -->
<svg version="1.1" id="Layer_1" xmlns="http://www.w3.org/2000/svg" xmlns:xlink="http://www.w3.org/1999/xlink" x="0px" y="0px"
	 viewBox="0 0 1970 1080" style="enable-background:new 0 0 1970 1080;" xml:space="preserve">
<style type="text/css">
	.st0{fill:#FFFFFF;}
</style>
<g>
	<g>
		<g>
			<path class="st0" d="M985,1079c-121.3,0-235.3-47.2-321-133c-85.7-85.7-133-199.7-133-321c0-73.5,18-146.4,51.9-211
				c32.9-62.5,80.7-117.3,138.3-158.5c7.7-5.5,18.3-3.7,23.8,4c5.5,7.7,3.7,18.3-4,23.8c-53.3,38.1-97.5,88.8-127.9,146.6
				c-31.4,59.7-48,127.2-48,195.1c0,112.1,43.7,217.6,123,296.9c79.3,79.3,184.7,123,296.9,123s217.6-43.7,296.9-123
				c79.3-79.3,123-184.7,123-296.9c0-67.9-16.6-135.4-48-195.1c-30.4-57.8-74.6-108.5-127.9-146.6c-7.7-5.5-9.4-16.1-4-23.8
				c5.5-7.7,16.1-9.4,23.8-4c57.6,41.2,105.4,96,138.3,158.5c34,64.6,51.9,137.6,51.9,211c0,121.3-47.2,235.3-133,321
				C1220.3,1031.8,1106.3,1079,985,1079z"/>
		</g>
	</g>
	<g>
		<g>
			<g>
				<path class="st0" d="M998.6,189.6c-14-46.2-43.4-86.1-81.2-115.8c-40.8-32-88.2-46-135.6-64.7c-8.2,73.3-20,166.3,17.8,233.7
					c22,39.2,57.2,70.5,99.2,88.3c15.2,6.4,30.9,10.9,46.8,13.3c2.9,0.4,5.6,0.6,8.3,0.7c-19.3-73.9-54.2-143.7-101.8-203.5
					c-3.3-4.2-2.6-10.2,1.5-13.6c4.2-3.3,10.2-2.6,13.6,1.5c49.7,62.4,85.9,135.3,105.8,212.5c8.7-3.2,15-8.5,19.3-13.5
					C1027.3,288.2,998.9,190.6,998.6,189.6z"/>
			</g>
		</g>
		<g>
			<g>
				<path class="st0" d="M1195.4,1c0,0-35.1,14.8-38.2,16.2c-43.8,19.3-97.6,44.8-116.9,90.5c-13,30.8-17.1,66.6-12.1,106.4
					c0.1,1.2,0.3,2.4,0.4,3.6c1.6,13.7,3.8,32.5,19.7,42c0.6,0.3,1.2,0.7,1.8,1c3.3-53.9,24.8-106.5,61.6-147.8c3.6-4,10-4.5,14.2-1
					c4.2,3.5,4.7,9.6,1.1,13.6c-34.5,38.6-54.4,88.2-56.9,138.8c3.6-0.3,7.6-1.2,11.9-2.6c22.2-7.6,43.1-21.1,63.9-41.3
					c2.6-2.5,5.1-5.1,7.5-7.7C1207.7,153.1,1195.4,1,1195.4,1z"/>
			</g>
		</g>
	</g>
	<g>
		<g>
			<path class="st0" d="M985,1019.8c-104.1,0-201.9-40.5-275.4-114.1C636,832.1,595.5,734.3,595.5,630.2c0-63,15.4-125.6,44.6-181.1
				c28.2-53.6,69.2-100.7,118.6-136c3.8-2.7,9.2-1.9,11.9,2c2.7,3.8,1.9,9.2-2,11.9c-47.2,33.8-86.5,78.8-113.5,130.1
				c-27.9,53-42.6,112.8-42.6,173.1c0,99.5,38.7,193,109.1,263.4C792,964,885.5,1002.7,985,1002.7s193-38.7,263.4-109.1
				c70.4-70.4,109.1-163.9,109.1-263.4c0-60.3-14.7-120.1-42.6-173.1c-27-51.3-66.2-96.3-113.5-130.1c-3.8-2.7-4.7-8.1-2-11.9
				c2.7-3.8,8.1-4.7,11.9-2c49.4,35.3,90.4,82.4,118.6,136c29.1,55.4,44.6,118,44.6,181.1c0,104.1-40.5,201.9-114.1,275.4
				C1186.9,979.3,1089.1,1019.8,985,1019.8z"/>
		</g>
	</g>
	<g>
		<g>
			<g>
				<g>
					<path class="st0" d="M764.5,692.4V540.5h-25.3v-20.8c7.1-0.8,13.9-3.5,20.4-8.1c6.5-4.6,11.1-10.1,13.9-16.6h20.8v197.4H764.5z
						"/>
				</g>
			</g>
			<g>
				<g>
					<path class="st0" d="M925.8,647.4c0,13.1-4.6,24.2-13.9,33.4c-9.2,9.1-20.3,13.7-33.2,13.7c-13.1,0-24.3-4.6-33.5-13.8
						c-9.2-9.2-13.8-20.3-13.8-33.3V539.7c0-13.1,4.6-24.3,13.9-33.5c9.2-9.2,20.4-13.8,33.4-13.8c13.1,0,24.2,4.6,33.4,13.9
						c9.1,9.2,13.7,20.4,13.7,33.4V647.4z M895,539c0-4.7-1.7-8.8-5-12.1c-3.4-3.4-7.4-5-12.1-5c-4.7,0-8.7,1.7-12,5
						c-3.3,3.4-5,7.4-5,12.1v107.8c0,4.7,1.7,8.8,5,12.1c3.3,3.4,7.3,5,12,5c4.7,0,8.8-1.7,12.1-5c3.4-3.4,5-7.4,5-12.1V539z"/>
				</g>
			</g>
			<g>
				<g>
					<path class="st0" d="M1056.9,647.4c0,13.1-4.6,24.2-13.9,33.4c-9.2,9.1-20.3,13.7-33.2,13.7c-13.1,0-24.3-4.6-33.5-13.8
						c-9.2-9.2-13.8-20.3-13.8-33.3V539.7c0-13.1,4.6-24.3,13.9-33.5c9.2-9.2,20.4-13.8,33.4-13.8c13.1,0,24.2,4.6,33.4,13.9
						c9.1,9.2,13.7,20.4,13.7,33.4V647.4z M1026,539c0-4.7-1.7-8.8-5-12.1c-3.4-3.4-7.4-5-12.1-5c-4.7,0-8.7,1.7-12,5
						c-3.3,3.4-5,7.4-5,12.1v107.8c0,4.7,1.7,8.8,5,12.1c3.3,3.4,7.3,5,12,5c4.7,0,8.8-1.7,12.1-5c3.4-3.4,5-7.4,5-12.1V539z"/>
				</g>
			</g>
			<g>
				<g>
					<path class="st0" d="M1137.8,567.5c0,6.7-2.4,12.5-7.3,17.3c-4.9,4.8-10.7,7.2-17.4,7.2c-6.8,0-12.6-2.4-17.5-7.2
						c-4.8-4.8-7.2-10.6-7.2-17.3v-56.4c0-6.8,2.4-12.6,7.2-17.5c4.8-4.8,10.7-7.2,17.5-7.2c6.8,0,12.6,2.4,17.5,7.3
						c4.8,4.9,7.2,10.7,7.2,17.4V567.5z M1115.3,695.7h-17.5l100.8-208.8h17.3L1115.3,695.7z M1103.7,567.2c0,2.5,0.9,4.6,2.6,6.4
						c1.7,1.7,3.9,2.6,6.4,2.6s4.6-0.9,6.4-2.6c1.7-1.7,2.6-3.9,2.6-6.4v-56.4c0-2.5-0.9-4.6-2.6-6.4c-1.7-1.7-3.9-2.6-6.4-2.6
						s-4.6,0.9-6.4,2.6c-1.7,1.7-2.6,3.9-2.6,6.4V567.2z M1200.8,587.9c6.8,0,12.6,2.4,17.4,7.3c4.8,4.9,7.2,10.7,7.2,17.4v56.4
						c0,6.8-2.4,12.6-7.2,17.3c-4.8,4.7-10.6,7.1-17.3,7.1c-6.8,0-12.6-2.4-17.5-7.2c-4.8-4.8-7.2-10.5-7.2-17.2v-56.4
						c0-6.8,2.4-12.6,7.2-17.5C1188.2,590.3,1194,587.9,1200.8,587.9z M1209.3,612.3c0-2.5-0.9-4.6-2.6-6.4
						c-1.7-1.7-3.9-2.6-6.4-2.6s-4.6,0.9-6.4,2.6c-1.7,1.7-2.6,3.9-2.6,6.4v56.4c0,2.5,0.9,4.6,2.6,6.4c1.7,1.7,3.9,2.6,6.4,2.6
						s4.6-0.9,6.4-2.6c1.7-1.7,2.6-3.9,2.6-6.4V612.3z"/>
				</g>
			</g>
		</g>
		<g>
			<g>
				<g>
					<path class="st0" d="M787.7,739.1c4.9,0,9.1,1.5,12.5,4.4c3.4,2.9,5.1,6.5,5.1,10.6v34.1c0,4.2-1.7,7.7-5.2,10.6
						c-3.5,2.9-7.6,4.4-12.5,4.4c-4.9,0-9.1-1.5-12.5-4.4c-3.4-2.9-5.1-6.5-5.1-10.6V754c0-4.2,1.7-7.7,5.2-10.6
						C778.8,740.5,782.9,739.1,787.7,739.1z M793.8,753.8c0-1.5-0.6-2.8-1.9-3.8c-1.2-1-2.7-1.6-4.5-1.6s-3.3,0.5-4.5,1.6
						c-1.3,1-1.9,2.3-1.9,3.8v34.2c0,1.5,0.6,2.8,1.9,3.8c1.3,1,2.8,1.6,4.5,1.6s3.3-0.5,4.5-1.6c1.2-1,1.9-2.3,1.9-3.8V753.8z"/>
				</g>
			</g>
			<g>
				<g>
					<path class="st0" d="M861.7,739.9c6.2,0,10.7,1.4,13.6,4.3c2.5,2.5,3.8,6.1,3.8,10.6v9.1c0,4.4-2,8.2-5.9,11.2l8.2,27.3h-12
						l-6.7-23.5c-0.3,0-0.6,0-1,0h-6.4v23.5h-11.1v-62.5H861.7z M868.3,754.9c0-3.6-2.1-5.4-6.4-5.4h-6.7v20h6.7
						c1.8,0,3.3-0.5,4.5-1.6c1.2-1.1,1.9-2.3,1.9-3.8V754.9z"/>
				</g>
			</g>
			<g>
				<g>
					<path class="st0" d="M935.7,803.2c-4.9,0-9.1-1.5-12.5-4.4c-3.4-2.9-5.1-6.4-5.1-10.5v-34.1c0-4.2,1.7-7.7,5.2-10.6
						c3.5-2.9,7.6-4.4,12.5-4.4c4.9,0,9.1,1.5,12.5,4.4c3.4,2.9,5.1,6.5,5.1,10.6v7.1h-11.5v-7.3c0-1.5-0.6-2.8-1.9-3.8
						c-1.3-1.1-2.8-1.6-4.5-1.6s-3.3,0.5-4.5,1.6c-1.2,1.1-1.9,2.3-1.9,3.8v34.2c0,1.5,0.6,2.8,1.9,3.8c1.2,1,2.7,1.6,4.5,1.6
						s3.3-0.5,4.5-1.6c1.3-1,1.9-2.3,1.9-3.8v-12.3h-6.2v-9.5h17.7v21.8c0,4.2-1.7,7.7-5.2,10.6
						C944.7,801.7,940.5,803.2,935.7,803.2z"/>
				</g>
			</g>
			<g>
				<g>
					<path class="st0" d="M1004.2,788l-2.7,14.4h-11.6l12.5-62.5h15.3l12.3,62.5h-11.7l-2.6-14.4H1004.2z M1010,754.2l-4.1,24.6h8.2
						L1010,754.2z"/>
				</g>
			</g>
			<g>
				<g>
					<path class="st0" d="M1080.9,739.8l14.7,42v-42h11.1v62.6h-11.9l-15.3-40.1v40.1h-11.1v-62.6H1080.9z"/>
				</g>
			</g>
			<g>
				<g>
					<path class="st0" d="M1156.8,802.4h-11.1v-62.5h11.1V802.4z"/>
				</g>
			</g>
			<g>
				<g>
					<path class="st0" d="M1213.2,803.2c-4.9,0-9.1-1.5-12.5-4.4c-3.4-2.9-5.1-6.4-5.1-10.5v-34.1c0-4.2,1.7-7.7,5.2-10.6
						c3.4-2.9,7.6-4.4,12.5-4.4c4.9,0,9.1,1.5,12.5,4.4c3.4,2.9,5.1,6.5,5.1,10.6v7.1h-11.5v-7.3c0-1.5-0.6-2.8-1.9-3.8
						c-1.3-1.1-2.8-1.6-4.5-1.6c-1.8,0-3.3,0.5-4.5,1.6c-1.2,1.1-1.9,2.3-1.9,3.8v34.2c0,1.5,0.6,2.8,1.9,3.8c1.2,1,2.7,1.6,4.5,1.6
						c1.8,0,3.3-0.5,4.5-1.6c1.3-1,1.9-2.3,1.9-3.8v-8.6h11.5v8.7c0,4.2-1.7,7.7-5.2,10.6C1222.2,801.7,1218,803.2,1213.2,803.2z"/>
				</g>
			</g>
		</g>
	</g>
</g>
</svg>
