<?xml version="1.0" encoding="utf-8"?>
<!-- Generator: Adobe Illustrator 23.0.6, SVG Export Plug-In . SVG Version: 6.00 Build 0)  -->
<svg version="1.1" id="Layer_1" xmlns="http://www.w3.org/2000/svg" xmlns:xlink="http://www.w3.org/1999/xlink" x="0px" y="0px"
	 viewBox="0 0 1970 1080" style="enable-background:new 0 0 1970 1080;" xml:space="preserve">
<style type="text/css">
	.st0{fill:#FFFFFF;}
</style>
<g>
	<path class="st0" d="M984.8,563.5c-1.5-18.7-2.6-37.5-3.3-56.2c-0.8-18.8-1.2-37.7-1.6-56.5c-0.1-3-0.1-6-0.1-9
		c-3.2-2.9-6.3-5.8-9.2-8.9c-4.6-4.6-8.8-9.5-13.1-14.3c-8.5-9.7-15.2-20.8-22.7-31.3c-7.5-10.5-14.9-21-22.3-31.6
		c-7.3-10.7-14.7-21.2-21.8-32l0.9-0.7c8.5,9.7,16.9,19.5,25.3,29.3c8.3,9.8,16.6,19.7,24.9,29.6c8.2,9.9,17.2,19.3,24.4,30
		c3.6,5.3,7.2,10.7,10.5,16.3c1,1.7,2.1,3.5,3.1,5.3c-0.2-31.9,0.9-63.8,1.3-95.7l0.6-44c-2.7-2-5.2-4.2-7.6-6.4
		c-3.4-3.1-6.6-6.4-9.6-9.8c-3-3.4-5.8-7-8.2-10.8c-2.5-3.8-4.9-7.7-7.5-11.4c-5.1-7.5-10.2-15-15.3-22.5
		c-4.9-7.6-10-15.2-14.8-22.9l0.9-0.7c6.2,6.6,12.2,13.5,18.3,20.2c6,6.8,12,13.6,17.9,20.5c2.9,3.4,6.1,6.8,9.1,10.1
		c3,3.4,5.8,7,8.3,10.7c2.5,3.8,4.9,7.7,7,11.8c0.6,1,1.1,2.1,1.6,3.1l0.9-61l2.2-113h1.1l2.2,113l1.6,113
		c0.1,9.3,0.3,18.5,0.5,27.8c0.7-1.3,1.4-2.6,2.1-3.9c2.8-4.8,5.7-9.5,8.8-14.1c6.1-9.2,13.9-17.1,21-25.5
		c7.1-8.4,14.2-16.8,21.4-25.1c7.3-8.3,14.5-16.6,21.8-24.8l0.9,0.7c-6,9.2-12.3,18.3-18.4,27.5c-6.2,9.1-12.5,18.2-18.8,27.1
		c-6.3,9-11.9,18.6-19.2,26.8c-3.6,4.2-7.4,8.2-11.3,12.1c-2.6,2.6-5.3,5-8.1,7.4c0.5,25.7,1,51.3,0.5,77
		c-0.2,10.9-0.5,21.7-0.8,32.6c1.3-2.4,2.7-4.8,4.1-7.1c3.3-5.6,6.9-11,10.5-16.3c7.2-10.7,16.2-20,24.4-30
		c8.2-9.9,16.5-19.8,24.9-29.6c8.4-9.8,16.8-19.6,25.3-29.3l0.9,0.7c-7.2,10.7-14.6,21.3-21.8,32c-7.3,10.6-14.8,21.2-22.3,31.6
		c-7.5,10.5-14.2,21.6-22.7,31.3c-4.2,4.9-8.5,9.7-13.1,14.3c-3.3,3.4-6.8,6.8-10.4,10c-0.2,5.4-0.3,10.9-0.6,16.3
		c-0.7,18.7-1.8,37.5-3.3,56.2c11.8-5.7,306.7-154.8-0.6-565.5C678.1,408.7,973,557.7,984.8,563.5z"/>
	<path class="st0" d="M984.8,563.7h0.6c0,0-0.3-0.2-0.6-0.3C984.8,563.6,984.8,563.6,984.8,563.7z"/>
	<path class="st0" d="M985.9,563.7c0-0.1,0-0.2,0-0.3c-0.2,0.1-0.6,0.3-0.6,0.3H985.9z"/>
	<path class="st0" d="M1030.9,924.3c12.2-14.3,24.7-28.3,37.5-42.1c12.8-13.9,25.8-27.5,38.8-41.1c2.1-2.2,4.2-4.3,6.3-6.5
		c-0.2-4.3-0.3-8.6-0.3-12.8c0.1-6.5,0.4-12.9,0.9-19.4c0.9-12.9,4-25.5,6.1-38.2c2.1-12.7,4.3-25.4,6.6-38.1
		c2.4-12.7,4.6-25.4,7.2-38.1l1.1,0.1c-0.8,12.9-1.9,25.7-2.8,38.6c-1,12.9-2.1,25.7-3.4,38.5c-1.2,12.8-1.4,25.8-3.9,38.5
		c-1.2,6.3-2.5,12.7-4.1,19c-0.5,2-1,3.9-1.6,5.9c22.4-22.7,45.7-44.5,68.6-66.7l31.6-30.7c-0.5-3.3-0.7-6.6-0.8-9.9
		c-0.2-4.6-0.1-9.2,0.1-13.7c0.3-4.5,0.9-9,1.8-13.5c1-4.4,2-8.9,2.8-13.3c1.6-8.9,3.3-17.8,5.1-26.7c1.9-8.9,3.6-17.8,5.7-26.7
		l1.1,0.1c-0.3,9.1-0.9,18.2-1.4,27.2c-0.5,9.1-1.2,18.1-1.9,27.2c-0.4,4.5-0.5,9.1-0.7,13.6c-0.2,4.5-0.8,9-1.7,13.5
		c-0.9,4.4-2,8.9-3.4,13.3c-0.3,1.1-0.7,2.2-1.1,3.4l43.8-42.5l81.5-78.4l0.8,0.8l-78.4,81.5l-78.7,81.1c-6.5,6.6-12.9,13.3-19.3,20
		c1.4-0.4,2.8-0.8,4.3-1.2c5.4-1.5,10.7-2.7,16.1-3.7c10.8-2.2,21.9-2.2,32.8-3.2c11-1,21.9-1.8,32.9-2.6c11-0.7,22-1.5,33-2.1
		l0.1,1.1c-10.8,2.3-21.6,4.3-32.4,6.4c-10.8,2.1-21.7,4-32.5,5.9c-10.8,1.9-21.5,4.7-32.6,5.4c-5.5,0.4-11,0.6-16.6,0.5
		c-3.6,0-7.3-0.2-11-0.5c-17.8,18.5-35.6,37-54.1,54.8c-7.8,7.5-15.7,15-23.6,22.5c2.6-0.8,5.3-1.5,7.9-2.2c6.3-1.6,12.6-2.9,19-4.1
		c12.7-2.5,25.6-2.7,38.5-3.9c12.8-1.2,25.7-2.3,38.5-3.4c12.9-0.9,25.7-2,38.6-2.8l0.1,1.1c-12.7,2.5-25.4,4.8-38.1,7.2
		c-12.7,2.3-25.4,4.5-38.1,6.6c-12.7,2.1-25.3,5.2-38.2,6.1c-6.4,0.5-12.9,0.8-19.4,0.9c-4.8,0.1-9.6,0-14.4-0.3
		c-4,3.7-7.9,7.5-11.9,11.2c-13.8,12.8-27.8,25.2-42.1,37.4c12.4,4.3,326.3,107.4,399.5-400.2C923.5,598,1026.6,911.9,1030.9,924.3z
		"/>
	<polygon class="st0" points="1031.1,924.9 1031.1,924.9 1031.1,924.9 	"/>
	<path class="st0" d="M1030.7,924.5l0.4,0.4c0,0-0.1-0.3-0.2-0.6C1030.8,924.4,1030.8,924.5,1030.7,924.5z"/>
	<path class="st0" d="M1031.5,925.3c0.1-0.1,0.1-0.1,0.2-0.2c-0.2-0.1-0.6-0.2-0.6-0.2L1031.5,925.3z"/>
	<path class="st0" d="M538.9,524.9c73.2,507.7,387.1,404.5,399.5,400.2c-14.3-12.2-28.3-24.7-42.1-37.4c-4-3.7-8-7.4-11.9-11.2
		c-4.8,0.3-9.6,0.4-14.4,0.3c-6.5,0-12.9-0.4-19.4-0.9c-12.9-0.9-25.5-3.9-38.2-6.1c-12.7-2.1-25.4-4.3-38.1-6.6
		c-12.7-2.4-25.4-4.6-38-7.2l0.1-1.1c12.9,0.8,25.8,1.9,38.6,2.8c12.9,1,25.7,2.2,38.5,3.4c12.8,1.2,25.8,1.5,38.5,3.9
		c6.4,1.2,12.7,2.5,19,4.1c2.6,0.7,5.3,1.4,7.9,2.2c-7.9-7.5-15.8-15-23.6-22.5c-18.5-17.8-36.3-36.3-54.1-54.8
		c-3.7,0.3-7.3,0.5-11,0.5c-5.6,0-11.1-0.1-16.6-0.5c-11-0.6-21.7-3.5-32.6-5.4c-10.8-1.9-21.7-3.8-32.5-5.9
		c-10.8-2.2-21.6-4.1-32.4-6.4l0.1-1.1c11,0.6,22,1.4,33,2.1c11,0.8,22,1.7,32.9,2.6c11,1,22,1,32.9,3.2c5.4,1,10.8,2.3,16.1,3.7
		c1.4,0.4,2.9,0.8,4.3,1.2c-6.4-6.7-12.8-13.3-19.3-20l-78.8-81.1l-78.4-81.5l0.8-0.8l81.5,78.4l43.8,42.5c-0.4-1.1-0.7-2.2-1.1-3.4
		c-1.4-4.4-2.5-8.8-3.4-13.3c-0.9-4.5-1.5-8.9-1.7-13.5c-0.2-4.5-0.4-9.1-0.7-13.6c-0.7-9-1.4-18.1-1.9-27.2
		c-0.4-9.1-1-18.1-1.4-27.2l1.1-0.1c2,8.9,3.8,17.8,5.7,26.7c1.8,8.9,3.5,17.8,5.1,26.7c0.8,4.5,1.8,8.9,2.8,13.3
		c0.9,4.4,1.5,8.9,1.8,13.5c0.3,4.5,0.4,9.1,0.1,13.7c-0.1,3.3-0.4,6.6-0.8,9.9l31.6,30.7c22.8,22.3,46.1,44.1,68.6,66.7
		c-0.6-2-1.1-3.9-1.6-5.9c-1.6-6.3-2.9-12.6-4.1-19c-2.5-12.7-2.7-25.6-3.9-38.5c-1.2-12.8-2.3-25.7-3.4-38.5
		c-0.9-12.9-2-25.7-2.8-38.6l1.1-0.1c2.5,12.7,4.8,25.4,7.2,38.1c2.3,12.7,4.5,25.4,6.6,38.1c2.1,12.7,5.2,25.3,6.1,38.2
		c0.5,6.4,0.9,12.9,0.9,19.4c0.1,4.3,0,8.5-0.2,12.8c2.1,2.2,4.2,4.3,6.3,6.5c13.1,13.6,26.1,27.2,38.8,41.1
		c12.8,13.8,25.2,27.8,37.5,42.1C943.4,911.9,1046.5,598,538.9,524.9z"/>
	<polygon class="st0" points="938.9,924.9 938.9,924.9 938.9,924.9 	"/>
	<path class="st0" d="M939.3,924.5c-0.1-0.1-0.1-0.1-0.2-0.2c-0.1,0.3-0.2,0.6-0.2,0.6L939.3,924.5z"/>
	<path class="st0" d="M938.5,925.3l0.4-0.4c0,0-0.4,0.1-0.6,0.2C938.4,925.2,938.4,925.3,938.5,925.3z"/>
	<polygon class="st0" points="990.2,769.6 988.7,687.2 986.9,604.9 983.8,604.9 982,687.2 980.5,769.6 977.5,934.3 972.7,1079 
		998,1079 993.2,934.3 	"/>
</g>
</svg>
