<?xml version="1.0" encoding="utf-8"?>
<!-- Generator: Adobe Illustrator 24.1.0, SVG Export Plug-In . SVG Version: 6.00 Build 0)  -->
<svg version="1.1" id="Layer_1" xmlns="http://www.w3.org/2000/svg" xmlns:xlink="http://www.w3.org/1999/xlink" x="0px" y="0px"
	 viewBox="0 0 1118 1080" style="enable-background:new 0 0 1118 1080;" xml:space="preserve">
<style type="text/css">
	.st0{fill:none;stroke:#FFFFFF;stroke-width:35;stroke-linecap:round;stroke-linejoin:round;stroke-miterlimit:10;}
</style>
<g>
	<path class="st0" d="M771.2,812.7c-0.4-2.2-1.3-4.6-2.7-7.2c-1.3-2.5-5.3-9.7-10.5-19L771.2,812.7z"/>
	<path class="st0" d="M572.4,558.8l49.8,14.4c17.7,5.1,46.6,13.6,64.4,18.6l49.8,14.4c17.7,5.1,35.5-5.3,39.6-23.3l11.5-50.4
		c4-17.9,10.7-47.3,14.8-65.2l11.5-50.4c4-17.9-7.5-23.8-25.7-13.2l-31.4,18.5c-11.4-19.4-22.9-38.8-27.3-45.9
		c-10.2-16.1-29.5-28.3-67.5-28.2c-28.2,0.1-103.2,0.6-150.6,0.8l62.9,110c1.4,1.4,2.7,3.1,3.9,5.6c3,6,14.4,26.8,25.7,47.4
		l-30.6,17.9C555,540.6,554.6,553.7,572.4,558.8z"/>
	<path class="st0" d="M398.1,385.8c-16.2,24.4-57.1,89.4-57.1,89.4c-9.2,14.6-4.4,33.6,10.5,42.4l100.5,58.8
		c14.9,8.8,34.5,3.8,43.4-10.9c0,0,56.6-92.7,61.9-101.3c5.4-8.9,11.9-10.3,17.1-5l-62.9-110c-16.4,0.1-29.6,0.2-36.3,0.2
		C449,349.6,419.1,354,398.1,385.8z"/>
	<path class="st0" d="M220.5,796.8c11.3,21.8,42.7,78.1,65.5,119.4l71.1-115.9c8.4-14.2,23.9-40.7,36.9-62.6l36.4,20.1
		c18.5,10.3,29.9,4,25.4-13.7L443.2,694c-4.5-17.8-11.9-47-16.4-64.8l-12.7-50.1c-4.5-17.8-22.6-27.9-40.2-22.2l-49.4,15.7
		c-17.6,5.6-46.3,14.7-63.9,20.3l-49.4,15.7c-17.6,5.6-16.9,18.5,1.6,28.8l26.8,14.9c-13.7,26.4-29.8,57.5-33.9,66.6
		C198.3,734.9,202.9,762.8,220.5,796.8z"/>
	<path class="st0" d="M357.2,800.3L286,916.1c12.8,23,23,41.3,25.7,46.3c7.5,14.2,18.3,42,86.2,41.7c67.9-0.4,98.7-0.6,98.7-0.6
		c17.2-0.1,31.4-14.2,31.2-31.4L527.1,856c-0.1-17.2-14.3-31.2-31.6-31.2c0,0-115.6,0.7-134.8,0.8c-12.1,0.1-13.7-7.9-9.4-15.4
		C351.9,809.3,354.1,805.7,357.2,800.3z"/>
	<path class="st0" d="M771.2,812.7l58.8,117c20.5-37.8,55.6-103.5,69.8-131.8c19.1-37.9,24.5-70.9,15.7-88.1
		c-8.8-17.3-52.4-101.5-52.4-101.5c-7.9-15.3-26.5-20.4-41.1-11.4L722.2,658c-14.7,9-19.9,28.7-11.5,43.8c0,0,30.3,54.3,47.3,84.6
		c5.3,9.4,9.2,16.6,10.5,19C769.9,808.1,770.8,810.6,771.2,812.7z"/>
	<path class="st0" d="M815.5,956c2.3-4,7.6-13.6,14.6-26.3l-58.8-117c1.2,6.8-2.3,11.4-10.6,11.5c-5.7,0.1-34.5,0.2-60.8,0.3
		l-0.3-36.3c-0.2-21.1-11.2-27.9-24.6-15.3l-37.5,35.7c-13.4,12.7-35.1,33.5-48.4,46.2l-37.5,35.7c-13.4,12.7-13.2,33.3,0.4,45.8
		l38.1,35c13.6,12.5,35.7,32.9,49.2,45.3l38.1,35c13.6,12.5,24.5,5.5,24.3-15.6l-0.3-34.5c14.9-0.1,31.4-0.2,46.6-0.3
		C790.2,1001.4,806.2,971.6,815.5,956z"/>
</g>
</svg>
