<?xml version="1.0" encoding="utf-8"?>
<!-- Generator: Adobe Illustrator 23.0.6, SVG Export Plug-In . SVG Version: 6.00 Build 0)  -->
<svg version="1.1" id="Layer_1" xmlns="http://www.w3.org/2000/svg" xmlns:xlink="http://www.w3.org/1999/xlink" x="0px" y="0px"
	 viewBox="0 0 1118 1080" style="enable-background:new 0 0 1118 1080;" xml:space="preserve">
<style type="text/css">
	.st0{fill:#FFFFFF;}
</style>
<g>
	<path class="st0" d="M877.9,706.1c-0.6-3.3-2-7-4.1-10.9c-2-3.8-8.1-14.7-16.1-29L877.9,706.1z"/>
	<path class="st0" d="M575.1,319.5l75.9,22c27,7.8,71,20.6,98,28.4l75.9,22c27,7.8,54.1-8.1,60.3-35.4l17.5-76.7
		c6.2-27.3,16.3-71.9,22.5-99.2l17.5-76.7c6.2-27.3-11.4-36.3-39.2-20l-47.6,27.9c-17.4-29.6-34.9-59.1-41.6-69.9
		C798.8,17.4,769.4-1.3,711.5-1c-42.9,0.2-157.1,0.9-229.2,1.3L578,167.8c2.1,2.1,4.1,4.8,5.9,8.4c4.6,9.2,21.9,40.9,39.2,72.1
		l-46.6,27.3C548.8,291.9,548.1,311.7,575.1,319.5z"/>
	<path class="st0" d="M309.8,56.1c-24.6,37.2-86.9,136.2-86.9,136.2c-14,22.2-6.8,51.2,15.9,64.5l152.9,89.4
		c22.7,13.3,52.5,5.8,66.1-16.6c0,0,86.2-141.2,94.2-154.2c8.2-13.6,18.1-15.6,26.1-7.6L482.3,0.3c-25,0.1-45,0.3-55.2,0.3
		C387.3,0.9,341.7,7.7,309.8,56.1z"/>
	<path class="st0" d="M39.4,681.9c17.2,33.3,64.9,119,99.8,181.8l108.3-176.5c12.8-21.7,36.4-62,56.2-95.3l55.5,30.7
		c28.2,15.6,45.6,6.2,38.7-20.9l-19.4-76.3c-6.9-27.1-18.1-71.5-25-98.6l-19.4-76.3c-6.9-27.1-34.4-42.4-61.2-33.9l-75.3,23.9
		c-26.8,8.5-70.5,22.4-97.3,30.9l-75.3,23.9c-26.8,8.5-25.6,28.2,2.5,43.8l40.9,22.7C47.6,501.9,23,549.4,16.8,563.1
		C5.6,587.7,12.6,630.2,39.4,681.9z"/>
	<path class="st0" d="M247.6,687.3L139.2,863.7c19.5,35,35,62.9,39.1,70.6c11.4,21.7,27.8,64,131.2,63.5
		c103.3-0.6,150.3-0.9,150.3-0.9c26.3-0.2,47.7-21.7,47.5-47.9l-1-176.8c-0.2-26.2-21.8-47.5-48.1-47.4c0,0-176,1-205.3,1.2
		c-18.5,0.1-20.9-12.1-14.4-23.5C239.5,701,242.8,695.4,247.6,687.3z"/>
	<path class="st0" d="M877.9,706.1l89.6,178.2c31.3-57.5,84.6-157.5,106.3-200.7c29.1-57.8,37.3-107.9,23.9-134.2
		c-13.4-26.4-79.8-154.5-79.8-154.5c-12.1-23.3-40.3-31.1-62.7-17.4l-151.9,93.1c-22.4,13.7-30.3,43.7-17.5,66.6
		c0,0,46.1,82.7,71.9,128.9c8,14.4,14,25.2,16.1,29C876,699.1,877.3,702.8,877.9,706.1z"/>
	<path class="st0" d="M945.3,924.3c3.5-6,11.6-20.6,22.2-40l-89.6-178.2c1.9,10.3-3.4,17.4-16.2,17.5c-8.8,0.1-52.4,0.3-92.6,0.5
		l-0.5-55.3c-0.3-32.1-17.1-42.5-37.4-23.2l-57,54.4c-20.3,19.3-53.5,51-73.7,70.4l-57,54.4c-20.3,19.4-20,50.7,0.6,69.7l58,53.4
		c20.6,19,54.3,50,75,69l58,53.4c20.6,19,37.3,8.3,37-23.8l-0.5-52.5c22.7-0.1,47.8-0.3,70.9-0.4C906.9,993.4,931.2,948,945.3,924.3
		z"/>
</g>
</svg>
