<?xml version="1.0" encoding="utf-8"?>
<!-- Generator: Adobe Illustrator 24.0.3, SVG Export Plug-In . SVG Version: 6.00 Build 0)  -->
<svg version="1.1" id="Layer_1" xmlns="http://www.w3.org/2000/svg" xmlns:xlink="http://www.w3.org/1999/xlink" x="0px" y="0px"
	 viewBox="0 0 1118 1080" style="enable-background:new 0 0 1118 1080;" xml:space="preserve">
<style type="text/css">
	.st0{fill:#FFFFFF;}
</style>
<g>
	<path class="st0" d="M597.3,343.2c4.7,0.7,9.3,1.2,13.9,2.1c19.8,4,38.3,11.1,53.9,24.4c16.2,13.8,25.2,31.9,30.9,52
		c6.7,23.5,4.4,46.7-2.5,69.7c-2.9,9.5-6.6,18.8-10.1,28.1c-0.7,1.9-1.8,3.6-3,5.2c-2.3-11.6,4.1-20.8,8.3-31.2
		c-5.5,2.3-8.9,5.9-11.2,10.6c-3.5,7-4.1,14.5-3.2,22.1c0.5,4.3,3.3,7.5,6.3,10.4c2.5,2.3,5.1,4.7,7.6,6.9c3.9,3.4,6.2,7.6,5.7,12.7
		c-0.6,6.2-1.6,12.2-2.9,18.2c-0.3,1.6-2.3,3.4-3.8,4.1c-3.6,1.4-7.4,2-11.2,3c-1.9-7.3-1.7-14.2-0.8-21.1c-0.2-0.2-0.5-0.3-0.7-0.4
		c-1.2,1.5-2.6,2.8-3.4,4.4c-2.4,4.7-2.7,9.7-1.3,14.8c1.1,4,2,7.9,3,12c0.5,2.2-0.2,4-1.9,5.5c-7,6.6-15.7,9.3-24.9,10.5
		c-3.8,0.5-6.4-1.8-8.6-4.4c-2.8-3.2-5.3-6.8-8.2-10c-3.8-4.4-8.6-6.5-14.8-5.6c0.8,0.6,1.5,1.2,2.3,1.9c4.3,3.7,8.9,7.1,12.9,11.1
		c4.3,4.2,4.9,12.9,2,18.2c-1.2,2.3-3,2.9-6.2,1.7c-1.8-0.6-2.6-0.1-3.3,1.3c-1.3,2.8-2.6,5.6-3.5,7.5c-4.2,1.2-7.8,2.2-11.2,3.5
		c-3.3,1.2-3.3,1.4-4.7-1.8c-0.2-0.5-0.5-1.1-0.9-1.8c-6.4,2.3-8,8.6-11.7,13.6c-0.5-1.7-0.8-3.2-1.5-4.4c-1.6-2.7-3.5-5.4-5.4-8
		c-0.9-1.2-2.1-1.1-3-0.1c-1.6,1.8-3.2,3.6-4.7,5.5c-1.2,1.6-2.3,3.2-3.8,5.2c-1.2-1.3-2.2-2.4-3.2-3.5c-0.5-0.6-0.9-1.2-1.4-1.9
		c-3.6-4.8-5.9-5.1-10.1-0.9c-0.5,0.5-1.2,1-1.8,1.6c-1.2-0.9-2.2-1.9-3.4-2.4c-2.9-1.2-5.8-2.3-8.9-2.9c-1.9-0.3-3.3-0.7-4.3-2.3
		c-1.9-3-4.1-5.1-8-3.5c-0.4,0.2-1.3-0.5-1.6-1c-1.6-3.4-3-4.1-6.7-2.8c-1.3,0.5-2.6,1-3.8,1.5c-0.5-2.4-0.8-4.8-1.6-7.1
		c-2.2-6.1-7.9-6.9-12.2-1.9l0.1-0.1c-1.4,1-2.8,2-4.2,3.1c-0.2-0.1-0.4-0.2-0.6-0.3c0.3-1.4,0.4-3,1.1-4.2
		c3.4-5.8,6.4-11.8,10.4-17.1c5.1-6.9,15.9-8.5,24.2-4.4c2.9,1.4,5.7,3,9.1,4.9c-0.2-1.5-0.2-2.4-0.5-3.2c-1.3-4.3-7.8-9.1-12.4-9.2
		c-7.4-0.1-14.3,2.1-20.8,5.4c-4.4,2.2-8.6,4.7-13,6.9c-10.8,5.2-12.5,3.6-19-3.5c-5.5-5.9-7.2-13-6.3-21c0.9-7.5,0.2-15-2.2-22.2
		c-1.2-3.7-3.2-6.8-6.7-9.4c-0.8,7.9,3.2,14.7,3.2,22.1c-3.4,0-5.1-1.2-5.8-4.5c-0.9-4.4-1.4-9-2.1-13.5c-0.3-1.9-0.5-3.7-0.8-5.6
		c-0.5-3.9,0.3-7.6,3.2-10.2c3.9-3.4,4.8-7.7,5.8-12.2c0.5-2.3,0.5-4.8,0-7.2c-1.3-6-3-11.9-4.5-17.9c-0.3,0-0.5,0-0.9,0
		c-0.3,1.2-0.9,2.5-0.8,3.7c0.3,4.9,0.9,9.7,1.2,14.6c0.2,2.6-0.2,5.4-0.4,8c-0.3,0.1-0.6,0.1-0.9,0.2c-0.9-1.5-1.8-2.9-2.4-4.4
		c-4.4-10.4-6-21.5-7.1-32.6c-2-21.5,0.8-42.4,9.1-62.4c10.2-24.5,28.2-42,51-54.9c18.2-10.2,37.8-16.3,58.6-18.6
		c0.5-0.1,0.9-0.3,1.4-0.5C580.4,343.2,588.8,343.2,597.3,343.2z M541.2,558c-0.5-10.8,1.5-16.3,9-23.3c2.3-2.2,4.8-4.1,7.1-6.4
		c2.8-2.9,5.8-5.7,8.2-9c3.4-4.4,4.8-9.7,4.9-15.6c-11.8,0.7-22.8-2.1-33.7-6.2c-3.4-1.3-6.1-3.3-8.3-6.2
		c-4.8-6.2-10.2-11.6-16.8-15.8c-5.1-3.2-10.5-3.4-16.1-1.6c-0.8,0.2-1.6,0.7-2.3,1.1c6.2,0.6,12.9-1.1,15.9,6.8
		c-3.4,0.8-6.5,1.4-9.6,2.3c-1.7,0.5-3.6,1.5-4.8,2.7c-6.6,7.2-11.1,15.4-13,25.1c-0.8,4.1-0.3,7.6,2.8,10.7
		c4.1,3.9,8.2,7.9,12.3,11.8c3.6,3.4,7.2,6.7,10.8,10.1c1.6,1.4,1.3,2.9-0.4,3.7c-2.3,1.1-4.9,1.9-7.5,2.6c-2.6,0.6-5.5,0.9-8.2,1.2
		c3.4,2,6.9,2.1,10.5,1.6c6.5-0.9,12.5-3.3,18.2-6.2c1.5-0.8,3-2.1,3.8-3.5c8.4-13.5,21-21.3,35.5-26.9c-0.6,1.8-1.3,3.5-2.5,5
		c-3.3,4.1-6.7,8.1-10.1,12.1c-4.5,5.3-7.3,11.2-7.4,18.2C539.5,554.4,539,556.6,541.2,558z M668.1,486.9c-1.6-2.6-3.5-2.5-5.5-2.4
		c-4.7,0.2-8.8,2.2-12.8,4.5c-7.2,4.1-14.5,8.3-21.8,12.2c-10.6,5.8-21.9,7.9-33.9,6c-3-0.5-6-0.5-9.2-0.8c0.6,5.4,3.6,9.2,6.3,13
		c2.9,3.9,5.7,7.9,6.2,12.9c0.3,3,0.2,6.2,0.2,9.3c0,4.9,1.9,9.3,4.5,13.2c1.3,1.9,3.1,3.2,6.1,2.9c-9.7-6.5-6.9-16.1-7-25.7
		c2.6,1.9,4.9,3.3,6.9,4.9c6.8,5.6,12,12.5,16.8,19.8c3.3,4.9,7.9,7.6,13.5,8.6c2.6,0.5,5.3,0.7,7.6-1.8c-5.5-1.5-11.5-1.9-14.3-8.1
		c0.3-0.2,0.5-0.4,0.8-0.5c13.7-4.4,23.8-13.7,33-24.4c1.2-1.3,2.1-3.4,2.2-5c0.2-6.2-0.1-12.4,0-18.5c0.1-4.4-1.9-7.1-5.8-8.8
		c-3.4-1.5-6.8-3.2-10.4-4.9C656.3,489.5,661.2,486.3,668.1,486.9z M572.5,518.4c-2,5.1-3.4,9.6-5.5,13.7c-1.8,3.6-4.2,6.9-6.3,10.3
		c-3,4.7-5.6,9.5-6.5,15c-0.9,5.1-1,10.3,1.2,16c0.4-1.2,0.5-1.7,0.7-2.3c0.5-1.6,0.9-3.3,1.8-4.5c0.8-1,2.3-1.8,3.6-2
		c0.6-0.1,1.5,1.5,2.2,2.3c0.5,0.8,0.9,1.6,1.6,2.7c0.6-1.9,0.8-3.5,1.6-4.5c0.9-0.9,2.4-1.3,3.7-1.9c0.4,0.9,0.9,1.9,1,2.9
		c0.6,5.5,1.2,10.9,1.7,16.3c0,0.1,0.2,0.1,0.6,0.2c0.2-3.4,0.3-6.7,0.8-10c0.4-2.6,1-5.5,2.2-7.9c0.7-1.4,2.8-3,4.1-2.9
		c1.2,0.1,2.2,2.4,3,3.9c0.5,0.8,0.4,1.8,0.5,2.7c0.2,2.1,0.5,4.2,0.6,6.4c0.7-2.6,0.9-5.1,1.5-7.6c0.8-3.2,4.4-4.1,6.6-1.6
		c1.2,1.4,1.9,3.4,2.6,5.2c0.5,1.6,0.6,3.4,0.9,5.1c0.3,0,0.6,0,0.9-0.1c0-2.4-0.2-4.8,0-7.2c0.3-3.6-0.9-6.5-2.6-9.7
		c-1.6-3-3.2-6.5-3.1-9.9c0.2-6.2-1.4-11.7-4.4-16.9c-3-5.3-5.7-10.8-5.9-17.1c-0.5,9.3,0.1,18.7-5.8,27c-1.2-1.6-2.5-3.1-2.7-4.8
		c-0.4-3.2-0.2-6.5-0.2-9.7C572.7,524.7,572.6,521.7,572.5,518.4z M556.8,449.4c1.9-4.3,1.9-7.6,1.4-11.1c-1-7.3-4.6-13.6-7.6-20.2
		c-0.8-1.6-1.2-3.4-1.5-5.1c-0.4-3-0.3-6.2-0.9-9.2c-1.5-7.8-1.7-15.3,2.3-22.6c0.5-1,0.8-2.3,0.9-3.4c0.5-3.4-1.7-5.8-4.9-4.8
		c-2.1,0.6-4.1,2-5.7,3.6c-1.5,1.4-2.2,3.5-3.4,5.1c-0.7,0.9-1.8,1.8-2.9,2.1c-3.4,0.9-6.5,2.3-8.9,4.9c-2.2,2.3-4.2,4.8-6.4,7.1
		c-4.9,5.1-7.6,11.1-8.7,18.1c-0.5,3-1,5.9-1.1,9c-0.2,6.7-2.3,12.4-7.5,16.9c-1.6,1.4-2.9,3-4.2,4.5c-3.9,4.4-7,9.2-7.2,15.3
		c-0.1,2.2-0.2,5.4,1.1,6.4c2.4,1.9,4.4-0.9,6.3-2.5c6.1-5.1,12.2-5.7,18.6-1c3.7,2.7,7.1,6.1,9.9,9.7c5.6,7.2,12,13,20.5,16.7
		c11.1,4.8,22.5,7.1,34.7,5.5c2.3-0.3,4.7,0.2,7,0.7c5.8,1.2,11.5,3,17.2,4c1.6,0.3,3.4-1,5.1-1.6c-0.6-1.7-0.9-3.7-1.9-5
		c-1.9-2.2-4.4-3.9-6.5-5.8c-2.6-2.3-3.1-3.8-1.9-7c0.3-0.8,0.6-1.6,0.9-2.4c0.4-1.7-0.1-2.9-1.9-3.5c-3-1-5.8-0.9-8.5,0.8
		c-2.8,1.8-5.5,3.9-8,6c-1.1,0.9-2,1.2-3.4,0.6c-9.8-4.1-17.5-10.4-22.8-19.7c-3.4-5.8-5.5-12.2-6.6-19.2
		C552.4,444.6,554.4,446.8,556.8,449.4z M614.2,460.6c0.2,0,0.2,0.1,0.4,0.1c0.2,4.1,0.5,8.3,0.8,12.5c0.2,2.6,1.6,4.3,4.1,4.4
		c5.6,0.2,10.7,2.1,15.9,3.9c4.5,1.6,8.6-0.4,10.8-4.8c0.9-1.9,1.6-4.2,2.1-6.3c2.3-9.6,4.7-19.2,6.6-28.8c0.7-3.7,0.6-7.6,0.5-11.5
		c-0.4-6.6-1.4-13.2-1.6-19.8c-0.2-3.9-0.9-7.5-3.1-10.7c-2.4-3.6-4.8-7.2-7.2-10.7c-3.4-4.8-6-9.8-7.1-15.6c-1-5.1-1.1-5.1-5.5-2.2
		c-0.2,0.1-0.3,0.1-0.5,0.2c-2.2-1.2-4.5-2.1-6.9-2.8c-1.9-0.6-3.8-1.1-5.7-1.6c-2.6-0.7-5.2-1.6-7.9-2c-6.5-0.9-13.1-1.8-19.6-2.5
		c-2.5-0.2-5.1,0-7.6-0.1c-1.5,0-3,0.2-4.4-0.2c-5.6-2-11.3-3.6-17.4-3.5c-5.3,0.1-6.9,3-3.9,7.3c1.8,2.6,4.3,4.7,6.5,6.9
		c1.2,1.2,1.7,2.3,1.1,4.1c-0.6,1.8-0.8,3.9-0.6,5.8c0.2,3.2,2.8,4.9,5.8,4c1.9-0.5,3.6-1.6,5.2-2.6c1.9-1.2,3.8-2.6,5.8-3.7
		c0.5-0.3,2.2,0.2,2.4,0.7c2,4.4,5.7,6.2,10.1,7.1c4.4,0.9,6.9,3.5,7.3,8.1c0.1,1,0.2,2,0.3,3c0.3,3.8,1.2,7.2,4.5,9.7
		c0.9,0.6,1.3,1.9,1.7,2.5c-3.8,1.2-7.3,1.9-10.5,3.4c-2.9,1.3-3.3,3.7-1.4,6.2c1.3,1.8,3.1,3.4,5,4.8c2,1.6,4.4,2.8,6.5,4.1
		c3.7,2.3,5,5.6,4.2,10c-1.4,8.3-2.6,16.4-3.8,24.7c-0.2,1.8-0.4,3.7-0.1,5.4c0.2,0.9,1.4,1.8,2.4,2.3c0.3,0.2,1.6-0.9,1.9-1.6
		c0.6-1.3,0.9-2.7,1.3-4.1C613.3,464.4,613.7,462.5,614.2,460.6z"/>
	<path class="st0" d="M148.3,602c5-0.2,10-0.5,15-0.6c16.4-0.4,32.6,1.8,48.9,3.9c11.8,1.6,23.7,3,36.2,4.4
		c-3.4,4-6.6,7.9-10.3,12.2c4,1.6,7.4,3,11,4.3c23.1,8.2,46.2,16.8,70,22.9c5.9,1.6,11.9,2.3,18.2,1.5c9-1.1,16.8-12.3,13.9-20.9
		c-1.7-5.3-4-10.4-6.7-15.3c-1.2-2.3-4-4.2-6.5-5.1c-20.2-7-40.5-13.7-60.8-20.5c-3.1-1-6.2-2-9.4-3.1c-2.3,2.6-1.9,5.9-2.2,9.4
		c-21.7-10.1-42.6-21-60.8-36.7c23.8-1,47.4,0,71.4,3.8c-1,1.6-1.7,2.6-2.4,3.6c-0.7,1.1-1.4,2.1-1.9,3.3c-0.8,1.6-0.2,2.6,1.4,3.2
		c14.7,5.7,29.5,11.5,44.3,17c6.9,2.5,13.9,4.3,20.9,6.6c5.5,1.9,10.8,0.9,16.3-0.1c1.8-0.3,3.5-0.6,5.5-0.9
		c1.2,3.2,2.8,6.1,3.5,9.2c0.5,2.2,0.5,5-0.4,6.9c-2.3,4.8-1.9,9.2-0.6,14c1.1,4.1,1.7,8.2,2.3,12.4c0.2,1.2-0.3,2.6-0.5,4.1
		c4.4,0.5,9.3-2.6,13.6,1.9c-0.7,1-1.6,2.5-2.6,3.7c-6,7.2-5.4,10.6,3,14.8c2.5,1.2,5.1,2.3,7.8,3.4c0.7,0.2,1.7,0.1,2.4-0.3
		c4-2.3,7.9-4.9,11.8-7.3c1-0.6,2.1-1.2,3.2-1.5c6.8-1.5,13.6-3.1,20.6-1.9c1.6,0.2,3.1,0.8,5.3,1.2c-1.4,1.9-2.5,3.7-3.7,5.2
		c-2.9,3.5-5.2,7.2-6.3,11.7c-1.3,5.4-4.8,9.1-9.7,11.4c-2.1,1-2.3,2.2-2.4,4.5c-0.2,5.4-1.3,10.7-2,16.1c-0.6,4.8-1.4,9.7-1.7,14.5
		c-0.2,1.9,0.9,4,1.4,6.3c-8.3-2.1-14-7-17.6-14.5c-3.5-7.2-4.4-15-4.4-23.3c-2.6-0.3-5.1-0.9-7.8-1c-3-0.2-6,0.1-9-0.2
		c-2-0.2-3.2,0.8-3.6,2.5c-0.9,3.7-1.6,7.6-2.4,11.8c-1.8-0.6-3.7-1.2-5.6-2.1c-1.9-0.9-3.7-2.1-5.8-3.3
		c-2.9,7.7-8.4,13.5-14.2,19.2c-6,5.8-6.5,8.7-5.5,19.6c-2.5,0.8-5.1,1.6-7.7,2.3c-1.2,0.3-2.2-0.1-2.7-1.6
		c-1.6-4.6-4.9-7.8-8.9-10.4c-8.6-5.6-18.1-9.2-27.5-12.9c-15.6-6-31.2-11.7-47.6-15c-0.5-0.2-1.2-0.2-2-0.3
		c-0.1,1.4-0.2,2.6-0.2,3.9c-0.1,1.2,0,2.3,0,3.9c-22.1-9.8-41.8-23.3-61.9-36.3c24-1.2,47.5,3.5,71.7,4.4c-1.7,4-3.3,7.6-4.9,11.4
		c0.9,0.5,1.6,0.9,2.4,1.2c12.9,4.9,25.6,9.8,38.5,14.7c9.6,3.7,19.3,6.9,29.5,8c5.1,0.6,10.1,0.5,15.1-0.9
		c11.3-3.1,19.1-22.2,6.9-32.3c-3.9-3.3-8.5-6-13.2-7.8c-24.3-9-48.8-17.6-73.2-26.4c-2-0.7-4-1.6-5.9-2.4c-3.8-1.6-5-0.9-5.1,3.4
		c0,1,0.1,2,0.2,3.1c0,0.9,0,1.9,0,3.3c-1.3-0.5-2.3-0.9-3.4-1.4c-18.4-8-35.6-18.2-53.1-28.2c-9.2-5.2-18.5-10.3-27.7-15.4
		C148.3,602.4,148.3,602.2,148.3,602z M335.3,667.1L335.3,667.1c2.4,2.3,4.8,5.1,7.6,7.2c1.8,1.3,2.4,2.5,2.5,4.8
		c0.1,7.1,4.1,12.5,10.4,13.9c0.3-4.5,0.6-8.9,0.9-12.6c6.6,0.4,12.9,1.2,19.1,1.1c6.9-0.2,11.4,1.9,13.6,9c1.6,5.3,6.3,7.9,12,9.4
		c-0.3-3.9-0.4-7.5-0.9-11.1c-0.5-3.4-1.2-6.4,2.2-9.3c2.8-2.3,3.5-6.8,7.2-8.6c0.3-0.2,0.5-0.7,0.7-1c0.8-1.7,0.6-2.8-1.4-3.5
		c-3.7-1.2-7.2-0.7-10.7,1.2c-2.6,1.4-5.1,2.8-7.8,4c-2.8,1.2-5.4,0.9-7.9-1.1s-5.5-3.5-8.3-5.2c-4-2.3-8-4.6-12.2-6.9
		c1.2-3,2.5-5.8,5.3-7.6c0.7-0.5,1.6-1.9,1.4-2.4c-0.3-0.9-1.6-1.9-2.4-1.8c-1.9,0.2-4.1,0.5-5.8,1.6c-2,1.2-3.7,3-5.4,4.8
		c-1.7,1.8-3.4,2.8-6.1,2.5c-1.7-0.2-3.6,0.2-5.4,0.6c-4.3,1.1-8.5,1.1-12.8,0c-1.6-0.4-3.4-0.5-5.1-0.7c-2.1-0.2-3.8,0.8-4.4,2.8
		c-0.6,2.1,1.4,2.7,2.7,3.4C327.9,663.4,331.6,665.3,335.3,667.1z"/>
	<path class="st0" d="M969.7,658.8c-0.7,4.4-1.2,8.8-2.1,13.2c-6.9,31.6-26.6,50.6-57.6,58.3c-6.6,1.6-13.4,0.6-20-0.5
		c-11.8-2-23.7-4.3-35.5-6.6c-8-1.6-15.6,0-23,2.6c-4.1,1.5-7,4.3-8.8,8.5c1.9-1.4,3.8-2.8,6-4.4c1.6,8.1-1.6,13.2-8.5,14.8
		c-9.7,2.1-17.1-5.9-14.5-15.6c1.2-4.4,3.7-8,7.6-10.4c9-5.3,18.6-8.5,29.2-7.4c11.1,1.1,22.1,1.9,33.1,3.4
		c19.6,2.7,36.8-2.6,53-13.9c14.5-10.1,20.6-24.2,22.4-40.5c2.9-28-14.6-47.6-40.1-55.9c-14.3-4.7-27.8-3-41.5,2.2
		c-8.3,3.1-15.6,7.6-22,13.6c-13.4,12.5-26.8,25-40.2,37.5c-3.4,3.1-6.9,6.1-10.3,9c-1.2,1-2.6,1.9-3.9,2.9
		c-0.2-0.2-0.4-0.2-0.6-0.4c0.5-0.9,0.8-2,1.5-2.9c12.8-14.9,25.8-29.6,40.6-42.5c11-9.7,22.8-18.1,36.6-23.2
		c0.3-0.1,0.6-0.3,0.9-0.5c-0.1-0.2-0.2-0.4-0.2-0.6c-3.3,1.2-6.6,2.1-9.7,3.6c-16.4,7.9-30.5,19-42.7,32.4
		c-10.2,11.3-20.1,22.8-30.2,34.3c-4.3,4.9-10.1,7.6-15.7,10.6c-18.4,10-38.1,16.6-58,22.8c-29.5,9.3-59.4,16.6-89.1,24.8
		c-5.5,1.5-10.9,3.1-16.3,4.9c-4.2,1.4-8.3,1.5-12.3-0.1c-6.7-2.5-13.5-5-20.6-7.6c3-1,5.8-2,8.6-3c7.2-2.4,15.2-3.7,21.5-7.6
		c8.2-5.1,17.1-6.5,25.9-8.6c26.5-6.5,53-12.8,79.5-19.1c4.8-1.2,9.7-2.1,14.6-3c10.4-1.9,19.4-7.4,28.6-12.2
		c20.5-10.5,38.3-24.6,54.6-40.7c10.5-10.4,21.4-20.4,32.7-30c10.8-9.2,23.2-16.3,37.4-18.9c23.3-4.4,44.9,0.5,62.8,16
		c12.6,10.9,21.1,25.3,25.3,41.8c0.6,2.4,0.9,5,1.3,7.5C969.7,651.3,969.7,655.1,969.7,658.8z M722.2,687.4c0-0.2,0-0.3-0.1-0.5
		c-0.7-0.1-1.4-0.2-2.1-0.2c-2.4-0.2-4.3,1.4-6.4,1.9c-9.7,2.8-19.6,4.5-29.1,8.2c-8.8,3.4-18.2,5.3-27.3,7.6c-4,1-8.1,1.7-12.2,2.5
		c0-0.2-0.1-0.3-0.1-0.5c1.6-0.5,3.2-0.9,5.2-1.6c-5.4,0.1-12,1.8-16.4,4.1c-3.7,1.8-7.4,3.7-11.3,5c-9.7,3.3-19.6,6.2-29.5,9.3
		c-0.7,0.2-1.4,0.5-2.1,0.8c0.1,0.3,0.2,0.5,0.3,0.9c2.5-0.6,5-1.2,7.4-1.9c10.1-3.1,20-6.6,30.2-9.5c30.5-8.6,61.1-17,91.6-25.4
		C721.1,688,721.6,687.7,722.2,687.4z"/>
	<path class="st0" d="M736.7,928c-2.9-1.6-3.7-4.3-3.7-7.4c0.2-8.4,0.3-16.8,0.3-25.2c0-5-0.2-10-0.8-14.9c-0.5-4,0.7-7.6,2.1-11
		c0.5-1.2,2.9-2,4.5-2.3c4.8-0.9,9.4,0.2,13.9,1.6c0.4,0.2,0.9,0.3,1.1,0.6c1.6,3.7,4.4,6.8,3.6,11.3c-0.5,2.6,0.2,5.4,0.2,8.1
		c0,0.9-0.1,1.9-0.2,2.7c-0.1,0.4-0.5,1-0.5,1.2c2.6,2.3-0.3,3.3-1.2,4.1c-2.6,2.3-3.4,4.7-2.2,8c0.5,1.6,0.3,3.5,0.5,5.3
		c0.1,0.7,0.4,1.4,0.6,2.1c1,2.6,2.4,5.1,3,7.9c0.7,3,0.8,6.1-2.3,8.2c-0.3,0-0.7,0-1,0c-4.4-2.7-6.1-6.6-5.2-11.8
		c0.2-0.7-0.1-1.6-0.3-2.3c-0.8-2.8-1.6-5.5-2.5-8.3c-0.5-1.5-0.5-3.1-1.3-4.4c-0.6-1-2.3-2.3-3-2.1c-1.6,0.5-2.7,1.9-2.5,4
		c0.2,1.8,0.7,3.6,0.5,5.4c-0.7,6.5-0.2,13.3-3.3,19.4C737.1,928,736.9,928,736.7,928z M743.2,894.1c0.9-2.1,2.3-1.5,3.9-1.2
		c0.8,0.2,2.1,0,2.5-0.5c2.9-4,2.6-13.6-0.5-17.5c-1.3-1.7-3-2.5-5.1-2.1c-2.3,0.5-3.5,1.9-3.6,4.1c-0.2,4.3-0.1,8.6-0.2,12.8
		C740.2,891.9,741,893.2,743.2,894.1z"/>
	<path class="st0" d="M785.7,816.2c2-0.4,4.1-0.9,6.2-1.2c0.1-0.2,0.2-0.2,0.2-0.4c-1.5-0.3-3-0.9-4.5-0.8c-3.3,0.2-6.5,0.6-9.7,1.2
		c-4.3,0.8-8.1-0.2-11.9-2.3c-3.7-2-7.7-3.8-11.5-5.9c-0.8-0.5-1.2-1.6-2.2-2.8c-9.5,2-18.5-1.9-27.4-6c-5.3-2.4-10.7-4.4-16.6-4.4
		c-0.8,0-1.7-0.3-2.4-0.8c-6.7-5-14.5-6.5-22.4-7.9c-0.9-0.2-1.7-0.4-2.6-0.4c-2.2,0.1-3.4-0.8-3.4-3.3c-9.5,1.2-17.5-1.8-24.9-7
		c0-0.2,0.1-0.5,0.1-0.8c1.2-0.2,2.6-0.4,3.8-0.6c0-0.2,0-0.4,0-0.5c-7.2-0.4-14.4-0.9-21.6-1c-3.2-0.1-5.2-1.6-7.3-3.6
		c-0.5-0.5-1.3-1.1-2-1.1c-11.8-0.4-21.9-5.9-32.1-11.2c-1-0.5-1.6-1.9-2.6-3.1c-6,0.8-12.5,0.6-18.6-1.7c-5.5-2.1-10.6-4.9-16-7.2
		c-1.9-0.8-3.9-1.1-5.8-1.6c-4.4-1.2-8.8-2.1-13-3.7c-3.7-1.3-7.1-3.4-10.9-5.2c0.5-0.8,0.9-1.6,1.8-3c-15.5,2.9-27.9-4.8-40.8-10.4
		c0-0.2,0-0.5,0-0.7c2.2,0,4.3,0,6.5,0c0-0.2,0-0.5,0-0.7c-5.1-2.3-10.4,0.5-16.1-0.5c0.9-1,1.6-1.8,2.8-3.1
		c-6.5,1.2-12.7,1-18.5-1.2c-5.6-2.1-12.4-2.6-15.4-9.4c-11.3,2.1-21.7-1.1-32.2-5.8c1-0.9,1.7-1.6,2.5-2.3c0-0.2-0.1-0.5-0.1-0.7
		c-2,0-4.1-0.2-6,0.1c-1.6,0.2-2.2-0.5-2.3-1.9c-0.4-3.7,0.8-6.3,3.7-9c4.9-4.6,10-4.1,15.5-2.2c2.8,1,5.6,2.1,8.4,3.2
		c0.5,0.2,0.9,0.9,1.4,1.2c-0.6,0.3-1.2,0.7-1.9,0.8c-0.9,0.1-1.9-0.2-2.7-0.3c0,0.2-0.1,0.4-0.1,0.6c2.7,0.4,5.5,0.7,8.3,1.2
		c6.2,1.1,12.3,2.2,18.4,3.6c2.5,0.5,4.8,1.9,5.5,4.9c0.1,0.4,1.2,0.9,1.8,0.9c5.7,1,11.5,1.6,17,3c3.4,0.9,6.5,2.9,9.8,4.3
		c1.8,0.8,3.7,1.7,5.5,1.7c6,0,11.1,2.3,15.8,5.5c1.3,0.9,2.7,1.8,4,2.8c2.1,1.7,4.2,2.6,7.2,1.9c2.3-0.5,5,0.3,7.2,1.2
		c9.7,3.7,19.4,7.9,29.2,11.6c2.1,0.9,4.5,1.3,6.8,1.3c9.2-0.1,16.9,3.3,23.5,9.5c0.9,0.8,1.9,1.3,2.8,2c0.2-0.2,0.4-0.4,0.5-0.6
		c-1.1-0.9-2.2-1.6-3.3-2.5c0.2-0.4,0.4-0.7,0.6-1.1c3,0.9,6.2,1.5,9.1,2.8c3.6,1.6,6.8,4.1,10.2,6c2.3,1.2,4.8,2.2,7.2,3.2
		c0.2-0.2,0.3-0.5,0.5-0.8c-0.9-0.8-1.7-1.5-2.7-2.3c8.6-1.9,14.1,4.9,21.3,7.4c-0.6,0.9-1.1,1.5-1.7,2.3
		c14.3,1.5,28.9,0.2,42.3,6.5c-0.9,1.2-0.9,1.2-6.9,1c0.9,0.6,1.8,1.6,2.8,1.8c2,0.3,4.1,0.5,6.2,0.2c5.1-0.5,9.7,0.5,14.3,2.6
		c1.9,0.9,3.8,1.6,6.2,2.6c-1.4,1-2.6,1.9-3.8,2.7c3.1,0,6.3,0.1,9.5,0c5.9-0.1,11.6,1.2,17.1,3.4c4.1,1.6,8.2,3,12.4,4.6
		c-1.1,0.8-2.2,1.6-3.7,2.6c1.2,0,1.9,0.2,2.3,0c6.2-1.9,11.9-0.2,17.3,3c2.6,1.6,5.1,3.4,7.6,4.8c0.9,0.5,2.1,0.9,3.1,0.7
		c6-1,11.2,0.5,16.1,4.1c2.7,1.9,5.4,4.1,8.3,5.7c2.3,1.3,5,1.9,7.6,3c0.2-0.3,0.4-0.6,0.5-0.9c-0.9-0.9-1.9-1.6-3-2.5
		c4.3-1.1,8.1,0.5,12,2.3c3.4,1.6,7,3.1,10.6,4.6c0.5,0.2,1.2,0.4,1.8,0.2c4-1.2,6.6,0.9,9.3,3.3c1.1,1,2.5,1.7,3.9,2.6
		c0.5-0.9,0.9-1.6,1.2-2.1c5.7-0.1,10.8,1.3,16,4c8.3,4.3,17.5,5.5,26.6,6.9c3.5,0.5,6.9,1.9,10.2,3.3c1,0.4,1.6,1.8,2.6,3.2
		c-3,0-5.2,0-7.5,0c0,0.3,0,0.7-0.1,1c2.2,0.1,4.3,0.4,6.5,0.3c5.2-0.2,10.5-0.7,15.7-0.5c3,0.1,6,1.2,9,2c0.8,0.2,1.7,1.2,1.9,1.9
		c1.6,6.9-1.1,15.3-10.5,16.1c-4.2,0.3-7.4-1.7-10.9-3.8c5.1-5.4,10.9-9,18.5-9.1c0.1-0.3,0.1-0.5,0.2-0.9c-0.9-0.3-2-1.1-2.7-0.9
		c-3,1-6.4,1.8-9,3.7c-9.1,6.5-18.5,6.5-28.2,1.8c-2.7-1.3-5.5-2.5-8.2-3.7c-5.1-2.3-10.5-3.5-16.3-3.4c-6.3,0.2-11.6-2.6-17.1-6.2
		c5.1-3,9.3,0.4,13.6,0.9c0.1-0.2,0.2-0.5,0.2-0.8c-1.7-0.6-3.4-1.6-5.1-1.7c-3.3-0.3-6.5-0.4-9.8-0.2c-6.5,0.5-12.5-1-18.2-4
		c-0.7-0.4-1.4-0.9-2.4-1.6c1.2-0.5,2.2-0.9,3-1.2c0-0.2,0-0.4,0-0.5c-1.2-0.1-2.5-0.5-3.5-0.1c-7.1,2.6-13.5,1.2-19.6-2.6
		c-0.5-0.4-1.2-0.5-1.9-0.8C785.7,816.8,785.7,816.5,785.7,816.2z M697.2,775c-3-0.5-5.4-0.9-8.1-1.3
		C690.7,775.9,692.3,776.2,697.2,775z"/>
	<path class="st0" d="M466.7,756.8c0.4,0.5,0.9,1,1.6,1.8c-2.3,0.7-4.3,1.3-6.3,2c-33.6,11.8-68.2,20.3-102.6,29.3
		c-10,2.6-19.9,5.1-29.8,8.1c-3.7,1.1-6.9,3.3-10.4,4.9c-2,0.9-4.1,1.8-6.2,2.6c-5.5,2.1-11,4.1-16.4,6.2c-1.2,0.5-2.2,1.4-3,2.6
		c4.4-1.6,9-2.9,13.3-4.9c17-8.3,34.8-13.6,53.1-17.9c34.6-8.3,68.6-18.5,102.5-29.3c17.3-5.5,35-9.6,52.4-14.4
		c3.7-1,7.2-2.6,10.8-3.8c-0.2-0.4-0.2-0.7-0.4-1.1c-18.6,5.3-37.3,10.6-55.9,15.8c-0.2-0.2-0.4-0.5-0.6-0.7
		c0.5-0.5,0.9-1.4,1.6-1.6c18.4-5.3,36.9-10.5,55.3-15.6c1.1-0.3,2.5,0.2,3.7,0.6c3.3,1.4,6.3,3.1,9.6,4.4c3.3,1.2,6.7,2,10.4,3
		c-0.9,0.5-1.9,1.2-3,1.5c-7.8,2.3-15.7,4.7-23.5,6.9c-11.5,3.3-22.8,7.2-34.4,9.7c-19.9,4.1-38.6,12-58.3,16.4
		c-13,2.9-25.8,6.5-38.7,9.9c-12.8,3.4-25.6,6.8-38.3,10.4c-18.2,5.2-36.7,9.8-55.2,14.1c-13.2,3-26.3,7.6-39.2,12
		c-9,3.1-17.8,7.2-26.6,11.1c-4.1,1.7-7.9,1.6-10.4-0.8c-2.3-2.3-2.3-4,0.5-5.7c1.6-1,3.4-1.5,5.1-2.3c3.5-1.6,6.9-3.2,10.5-4.6
		c3-1.2,5.9-2.1,9-3c3.4-1.1,6.8-2,10.1-3c4.5-1.3,9-2.6,13.6-4c2.5-0.8,4.9-1.6,7.3-2.4c2.4-0.9,4.8-1.9,7.2-2.9
		c-0.3-0.2-0.7-0.5-1.9-1.5c7.8-1.9,15-3.7,22-5.5c0-0.2-0.1-0.5-0.1-0.8c-1.1,0-2.3-0.2-3.4,0c-10.9,2.3-21.8,4.8-32.7,7.2
		c-4.7,1-9.3,2.2-14.1,3.1c-1.6,0.3-3.2,0.2-4.8,0.3c-0.2-0.3-0.2-0.5-0.4-0.9c1.4-0.8,2.7-1.9,4.2-2.3c10.8-2,21.8-3.7,32.6-5.8
		c8.6-1.7,17.1-3.6,25.6-5.9c42.8-11.8,85.5-23.7,128.2-35.5c7.5-2.1,14.9-4.2,22.4-6.3C464.2,757.9,465.3,757.4,466.7,756.8z"/>
	<path class="st0" d="M427.8,921.6c-0.1,0.2-0.5,0.9-1.1,1.7c-2.2,3.2-4.4,3.2-6.2-0.2c-1.4-2.7-2.3-5.7-3-8.7
		c-0.6-2.3-1.9-3.7-4.2-3.8c-2.8-0.2-5.7-0.1-8.4,0.2c-0.9,0.1-2.2,1-2.5,1.8c-1.2,2.7-2.1,5.6-3,8.4c-0.6,2.1-2.6,3.6-4.8,3.4
		c-2.3-0.2-3.3-1.6-3.7-3.7c-0.1-0.4-0.2-1.1,0-1.2c2.8-2.3,1.6-5.8,2.4-8.6c2.6-9,5.1-18.2,7.2-27.4c1.2-5.3,1.6-10.8,2.3-16.3
		c0.3-2.2,4-4.1,6.5-3.1c2.6,1.1,5.3,2.2,5.4,5.9c0,1.7,0.9,3.5,1.3,5.2c1.9,7.4,4.1,14.7,5.6,22.2c0.8,3.8,1.3,7.5,3.2,11
		c1,1.9,0.9,4.4,1.3,6.5C426.6,917,427.2,918.8,427.8,921.6z M414.4,900.8c-1.2-4.3-2.2-7.9-3.4-11.5c-0.5-1.5-1.2-2.9-1.9-4.3
		c-0.3,0.1-0.6,0.2-0.9,0.2c-1.6,5-3.1,10-4.8,14.9C410.6,903.9,413.3,903.3,414.4,900.8z"/>
	<path class="st0" d="M514.8,891.7c2.6,0,5.2,0.2,7.7-0.1c2-0.2,3-1.2,3-3.6c0.1-6.2,0.5-12.5,1.1-18.8c0.2-2.5,1.7-3.3,4.1-2.6
		c2.2,0.5,2.6,2.4,1.9,4.1c-1.4,3.1-0.9,6-0.2,9.2c0.9,3.8,1.2,7.7-0.7,11.6c-0.7,1.6-0.2,3.7-0.1,5.5c0.2,3.7,0.2,7.3,0.6,11
		c0.2,2.4,0.5,4.9,1.4,7.2c2,5.1,0.6,8.7-4.8,11.1c-2.6-1.9-3-5-3-7.9c0-4.9,0.3-9.8,0.6-14.6c0.3-5.1-3.4-7.9-8.1-5.8
		c-5.2,2.3-5.3,2.8-4.4,9.1c0.5,3.7,1,7.5,1,11.2c0,3.4-1.8,6-5.1,8.3c-0.8-1.2-1.8-2.2-2.2-3.4c-0.5-1.8-0.9-3.7-0.9-5.5
		c-0.3-9.9-0.5-19.7-0.6-29.6c0-1.3,0.4-2.7,0.5-4.1c0.3-3.4,0.5-6.8,0.8-10.2c0.1-1.9,0-3.7,0.2-5.6c0.1-1.4,0.5-2.6,2.4-2.7
		c1.7-0.1,2.9,0.3,3.5,2.2c1,3,1.6,5.9,0.4,9c-0.4,0.9-0.2,2.2-0.2,3.3c0.2,3.1,0.5,6.2,0.7,9.3
		C514.8,889.9,514.8,890.5,514.8,891.7z"/>
	<path class="st0" d="M645,864.5c1.7,1.9,4,3.4,4.8,5.6c0.8,1.9-0.1,4.4-0.3,6.5c-0.1,1.1-0.9,2.4-0.5,3.1c2,3.4,1,7,1.2,10.5
		c0.1,0.8,0.2,1.5,0.3,3c3.4-0.6,6.5-1.2,9.7-1.9c-0.2-0.2-0.4-0.5-0.5-0.8c0.2-1.7,0.4-3.4,0.6-5.1c0.1-0.9,0.5-1.7,0.4-2.5
		c-0.9-4.3,1.1-8.3,1.2-12.4c0.1-3.7,0.8-4.1,5.1-4c0,0.8,0,1.6,0,2.4c0,5.1-0.5,10.4,0.1,15.5c0.8,7.3-0.2,14.6-0.2,21.9
		c-0.1,3.9,1.6,7.2,2,10.8c0.8,5.3,0.2,6.7-4.8,9.2c-2.6-1.5-4-3.9-3.7-6.8c0.2-4,0.9-7.9,1.3-11.8c0.5-3.9,0.2-7.5-3.8-9.4
		c-0.8-0.4-1.9-0.6-2.8-0.4c-3.6,0.9-5.5,3.5-5.5,7c0,4.6-0.2,9.3,0.1,13.9c0.2,3.6-1.2,5.9-4.7,7.9c-0.9-1.2-2.1-2.5-2.6-4
		c-0.6-1.9-0.9-4.1-0.9-6.1c-0.2-8.8-0.2-17.5-0.3-26.3c0-3.7,0.1-7.5,1.9-11c0.6-1.2,0.2-3.2-0.4-4.5c-1.5-3.7,0.7-6.5,1.2-9.7
		C644.3,864.9,644.7,864.8,645,864.5z"/>
	<path class="st0" d="M604,915.3c0,2.1,0.4,4.4-0.2,6.4c-0.3,1.2-2,3.3-2.9,3.1c-1.7-0.2-3.9-1-3.7-3.7c0.4-5.4,0.2-10.8,1-16.2
		c1.2-7.9-0.1-15.7-0.2-23.6c-0.1-3.4,0-6.7,0.4-10.1c0.5-4.3,2.1-5.9,6.4-6c4.3-0.1,8.6,0.2,12.8,0.5c2.8,0.2,4.7,2,5.5,4.8
		c1.7,6.3,2.3,12.7,1.5,19.2c-0.6,5.1-6.9,9.7-12,9.5c-5.9-0.2-6.1-0.3-7.5,5.4c-0.9,3.4-1.1,7-1.6,10.5
		C603.6,915.3,603.8,915.3,604,915.3z M607.3,881.7c-0.2,3-0.5,5.1-0.6,7.3c0,0.6,0.3,1.7,0.5,1.7c2,0.2,4.2,0.8,6.2,0.3
		c2.1-0.5,2.7-2.5,2.6-4.8c-0.1-1.6,0-3.3,0.4-4.8c1.9-7.6-1.2-9.1-7.5-8.7c-0.2,0-0.3,0-0.5,0c-1.6,0.2-2.8,2.5-2.3,4.1
		C606.5,878.6,606.9,880.6,607.3,881.7z"/>
	<path class="st0" d="M782.2,906.5c-6.7-3.7-3.7-9.2-4.1-13.6c-0.1-0.5,0.4-1.1,0.2-1.4c-2.5-4.1-1.7-8.4-0.9-12.9
		c0.6-3.3,0.9-6.6,1.1-9.9c0.1-1.9,0.8-3.1,2.5-3.8c4.9-1.9,9.9-2.1,14.9-0.3c2.9,1,5.7,5.5,5.3,8.6c-0.3,3-0.1,5.8,1.2,8.6
		c0.5,1.2,0.8,3.1,0.2,4.3c-3,6.4-1.8,13-1.2,19.6c0.6,6.1,0.5,11.8-3.2,17c-0.5,0.6-1.2,1.3-1.9,1.4c-4.4,0.5-8.9,1.2-13.3,1.4
		c-3.2,0.2-5-1.8-5.1-4.9c-0.1-2.9-0.1-5.8-0.2-8.7c-0.1-1.9,0.3-3.4,2.3-4C780.9,907.4,781.6,906.9,782.2,906.5z M783.2,909.4
		c0,0.6,0.2,1.2,0.1,1.6c-0.7,3.6,1.7,5.3,4.1,6.9c1.9,1.3,4,1.2,5.8-0.5c2.5-2.4,3-5.3,3-8.6c-0.1-9,0.8-17.8-1.2-26.7
		c-0.2-0.8,0.3-1.9,0.9-2.5c2-2.3,1.6-4.7-0.3-6.4c-1.6-1.5-3.9-2.2-5.9-3.1c-0.5-0.2-1.4,0.1-2-0.2c-1.9-0.9-4.4,0.6-4.3,2.7
		c0.5,7.2,1.2,14.4,1.7,21.6c0.2,2.3,0.4,5.1-0.6,7.1C783.1,904.1,782.9,906.7,783.2,909.4z"/>
	<path class="st0" d="M504.7,613.3c0.4-0.1,0.8-0.2,1.2-0.4c4.8-2.6,8.6-0.9,9.7,4.5c0.9,4.3,0.1,8.3-1.2,12.4
		c-0.2,0.7-0.5,1.4-0.5,2.3c1.5-2,2.9-4.1,4.4-6.1c1.6-2.2,3.8-3.3,6.5-3.7c1.9-0.2,2.6,0.6,2.6,2.2c-0.1,1.7-0.1,3.6-0.9,5
		c-3.3,5.8-3.9,12-4,18.5c0,2.3-0.2,4.7-0.2,6.9c-0.2,2.3-1.5,3.6-3.7,2.8c-1.7-0.5-3.4-1.7-4.5-3.1c-4.1-5.1-5.2-10.9-2.7-17.1
		c0.2-0.5,0.4-1.1,0.9-1.2c-1.5,1.2-3,2.3-4.4,3.5c-1.6,1.4-3,1.4-4.7,0c-7.4-6.1-8.2-16.1-1.6-23.1c1.1-1.2,2.2-2.3,3.2-3.5
		C504.8,613.3,504.7,613.3,504.7,613.3z"/>
	<path class="st0" d="M373.9,869c-1.8,0.4-3.3,0.9-4.8,1.1c-2,0.3-4.1,0.4-6.2,0.6c-2.2,0.3-3.5,1.2-3.4,3.8
		c0.1,3.4-0.6,6.9-0.5,10.3c0.2,4.4,3.7,7.2,8,6.9c1.5-0.1,3-0.3,4.4,0.1c1,0.3,2.3,1.5,2.4,2.3c0.1,0.9-0.9,2.5-1.7,3
		c-1.6,0.8-3.4,0.9-5.2,1.3c-0.6,0.2-1.2,0.1-1.8,0.2c-5.1,0.9-5.7,1.6-5.1,6.7c0.4,3.4,1.2,6.8-0.2,10.1c-0.6,1.6,2.6,3.9,4.9,3.6
		c1.8-0.2,3.5-0.9,5.2-1.2c3.3-0.8,5.9,0.5,7.3,3.4c0.7,1.4,0.5,2.4-1,2.9c-1.9,0.5-3.8,1.1-5.8,1.2c-4.8,0.2-9.4,0.2-14.2,0.1
		c-0.7,0-1.7-0.6-1.9-1.2c-0.6-1.3-1.1-2.7-1.2-4.1c-0.5-7.6-0.9-15.2-1.3-22.8c-0.1-1.3,0.2-2.6,0.8-3.8c0.3-0.9,0.9-1.8,0.9-2.6
		c-0.2-5.4-0.6-10.8-0.5-16.2c0-2.4,0.7-4.9,1.6-7.2c0.9-2.4,3.5-3.4,6-3c2.5,0.4,5,0.9,7.5,0.9C370.7,865.2,372.3,866.3,373.9,869z
		"/>
	<path class="st0" d="M574.8,868.8c-1.9,2.1-4.4,1.9-6.7,2.3c-2,0.2-4.1,0.3-6.2,0.7c-0.7,0.2-1.7,1.1-1.7,1.7c0,4.4-0.1,9,0.5,13.3
		c0.5,3.9,2.2,4.7,6.1,4.7c1.2,0,2.4,0,3.6,0c2.3,0,4.2,1.6,4.2,3.7c0,1.2-2.6,3.8-4,3.8c-2,0-4.1-0.1-6.2-0.4
		c-1.6-0.2-2.6,0.4-3.3,1.8c-1.2,2.7-2.1,5.3-0.7,8.3c0.9,1.9,0.7,4.4,1,6.5c0.2,1.2,0.2,2.5,0.4,3.6c4.9,0.4,9.5,0.9,14.1,1.1
		c2,0.1,2.2,1.2,2.2,2.6c0,1.7-1.1,2.4-2.5,2.1c-2.3-0.5-3.9,0.4-5.8,1.2c-1.6,0.7-3.7,0.7-5.5,0.7c-1.6,0-3-0.4-4.6-0.5
		c-3.4-0.1-4.7-0.7-5.3-4.1c-0.7-3.7-1-7.5-1-11.2c-0.2-10.5-0.2-21,0.1-31.5c0.1-4,1.2-7.9,2.1-11.8c0.5-2.3,2.4-2.7,4.7-2.6
		c2.6,0.2,5.4,0.2,8.1,0.2C571.1,865.2,573.2,866.4,574.8,868.8z"/>
	<path class="st0" d="M697.8,891.3c1.2,0.2,2.3,0.5,3.4,0.7c1.6,0.2,3.2,0.4,4.8,0.5c2.7,0.2,3.6,1.1,3.4,3.4s-1.5,3.4-3.9,3.3
		c-2.5,0-5,0-7.4,0.4c-1.9,0.2-3.1,1.5-3,3.6c0.2,5,0.5,9.9,0.9,14.9c0.1,0.6,1.2,1.6,1.9,1.7c3.1,0.8,6.2,0.7,9.3-0.4
		c1.3-0.4,3.4,0,4.4,0.9c0.8,0.6,0.9,2.7,0.5,4c-0.4,1.8-2.1,2.3-3.9,2.3c-4.4,0.1-9,0.6-13.4,0.5c-4.8-0.2-5.5-1.2-6.3-6.1
		c-1.3-8.1-1.2-16.3-0.2-24.4c0.9-6.9,1.7-13.8,0.8-20.8c-0.2-1.7,0.1-3.7,0.5-5.4c1.2-4.4,2.6-5.4,7.2-5c2.6,0.2,5.3,0.3,7.9,0.6
		c1.2,0.2,2.5,0.7,3.6,1.3c0.5,0.3,0.9,1.3,0.8,1.9c-0.1,0.5-0.9,1.2-1.6,1.3c-3.3,0.6-6.6,1.1-10,1.8c-0.7,0.2-1.8,0.8-1.9,1.3
		c-1.2,6.2-1.5,12.2,1.2,18C697.3,891.6,697.6,891.4,697.8,891.3z"/>
	<path class="st0" d="M555.8,647.9c0-2.6-0.1-5.3,0-8c0.2-2.6,3.1-5.9,5.7-6.3c0.6-0.1,1.4,0.5,1.9,0.9c5.5,4.6,8.8,10.4,9.2,17.8
		c0.5,9.3-0.9,18.3-5.7,26.6c-1.4,2.4-3.1,2.9-5.3,1.8c-2.4-1.2-4.8-2.7-7-4.3c-1.6-1.1-2-2.6-1.5-4.5
		C555.4,664.1,556.1,656,555.8,647.9z"/>
	<path class="st0" d="M483.5,879c-1.2-1.9-2.2-3.4-3-5c-0.9-1.7-1.7-3.4-4-1.3c-0.3,0.3-1,0.4-1.5,0.3c-3-0.2-3.8,1.6-3.9,4.1
		c-0.1,3.4-0.5,6.8,0.2,10c0.3,1.6,2.2,3.7,3.8,4.1c3.9,1,6.9,3.1,9.3,6c0.4,0.4,0.6,1,0.6,1.6c0.6,5.2,1.2,10.4,1.7,15.6
		c0.6,6.1-2.2,9.1-8.1,10.3c-3.7,0.7-6.8,0-10-1.2c-4.1-1.6-6.8-9-4.8-12.8c0.9-1.8,3.2-1.8,4.3,0.1c1,1.6,1.6,3.4,2.7,4.9
		c3.5,4.6,7.7,4.2,9.7-1.2c1.6-4.1,2.7-8.6,0-12.8c-0.7-1-1.9-1.9-3-2.4c-2.6-1.1-5.5-1.7-8.3-2.6c-3.4-1.2-5.9-4.9-6.1-8.5
		c-0.1-1.9-0.5-3.7-0.9-5.6c-1.2-5.9,2.2-13.5,7.5-16.4c5.4-2.9,13.9-0.1,15.2,5.1C485.9,873.6,485.6,875.7,483.5,879z"/>
	<path class="st0" d="M309.4,909.1c3.3-0.1,4.1,2,4.8,4.2c0.8,2.5,2.2,3.8,4.9,3.9c4.8,0.2,6.5-0.9,6.7-5.8c0.2-3.3-0.1-6.5-0.1-9.8
		c0-1.5-0.6-2.4-2.1-2.8c-0.8-0.2-1.5-0.6-2.3-0.6c-4.7-0.1-8.3-2.4-11.5-5.5c-1.1-1-2.1-2.6-2.3-4.1c-0.5-3.8-0.9-7.7-0.7-11.5
		c0.4-8.7,10.8-15,18.2-11.4c5.5,2.7,6.3,5.2,2.9,11.1c-0.9-0.9-1.9-1.7-2.6-2.6c-1.9-2.3-6.6-2.2-8.5,0.2
		c-3.7,4.8-3.1,11.5,1.3,15.7c0.4,0.4,1,0.7,1.6,0.8c2.5,0.5,4.5,1.7,6.5,3.3c1.9,1.5,2.6,3,2.9,5.4c0.5,5.1,1.5,10.2,2.1,15.3
		c0.5,3.5-2,7.5-5.2,9c-6,2.6-10.8,1.6-15.2-3.3c-0.7-0.8-1-2-1.1-3C309.5,914.6,309.5,911.8,309.4,909.1z"/>
	<path class="st0" d="M571.6,676.8c0.9-7.9,1.8-15.3,2.4-22.8c0.2-2.6-0.2-5.3-0.9-7.9c-0.5-2-0.3-3.6,0.9-5.2
		c1.9-2.5,3.7-5.1,5.7-7.6c1.6-2,3.1-1.6,4.6,0.2c2.8,3.4,4,7.4,4.5,11.6c1.3,10.5-0.2,20.9-2.4,31.2c-0.2,0.5-0.6,1.5-1,1.6
		C580.6,678.3,575.7,678.9,571.6,676.8z"/>
	<path class="st0" d="M555.1,651.6c-0.8,5.9-1.5,11.9-2.3,17.8c-0.2,1.2-0.5,2.3-1,3.4c-1.6,4.4-2.5,4.8-6.8,2.8
		c-4.1-1.9-6.3-5.5-6.9-9.7c-1.7-10.3-1.1-20.6,2.3-30.5c1.2-3.6,1.9-3.8,5.5-3c6.2,1.4,8.4,3.8,8.8,10.2c0.2,2.9,0,5.8,0,8.7
		C554.9,651.6,555,651.6,555.1,651.6z"/>
	<path class="st0" d="M601.3,630.6c6.2,16.3,3.6,31.7,0.6,47.3c-5,0.5-8.7-1.8-12.4-4.2c-0.4-0.2-0.4-1.2-0.3-1.8
		c0.5-7.6,1.2-15.2,1.6-22.8C591.1,641.2,595.7,636.1,601.3,630.6z"/>
	<path class="st0" d="M535.7,666.6c-1.3,0.2-2.6,0.6-3.8,0.7c-3.4,0.4-5.2-0.7-6.3-4c-2.1-6.3-2.2-12.9-1.4-19.4
		c0.5-3.8,1.6-7.6,2.5-11.3c0.2-0.5,0.5-1.1,0.8-1.6c1.4-2.3,3-4.8,6-4.7c3.1,0.2,4.3,3.1,5.9,5.3c0.2,0.4,0.2,1.2,0,1.6
		c-3.7,10.4-3.7,21.3-3.7,32.1C535.7,665.7,535.7,665.9,535.7,666.6z"/>
	<path class="st0" d="M605.3,672.6c0.2-3.8,0.8-7.4,0.7-11c-0.1-7.9-0.3-16-0.7-23.9c-0.1-1.6,0.2-2.4,1.6-2.9c3-1.2,6-2.3,9.5-3.6
		c0.1,1.8,0.3,3,0.2,4.1c-0.3,9-0.4,18-1,27c-0.2,2.4-1.5,4.9-2.7,7.1C611.5,671.9,609,673.3,605.3,672.6z"/>
	<path class="st0" d="M626.4,621.1c1.3,7.2,2.3,14.2,3.9,21c1.6,7.2-2,11.5-7.5,15c-1,0.7-2.3,1.1-4.1,1.9
		c-0.2-4.6-0.6-8.6-0.5-12.7c0.1-6.7,0.6-13.4,3.3-19.6C622.4,624.6,623.6,622.5,626.4,621.1z"/>
	<path class="st0" d="M279.9,812.7c-5.9,1.6-11.9,3-17.8,4.8c-8.7,2.7-17.6,5.3-26,9c-4.7,2.1-9.1,4.6-14.3,5.6
		c-1.2,0.2-2.5,0.3-3.9,0.5c1.5-3.5,2.8-6.7,4.3-9.9c0.2-0.4,0.9-0.6,1.5-0.8c17.8-3.4,35.6-6.8,53.4-10.1c0.9-0.2,1.7-0.2,2.5-0.2
		C279.8,812,279.9,812.4,279.9,812.7z"/>
	<path class="st0" d="M629.1,620.8c6.2,4.8,8.5,10.8,8.6,18c0,3.7-0.2,7.4-3.6,9.9C632.3,646.7,628.4,625,629.1,620.8z"/>
	<path class="st0" d="M539.7,394.9c-0.5-2.5-1-5-1.8-7.4c-0.5-1.8-0.5-3.2,0.6-4.8c1.3-1.8,2.3-3.9,3.6-5.6c0.9-1.1,2.2-1.8,3.3-2.6
		c0.3,0.2,0.6,0.3,0.9,0.5c-1,3.9-2,7.7-3.1,11.9c4.2-3.5,3.4-8.5,4.5-12.8c2.2,0.8,2.7,2.3,2.4,4.1c-0.2,1.2-0.6,2.6-1.2,3.7
		c-3.9,7.3-3.7,15-2.1,22.9c0.6,3,0.8,6.1,1.2,9.3c-1.3,0-2.2,0-3.3,0c0.3,0.5,0.5,0.8,0.8,0.9c5.8,3,6.6,9.1,8.9,14.3
		c2.3,5.3,3.2,11.1,2.4,16.9c0,0.2-0.2,0.3-0.3,0.4c-0.2,0-0.4,0-0.5-0.1c-3.3-4.8-7.9-8-12.2-11.7c-4-3.4-5.1-7.9-4.8-13.2
		c-2.1,2.6-1.6,7.9,1,11.1c1.7,2.1,3.8,4,5.9,5.7c1.7,1.4,2.5,3,3,5.1c3.5,17.1,12.3,30.3,28.4,37.9c3.5,1.6,7.5,2.3,11.2,3.5
		c0.2-0.3,0.2-0.7,0.4-1c-1.6-0.6-3.1-1.2-4.7-1.8c2.3-5.3,9.4-8.7,16-7.4c-0.6,2.9-1.2,5.8-1.9,8.8c-1.4,0-2.8,0-4.2,0
		c-0.1,0.2-0.2,0.5-0.3,0.7c0.8,0.3,1.6,0.9,2.4,0.9c6.4,0.2,9.5,4.9,12.9,9.1c1.4,1.7,0.1,3.4-2.6,3.1c-4.6-0.7-9.2-1.5-13.6-2.9
		c-4.4-1.4-8.6-3.5-13.2-5.1c0.9,0.9,1.9,1.6,3.1,2.8c-11.3,1.5-21.8,0.8-32-3.4c-8.6-3.5-16.1-8.3-21.7-16.1
		c-3.7-5.1-8.2-9.7-13.8-13c-5.5-3.3-10.8-3.4-16.1,0.7c-2.1,1.7-4.4,3.1-7.2,5c-0.7-6.3,0.4-11.4,3.5-15.9
		c2.9-4.2,6.2-8.3,9.7-12.1c3.7-4,5.5-8.3,5.5-13.9c0.1-13.8,5.8-25.2,15.8-34.4c1.9-1.7,4.5-2.7,6.9-3.7c1.9-0.8,3.1,0.2,3.3,2.3
		c0.2,1.2,0.3,2.6,0.6,3.8c0.3,1.2,0.9,2.3,1.3,3.4C539,395.1,539.4,394.9,539.7,394.9z M535.4,399.9c0.5,2.2,0.8,3.7,1.2,5.7
		c1.4-1.4,2.3-2.3,3.4-3.4C538.6,401.5,537.3,400.9,535.4,399.9z"/>
	<path class="st0" d="M619.2,425.3c-0.1-0.9,0-1.8-0.2-2.6c-1.1-4.1-4.3-6.4-7.3-9c-4.8-4.3-9.7-8.5-9.5-16.1c0.2-6-3-9.6-8.8-10.7
		c-4.6-0.9-7.9-3-9.7-7.4c-1.6-3.7-4.7-5.4-8.7-5.2c-0.3,0-0.7,0-1,0.2c-0.2,0.1-0.3,0.4-0.7,0.7c2.8,0.7,5.5,1.4,8.8,2.2
		c-3.3,2.3-5.8,4.2-8.3,5.9c-0.9,0.5-1.8,1.1-2.8,1.3c-5.5,1.2-6.4,0.1-5.6-4.7c0.1-0.7,0-1.5,0.3-2c1.7-3-0.2-4.7-2.1-6.5
		c-2.8-2.6-5.9-5.1-6.9-9.1c-0.1-0.4-0.2-0.8-0.2-1.3c12.7-2.2,23.2,3.4,33.7,9.2c0.2-0.2,0.3-0.5,0.5-0.8c-1.2-0.8-2.4-1.6-3.6-2.4
		c-1.2-0.9-2.6-1.7-3.8-2.6c0.2-0.3,0.2-0.7,0.4-1c2,0.2,4.1,0.2,6.2,0.5c7.7,1,15.6,1.7,23.2,3.3c5.3,1.1,10.4,3.4,15.6,5
		c0.8,0.2,1.8,0.3,2.6,0.2c1-0.2,1.9-0.8,3.1-1.2c0.3,1.7,0.5,3.4,0.9,4.9c1.2,5.5,4,10.1,7.2,14.4c2.1,2.7,4.2,5.5,6.2,8.3
		c2.3,3.3,3.6,6.9,3.4,10.9c-0.4,7.6,0.2,15.1,2,22.5c1.2,5-0.5,9.7-1.6,14.4c-1.9,8-3.7,16.1-5.6,24.1c-0.2,0.9-0.3,1.7-0.5,2.5
		c-1.9,6.8-6.2,9.1-12.7,6.2c-4.6-2-9.3-3-14.2-3.4c-1.7-0.1-2.4-0.8-2.3-2.5c0.2-6.5,0.1-13,0.2-19.6c0.1-3.4-0.2-6.5-2.3-9.3
		c-1.8-2.6-2.6-5.5-2.7-8.7c-0.2-1.9-1.5-4.2-3-5.6c-2.1-2-4.8-3.3-7.2-5c-1.6-1.2-3.4-2.4-4.8-3.9c-2.3-2.4-1.8-5.1,1.3-6.1
		c10.1-3.4,15.3-1.2,18.9,7.4c0.4,0.9,0.7,1.7,1.1,2.6C618.7,425.3,618.9,425.3,619.2,425.3z M628.8,439.4c-2.3,0.5-4.5,0.7-6.2,1.6
		c-0.7,0.4-1.1,3-0.6,3.6c1.6,1.6,3.7,2.6,5.7,3.7c0.1,0,1-1.1,1.1-1.8C628.9,444.3,628.8,442.2,628.8,439.4z"/>
	<path class="st0" d="M612.5,443.1c3,4.9,4.6,9.3,1.4,14.5c-1.6,2.6-1.8,6-2.6,9.1c-0.4,1.3-0.9,2.6-1.2,3.8
		c-0.3,0.1-0.6,0.1-0.9,0.2c-0.3-1-1-2.2-0.9-3.1C609.5,459.5,611,451.6,612.5,443.1z"/>
	<path class="st0" d="M335.3,667.1c0.9-2.2,1.8-4.4,2.9-6.4c0.5-0.9,1.4-2.2,2.3-2.4c2.7-0.7,5.5-1.2,8.3-1.2s4.9-0.6,6.9-2.7
		c1.7-1.9,3.8-3.7,5.9-5.3c1.7-1.3,3.7-1.6,5.6-0.8c-2.5,3.4-5,6.8-7.5,10.3c4.4,2.3,8.3,4.3,12,6.5c3.6,2.1,7,4.4,10.4,6.7
		c2.9,1.9,5.8,2.4,9,0.8c2.8-1.5,5.5-3.2,8.6-4.2c2.4-0.9,5.1-0.9,7.8-1.1c0.6-0.1,1.6,0.7,1.9,1.4c0.2,0.4-0.5,1.5-1.1,1.8
		c-3,1.6-4.4,4.3-6,7.2c-0.9,1.6-2.5,2.8-4.3,4.7c0.5,4.5,1.2,9.8,1.9,15.6c-5.1-1.7-8.6-4.8-10.1-9.2c-2.1-6.7-7-8.1-12.9-8.6
		c-5.1-0.4-10.3-0.5-15.4-1c-1.9-0.2-3.7-0.9-6-1.6c-0.4,4.3-0.8,8.6-1.2,13c-2-0.1-3.9-1.2-4.8-3.2c-1.2-2.5-2.4-5.3-2.5-7.9
		c-0.1-3.1-0.9-5.1-3.6-6.6c-2.1-1.2-3.9-3-5.9-4.6C336.7,667.7,336,667.4,335.3,667.1C335.2,667.1,335.3,667.1,335.3,667.1z"/>
	<path class="st0" d="M323,658c4.7-2.7,9.4,0.9,14.6,0.2c-1.2,2.6-2.1,4.7-3,6.8c-4.3-2.2-8-4.1-11.8-6
		C322.9,658.6,322.9,658.3,323,658z"/>
	<path class="st0" d="M627.4,440.7c0,2.3,0,4,0,5.6c-0.2,0.2-0.4,0.2-0.6,0.4c-1.2-1.2-2.4-2.3-3.7-3.6
		C624.4,442.4,625.6,441.7,627.4,440.7z"/>
</g>
</svg>
