<?xml version="1.0" encoding="utf-8"?>
<svg version="1.1" id="Layer_1" xmlns="http://www.w3.org/2000/svg" xmlns:xlink="http://www.w3.org/1999/xlink" x="0px" y="0px"
	 viewBox="0 0 1118 1080" style="enable-background:new 0 0 1118 1080;" xml:space="preserve">
<style type="text/css">
	.st0{fill:#FFF;}
</style>
<g>
	<path class="st0" d="M784.4,751.7c-0.4-2.3-1.4-4.9-2.9-7.6c-1.4-2.7-5.6-10.3-11.2-20.2L784.4,751.7z"/>
	<path class="st0" d="M573.2,482l52.9,15.3c18.8,5.4,49.5,14.4,68.4,19.8l52.9,15.3c18.8,5.4,37.7-5.6,42.1-24.7l12.2-53.5
		c4.3-19,11.4-50.2,15.7-69.2l12.2-53.5c4.3-19-8-25.3-27.3-14L769,337.1c-12.1-20.6-24.3-41.2-29-48.8
		c-10.8-17.1-31.3-30.1-71.7-29.9c-29.9,0.1-109.6,0.6-159.9,0.9l66.8,116.8c1.5,1.5,2.9,3.3,4.1,5.9c3.2,6.4,15.3,28.5,27.3,50.3
		l-32.5,19C554.8,462.7,554.3,476.6,573.2,482z"/>
	<path class="st0" d="M388.1,298.3c-17.2,25.9-60.6,95-60.6,95c-9.8,15.5-4.7,35.7,11.1,45l106.7,62.4c15.8,9.3,36.6,4,46.1-11.6
		c0,0,60.1-98.5,65.7-107.6c5.7-9.5,12.6-10.9,18.2-5.3l-66.8-116.8c-17.4,0.1-31.4,0.2-38.5,0.2
		C442.2,259.8,410.4,264.5,388.1,298.3z"/>
	<path class="st0" d="M199.5,734.8c12,23.2,45.3,83,69.6,126.8l75.5-123.1c8.9-15.1,25.4-43.2,39.2-66.5l38.7,21.4
		c19.7,10.9,31.8,4.3,27-14.6L436,625.6c-4.8-18.9-12.6-49.9-17.4-68.8l-13.5-53.2c-4.8-18.9-24-29.6-42.7-23.6l-52.5,16.7
		c-18.7,5.9-49.2,15.6-67.9,21.6l-52.5,16.7c-18.7,5.9-17.9,19.7,1.7,30.6l28.5,15.8c-14.5,28-31.7,61.1-36,70.7
		C175.9,669.1,180.8,698.7,199.5,734.8z"/>
	<path class="st0" d="M344.7,738.5l-75.6,123c13.6,24.4,24.4,43.9,27.3,49.2c8,15.1,19.4,44.6,91.5,44.3
		c72.1-0.4,104.8-0.6,104.8-0.6c18.3-0.1,33.3-15.1,33.1-33.4l-0.7-123.3c-0.1-18.3-15.2-33.1-33.6-33.1c0,0-122.8,0.7-143.2,0.8
		c-12.9,0.1-14.6-8.4-10-16.4C339.1,748.1,341.4,744.2,344.7,738.5z"/>
	<path class="st0" d="M784.4,751.7L846.9,876c21.8-40.1,59-109.9,74.1-140c20.3-40.3,26-75.3,16.7-93.6
		c-9.3-18.4-55.7-107.8-55.7-107.8c-8.4-16.3-28.1-21.7-43.7-12.1l-106,64.9c-15.6,9.6-21.1,30.5-12.2,46.5c0,0,32.2,57.7,50.2,89.9
		c5.6,10,9.8,17.6,11.2,20.2C783,746.8,784,749.4,784.4,751.7z"/>
	<path class="st0" d="M831.4,903.9c2.4-4.2,8.1-14.4,15.5-27.9l-62.5-124.3c1.3,7.2-2.4,12.1-11.3,12.2c-6.1,0.1-36.6,0.2-64.6,0.3
		l-0.3-38.6c-0.2-22.4-11.9-29.6-26.1-16.2l-39.8,37.9c-14.2,13.5-37.3,35.6-51.4,49.1l-39.8,37.9c-14.2,13.5-14,35.4,0.4,48.6
		l40.5,37.2c14.4,13.3,37.9,34.9,52.3,48.1l40.5,37.2c14.4,13.3,26,5.8,25.8-16.6l-0.3-36.6c15.8-0.1,33.3-0.2,49.5-0.3
		C804.6,952.1,821.6,920.4,831.4,903.9z"/>
</g>
</svg>
