<?xml version="1.0" encoding="utf-8"?>
<!-- Generator: Adobe Illustrator 24.0.3, SVG Export Plug-In . SVG Version: 6.00 Build 0)  -->
<svg version="1.1" id="Layer_1" xmlns="http://www.w3.org/2000/svg" xmlns:xlink="http://www.w3.org/1999/xlink" x="0px" y="0px"
	 viewBox="0 0 839.4 849.9" style="enable-background:new 0 0 839.4 849.9;" xml:space="preserve">
<style type="text/css">
	.st0{fill:#FFFFFF;}
</style>
<path class="st0" d="M627.4,529.1c-27.1,0-52.7,10-72.7,27.7L322.2,440.7c0.2-2.2,0.2-4.4,0.2-6.7c0-2.6-0.1-5.2-0.3-7.8
	l233.6-119.6c19.8,17.2,45.1,26.9,71.8,26.9c61,0,110.6-50.4,110.6-112.3S688.4,109,627.4,109s-110.6,50.4-110.6,112.3
	c0,2.6,0.1,5.2,0.3,7.8L283.6,348.6c-19.8-17.2-45.1-26.9-71.8-26.9c-60.9,0-110.5,50.4-110.5,112.3s49.6,112.3,110.6,112.3
	c27.1,0,52.7-10,72.7-27.7l232.6,116.1c-0.2,2.2-0.2,4.4-0.2,6.7c0,61.9,49.6,112.3,110.6,112.3c61,0,110.6-50.4,110.6-112.3
	S688.4,529.1,627.4,529.1z M627.4,195.7c13.4,0,24.4,11.5,24.4,25.6c0,14.1-10.9,25.6-24.4,25.6c-13.4,0-24.3-11.5-24.3-25.6
	C603.2,207.2,614.1,195.7,627.4,195.7z M627.4,667c-13.4,0-24.3-11.5-24.3-25.6c0-3.6,0.8-7.1,2.3-10.5l1.2-2.4
	c4.4-7.8,12.3-12.7,20.9-12.7c13.4,0,24.4,11.5,24.4,25.6S640.9,667,627.4,667z M211.9,459.6c-13.4,0-24.3-11.5-24.3-25.6
	s10.9-25.6,24.3-25.6c13.4,0,24.4,11.5,24.4,25.6S225.2,459.6,211.9,459.6z"/>
</svg>
