<?xml version="1.0" encoding="utf-8"?>
<svg version="1.1" id="Layer_1" xmlns="http://www.w3.org/2000/svg" xmlns:xlink="http://www.w3.org/1999/xlink" x="0px" y="0px"
	 viewBox="0 0 1118 1080" style="enable-background:new 0 0 1118 1080;" xml:space="preserve">
<style type="text/css">
	.st0{fill:#FFF;}
</style>
<g>

<path class="st0" d="m917.871845,413.651968a317.629055,326.428873 0 0 1 -90.613837,25.520264a157.965423,162.341808 0 0 0 69.402253,-89.732541a312.021763,320.666232 0 0 1 -100.290421,39.317671a157.645007,162.012514 0 0 0 -115.125713,-51.040528a157.773173,162.144232 0 0 0 -153.607757,199.189776c-131.050422,-6.915168 -247.361677,-71.456739 -325.222931,-169.58627a158.349923,162.73696 0 0 0 -21.307709,81.566056c0,56.309228 27.876251,105.835004 70.171253,135.010429a159.183007,163.593124 0 0 1 -71.45292,-20.284494l0,1.975762c0,78.701201 54.470836,144.230653 126.628672,159.048871c-13.265251,3.786878 -27.235418,5.729711 -41.558043,5.729711c-10.18925,0 -20.058084,-0.987881 -29.734668,-2.831926a158.125632,162.506455 0 0 0 147.391673,112.618455a316.988222,325.770285 0 0 1 -195.902758,69.382189c-12.752584,0 -25.312918,-0.757376 -37.64896,-2.239197a447.077394,459.463539 0 0 0 241.914594,72.872702c290.169346,0 448.903769,-247.200802 448.903769,-461.439301c0,-7.013956 -0.160208,-14.027913 -0.480625,-20.97601c30.760001,-22.885914 57.514794,-51.369822 78.662295,-83.969901l-0.128167,-0.131717z" fill="#F00"/>
 
 </g>
</svg>