<?xml version="1.0" encoding="utf-8"?>
<!-- Generator: Adobe Illustrator 24.0.3, SVG Export Plug-In . SVG Version: 6.00 Build 0)  -->
<svg version="1.1" id="Layer_1" xmlns="http://www.w3.org/2000/svg" xmlns:xlink="http://www.w3.org/1999/xlink" x="0px" y="0px"
	 viewBox="0 0 1118 1080" style="enable-background:new 0 0 1118 1080;" xml:space="preserve">
<style type="text/css">
	.st0{fill:#FFFFFF;}
</style>
<path class="st0" d="M941.3,339.8c-0.3,0.2-0.6,0.4-0.9,0.6c-0.2,0-0.3,0.1-0.5,0.1c-199.1,63.9-397.7,129.3-596.4,194.3
	c-56.9,18.6-114.9,35.2-170.8,56.6c-2.8,1.1-3.3,4.1-2.1,6.1c-0.9,1.6-1,3.7,0.8,5.4c52,50.5,112.3,98.7,178.4,129.6
	c0.1,1.6,1.2,3.2,2.8,3.4c12.6,74.9,31.4,148.9,52.3,221.9c0,0.1,0.1,0.3,0.2,0.4c-0.6,2.2,1.2,5,3.9,4.1
	c10.5-3.5,19.4-12.1,28.2-18.8c10-7.7,19.7-15.7,29.3-24c18.2-15.8,40.1-33,53.4-53.3c0.7-1.1,0.8-2.1,0.5-3
	c6.8,4.8,13.6,9.5,20.5,14.2c22.5,15.5,44.8,31.4,66.5,48.1c22.7,17.3,43.8,38.1,67.5,54c2.9,2,5.9-0.6,6-3.5c2.1,1,5,0.5,5.8-2.5
	C731.3,802.9,793.3,637,873.7,479.9c21.8-42.7,45-84.7,69.4-126.1c1-1,2.1-1.9,3.1-2.9c1.3-1.2,1.4-2.8,0.9-4.2
	C950,343,945.8,336.8,941.3,339.8z M358.6,733.1c38.2-22.4,74.8-48.1,111.8-72.4c38.4-25.2,76.7-50.5,115.1-75.7
	c76.7-50.5,153.5-101,230.2-151.4l76.7-50.5c-16.8,14.3-33.5,28.8-50.3,42.9c-33.9,28.2-67.9,56.5-101.8,84.7
	c-67.9,56.5-135.8,112.9-203.6,169.4c-18.6,15.5-37.2,31-55.9,46.5c-10,8.3-20,16.6-29.9,24.9c-7.3,6.1-15.2,11.9-21.3,19.2
	c-0.7,0.3-1.5,0.7-2.2,0.9c-2.3,0.2-4.5,1.7-5.5,3.9c-2.5-0.9-5.9,0.5-6.2,4c-4.7,49.6-6.1,99.7-9.2,149.6
	C388.7,864.2,373.6,798.7,358.6,733.1z M513.4,861.5c-9.7,7.5-17.7,17.6-26.5,26.2c-8.3,8.1-16.9,16-25.6,23.7
	c-8.7,7.7-17.7,15.1-26.8,22.3c-6.1,4.8-13.5,9.3-19.9,14.5c4.3-54,9.7-108.8,9.9-163c4,7.9,13.1,13.6,19.6,19.3
	c10.1,8.9,20.5,17.4,31,25.8c13.4,10.6,27.3,20.6,41.3,30.4C515.4,860.6,514.3,860.8,513.4,861.5z"/>
</svg>
