<?xml version="1.0" encoding="utf-8"?>
<!-- Generator: Adobe Illustrator 24.0.3, SVG Export Plug-In . SVG Version: 6.00 Build 0)  -->
<svg version="1.1" id="Layer_1" xmlns="http://www.w3.org/2000/svg" xmlns:xlink="http://www.w3.org/1999/xlink" x="0px" y="0px"
	 viewBox="0 0 1118 1080" style="enable-background:new 0 0 1118 1080;" xml:space="preserve">
<style type="text/css">
	.st0{fill:#FFFFFF;}
</style>
<g>
	<path class="st0" d="M729.1,536.7c-76.4,0-110.6,41.9-129.8,71.5v1.4h-0.9c0.3-0.4,0.7-0.9,0.9-1.4v-61.3H455.3
		c1.8,40.6,0,433.1,0,433.1h143.9V738.1c0-13,0.9-25.8,4.8-35.1c10.4-25.8,34.1-52.7,73.9-52.7c52.1,0,73,39.8,73,98V980h144V731.7
		C894.8,598.6,823.8,536.7,729.1,536.7z"/>
	<path class="st0" d="M304.6,338c-49.2,0-81.4,32.4-81.4,74.9c0,41.5,31.2,74.9,79.5,74.9h0.9c50.2,0,81.5-33.3,81.5-74.9
		C384.2,370.4,353.9,338,304.6,338z"/>
	<rect x="231.6" y="546.9" class="st0" width="144" height="433.1"/>
</g>
</svg>
