<?xml version="1.0" encoding="utf-8"?>
<!-- Generator: Adobe Illustrator 23.0.6, SVG Export Plug-In . SVG Version: 6.00 Build 0)  -->
<svg version="1.1" id="Layer_1" xmlns="http://www.w3.org/2000/svg" xmlns:xlink="http://www.w3.org/1999/xlink" x="0px" y="0px"
	 viewBox="0 0 43.34 41.16" style="enable-background:new 0 0 43.34 41.16;" xml:space="preserve">
<style type="text/css">
	.st0{fill:#FFFFFF;}
</style>
<g>
	<g id="_x31_3_2_">
		<g>
			<g>
				<path class="st0" d="M20.5,39.09c-4.99,0-9.68-1.94-13.21-5.47S1.82,25.4,1.82,20.41S3.76,10.73,7.29,7.2s8.22-5.47,13.21-5.47
					s9.68,1.94,13.21,5.47c7.28,7.28,7.28,19.13,0,26.42C30.18,37.14,25.49,39.09,20.5,39.09z M20.5,3.79
					c-4.44,0-8.61,1.73-11.75,4.87s-4.87,7.31-4.87,11.75s1.73,8.61,4.87,11.75s7.31,4.87,11.75,4.87s8.61-1.73,11.75-4.87
					c3.13-3.13,4.86-7.3,4.86-11.75c0-4.44-1.73-8.61-4.86-11.75C29.11,5.52,24.94,3.79,20.5,3.79z"/>
				<path class="st0" d="M20.5,2.1c4.89,0,9.49,1.9,12.94,5.36c7.14,7.14,7.14,18.75,0,25.89c-3.46,3.46-8.05,5.36-12.94,5.36
					s-9.49-1.9-12.94-5.36C4.1,29.89,2.2,25.3,2.2,20.41s1.9-9.49,5.36-12.94C11.01,4.01,15.61,2.1,20.5,2.1 M20.5,37.4
					c4.54,0,8.8-1.77,12.01-4.98c6.62-6.62,6.62-17.4,0-24.03C29.3,5.18,25.03,3.41,20.5,3.41c-4.54,0-8.8,1.77-12.01,4.98
					S3.51,15.87,3.51,20.4c0,4.54,1.77,8.8,4.98,12.01C11.7,35.63,15.96,37.4,20.5,37.4 M20.5,1.35c-5.09,0-9.87,1.98-13.47,5.58
					S1.45,15.31,1.45,20.4s1.98,9.87,5.58,13.47s8.38,5.58,13.47,5.58s9.87-1.98,13.47-5.58c7.43-7.43,7.43-19.52,0-26.95
					C30.37,3.33,25.59,1.35,20.5,1.35L20.5,1.35z M20.5,36.65c-4.34,0-8.41-1.69-11.48-4.76s-4.76-7.15-4.76-11.48
					c0-4.34,1.69-8.42,4.76-11.48c3.07-3.07,7.14-4.76,11.48-4.76s8.42,1.69,11.48,4.76c6.33,6.33,6.33,16.63,0,22.96
					C28.91,34.96,24.84,36.65,20.5,36.65L20.5,36.65z"/>
			</g>
		</g>
	</g>
	<g>
		<g>
			<rect x="7.28" y="20.54" class="st0" width="17.44" height="2.42"/>
			<path class="st0" d="M24.35,20.91v1.67H7.66v-1.67H24.35 M25.1,20.16h-0.75H7.66H6.91v0.75v1.67v0.75h0.75h16.69h0.75v-0.75
				v-1.67V20.16L25.1,20.16z"/>
		</g>
	</g>
	<g>
		<g>
			<rect x="26.53" y="20.54" class="st0" width="7.4" height="2.42"/>
			<path class="st0" d="M33.55,20.91v1.67H26.9v-1.67H33.55 M34.3,20.16h-0.75H26.9h-0.75v0.75v1.67v0.75h0.75h6.65h0.75v-0.75
				v-1.67V20.16L34.3,20.16z"/>
		</g>
	</g>
	<g>
		<g>
			<rect x="16.49" y="25.56" class="st0" width="17.44" height="2.42"/>
			<path class="st0" d="M33.55,25.93v1.67H16.86v-1.67H33.55 M34.3,25.18h-0.75H16.86h-0.75v0.75v1.67v0.75h0.75h16.69h0.75V27.6
				v-1.67V25.18L34.3,25.18z"/>
		</g>
	</g>
	<g>
		<g>
			<rect x="7.28" y="25.56" class="st0" width="7.4" height="2.42"/>
			<path class="st0" d="M14.3,25.93v1.67H7.66v-1.67H14.3 M15.05,25.18H14.3H7.66H6.91v0.75v1.67v0.75h0.75h6.65h0.75V27.6v-1.67
				v-0.75H15.05z"/>
		</g>
	</g>
</g>
</svg>
