<?xml version="1.0" encoding="utf-8"?>
<!-- Generator: Adobe Illustrator 23.0.6, SVG Export Plug-In . SVG Version: 6.00 Build 0)  -->
<svg version="1.1" id="Layer_1" xmlns="http://www.w3.org/2000/svg" xmlns:xlink="http://www.w3.org/1999/xlink" x="0px" y="0px"
	 viewBox="0 0 43.3 41.2" style="enable-background:new 0 0 43.3 41.2;" xml:space="preserve">
<style type="text/css">
	.st0{fill:#FFFFFF;}
</style>
<g>
	<path class="st0" d="M34.9,7.4c-3.5-3.5-8.2-5.5-13.2-5.5S12,3.8,8.5,7.4C4.9,10.9,3,15.6,3,20.6c0,5,1.9,9.7,5.5,13.2
		c3.5,3.5,8.2,5.5,13.2,5.5s9.7-2,13.2-5.5C42.2,26.5,42.2,14.6,34.9,7.4z M21.7,37.2c-4.4,0-8.6-1.7-11.8-4.9
		C6.8,29.2,5.1,25,5.1,20.6c0-4.4,1.7-8.6,4.9-11.8C13.1,5.7,17.2,4,21.7,4s8.6,1.7,11.7,4.9c3.1,3.1,4.9,7.3,4.9,11.8
		c0,4.5-1.7,8.6-4.9,11.8C30.3,35.5,26.1,37.2,21.7,37.2z"/>
	<rect x="8.5" y="20.7" class="st0" width="17.4" height="2.4"/>
	<rect x="27.7" y="20.7" class="st0" width="7.4" height="2.4"/>
	<rect x="17.7" y="25.7" class="st0" width="17.4" height="2.4"/>
	<rect x="8.5" y="25.7" class="st0" width="7.4" height="2.4"/>
</g>
</svg>
