<?xml version="1.0" encoding="utf-8"?>
<!-- Generator: Adobe Illustrator 23.0.6, SVG Export Plug-In . SVG Version: 6.00 Build 0)  -->
<svg version="1.1" id="Layer_1" xmlns="http://www.w3.org/2000/svg" xmlns:xlink="http://www.w3.org/1999/xlink" x="0px" y="0px"
	 viewBox="0 0 36.6 36.6" style="enable-background:new 0 0 36.6 36.6;" xml:space="preserve">
<style type="text/css">
	.st0{fill:#FFFFFF;}
</style>
<title>Subtitles</title>
<g>
	<g id="_13">
		<path class="st0" d="M18.3,36.6C8.2,36.6,0,28.4,0,18.3C0,8.2,8.2,0,18.3,0c10.1,0,18.3,8.2,18.3,18.3c0,4.9-1.9,9.5-5.4,13
			C27.8,34.7,23.2,36.6,18.3,36.6z M18.3,1.3c-9.4,0-17,7.6-17,17c0,9.4,7.6,17,17,17s17-7.6,17-17c0-4.5-1.8-8.8-5-12
			C27.1,3.1,22.8,1.3,18.3,1.3z"/>
	</g>
	<rect x="5.5" y="20.8" class="st0" width="16.7" height="1.7"/>
	<rect x="24.7" y="20.8" class="st0" width="6.6" height="1.7"/>
	<rect x="14.7" y="25.8" class="st0" width="16.7" height="1.7"/>
	<rect x="5.5" y="25.8" class="st0" width="6.7" height="1.7"/>
</g>
</svg>
