<?xml version="1.0" encoding="utf-8"?>
<!-- Generator: Adobe Illustrator 23.0.6, SVG Export Plug-In . SVG Version: 6.00 Build 0)  -->
<svg version="1.1" id="Layer_1" xmlns="http://www.w3.org/2000/svg" xmlns:xlink="http://www.w3.org/1999/xlink" x="0px" y="0px"
	 viewBox="0 0 168.1 36.6" style="enable-background:new 0 0 168.1 36.6;" xml:space="preserve">
<style type="text/css">
	.st0{fill:#FFFFFF;}
</style>
<g>
	<g id="_13">
		<path class="st0" d="M18.3,36.6c-10.2,0-18.4-8.2-18.4-18.3S8.1,0,18.3,0c10.1,0,18.3,8.2,18.3,18.3c0,4.9-1.9,9.5-5.4,13
			C27.8,34.7,23.1,36.6,18.3,36.6z M18.3,1.3c-9.4,0-17,7.6-17,17s7.6,17,17,17s17-7.6,17-17c0-4.5-1.8-8.8-5-12S22.8,1.3,18.3,1.3z
			"/>
	</g>
</g>
<g>
	<path class="st0" d="M59.9,15.2h-5v2.3h4.4v1.4h-4.4v2.4h5v1.4h-6.6v-8.8h6.5L59.9,15.2L59.9,15.2z"/>
	<path class="st0" d="M63.1,22.6h-1.5V16h1.5v1c0.4-0.6,1-1.2,2.1-1.2c1.5,0,2.4,1,2.4,2.6v4.2h-1.5v-3.8c0-1-0.5-1.6-1.4-1.6
		c-0.9,0-1.5,0.6-1.5,1.6L63.1,22.6L63.1,22.6z"/>
	<path class="st0" d="M73.5,22.6v-0.8c-0.5,0.5-1.1,1-2.2,1c-1.3,0-2.4-0.7-2.4-2l0,0c0-1.4,1.1-2.1,2.7-2.1c0.8,0,1.3,0.1,1.8,0.3
		v-0.2c0-0.9-0.6-1.4-1.6-1.4c-0.7,0-1.3,0.2-1.9,0.4l-0.4-1.2c0.7-0.3,1.4-0.6,2.5-0.6c2,0,2.9,1,2.9,2.8v3.9L73.5,22.6L73.5,22.6z
		 M73.5,19.8c-0.4-0.2-0.9-0.3-1.5-0.3c-1,0-1.5,0.4-1.5,1.1l0,0c0,0.6,0.6,1,1.3,1c1,0,1.8-0.6,1.8-1.4v-0.4H73.5z"/>
	<path class="st0" d="M80.6,22.8c-1.1,0-1.8-0.6-2.3-1.2v1h-1.5v-9.2h1.5V17c0.5-0.7,1.2-1.2,2.3-1.2c1.6,0,3.1,1.2,3.1,3.5
		S82.1,22.8,80.6,22.8z M80.2,17.2c-1,0-1.9,0.8-1.9,2.1s0.9,2.1,1.9,2.1s1.9-0.8,1.9-2.1S81.2,17.2,80.2,17.2z"/>
	<path class="st0" d="M85.3,22.6v-9.2h1.5v9.2H85.3z"/>
	<path class="st0" d="M91.9,21.5c0.7,0,1.3-0.3,1.8-0.8l0.9,0.8c-0.6,0.8-1.5,1.2-2.7,1.2c-1.9,0-3.4-1.4-3.4-3.5
		c0-1.9,1.3-3.5,3.2-3.5c2.1,0,3.2,1.7,3.2,3.6c0,0.1,0,0.3,0,0.4H90C90.1,20.9,90.9,21.5,91.9,21.5z M93.4,18.8
		c-0.1-1-0.7-1.7-1.7-1.7c-0.9,0-1.6,0.7-1.7,1.7H93.4z"/>
	<path class="st0" d="M102.4,22.7c-0.9,0-2-0.3-2.8-1l0.7-1c0.7,0.5,1.5,0.8,2.2,0.8s1-0.3,1-0.7l0,0c0-0.5-0.7-0.7-1.5-0.9
		c-1-0.3-2.1-0.7-2.1-1.9l0,0c0-1.3,1-2,2.4-2c0.8,0,1.7,0.3,2.4,0.8l-0.6,1.1c-0.6-0.4-1.3-0.6-1.9-0.6s-0.9,0.3-0.9,0.7l0,0
		c0,0.5,0.7,0.7,1.5,0.9c1,0.3,2.1,0.7,2.1,1.9l0,0C104.9,22.1,103.8,22.7,102.4,22.7z"/>
	<path class="st0" d="M110.8,16h1.5v6.6h-1.5v-1c-0.4,0.6-1,1.2-2.1,1.2c-1.5,0-2.4-1-2.4-2.6V16h1.5v3.8c0,1,0.5,1.6,1.4,1.6
		s1.5-0.6,1.5-1.6L110.8,16L110.8,16z"/>
	<path class="st0" d="M118,22.8c-1.1,0-1.8-0.6-2.3-1.2v1h-1.5v-9.2h1.5V17c0.5-0.7,1.2-1.2,2.3-1.2c1.6,0,3.1,1.2,3.1,3.5
		S119.6,22.8,118,22.8z M117.7,17.2c-1,0-1.9,0.8-1.9,2.1s0.9,2.1,1.9,2.1s1.9-0.8,1.9-2.1S118.7,17.2,117.7,17.2z"/>
	<path class="st0" d="M124.5,20.5c0,0.6,0.3,0.8,0.8,0.8c0.3,0,0.6-0.1,0.9-0.2v1.2c-0.4,0.2-0.8,0.3-1.4,0.3
		c-1.1,0-1.9-0.5-1.9-1.9v-3.5h-0.8V16h0.8v-1.8h1.5V16h1.8v1.3h-1.8L124.5,20.5L124.5,20.5z"/>
	<path class="st0" d="M127.8,15v-1.4h1.6V15H127.8z M127.9,22.6V16h1.5v6.6H127.9z"/>
	<path class="st0" d="M133.2,20.5c0,0.6,0.3,0.8,0.8,0.8c0.3,0,0.6-0.1,0.9-0.2v1.2c-0.4,0.2-0.8,0.3-1.4,0.3
		c-1.1,0-1.9-0.5-1.9-1.9v-3.5h-0.8V16h0.8v-1.8h1.5V16h1.8v1.3h-1.8L133.2,20.5L133.2,20.5z"/>
	<path class="st0" d="M136.7,22.6v-9.2h1.5v9.2H136.7z"/>
	<path class="st0" d="M143.2,21.5c0.7,0,1.3-0.3,1.8-0.8l0.9,0.8c-0.6,0.8-1.5,1.2-2.7,1.2c-1.9,0-3.4-1.4-3.4-3.5
		c0-1.9,1.3-3.5,3.2-3.5c2.1,0,3.2,1.7,3.2,3.6c0,0.1,0,0.3,0,0.4h-4.9C141.5,20.9,142.2,21.5,143.2,21.5z M144.7,18.8
		c-0.1-1-0.7-1.7-1.7-1.7c-0.9,0-1.6,0.7-1.7,1.7H144.7z"/>
	<path class="st0" d="M150,22.7c-0.9,0-2-0.3-2.8-1l0.7-1c0.7,0.5,1.5,0.8,2.2,0.8s1-0.3,1-0.7l0,0c0-0.5-0.7-0.7-1.5-0.9
		c-1-0.3-2.1-0.7-2.1-1.9l0,0c0-1.3,1-2,2.4-2c0.8,0,1.7,0.3,2.4,0.8l-0.6,1.1c-0.6-0.4-1.3-0.6-1.9-0.6c-0.6,0-0.9,0.3-0.9,0.7l0,0
		c0,0.5,0.7,0.7,1.5,0.9c1,0.3,2.1,0.7,2.1,1.9l0,0C152.5,22.1,151.4,22.7,150,22.7z"/>
</g>
<g>
	<g>
		<polygon class="st0" points="14.5,28 6.2,19.7 7.6,18.3 14.6,25.3 30.5,12.4 31.8,13.9 		"/>
	</g>
	<g>
		<rect x="40.5" y="25.7" class="st0" width="125.6" height="2"/>
	</g>
</g>
</svg>
