<?xml version="1.0" encoding="utf-8"?>
<!-- Generator: Adobe Illustrator 23.0.6, SVG Export Plug-In . SVG Version: 6.00 Build 0)  -->
<svg version="1.1" id="Layer_1" xmlns="http://www.w3.org/2000/svg" xmlns:xlink="http://www.w3.org/1999/xlink" x="0px" y="0px"
	 viewBox="0 0 168.4 36.6" style="enable-background:new 0 0 168.4 36.6;" xml:space="preserve">
<style type="text/css">
	.st0{fill:#FFFFFF;}
</style>
<title>Subtitles</title>
<g>
	<g id="_13_1_">
		<path class="st0" d="M18.3,36.6C8.2,36.6,0,28.4,0,18.3C0,8.2,8.2,0,18.3,0c10.1,0,18.3,8.2,18.3,18.3c0,4.9-1.9,9.5-5.4,13
			C27.8,34.7,23.2,36.6,18.3,36.6z M18.3,1.3c-9.4,0-17,7.6-17,17c0,9.4,7.6,17,17,17s17-7.6,17-17c0-4.5-1.8-8.8-5-12
			C27.1,3.1,22.8,1.3,18.3,1.3z"/>
	</g>
</g>
<g>
	<g>
		<rect x="40.6" y="25.8" class="st0" width="125.6" height="2"/>
	</g>
</g>
<g>
	<path class="st0" d="M56.7,22.6h-3.3v-8.8h3.3c2.8,0,4.7,1.9,4.7,4.4S59.5,22.6,56.7,22.6z M56.7,15.2H55v6h1.7
		c1.8,0,3.1-1.2,3.1-3C59.8,16.5,58.5,15.2,56.7,15.2z"/>
	<path class="st0" d="M63.1,15v-1.4h1.6V15H63.1z M63.2,22.6V16h1.5v6.6H63.2z"/>
	<path class="st0" d="M68.9,22.8c-0.9,0-2-0.3-2.8-1l0.7-1c0.7,0.5,1.5,0.8,2.2,0.8c0.7,0,1-0.3,1-0.7v0c0-0.5-0.7-0.7-1.5-0.9
		c-1-0.3-2.1-0.7-2.1-1.9v0c0-1.3,1-2,2.4-2c0.8,0,1.7,0.3,2.4,0.8l-0.6,1.1c-0.6-0.4-1.3-0.6-1.9-0.6c-0.6,0-0.9,0.3-0.9,0.7v0
		c0,0.5,0.7,0.7,1.5,0.9c1,0.3,2.1,0.7,2.1,1.9v0C71.4,22.1,70.3,22.8,68.9,22.8z"/>
	<path class="st0" d="M77,22.6v-0.8c-0.5,0.5-1.1,1-2.2,1c-1.3,0-2.4-0.7-2.4-2v0c0-1.4,1.1-2.1,2.7-2.1c0.8,0,1.3,0.1,1.8,0.3v-0.2
		c0-0.9-0.6-1.4-1.6-1.4c-0.7,0-1.3,0.2-1.9,0.4l-0.4-1.2c0.7-0.3,1.4-0.6,2.5-0.6c2,0,2.9,1,2.9,2.8v3.9H77z M77,19.8
		c-0.4-0.2-0.9-0.3-1.5-0.3c-1,0-1.5,0.4-1.5,1.1v0c0,0.6,0.6,1,1.3,1c1,0,1.8-0.6,1.8-1.4V19.8z"/>
	<path class="st0" d="M84.1,22.8c-1.1,0-1.8-0.6-2.3-1.2v1h-1.5v-9.2h1.5v3.6c0.5-0.7,1.2-1.2,2.3-1.2c1.6,0,3.1,1.2,3.1,3.5
		S85.7,22.8,84.1,22.8z M83.7,17.2c-1,0-1.9,0.8-1.9,2.1s0.9,2.1,1.9,2.1c1,0,1.9-0.8,1.9-2.1C85.6,18,84.8,17.2,83.7,17.2z"/>
	<path class="st0" d="M88.8,22.6v-9.2h1.5v9.2H88.8z"/>
	<path class="st0" d="M95.4,21.5c0.7,0,1.3-0.3,1.8-0.8l0.9,0.8c-0.6,0.8-1.5,1.2-2.7,1.2c-1.9,0-3.4-1.4-3.4-3.5
		c0-1.9,1.3-3.5,3.2-3.5c2.1,0,3.2,1.7,3.2,3.6c0,0.1,0,0.3,0,0.4h-4.9C93.7,20.9,94.4,21.5,95.4,21.5z M96.9,18.8
		c-0.1-1-0.7-1.7-1.7-1.7c-0.9,0-1.6,0.7-1.7,1.7H96.9z"/>
	<path class="st0" d="M106,22.8c-0.9,0-2-0.3-2.8-1l0.7-1c0.7,0.5,1.5,0.8,2.2,0.8c0.7,0,1-0.3,1-0.7v0c0-0.5-0.7-0.7-1.5-0.9
		c-1-0.3-2.1-0.7-2.1-1.9v0c0-1.3,1-2,2.4-2c0.8,0,1.7,0.3,2.4,0.8l-0.6,1.1c-0.6-0.4-1.3-0.6-1.9-0.6c-0.6,0-0.9,0.3-0.9,0.7v0
		c0,0.5,0.7,0.7,1.5,0.9c1,0.3,2.1,0.7,2.1,1.9v0C108.4,22.1,107.4,22.8,106,22.8z"/>
	<path class="st0" d="M114.3,16h1.5v6.6h-1.5v-1c-0.4,0.6-1,1.2-2.1,1.2c-1.5,0-2.4-1-2.4-2.6V16h1.5v3.8c0,1,0.5,1.6,1.4,1.6
		c0.9,0,1.5-0.6,1.5-1.6V16z"/>
	<path class="st0" d="M121.5,22.8c-1.1,0-1.8-0.6-2.3-1.2v1h-1.5v-9.2h1.5v3.6c0.5-0.7,1.2-1.2,2.3-1.2c1.6,0,3.1,1.2,3.1,3.5
		S123.1,22.8,121.5,22.8z M121.2,17.2c-1,0-1.9,0.8-1.9,2.1s0.9,2.1,1.9,2.1c1,0,1.9-0.8,1.9-2.1C123.1,18,122.2,17.2,121.2,17.2z"
		/>
	<path class="st0" d="M128,20.6c0,0.6,0.3,0.8,0.8,0.8c0.3,0,0.6-0.1,0.9-0.2v1.2c-0.4,0.2-0.8,0.3-1.4,0.3c-1.1,0-1.9-0.5-1.9-1.9
		v-3.5h-0.8V16h0.8v-1.8h1.5V16h1.8v1.3H128V20.6z"/>
	<path class="st0" d="M131.4,15v-1.4h1.6V15H131.4z M131.4,22.6V16h1.5v6.6H131.4z"/>
	<path class="st0" d="M136.8,20.6c0,0.6,0.3,0.8,0.8,0.8c0.3,0,0.6-0.1,0.9-0.2v1.2c-0.4,0.2-0.8,0.3-1.4,0.3
		c-1.1,0-1.9-0.5-1.9-1.9v-3.5h-0.8V16h0.8v-1.8h1.5V16h1.8v1.3h-1.8V20.6z"/>
	<path class="st0" d="M140.2,22.6v-9.2h1.5v9.2H140.2z"/>
	<path class="st0" d="M146.8,21.5c0.7,0,1.3-0.3,1.8-0.8l0.9,0.8c-0.6,0.8-1.5,1.2-2.7,1.2c-1.9,0-3.4-1.4-3.4-3.5
		c0-1.9,1.3-3.5,3.2-3.5c2.1,0,3.2,1.7,3.2,3.6c0,0.1,0,0.3,0,0.4h-4.9C145,20.9,145.8,21.5,146.8,21.5z M148.2,18.8
		c-0.1-1-0.7-1.7-1.7-1.7c-0.9,0-1.6,0.7-1.7,1.7H148.2z"/>
	<path class="st0" d="M153.6,22.8c-0.9,0-2-0.3-2.8-1l0.7-1c0.7,0.5,1.5,0.8,2.2,0.8c0.7,0,1-0.3,1-0.7v0c0-0.5-0.7-0.7-1.5-0.9
		c-1-0.3-2.1-0.7-2.1-1.9v0c0-1.3,1-2,2.4-2c0.8,0,1.7,0.3,2.4,0.8l-0.6,1.1c-0.6-0.4-1.3-0.6-1.9-0.6c-0.6,0-0.9,0.3-0.9,0.7v0
		c0,0.5,0.7,0.7,1.5,0.9c1,0.3,2.1,0.7,2.1,1.9v0C156,22.1,154.9,22.8,153.6,22.8z"/>
</g>
<polygon class="st0" points="27.4,12.4 26.1,10.8 18.4,17.1 10.8,10.8 9.5,12.4 16.8,18.4 9.5,24.4 10.8,25.9 18.4,19.7 26.1,25.9 
	27.4,24.4 20,18.4 "/>
</svg>
