<?xml version="1.0" encoding="utf-8"?>
<!-- Generator: Adobe Illustrator 23.0.6, SVG Export Plug-In . SVG Version: 6.00 Build 0)  -->
<svg version="1.1" id="Layer_1" xmlns="http://www.w3.org/2000/svg" xmlns:xlink="http://www.w3.org/1999/xlink" x="0px" y="0px"
	 viewBox="0 0 36.6 36.6" style="enable-background:new 0 0 36.6 36.6;" xml:space="preserve">
<style type="text/css">
	.st0{fill:#FFFFFF;}
</style>
<title>Subtitles</title>
<g>
	<g id="_13_1_">
		<path class="st0" d="M18.3,36.6C8.2,36.6,0,28.4,0,18.3S8.2,0,18.3,0s18.3,8.2,18.3,18.3c0,4.9-1.9,9.5-5.4,13
			C27.8,34.7,23.2,36.6,18.3,36.6z M18.3,1.3c-9.4,0-17,7.6-17,17s7.6,17,17,17s17-7.6,17-17c0-4.5-1.8-8.8-5-12S22.8,1.3,18.3,1.3z
			"/>
	</g>
</g>
<polygon class="st0" points="27.2,12.4 26,10.8 18.2,17.1 10.6,10.8 9.3,12.4 16.6,18.4 9.3,24.4 10.6,25.9 18.2,19.7 26,25.9 
	27.2,24.4 19.8,18.4 "/>
</svg>
