<?xml version="1.0" encoding="utf-8"?>
<!-- Generator: Adobe Illustrator 23.1.1, SVG Export Plug-In . SVG Version: 6.00 Build 0)  -->
<svg version="1.1" id="Layer_1" xmlns="http://www.w3.org/2000/svg" xmlns:xlink="http://www.w3.org/1999/xlink" x="0px" y="0px"
	 viewBox="0 0 1138 379" style="enable-background:new 0 0 1138 379;" xml:space="preserve">
<style type="text/css">
	.st0{fill:#FFFFFF;}
</style>
<g>
	<path class="st0" d="M2.9,205.2l0-11c55.2,0,82-15.7,110.5-32.3s57.9-33.8,116-33.8c58.1,0,87.5,17.2,116,33.8
		s55.4,32.3,110.5,32.3s82-15.7,110.4-32.3c28.5-16.6,57.9-33.8,116-33.8s87.5,17.2,116,33.8c28.4,16.6,55.3,32.3,110.4,32.3
		c55.1,0,82-15.7,110.4-32.3c28.5-16.6,57.9-33.8,116-33.8l0,11c-55.1,0-82,15.7-110.4,32.3c-28.5,16.6-57.9,33.8-116,33.8
		c-58.1,0-87.5-17.2-116-33.8c-28.4-16.6-55.3-32.3-110.4-32.3c-55.1,0-82,15.7-110.4,32.3c-28.5,16.6-57.9,33.8-116,33.8
		s-87.5-17.2-116-33.8S284.6,139,229.4,139c-55.2,0-82,15.7-110.5,32.3C90.4,188,61,205.2,2.9,205.2L2.9,205.2z"/>
</g>
</svg>
