<?xml version="1.0" encoding="utf-8"?>
<!-- Generator: Adobe Illustrator 23.0.6, SVG Export Plug-In . SVG Version: 6.00 Build 0)  -->
<svg version="1.1" id="Layer_1" xmlns="http://www.w3.org/2000/svg" xmlns:xlink="http://www.w3.org/1999/xlink" x="0px" y="0px"
	 viewBox="0 0 1722 1080" style="enable-background:new 0 0 1722 1080;" xml:space="preserve">
<style type="text/css">
	.st0{fill:#FFFFFF;}
</style>
<g>
	<path class="st0" d="M827.1,585.4c-89.7,97.5-324,200.2-414.8,197.3c42.1-80.6,247.2-234.5,376.2-264.3c-0.1,1-0.1,1.9-0.1,2.9
		C788.5,549.1,804.1,573.2,827.1,585.4z"/>
	<path class="st0" d="M913.7,521.3c0,29.1-23.7,52.7-52.8,52.7c-29.1,0-52.7-23.6-52.7-52.7c0-29.1,23.6-52.8,52.7-52.8
		C890.1,468.5,913.7,492.2,913.7,521.3z"/>
	<path class="st0" d="M899.9,460c-11.2-7.2-24.6-11.3-38.9-11.3c-14.1,0-27.3,4-38.5,11.1C783.5,333.2,812.9,78.9,861.3,2
		C909.6,79,939.1,333.6,899.9,460z"/>
	<path class="st0" d="M1309.6,782.7c-90.8,2.9-325.1-99.8-414.8-197.3c23-12.2,38.7-36.3,38.7-64.1c0-1,0-1.9-0.1-2.9
		C1062.5,548.2,1267.5,702.1,1309.6,782.7z"/>
	<path class="st0" d="M931.3,1067.5c0,8.1-55.1,10.5-70.1,10.5h-0.3c-15,0-70.1-2.4-70.1-10.5l43-452.2c0-7.6,10.9-14,24.7-14.6
		l2.8-0.1c0.8,0,1.7,0,2.5,0.1c13.8,0.7,24.7,7,24.7,14.6L931.3,1067.5z"/>
</g>
</svg>
