<?xml version="1.0" encoding="utf-8"?>
<!-- Generator: Adobe Illustrator 23.0.6, SVG Export Plug-In . SVG Version: 6.00 Build 0)  -->
<svg version="1.1" id="Layer_1" xmlns="http://www.w3.org/2000/svg" xmlns:xlink="http://www.w3.org/1999/xlink" x="0px" y="0px"
	 viewBox="0 0 1970 1080" style="enable-background:new 0 0 1970 1080;" xml:space="preserve">
<style type="text/css">
	.st0{fill:#FFFFFF;}
	.st1{fill:none;stroke:#FFFFFF;stroke-miterlimit:10;}
</style>
<g>
	<g>
		<path class="st0" d="M946.6,514.3c-0.3,0-0.3-0.1-0.3-0.1c-0.6-0.1-0.9-0.1-1.3-0.1c0.4,0.1,0.7,0.1,1.3,0.2
			C946.3,514.3,946.3,514.3,946.6,514.3z"/>
		<path class="st0" d="M712.6,351.9c0,0,0,0,0.2,0.1C712.7,351.9,712.7,351.9,712.6,351.9C712.7,351.9,712.7,351.8,712.6,351.9z"/>
		<path class="st0" d="M641.2,387.5l0.3-0.1h-0.2C641.2,387.4,641.2,387.5,641.2,387.5z"/>
		<path class="st0" d="M483.6,653.3c0,0,0.2,0.1,0.2,0.2C483.8,653.4,483.6,653.3,483.6,653.3c0-0.1-0.2-0.1-0.3-0.1
			C483.5,653.3,483.6,653.3,483.6,653.3z"/>
		<path class="st0" d="M669.4,531.8C669.4,531.8,669.5,531.7,669.4,531.8c-0.2-0.1-0.4-0.3-1.3-0.6
			C668.7,531.3,669,531.5,669.4,531.8z"/>
		<path class="st0" d="M625.9,239.9C626.2,239.9,626.2,239.9,625.9,239.9L625.9,239.9z"/>
		<path class="st0" d="M918.7,500.2c-0.6-2,2.9-0.3,2.9-0.3C921.6,499.7,918.1,498.2,918.7,500.2z"/>
		<path class="st0" d="M572.4,315L572.4,315c-0.6-0.3-0.9-0.4-1.2-0.6C571.6,314.6,571.8,314.7,572.4,315z"/>
		<path class="st0" d="M841.2,385.9c-2-1.3-2.6-1.6-2.4-1.4C838.7,384.4,839.3,384.7,841.2,385.9
			C841.1,385.9,841.2,385.9,841.2,385.9z"/>
		<path class="st0" d="M745,414.6c1-1.9,1.4-3.9,1.9-6.5c-0.4,2.6-0.9,4.6-2,6.4C744.9,414.5,745,414.6,745,414.6z"/>
		<path class="st0" d="M546,321.1c-0.1-0.1-0.3-0.3-0.3-0.3c0,0,0,0.1,0.1,0.1C545.8,321,545.9,321,546,321.1z"/>
		<path class="st0" d="M1015.2,558.1c-0.3,0-0.3,0.1-0.3,0.2l0.3-0.1V558.1z"/>
		<path class="st0" d="M1060.9,589.6c0.2,0.5,0.5,0.8,0.7,1.1c0-0.8-0.1-1.4-0.3-1.1H1060.9z"/>
		<path class="st0" d="M1028.7,570.6c-0.7-0.5-1.3-0.6-2.4-0.4c0.6,0.3,1,0.6,1.4,0.9C1028,571.1,1028.3,571,1028.7,570.6z"/>
		<path class="st0" d="M1070.1,587.5l-0.3,0.6c0.3-0.1,0.7-0.1,1.2-0.1C1070.6,587.9,1070.3,587.8,1070.1,587.5z"/>
		<path class="st0" d="M577.5,300.9c1.9,0.6,2.4,1.7,1.9,3.4c1.3-2.7,2.3-5.3,2.6-7.7c-0.4,1.4-1.2,2.9-1.8,4.1
			C579.6,299.6,578.8,299.9,577.5,300.9z"/>
		<path class="st0" d="M633.6,307c-0.3-0.2-0.7-0.5-1.1-0.6l-0.3-0.2c-0.6,0.8-0.6,1.7-0.1,2.5C632.3,308.1,632.8,307.4,633.6,307z"
			/>
		<path class="st0" d="M592.8,281.7c-0.9-1.4-2.3-2.7-3.5-3.7c0,0.3-0.1,0.6-0.4,0.9C590.1,279.3,591.5,280.3,592.8,281.7z"/>
		<path class="st0" d="M582,296.6c1.3-2.6,2.3-5.5,3.6-8.5c-1.2,0.5-0.4,0.3-4,2.2C582.2,292,582.4,294.1,582,296.6z"/>
		<path class="st0" d="M1476.4,727.8c1.3,3.3,1,5.3-2.9,4.8c0,0.9,0.4,1.4,1.2,1.5c-0.7,0.9-1.4,1-2.5,0.4c-1,1.9-2.9,2.9-4.5,2.3
			c-3.2,1.8-4.2,1.4-2-3.3c-0.6,1.6-1.6,2.8-2.6,4c-0.9-2.8-0.1-6.3,1.7-8.4c-1-1.7-1.9-4.7-2-6c-1.1-2.1-2.3-4.2-3.7-5.8
			c0.6,0.9,0.8,1.8,0.7,2.9c-2-0.6-3.5-2-4.3-3.9c1,0.6,2,0.9,2.6,0.9c-0.3-0.1-0.6-0.6-1-0.9c3.9-1.1,0.4-3-2.5-4.5
			c-1,0.9-1.4,1.3-0.3-0.6c-0.7,0.4-1.4,0.1-2-0.7c0,0.6,0.2,1.2,0.6,1.5c-1.9-1.2-2.9-2.7-3.5-4.9c-1.3,2.7-1.6-1.6-2-3.9
			c0,0.5-0.3,0.9-0.8,1.1c0.4-3.1-0.4-6.1-2.8-8.6l0.1,0.4c-2.9,0.6-4.9-0.7-5.9-3.4c1.3,1.7,1.6,3.3-0.1,4.1c2,1.7,1.4,3.4-0.6,5.1
			c-1.3-0.9-0.7-1.7,0.3-2.3c-1,0.2-1.3,0.7-1.6,1.6c-0.3-1.3-0.3-2.6-0.4-3.8c0.1,0.7-0.1,1.9-0.7,2.5c-0.9,2.5-2.2,3.3-3.6,3.8
			l-0.9-0.9v0.7c-0.7-0.5-1-1.4-1-2.3c-0.4,0.3-0.4,0.7-0.4,1l-0.1-0.2c-1.7,0.1-3-1.1-3.9-2.7c-1.1,1.4-3.3,7-4.2,9.8
			c-0.7,0.8-1.4,1.7-2.2,2.2c-3,2.4-5.1,3.7-7.5,5.3c0.3-0.4,1-0.6,1.6-0.4c-22.7,17.5-32.2,37.8-29.7,61.2
			c-16.9-3-31.5-24-38.4-52.5l1-0.1c-1.9-1.3-2.4-2.7-0.7-3.5c-2-2.3-2.7-5.1-1.7-7.3c-1.7-3.6-1.7-7.7,0.3-10.3
			c-4.1-0.6-3.5-2.5-0.6-4.8c-1.3,0.8-2.5,0.7-3.5-0.4c-5.8,13.5-12.3,10-16.9,2c-0.3-0.2-0.6-0.5-0.7-1.2c0.1,0.7,0.4,0.9,0.7,1.2
			c0.4,0.2,1.1,0.2,1.7,0c2.2-1.3,3.9-3,4.9-4.8c-0.4,0.1-1,0-1.3-0.2c-5.8,2.2-10.4,2.2-8.4-4.6c-1.4,0.1-2.9,0.7-3.8,1.9
			c-1.6-0.9-4.2-2.2-5.9-2.8c0.4-1.7,0-4.1-1-5.8c-1.1,0.7-2.4,1.3-2.2,0.3c-1-3.2-3.4-4-6.8-3.2c-6.6,0.8-10.1,1.3-16.6,2.2
			c-13.2-0.2-28.6-4.8-38.3-11.2c-11.4,1.9-21.8-2.7-27-10.8c-3.6-4.7-7.2-7.9-10.3-9.5c-0.4,0.5-1.3,0.6-1.9,0.4
			c1,2.2,0.4,2.7-1.3,0.9c-0.7,2.8-1.3,4.1-4.3,5.1l2.3,1.5l0.2-0.5c0.3,0.9,0.6,1.7,1,2.5c-0.1,0-0.1,0-0.4,0.1
			c0.3,1.3,0.9,1.5,1.3,1c0.9,3.2,2.9,5.6,5.6,6.7c-0.1-0.1,3.6,6.1,4.6,8.7l-0.6-0.1c3.2,6.6,5.4,8.9,5.6,3.3l-0.3-1.7h0.1
			c3.8-2.9,3,2.6,2.5,7.2c0.3,0.4,0.6,0.5,1,0.2c-0.6,1.5-0.3,2.3,1.2,1.6l0.4,2.7c4.9-0.9,11.4-1.9,14.5-2.2c1.9-1,2-1.8,0.9-2.5
			c3.2-2.9,5.8-6,7.6-9.5l0.1,0.4c0.1-1.4,0.4-2.4,1.9-1.7c12.4,11.9,19.5,24,11.1,35.8l0.4,0.7c-1,0.9-1.6,2.3-2,3.8
			c0.7,0.1,1,0.4,1,1.1l-0.4,0.1c-24.3,26.9-57.6,39-83,23l1,0.2c-13-25.7-27.1-48.9-44.8-73.1l0.3-0.3c-1.3-0.7-1.9-0.7-3.1-0.2
			c0-2.9,0.4-5.9,1.2-8.7c-1.7,3.8-2.6,7.5-3.6,11.1c-4.3-3.8-7.9-8.2-10.5-12.6c5.5,10.8,11.6,22.2,17.9,33.6v-0.4
			c0.9,1,1.7,1.8,2.6,2.5c-0.9,0.3-1.6,0.2-2-0.5c9.8,16.6,17,31.1,26.3,51.3c0.3-0.6,0.4-0.9,0.4-1.2c-0.4-0.1-0.7-0.3-0.7-0.3
			s0.3,0.2,0.7,0.3c2.3,1.2,9.2,6,13,9c0.9,2.9,2.6,5,4.6,5.4c0.4,0.8,1.3,1.7,2,2.1c0.1,2.7-1.4,4.2-4,4.5c12,7,26,7.1,41.2,1.3
			c0.7-0.3,2.6-1.1,3.2-1.5c0.1-0.9,0.6-1.5,1.3-1.6v-0.2c2.9,2.1,3.2,5.2,1.9,9.2l0.6-0.1c0.2-0.1,0.2-0.1,0.2-0.3v0.3h-0.2
			c-10.7,23.2-32.3,50.8-54.7,70c-5.5,3.2-9.4,7.6-12.3,13.4c0,9.9,0.3,13.9,1.3,23.3l-0.4,0.1c5.9,8,7.5,16.5,5,27.4
			c0.6,3.6,0.6,3.9,0.3,7.3c-0.4,0.6-2,1.9-0.2,2c-4,6.7-10.4,11.5-18.5,13.6c-0.3,1.9-1.1,3.2-2.5,1.8c-7.9,4.8-12.3,10-12.3,17.5
			c0.4,2.2,1,11.6,2.9,6.1c-0.4,0.9-0.3,1.3,0.3,1.2c-0.1,2.9-1,6-1.9,8.3l0.3,0.9l0.7-0.4c-5.8,3.2-13.7,10.2-16.3,15.1
			c3-2.4,1.7,0.8,0.4,3.6c-12.4,27.9-34.4,44.7-60.1,44.7c-5.5,1.7-10.7,2.3-15.8,2.3c0-1.7-1-2-2.6-1.7c0-2.2-1-2.1-1.9,0.1
			c-18.4-44.1-28.3-100.9-25-147.7c2.3-5.5,0.9-11.3-3.6-16.1l1.6-0.9c-2.9-6.3-8.8-13.3-15.6-19.2l0.3-0.3
			c-2.6-3.2-4.3-6.7-5.5-10.6c2.9,0.4,3.3-2.1,2.6-5c1,1,1.9,1,3.2,0c-1.6,0.1-2.4-0.7-2.9-2.2c4.5-7.4,3.7-15.8-1.6-22.4
			c-1.3,0.6-2.3,0.4-3.3-0.7c-19.1-6.1-41.1-6.9-63.1-1.9c-19.2,4.2-34.8,0.2-49.3-11.8c-0.3-1-0.5-2.2-0.5-3.4
			c-3-4-6.1-9.2-7.8-13.7c-3.6-0.7-5.7-3-6.8-5.8l-2.5,0.4l1.3-1.5h-0.6c0.1-0.9-0.4-1.3-1.4-1.7c1.3,0.5,2.4,0.4,3.2-0.4
			c-2.6,0.3-4.9-0.2-7.1-1.7l0.9-0.8c-2.2,0.3-3.5-0.6-3.6-2.5c1.3,0.6,2,0.5,2.9-0.3c-5.2-1.9-3.8-3.2,0.9-3.9
			c-2.2,0.4-3.5-0.3-2.2-2.2l-1.6-0.9c0.1-1.3-1.3-3.5-3.5-5.1c7.5-12.1,9.2-26,4.2-35l-1.4,1.4c-0.3-5.1,1.4-9.4,5.1-12.6
			c20.4-27.2,37.8-50.8,57.9-77.4c18.1,0.6,47.2-2.9,66.2-7.9c4.4,1.3,9.2,0.9,13.1-0.6c8.7,28,37.2,39.9,72.8,28.8
			c13.6,6.8,28.6,8.7,42.9,5c-3.9,1.4-0.3,0.9,1.7,0.7c0-0.3-0.1-0.4-0.3-0.5c-0.2-0.1-0.6-0.1-0.7-0.1c0.1,0,0.6,0,0.7,0.1
			c1.1,0,2.9,0.4,3.9,0.8c-0.5,1,0.4,2.1,1.6,3c-0.4-0.9-0.4-1.8-0.4-2.8c32.4-35.8,6.1-37.2-25.1-32.9c-1,0.4-2.4,0.5-3.3,0.4
			c1.2-0.1,2.9-0.7,3.9-2c-3.3-0.3-5-1.5-6.9-4.3c-0.3,0.3-0.9,0.4-2.2,0.5c0-0.1,0.2-0.2,0.3-0.5c1-0.1,1.6-0.1,1.9-0.1
			c-0.6-0.9-1-1.9-1.6-3.1l-0.3,0.4c-0.9-0.9-1.2-2.2-0.6-3.8c0.6,2.1,1.6,2,2.6,0.1c-0.4,0.1-0.7,0-1.2-0.4c1-0.4,2.2-1.1,2.2-2.1
			c-2.3,0.1-2.2-1.6-0.7-3.7c-8.7-5.8,1.6-5.8,10.3-5.7c-3.5-1.9,0.4-2.5,3.2-3.1c24.4,0.9,79.1,6.8,33.2-31
			c1.3-0.4,1.8-1.1,1.3-2.4c3.8-0.3,5.6-3.2,5.3-6.1c-1.4,0.6-2-0.4-2.4-1.9c1.7,0.1,3.2-0.1,4-0.9c-0.4,0.2-0.9,0-1.1-0.6
			c6.2-3.8,4-3.8-1.2-2.5c-3.9,1.9-10.2,3.4-14.4,3.3c-0.3,3.4-0.7,5.6-0.7,1.3c-6.4,2.5-7.1,4.6-2.7,6.6c0.3-0.4,0.6-0.5,1-0.4
			l-0.2,0.9c0.6,0.3,2.6,1.2,3.9,1.8c-8.9-9,0-2.7,3.2-0.2c0.7-1.6,2.3-1.9,3.8-1.4c-7.2,7-15,7.8-21.1,1.9c1.2-2.1,2.9-3.2,5.2-3.5
			c-1.9-2.2-5.2-3.2-9.1-3.2c0.5-0.1,0.7-0.4,0.9-0.8c-1.5-0.2-3-0.7-4.2-1.2c2.3,0.4,4.3,0,6.2-1c-1.6,0.7-2.9,0.3-3.6-1
			c-0.3,1-0.7,1.4-2,1.3c-2-0.1-3.9,1.7-5.5,4.1c0,2.2-1,3.9-2.9,2.6c0.9,3.9,0.6,6.8-3.5,5c1.7,17,0.7,25.9-11.3,33.5
			c-0.1-1.7,0.7-2.7,2.2-3c-4.5-0.7-8-0.6-10.3-0.3c0.4,0.3-0.1,0.4-1.2,0.5v-0.4c-4.2,0.9-5.2,2.9-4.5,5c-1.6-0.4-2.7-1.4-3.6-2.5
			c0.6,3,1.3,10.4-0.3,6.8c0,0.5,0,1-0.6,1.3c1.7,0.9,0.9,1.4-0.7,1.9c6.4,3.5,11.6,6.9,2.3,7.3c1.3,1,2.3,2.1,3.2,3.4
			c-1.2,0.1-2.6,0.4-2-0.7c-3.3-0.3-1,3.2,0.6,5.8c-2-2.5-3.3-2.8-3.3,0.7c-0.7-1.8-1.4-2.9-2.9-4.4c-0.3,1.1-0.3,1.4-0.4,2.2
			c-5.8-7.7-4.2-10.7,5-9c-1.1,0-2.2-0.5-2.5-1.3c-2.3,0.3-4.2,0-6.1-0.9c-6.2-10.5-14.7-21.5-23.8-31.2c0.4,0.8,1.3,0.9,2,0.7
			c-1.2-0.5-2.3-0.9-3.2-1.4c-1,0.6-1.9,0.6-3-0.1h3c-0.6-0.1-1-0.4-1.3-0.5c-0.6,0-1.2-0.1-1.7-0.8c0.1-0.1,0.1,0,0.3-0.1
			c-3.2-1.8-5.2-3.8-4.8-5.4c-2-4-4-7.2-6.3-6.6l1.6,2.2c-1.3,0.1-2.4-1.7-1.9-2.2c-1,0.4-1.7,1.3-2.4,3.1
			c-14.6,2.8,7.4,18.3,24.4,32.8c-4.3,7.3-11,14.3-20.3-5.7c-24-26.3-48-27.4-69.8-1.4c0.6,1.3,0.3,2.1-0.4,2
			c-2.3,11.3-7.4,19.4-16.3,24c-16.7,6-29.4,3.2-33.1-10.2c-3.9,1.1-2.6-1-1.2-3.1c0.3,0.9,1-16.2,2.2-22.5l-1-0.1
			c0.4-0.7,0.6-1.2,0.4-2.3c-1.6,1.6-1.4-0.5-1.3-1.7c-1.6-2.4,1.1-3.1,4.8-3.4c10.5,1.9,27.3-1.3,36.1-8.4
			c-1.3-4.7-0.9-7.2,2.9-2.4c-3-5.9-5.4-9.6-8.8-14.4c0.7-1.2,1.6-1.2,2.5-0.4c-3.8-3-6.9-3.9-13.2-4.1c-0.3-1.9-0.3-3.9-0.9-3
			l-0.3-1.1c0.6-0.1,1.1-0.1,1.4,0.1c0.3-3.7,6.2-3.9,14.4-2.4c-0.6-3-1.2-4.9-2.5-7.5c3.4,2.2,6.4,2.7,11.1,1.6
			c2.4-4.8,9.7-10.8,17.3-12.9c-1.3-0.7-2.3-1.2-3.3-2c2.9,1.2,3.8,0.8,4.8-1.1c-1.7-8.9,3.8-12.9,14.3-11c0.3-5.1,2.9-3.8,5.9-0.4
			c-0.7-3.9,0.4-5,2.7-4.5c-0.7-0.7-1.3-1.6-0.9-2.5c-1.2-0.4-1.4-1-1.2-2l-0.9,0.4c0-1.1,0.6-1.4,2-1.3c-3.3-3.8-4.6-7.2-3.3-9.8
			c-0.9-1.7-2.6-3.6-0.3-3.3c0.3-1-0.3-1.7-1.3-1.9c1-0.5,1.9-0.9,2.4-1.1c-0.8-3.5,3.1-6.7,9.1-9.6c-1.6,4.6-4.2,7.4-7.8,9
			c2.3-0.9,3.3-0.9,5.8,0.1c3.2,1.7,3.5,3.4,2.6,5.1c0.6,1.1,0.6,2-0.6,2.2c0.6-0.6,0.6-1.4,0.4-2.2c-0.6,0.9-1.7,1.9-3.3,2.9
			c-0.3,0.2-0.2,0.5-0.4,0.7c4.6,4,4.4,3.9,0,0c-2.1,2.2-1.9,4.3,1.4,6.2c-1.4,1.6-1.3,2.6,0.3,3.6c3-1.1,6.3-1.9,2.6,1.6
			c4,0.4,7.4-0.5,10.5-3.1c-0.6,1.5,3.8,3.5,9.7,5.7c4.8-6.4,12.4-9.7,20.5-8.2c-3.9,2.7,0.7,1.2,4.5,0.2c-0.7,1-1.9,1.9-3,2.3
			c5.2-2.2,5.2-2.5,8.4-8.2c0.3-4,1.1-12.1,1.3-14.9l0.6,0.2c6.2,1.4,12,2.4,12.9-9.7c-3.6,2.1-4.2,0.2-3-3.2
			c-3-3.2-0.6-5.6,3.5-7.2c1.2,0.8,2.9,0.9,3.9,0.1c-0.4-0.1-0.7-0.5-0.6-1c0.7,0.4,0.9,0.1,0.7-0.7c12.6,1.7,20.8,0.8,13.1-7.9
			l1.3,0.9c-0.4-0.9-0.4-1.8,0.3-2.4c-2.3,1.8-4,2.2-5.9,1.5c-0.5,0.9-2.3,1.3-4.3,1.4c0-0.5-0.3-0.7-0.9-0.7
			c-0.3,1.4-0.9,1.4-1.4-0.2c-0.4,1.4-0.9,0.8-1.3-0.4c-0.7,0.3-0.7,0.9,0,1.5c-0.9,1.1-1.7,1.8-1.4-0.4c-3,1.8-6.2,3.3-10.1,4.9
			l-0.2-0.7c-0.7,0.2-1.4,0.9-1.4,1.9c-0.6-1.7-0.9-3.8-0.9-5.6c-0.6,0.7-1.1,1-1.9,0.9c-0.3-0.3-2.9-1.9-4.3-2.7l-0.3,0.6
			c-3.2-1-3.2-4.4-1.4-8.1c-0.9-2.7-2.5-6.7-3-7.9c0.1-5.7,2-9,5.2-10.4c-0.1-2.2,1-2.2,2.6-1.1c-0.7-1.9-0.4-3.3,0.7-4.9
			c1.5-3.1,5.2-6,9.1-6.3c0.2-1-0.3-1.6-1.6-1.8c0.7-0.3,1.3-0.3,1.7,0c-1.5-1.2-1.9-2.4-2-4.3l1-0.4c-4.8-2.2-9.1-3.5-12.4-3.3
			l-0.9,0.9l-0.7-1.2c-0.4,1.9-1.4,3-2.9,1.8c0,0.9,0.4,1.4,1.2,1.9c-0.9,0.6-1.4,0.9-2.5,1.2c0.6,0.7,0.3,3-1.4,6
			c1.6,0.4,2.7,1,1.7,1.9c0.3,0.8,0.9,1,1.6,0.9c-1.6,3.1-3.9,5.6-6.1,6.4c-1.8,3.2-2,3.5-4.5,6c-0.9-0.3-1.4-0.2-2.3,0
			c-0.6,0.4-1,1-1,1.7c-0.3,1.7-2.2,3.8-5,4.7c1.3,2.5,1.8,5.4,1.8,8.3c-1.6-1.1-1.4,1.1-1.6,2.3c0.3,1.8,1,4,2,6.1
			c0.7-0.6,1.2-0.3,1.3,0.8c5.3,3.7,7.8,7.4-0.2,7.8c-0.9,0.4-2.6,0.6-3.9,0.4c-1.7,0.6-3.8,1.3-0.4,1.9c4.9-0.4,10.1-0.4,5.6,4.3
			c0.3-0.6,0.3-1.1-0.1-1.5c-0.7,1.2-1,1.9-1.9,3.3l-0.9-0.7c0.1,0.6,0,1.1-0.6,1.4c-0.7-0.7-1.1-0.4-1.4,0.4c0.9-0.1,1.4,0.3,2,1.2
			l-2,0.1c1.6,0.9,2,1.9,2.3,3.6c-0.9,0.4-1.9,0.3-2.4-0.1c0,1.4,0.1,1.9,1.2,2.7c0,3.8-1.2,8.4-3.3,13.3c-1.6-0.8-3.6-1.4-5.2-1.7
			c-6.5,8.1-9.7,6.7-8.7-3.1c-4.5-2.9-6.9-7.9-6.8-12.9l-1.3,0.4c-1.4-9.2-3.5-19.5-6.5-6.9c0-0.6-0.3-0.9-0.9-1.1
			c-0.3,3.4-2.2,0.3-4.2-2.7c2.6,4.5,1.7,7.2-2.5,7.7c-0.3,2.7-2.4,4.1-6.1,5.2c-0.7-1.2-1.4-2-2.6-2.2c0.6,1.6,0,1.7-1.2,0.7
			c-2.7-2.3-9.4-7.7-1-5.4c-0.9-1.2-0.6-1.9,1.1-1.8c-0.7-1.2-1.7-0.9-2.6,0.2c0-1.7,0-2.2-0.1-3.7l0.4-0.4l-1.2-0.8
			c0,1.1-0.4,1.9-1.3,1.4l-0.3,0.9c-2.3-1.4-2.3-3-0.1-4.3l0.3,1.1c0.2-1.4,0.7-1.4,1.7-0.3c0-1.1,0.6-1.6,1.5-1.4
			c-2.3-0.5-2.8-1.4-0.5-2.8l-0.9-0.4c1-1.9,2.2-1.7,2.8,0.4c-0.7-1.6-0.2-2.7,1.3-3.3c-2.7,0.4-4.5,1.6-5.8,3.8c0-1.2,0-1.6,0-2.6
			c-1.3-0.6,0-1.6,0.7-2.6c-1,0.9-2.9,1.9-3.6-0.4c1.1,0.5,1.6-0.4,2-1.6c-5.2-2.1,0.6-1,3.9-0.4c3.2-0.8,1.7-0.6,3.3-0.7
			c2.5-0.5,3.3-1.7,2.3-3.7c-0.3,1.5-1,2.5-2.3,2c0.3-0.2,0.6-0.5,0.7-0.9c-4.3,1.6-8,1.9-9.1-0.4c-0.6,0.1-1.3-0.1-1.3-0.6
			c1.3,0.2,2.8-0.1,3.6-0.9c-1.2,0.1-2,0.1-2.9,0.1l0.6-0.7c-1.6-2.7,2.9-2.4,6.6-2.5c-2.4-0.3-7.2-1.1-7.7-1.3
			c0.1,0.2-0.1,0.5-0.5,0.8l-0.6-1.4c0.7,0.2,1,0.4,1.1,0.6c0,0,0.3,0,1.4,0.1c1.2-0.3,1.2-0.8,0.3-1.5c1.4-0.5,1.9-0.1,1.9,1.1
			c0.4-0.3,0.9-0.4,1.4-0.4l-1-0.7c0.6-1.4,1.3-1.5,2.2-0.4c0.6-0.5,0-0.9-0.3-1.3c3,1.1-2.3-0.3,7.2-3.1c-1,0.3-1.9,0.5-2.8,0.3
			c-2.7-3.4-0.1-2.8,5.9-0.3c-4.5-3.8-3.2-3.4,1-1c-0.6-0.6-0.7-0.8-0.3-1.6c-1.7-0.5-4-1.2-1.4-0.8c0.4-0.7,1-1,1.7-1.3
			c-0.3-0.1-1-0.1-1.4-0.1c1.7-0.9,2.3-1.2,4-2c0.4-1.6,0.9-0.7,1.3,2.6c1.4-2.1,2.9-2.8,5.3-1.5c-0.3-0.7-0.2-1.2,0.3-1.7l-0.7-0.4
			c1-1.3,1.6-1.7,2.6-2.5c-2-0.4-1.9-1.2,0.2-2.1c-1.7-0.4-2.9,0.6-3.2,2.6l0.7-0.2c-6.9,3.3-5.6,0.4-1.6-4.4c0-0.9,0-1.7,0.2-2.4
			c1.6,0.6,2.6,0.6,3.9-0.7c-0.7-1.3,0-2.4,0.3-2.7c2.2-1.1,3.7-2.5,5.4-4.1c-2.2-0.4-3.2-0.9-0.6-1.4c-0.9-1.2-1.9-2.7,0.3-1.9
			c0-0.7,0-1-0.7-1.2c0.4-1.2,0.9-2.1,2-0.9c-2.5-2.9-0.4-3.7,2.6-4c-1.3,0.1-2.6-0.4-3.8-1.3c0.3-0.3,0.6-0.7,0.3-1.2
			c0.5,0.6,1.1,0.4,1.9-0.1c-1,0-1-0.4-0.3-0.9c-1-0.4-1-0.6-0.6-0.9c1.4,0.2,0.9,0.1,2-1c-0.3-2.9,2.6-3.7,6.9-3
			c-2-0.9-5.6-2-2.5-3.5c-0.6-2.2,1.1-0.9,2.8,0.3c-1.5-1.4-2.8-2.9,0-3.6c-1.2-1.1-2.3-0.5-3.3,0.6c2.2-2.2,3.2-3.2,3-4.7
			c0-0.4,0-0.6,0-0.9c0,0.3,0,0.5,0,0.9c0.3,0.4,0.8,0,1.4-0.8c0.7,0.9,1,1.7,1.3,2.8c-0.3-0.9,0-1.8,0.7-2.1
			c-0.1-0.6-0.5-1.1-1-1.4c0.9,0.4,2,0.7,1.1-0.6c1.7-0.1,2.6,0.2,3.2,1.5c2-4-0.4-4-4.3-2.7c1-1.9,2.6-2.8,4.3-2.7
			c0.1-0.7,0.4-1.1,0.1-1.8c0.6-0.4,1-0.6,1.6-0.4c-0.4-0.9-0.9-1.1-1.6-0.9c0.6-1.3,1.6-1.8,2.8-1c-0.4-1.4-0.1-2.6,0.4-3.7
			c0.4,1.3,1,2.2,1.9,3.2l-0.5-1.2c0.5-0.3,1.3-0.3,1.8-0.1c-3.2-4.7-0.6-1.4,1.9,1.4c-0.4-3.2-2-10.5,0.4-3.2
			c0.6-2,1.4-3.8,2.8-5.5c0.9,2.6,0.6,4.8-0.6,6.6c1.2-0.7,1.7-1.7,2.3-2.9c0.3,0.4,0.6,0.7,1.3,0.6c-1.9-1.5-1.9-2.9,0-4.5l0.3,1.3
			c0.6-0.4,0.9-0.9,0.9-1.6c1.5,0.9,2.2,1.8,3.2,2.9c-0.7-1.1-0.9-2.5-0.2-4c-3-0.6-4.9-1.4-1.9-3.5l0.3,0.7
			c1.4-0.1,3.7,0.4,5.8,1.2l-0.7,0.7c1.3,1,3.5,2.9,1.6,0.4c-0.1-0.9,0-1.9,1.2-2.9c2-2.2,3.6-4.7,3.6-5c0.7-2.7,1.4-3,2.7-0.4
			c4.3-2.3,1.6,3.7,0.3,8.3c2.6-5.9,6.5-14.8,5.4-3.7c2.9-2.1,3.9-4.9,3.2-8c1.3,0.7,2,0,3.9-1.5c1.8,1.9,2.3,3.5-1.3,4
			c1.9,1,2.9,2.2,0.1,4.6c1.4-0.9,2.8-1,3.8,0.2c0.6-5.4,2.5-5.6,4.5-3.8c7.6,2.7,4.2,7,1.9,11.1c0.6-1.3,1.2-1.1,2-0.1
			c0.3-0.6,0.3-1.2,0-1.7c0.6,0.1,0.9,0.4,1.2,1.1c1.6-1.2,3.3-0.3,4.2,2.1c-0.1-1.6,0.6-2.3,1.8-2.3c-0.7-0.1-1-0.4-0.7-1
			c1.1,0.1,10,0.2,2.2,0.6c-0.6,0.9-0.7,1.9-0.1,3c0.9-1.1,1.3-0.7,1.6,0.5c0.9-1,1.4-0.9,1.7,0.5c0.4-0.1,0.7-0.4,0.9-0.9
			c0.1,0.4,0.3,0.9,0.1,1.4c0.3-1,1-1.6,2-1.4c-0.3,0.3-0.4,0.7-0.6,1.1c0.6-0.1,0.9,0,1.2,0.4c0.6-0.5,1.4-0.8,2.4-0.6
			c0.1-0.6,0-1.2-0.3-1.7c2,1.7,3.9,2.2,5.2,0.9c1,0,1.9,0.5,2.6,1.1c4.5,1.5,10.8,5.2,14.9,9c0.7-0.9,3,0.2,4.9,1.3
			c-0.4-0.6-0.8-1.1-1-1.9c14.2,17.6,5.8,22.8-15.5,19.5c-0.6,0.2-1.4,0.2-2.2,0.1l0.6-0.4c-1.7,0.7-3,0.7-3.6-0.4l0.6-0.5l-0.6-0.6
			c-5.3-2.3-13.7-6-4.8,1.5c-3.3,2.2,0.6,1.4,1.9,1.2c-1.2,0.5-1,0.7,0.4,0.7c-0.4,0.9-1,1.3-1.7,1.7c3-0.4,5.8,0.4,8,2.7
			c2.9,14.7,8.4,21.6,15.7,13.7c-3.6,1.2-6.2-0.5-7.4-4.4c3.5-3.6,9.2-1.7,15.7,3.9c-1.4-11.4,2.4-19.8,14.2-18.3
			c2.2-1.7,3-0.3,3.9,1.9c-7.2-32.3-1.7-29.5,9.4-9.6c2.3-5.3,4.6-8,9.2-9c-0.6-1-1.3-2-2.2-3.1c3.3-2.2,8.9-5.6,13.3-8
			c1.2-0.4,6.1-5.3,5.6-3.8c1.3,0.5,1.7,0.6,3,1.5c-3,3.4-2.2,5.3,1.9,6.1c3.8-3.7,13.9-9.3,18.9-10.8c2.6,6.9,6.4,4.5,10.5,0.2
			c-1.6-2.2-3.9-3.9-4.8-3.9c-2.6-12.9,7.9-9.3,18.2-2.9c9.4,5.9,18.9,11.5,21.2,0.9c-4.2,0.1-7.1-2.2-8.4-6.6
			c-1.6,0.6-3.8,1.1-5.2,0.9c-0.7-1.9-1.4-3.8-2-5.9c0.1-0.4,1-3.6,1.3-4.8c-4.2-8.7-4.5-22.5-1.2-32.6c12.9-0.6,17.9,7.8,18.5,21.1
			c4.2,10,10,20.7,17,29.9l-0.7-0.1c0.7,2.8,1.2,5.3,1.2,7.6c5.8-4.5,11.5-6.4,20-4.5c-0.4-1.2-0.3-2.8,1-5.1
			c-22-17.7-60.6-46.9-20.2-30.5c3.6-0.7,7.5-0.9,11.3-0.4c-6.4-0.9-12.6-4.1-18.4-9.6c7.2-0.2,13.1-0.8,5-4.6
			c18.6,1.3,30.9,9.3,31.5,12.4c1.9,2.7,2.3,5.7,0.6,8.2c5.2,2.1,8.1,3.9,12.3,7.5c0.6-1.5,1.2-2.4,1.7-3c-3.6-1.9-7.1-3.9-11.7-5.7
			c0-0.5,0-1,0-1.5c-0.3,0.1-0.3,0.3-0.3,0.4c-0.3-1.5-0.6-3.3-0.7-4.9c0-0.1,0-0.2,0-0.2c-0.2-0.7-0.3-1.2-0.6-1.9
			c0.3,0.3,0.3,0.7,0.3,1.1c-0.9-0.1-1.3-0.7-1.3-1.4c0.4-0.1,0.8,0,1,0.3c-2.2-6.3-6.8-12.9-12.3-17.5c-8.5-0.3-13.1-5.8-14.9-13.9
			c13.4-8.4,23-10.7,26.4-1.4c-0.9-4.8-1.5-7-2.5-11.4c-2.9-1.8-6.5-3.8-7.9-5.1c-0.1,0.3-0.4,0.7-1,1.4c0.6-0.7,0.9-1.2,1-1.4
			c-1-1.1-1-1.7,1.1-1.7c0-3.1,0.6-5.3,2.5-6.5c-4.6-2.2,0.3-5.6,4.9-8.7c0.3-2.5,2.2-3.7,5.5-3.5c6.2-4.9,6.1-7.4,4-10.3
			c5.9-1.8,10.1-1.6,10.7,4c0.6-1.5,1-3.2,1.3-4.7c2.3,2.7,3.2,1.4,3.5,1.1c1.9-0.7,2.3-1.7,1.2-2.8c0.7,0.2,1.4,0.1,1.9-0.7
			l-1.3-0.4c3.7-2,5.9-1.7,6.4,1c0-7.4,0.6-9.8,2.2-12.4c-2.5-0.6-4.3-2.2-4.9-4.5c0.1-2.4,0.7-10.6,1-14.4c9.4-3,14.4-1.7,8.7,8.5
			c8.7-5,14.7-4.6,13.4,8.7c29.9-15.7,42.5-8.2,32.2,26c0.9,5.1-0.6,17.7-3.9,28c1.6-2,3.2-3.5,5.4-4.3c-0.9-4.4,1.3-7.8,5.5-12.4
			c0-4.9-0.6-3.8,5.9-10c3.5,5.3,6.4,7.4,6.1-0.4c3.5,2,5.8,4.9,6.6,8.7c4.8-4.8,12.3-7.5,20.8-8.3C1328.5,98,1167.1,5.8,984.6,5.8
			c-137.5,0-263,52.2-357.8,137.6c1.9,1.6,3.3,7.2,3.9,18.7c3.2-1.5,3.6-0.5,2.4,1.1c3.3,0.9,5.4,4.4-5.1,15c1-0.4,2.3-0.6,3.5-0.1
			c4.9,2.1,5.8,6.1-5.8,12c0.1-1.1,0.1-1.5,0.1-2.3c-1.6,2.5-3.6,5.4-5.6,8.1c-0.3-1.3-0.2-2.7,0-4c-1.4,3.9-2.9,7-4,3.5
			c-1.2,2.4-2.7,4.8-4.6,6.8c-0.7-3.3-0.4-6.9,1.2-10.1c-1.7,3-3,5.9-3.6,9c0.3-1.7,0.1-3.1-1.9-3.1c-1.9,2.6-4.5,0.7-6.2-0.9
			c-0.4-1.3-0.4-2.3,0.3-3.2c-2.2-2.1,0.2-2.2,2.9-2.1c-3-2-5.2-3.8-1.6-3.3c0.2-5.4,3.2-6.7,7.9-5.6c0.1-0.2,1.9-0.2,5.2,0
			c-3-0.9-6.4-1.6-5.2-3c-0.9-0.7-1.7-0.8-2.8-0.8c0.6-0.3,0.7-0.7,0.6-1.2c-5.9,0-7.8-1.7,0.7-6.5c-4,0.3-5.1-1.6-3.6-5.1
			c1.7-0.4,16.3-0.4,5.4-4.7c0.6,0.1,1.2,0.1,1.6-0.2c-0.8-1-1.3-1.7-1.9-2.5c-8.2,8.2-16.4,16.6-24.1,25.2c3.5-2.5,4,2.7,3.3,9.7
			c-0.1,5.3-4.3,5.8-9.5,4.5c1.5-5.3,2-4.8,0.7-7.9c-6.1,7.2-12.1,14.4-17.9,21.8c1.3,0.6,1.3,1.6,0.3,2.3c-0.6,5.3-3.7,13.2-7,17.3
			c-2-1-2.7,0.1-2.3,1.9c-0.4,1.2-0.7,2.1-1,3.1c-0.7-0.9-1-1.7-1.2-2.7c-0.4,3.3-1.9,4.2-4.3,1.7c-1.6,1.1-2,0.9-1-0.9
			c-0.1,0.1-0.3,0.1-0.6,0.2c-3.9,5.7-7.6,11.4-11.3,17.2c2.5,0.3,8.1,3.4,8.5,5.5c-4.6,4.2-8.4,7.2-4.6,10.1c1,1.3,1,2.9,0.6,4.4
			c0.4-1.2,1.6-2.1,2.6-2.1c-2.3,4.9-4.8,9.2-5.8,10.6c-3,3.8-6.5,5.7-8-0.7c0,1.5-1,8.7-4.2,8.7c-0.3-1.2-0.7-2.5-1.9-1.7
			c-1.3-3.5-2.3-6.4-3-9c-3,5.3-5.9,10.8-9,16.3c0,0.4,0,1-0.2,2c0.2-1,0.2-1.6,0.2-2c-3,6.6-6.5,13-9.5,19.6c0.3-0.1,0.6,0.6,1,2.2
			c-1,0.4-1.3,0.9-1.7,1.9c0-1.2,0-2.5,0.4-3.3c-2.3,4.6-4.2,9.1-6.1,13.7c6.3-0.1,10.8,1.4,13.6,5.5c-3.5-8.8-1.9-11.8,3.5-9.2
			c4.2,0.9,7.2,3,1.1,9.7l-0.1-0.9c-0.7,0.9-1,2.2-0.9,3.5c2.4-0.9,1.2,0.8,0.1,2c1-0.7,2.1-1,3-1.2c-0.3,0.8-0.9,1.4-1.4,1.7
			c0.6,0.4,0.9,0.3,1.4-0.2c-0.6,3.1-2.3,3.1-4.5,2.1c-2.2-3.3-0.6,3.2-0.3,5c1.9-4,3.9-5.4,9.1-7.4c-1.3,0.5-2.2,0.9-3.5,1.5
			c0.6-3.8,2.5-8.5,3.5-9.5c0.7-0.1,1.3-0.4,1.4-1.1c6.1-1.2,10.1-5.1,8.7-9.2c-5,0.4,0.7-2.6,3.7-4.5c2.3,2.5-1.3-2.4-3.3-5.3
			c-6.6-2.4-5.6-7.5,1-13.4c-1.4-4.6,0.2-8.3,4.8-6.6c15.1-10,10.7,6.6,8.7,15.7c-1.3,0.6-2.3,1.7-2.8,2.5c-3.2,4.5-1,7.2,6.2,8.2
			c-1.3,0.7-2,1.2-2.9,2.2c0.4,0.4,0.8,0.7,1.3,1c-0.3-0.4-0.3-0.9-0.1-1.4c0.7,0,0.7,0.9,0.4,1.7c5.9,4.9,4.2,4.9,6.7,25.9
			c1.4-2,10.2-12.6,13.3-15.8c3.2-1.2,4.2-3.5,4.3-8.4c-0.6-1.2-0.6-2.2-0.2-3.1c1.7-0.2,1.5-1.2,0.3-2c4.5,0.9,9.8,3.6,12,5.7
			l0.6,0.7c-0.7,0.3-1.3,0-2.2-0.4c1.7,1,3.3,2.2,1.7,3.6c5.2,0.7,4.9,2.5,0,4.8c2.3,0.1,2.9,1.2,2.6,3c-3.5,0.9-6.4,1.4-8.2,1.2
			c1.6,0.3,1.9,1.1,0.6,2.2l1,0.1c-1,1.8-0.7,2,0.7,1.2c-2.6,12.9-7.4,20.2-14.3,12.6c-0.3,0.7-0.6,1.1-1.6,1.2
			c-0.3-3.8-2-4.3-4.5-1.7c2.4,2.3,9.1,8,1,4.3c-0.4,1.1-0.3,1.7,0,2.8c-1-0.9-2.2-1.2-3-1.1c-0.3-1,0-1.9,0.7-2.7
			c-0.7,0-0.8-0.3-0.7-0.8c-2.2,0.9-4.2,0.6-5.8-0.7c-1.7,11.3-7.6,13.1-15.4,9.2c3,3,4.9,6.7,4,10.8l-0.3-0.4
			c-2.3,3.5-5.9,6.4-8.8,7.4c-0.9-1.6-1.9-2.3-2.7-1.1c0-0.5-0.4-0.9-0.9-1c0.9-3-0.4-1.3-1.7,1c0-1.1-0.1-2-0.7-2.9
			c0.3,3.3,0.3,7.7-3,4c-0.4,0.8-0.4,1.3,0.6,1.6c-1.1,0.2-1.6,0.7-1.3,1.9c-4-3-8.1-6.3-11.6-9.6l-0.1,1.6l-1-0.3
			c2.9,1.1,6.5,2.6,3.3,5.7c0.1,0.4,0.3,0.6,0.1,1c6.8,4.8,9,7.4-3.3,1.9c1.2,3,4.5,10.2,0,6.7c-0.6,1.1-0.3,2,1,2.7
			c-1,0.1-1.6-0.2-2.3-0.9c0.7,1.3,0.7,2.3-0.1,3.5c0.1-1.1,0-1.6-1.2-1.5c0.6,0.4,0.7,0.9,0.3,1.4c-1.6-0.5-2.7-0.1-3.9,0.9
			c2.3,2-1.4,1.1-2.4,1c1.9,1.7,0.3,3.3-2.3,4.3c-0.7,3-4.1,6.1-7.1,6.9c-0.9,5.4-3.2,11.3-6.2,15.7c3.2,4.1,1.3,7.7-3.8,10.3
			c16.6-8.2,13.3-0.4,5.3,11c11.8-3.7,21.8,0,26.8,10.9c6.6,6,14.2,9.1,23.1,9.5c-1.7,6.2-2.3,12.6-2.3,19c5.5-1.5,6.5-1.2,1.4,1.7
			c-0.3-0.6-1-0.9-1.4-1.1c0,5.3,0.4,10.5,1.7,15.1c4.2,0.1,6.5-0.8,8.8-4.5c-0.3,3,1,5.4,3.9,6.4c-2.2-2-2.7-4.6-2.2-7.2
			c1.7-4.8,3.2-12.5,3.7-18.9c2-3.3,11.9-13.9,17.2-18.3c-3-13.8-2-24.5,5.2-28.8c0.3-4.5,0.9-6,2.2-9.5c-2.2-0.5-1.3-1.7,0-2.8
			c-2.2-8.4,0-16.1,13.7-14.2c0,0.4-0.3,0.7-0.3,0.9c1.7-0.6,3.3-0.4,5.1,1.4v-1.3c4.9-0.9,7.9,0.9,7.7,6.1c1.3-0.6,2.2,0.4,2.5,1.9
			l-0.9,0.1c1.3,0,2.2,0.3,2.6,2.1l-1-0.8c-0.1,1-0.6,1.4-1.6,1c1.3,0.5,1.6,1.4,1.4,2.5l1-1v1c7.9-0.1,11.1,2.5,6.1,10.6l-0.3-1.5
			c-0.6,1.6-1.4,2.4-2.6,2.4c2.6,1.4,3.2,3.8,0.1,7.2c0.6,0.9,1.4,2.2,2.7,2.6c-0.9,0.5-1.7,0.3-2.4-0.7c0.3,1.4,1.3,2.4,2.8,2.6
			l-0.6-1.2c3.6,2.1,3.2,5.1,0.6,8.6c3.7-6,5.1-5.2,3.3,0.9c1.4-2.8,3.5-4.5,5.6-4c2-2.8,4.2-5.5,4.6-0.2c0.7-4.5,3-7.7,6.2-8.1
			c-1.1-1.9-1.9-3.4,0.6-3.5c1.4-3.7,3-6.5,3.9-5.8c0.1,0.4,0.9,2.6,1.3,3.3c0,0.6-0.4,1-0.7,1.3c1.3,1.7,1.6,4-0.1,5.1
			c0.4,1.3,1.2,1.7,2,0.6c1,2.3-0.3,3.2-2.5,3.4c2.3-0.5,5.5-0.9,2.7,2.1c0.7,0.5,1.4,0.5,1.9-0.2c-2.2,1.8-2.7,2.3-4,4.3
			c6.2-1.8,4.5,0.2,0.6,3c4.3-1.6,5.5-1.1,2.3,2.1c4.2-0.1,4.5,0.9,0.4,2.8c2,0.4,4,0.7,2.5,2.8c4.2,1.3,2.6,2.7-0.6,3.8
			c2.2,2.2-1.6,0.8-3.3,0.4c3.3,2.3,4,4.2-0.1,4.7c2.7-0.4,4.8-0.5,4.8,1.5c1.9,0.5,3,1.4,2.9,4c1-1.9,1.9-1.9,2.2,0.2
			c-0.7,0.9-1.3,1.6-2.2,2.3c1.4-0.5,2.5-0.4,0.6,1.9c0.7-0.6,2.5-1.8,3.9-2.4c-0.3,0.6-0.6,1-1.6,1.4c0.7-0.2,1.7-0.3,2.5,0
			c-0.9,0.5-1.4,1.1-2.3,2c1.2-0.4,3.3-1.6,3.9-2.2c-0.4,0.2-0.6,0.7-0.6,1.1l1.3-1.1c1.3,2.9,4,4.2,3.5,4.2c1.4,0,2.6,0.6,3.6,1.7
			c-3.9,0.8-8.4,2.2-12.1,3.7c1.7-0.9,3.9-1.1,4.9-0.4c-4.8,3.1-8.5,3.9-11.4,0.7c1.2,8.1,7.4,5.4,15-0.2c-0.6-0.2-1.4-0.4-2-0.6
			c5.6-0.4,6.8,1.1,2.9,4.7c1.1-0.4,1.7-0.1,1.9,1.1c1.4-1.9,3.3-3.7,3.3-1.1c1.4-0.3,2.6,0.1,3,1.4c-0.2-0.3-0.2,1.4-2,3.3
			c1.9,2.1,0.7,2.7-2,2.3c1.2,0.9,2.6,1.8,3.9,2.4c-0.9,0.3-1.4,0.3-2.5,0.2c0.3,4.9-4.9,7.4-12,6.6c-0.6,1.1-1.4,1.6-2.9,1.7
			c-2.4,5.5-8.5,7.9-16.5,7.4l0.2-0.6c-22.7-3.3-41,5.2-57,24.6c11.3-10.3,25.3-16,39-14.7c-0.2-0.1,0.1-0.1,0-0.1l1.9,0.2
			c-0.9,0-1.4,0-1.9-0.1c0,0.1,0.1,0.2-0.2,0.4c1.2-0.3,2.3,0.1,2.6,1l-0.6,0.4c-2,2.8-5.1,4.3-8.7,4.6c4.6,0.3,6.9,1.8,2.5,6.6
			c0.7,2,3.3,5.1,6.5,7.1c0,0.9-0.6,1.3-1.6,1.3c3.8,2.1,7.4,2.6,10.4,0.9c0.4,0.6,0.4,0.9-0.1,1.4c2.1,0.4,4.6,0.9,2.1,2.1
			c0.9,0.4,1.8,0.7,2.5,1.1c-4.5,0.9-9.4,2.5-13.9,4l0.3,0.5c-3.3,2.2-11.1,5-14.6,5.1c0.7-7.4,5.5-10.5,11.5-8.9
			c0.4-1.3,2-2,3.9-2.2c-2.9-0.2-5.3-0.3-7.8,0c1.3-1,2.8-2.2,3.5-3.4l-0.7,0.4v-0.6c-2.4,2.8-5.9,4.3-7.9,3.6h-0.3l0.6-1.1
			c-2.3,2.8-4.9,3.2-8,1.6c1.7,0.8,2.3,1.6,2.6,3.3c0.1-0.9,0.7-1,1.3-0.1c-4.7,2.5-9.4,2.8-11.7,0.9c-1.1,1.9-2.3,3.6-3.5,3.6
			c-0.7,1.5-1.3,1.9-1.4,0.1c-0.6,1.4-1.3,2.4-2,0.9c-2.4,2.4-4.8,5.5-6.3,8.7c2.2,3.7,5.3,8.5-0.3,6.5c-2,3.9-3,3.1-3.9-0.1
			c-0.3,1.1-0.1,2.4,0.4,3.2c-12.1,0.4-18.3,6-21.2,16.6l-0.3-0.3l-0.9,0.6c-0.6-0.7-1.2-1.7-1.3-2.4c-1,3.8-2,7.8-3.6,12.6
			c0-0.3,0-0.6-0.1-0.9c-0.7,1.1-1.2,2-1.5,3c-0.2-2.4,0.6-4.5,1.9-5.7c-1.3-0.2-1.7-0.9-1.9-2l-0.3,0.5c-0.7-3.3-0.4-6.9,0.3-10
			c0,1.6-1.2,2.6-2.6,2.7c0.4,5,0,7.5-1.4,6.1c1.4,2.1,2.5,3.9,0.2,3.7c1.7,1.7,2.9,3.3,0.3,3.5c2.2,2.4,0.7,1.9-0.9,1.1
			c2.3,1.2,3.3,2.5,2.7,4c0.4,3.4-1.2,4.3-4,2.7c-0.3,0.6-0.6,1.6-0.6,2.5c2.5-1.2,4.2-0.9,4.5,1.4c2.2,0.7-0.7,0.8-3.3,0.9
			c-0.3,1.2-1.2,1.2-2.5,0.6c1.6,0.6,2.5,1.2,2,2.5c-0.7,0.8-1.7,0.9-2.5,0.2c1.1,1.3,2.3,1.4,3.3,0c0,0.4,0.3,0.6,0.6,0.6
			c-9,6-18.5,11.8-27.3,16.5c0.3,14.3-2.9,34.8-6.9,43.4c0,0.2,0.2,0.3,0.3,0.4l-0.6,0.3c0-0.2,0.1-0.4,0.3-0.7
			c-3-2.5-4-5.9-2.9-9.3c-0.4,0.4-1,0.4-1.3-0.1c0,0.4,0,0.7-0.3,1c-0.7-2.7-0.4-9.2-2.9-5.3c1.3-11.1-2.9-16.1-11.8-13.8
			c0,0,0.2,0.1,0.2,0.3c-0.2,0.2-0.4,0.1-0.4-0.3c0.1,0,0.3,0,0.3,0c-0.6-0.9-1-1.5-2-1.9c-0.1,0.2,0.6-2.5-0.3-0.4
			c-1.3-1.1-2.9-1.5-4.6-1.4c0.7-0.1,1.4-0.3,2.2-0.4c-6.8-1.8-12-1.2-17.8,1.9c9.1,44.4,23.7,86.8,43.2,126.4
			c9.1,1,18.3,2.4,16.8,1.7c3.9-1.7,6.8-4.3,6.4-6.5c1.3-4.9,4.2-7.3,8.7-6.3c25.3-4.3,8.8-1.7,68,1.2c-3.9,0.4-7.1,1.4-3.2,5.3
			c5.3,0.4,10.5,2,4.1,7c10.1-1.6,16.5,2.8,17.6,12.4c3.9-3.5,7-1.1,8.4,4c6.1-2.9,13.1-2.3,15.7,1.6c7.5-0.7,12.9,2.8,13.1,8.8
			c1.6-2.7,2.6-3,3.5,0.2c0.9,4.2,2.3,8.3,4.6,12c0.9,3.2-1.7,9-6.2,14.8c0.1-0.3,0.4-0.6,0.7-0.7c0,1.7-0.6,3-1.7,4.3
			c1.4-2.5,3.3-4.7,5-3.2c0.1-0.9,0.7-1.4,1.7-1.3c11.9-1.9,12.6,0-1.2,6.8c6.8-0.6,7.5,3.1,5.8,8.9c2.5-12.5,9.1-17.7,18.6-12.5
			c4.3,0.4,7.6,2.4,8.8,5.8c0.7,0.7,0.9,2.4,0.7,4.3c0.3-1.7,1-2.5,2-0.3c2.8-4.2,6.8-4.3,10.7-2.5c0.6,0.4,1.3,0.8,1.7,1.5
			c0-0.6,0-0.9,0.3-1.4l0.6,0.7l0.1-0.5c0.9,0.4,1.6,0.9,2.2,1.7c36.8,8.7,43.2,28.2,15.5,57c0.4-0.9,0.9-1.5,1.4-2.2
			c-2-0.3-1.6-0.1-3.8-1.2c0,0.4-0.4,0.6-0.7,0.6c1,2.1,1.9,6.8,1.9,7.7c1.8,24.9-6.2,44.6-21.3,50.2c-8.1,3.9-0.6,2-8.7,2
			c2.2,1.9,0,3.9-2.6,5.6c-5.8,1.5-13,5.9-17.6,10.2c1.9,0.9,1.9,1.4,0,2c0.7,0.1,1,0.6,1.2,1.4c-0.3,1.5-0.7,3.3-1.2,5.1
			c85.9,59.4,190,94.2,302.7,94.2c207.9,0,388.3-119.5,476.4-293.8l-0.1-0.5c0.1,0.1,0.1,0.1,0.3,0.2c8-15.4,14.9-31.2,21.2-47.4
			c-0.1-1.2-0.3-2.5-0.1-3.6C1479.7,733,1477.9,730.8,1476.4,727.8z M1126.1,621.3c-2.3,4.1-5.3,6.2-10.3,6.4
			C1114.2,622.8,1119,621.4,1126.1,621.3z M1091.6,616.6c-0.4,1.6-1.3,2.8-2.9,3.5C1088.4,618.2,1089.4,617,1091.6,616.6z
			 M1088.9,615.7c0,0-0.3,0.1-1,0.2C1088.6,615.7,1088.9,615.7,1088.9,615.7z M1086.1,619.8c0.3,0.2,0.2,0.5,0,0.9
			C1086.2,620.3,1086.4,620,1086.1,619.8z M1085.8,620.8c0.7,0.9,0.9,1.8-0.1,2.5C1085.2,622.3,1085.2,621.6,1085.8,620.8z
			 M1081.3,616.2C1081.6,615.8,1081.9,615.3,1081.3,616.2c-0.1,0.2-0.1,0.3-0.1,0.3S1081.2,616.4,1081.3,616.2z M1080.5,597.9
			c0.7,1.7,0.4,2.4-1.4,1.8c0.4-0.4,0.9-0.9,0.9-1.6c-0.7,0.6-1.4,0.9-2.2,1.5C1077.8,597.5,1079,597,1080.5,597.9z M1080.3,609.3
			c-0.2,0.5-0.6,0.9-1,1.2C1078.7,609.6,1079,609.3,1080.3,609.3z M1079.3,602.8C1079,603.3,1076.7,606.5,1079.3,602.8L1079.3,602.8
			z M1076.7,612.4c0-0.1-0.2,0.2-0.6,1.1C1076.5,612.6,1076.7,612.3,1076.7,612.4z M1075.8,611.1v-0.6l0.6,0.1L1075.8,611.1z
			 M1075.8,591.1c1.1-0.3,1.8-0.4,1.8-0.4C1077.6,590.7,1076.9,590.9,1075.8,591.1z M1076.4,589.3c0.1,0-0.2,0-1.4,0
			C1076.1,589.3,1076.5,589.3,1076.4,589.3z M1074.2,609.6c0.6-0.2,0.9,0.1,1,0.8C1075.1,609.6,1074.8,609.3,1074.2,609.6z
			 M1074.8,612.5c0-0.1,0,0.3,0,1.2C1074.8,612.7,1074.8,612.4,1074.8,612.5z M1074.9,592.4c-0.6,0.4-0.7,1-0.7,1.7
			c-1.4-0.1-2-0.7-1.7-1.8C1073.8,592.4,1074.1,592.4,1074.9,592.4z M1073.3,609.2c-0.1-0.1-0.7-0.7-1.5-1.7
			C1072.6,608.4,1073.2,609.1,1073.3,609.2z M1071.5,601.2c-0.1-0.1-0.6-0.6-1.2-1.2C1071,600.6,1071.5,601.1,1071.5,601.2z
			 M1065.9,599.9l-0.9-1.2L1065.9,599.9z M1064.1,599.2l-0.3-0.5L1064.1,599.2z M1061.4,600.7c1.9-0.5,4.2,0,6.1,1
			c0.9,2.4,2.2,3.8,3.9,4.6l-0.6,1.2C1068.5,604.9,1065.1,602.3,1061.4,600.7z M1070.3,611.7v-1
			C1070.9,610.8,1071.3,611.7,1070.3,611.7z M1070.9,612.3v0.7l-0.4-0.4L1070.9,612.3z M1069.9,610.4c-0.3-0.3-0.3-0.6,0.1-0.8
			l0.3,0.6L1069.9,610.4z M1071.3,615.3c0,0.7-0.6,1-1.3,0.7C1070.8,616.3,1071.3,616,1071.3,615.3z M1067.4,622.3
			c0.3-0.6,0.9-0.6,2-0.2c-0.6,0-0.7-0.1-0.7-0.4c1.3-0.1,1.6,0.1,1,1c4.3,0.8,9.3,0.9,11.7,0.3
			C1076.7,626.4,1070.9,626.1,1067.4,622.3c0,0.1,0,0.3,0,0.4l-0.6-0.7C1067.1,622.2,1067.3,622.2,1067.4,622.3z M1063,616l0.3,0.5
			h-0.3V616z M1063.3,616.8c0.3,2.6,0,2.6-0.3,0.2L1063.3,616.8z M1052,609c-1.5-0.7-3.3-1.4-0.3-0.6L1052,609z M1050.3,601.8
			c0.1-0.1-0.1,0.1-0.9,1C1050.2,601.8,1050.4,601.6,1050.3,601.8z M1049.4,604.4v-1.3c1.6,2.2,2.6,4.3-0.3,2.2
			C1047.8,606,1048.5,605.3,1049.4,604.4z M1045.1,594.8C1045.6,600.2,1044.9,594.3,1045.1,594.8L1045.1,594.8z M1016,562.8
			c0-1.2-0.6-2.1-1.7-2.5C1015.5,560.7,1016,561.5,1016,562.8z M1016,563.2c1.2,0.1,1.4,0.6,1.2,1.2
			C1017.5,563.8,1017.2,563.3,1016,563.2z M1018.5,562.8l-1-0.9L1018.5,562.8z M1017.6,565.1c0.9,0.4,1.4,1,1.4,1.9
			C1019.1,566.1,1018.5,565.5,1017.6,565.1z M1018.5,563.2c1.1,1.2,1.3,1.4,1.1,1.2C1019.8,564.6,1019.6,564.4,1018.5,563.2z
			 M1027.4,572.7c1.2-0.4,2-0.3,2.5,0.7C1029.5,572.5,1028.6,572.3,1027.4,572.7z M1017.2,620.1c1.1,1,1.5,1.3,1.4,1.2
			C1018.7,621.4,1018.3,621.1,1017.2,620.1z M1021.2,615.5C1004.9,598.2,1014.5,608.2,1021.2,615.5L1021.2,615.5z M998.3,577.3
			l-0.7-0.4L998.3,577.3z M993.1,573.8c0.7,0,1.3-0.3,1.4-0.8c0.4,0.4,0.9,0.7,0.9,1.2c-1,0.1-1.9,0.2-2.9,0.1
			C992.7,574.3,992.8,574,993.1,573.8z M987.9,583.7c-1.7-0.5-2.4-1.2-1-1.8c-1.2-1.4-1.6-2.3-2.3-4
			C990.2,570.9,991.1,573.3,987.9,583.7z M983.7,584.6c0.6,0.6,0.5,1.2-0.3,1.4C984.1,585.7,984.3,585.2,983.7,584.6z M989.7,585.2
			c1.7,1.8,2.3,3.7,0.4,5.2c2.2,5.9,0.7,9.4-4,10.5c-1-6.1-1.4-8.2-2.7-14.2C985.6,586.5,987.9,585.9,989.7,585.2z M960.3,594.2
			C962.3,594,964.8,593.9,960.3,594.2L960.3,594.2z M958.7,595.3c-0.9,0.5-1.4,1.3-1.4,2.5C954.1,595.7,955.7,595.2,958.7,595.3z
			 M950.3,601.6C950.5,599.8,951.1,598.4,950.3,601.6L950.3,601.6z M990.5,487.4l1.3,0.4C991.5,488.5,990.9,488.4,990.5,487.4z
			 M1075.1,440.7C1076.5,444.2,1074.8,440.7,1075.1,440.7L1075.1,440.7z M1045.6,463.1c0.9-2.1,0.6-3.8-0.7-5.1
			c0.6,0,0.7-0.1,0.6-0.6c0.6,0,0.8,0.4,0.8,0.7c1.5-1.8,3.3-1.5,5.2,0.2C1049.4,459.6,1047.1,461.5,1045.6,463.1z M1050.7,456.9
			c-0.2-0.2-0.2-0.5-0.2-0.7C1052,457,1053.4,457.9,1050.7,456.9z M1051.7,453.8c-0.7,0.4-1.2,0.3-1.2-0.4
			C1050.5,454.1,1051,454.2,1051.7,453.8z M1050.5,455c-1.1-0.4-1.7,0.1-2,1c-0.9-1.2-1.7-1.4-2.9-0.9
			C1047.4,453,1049.1,452.9,1050.5,455z M1048.5,443.9c0.1,1.1,0,1.5-1,0.8C1047.8,444.6,1048.2,444.3,1048.5,443.9z M1047,442.6
			l0.3,0.8l-0.3,0.1V442.6z M1046.4,441.3c-0.7,1.3-1.4,2-1.7,0.3L1046.4,441.3z M1043.5,440.8c-0.9,0.6-1.2,0.1-1-1.1L1043.5,440.8
			z M1040.9,440.3c-0.4,0.5-0.7,0.4-1-0.1C1040.2,440.8,1040.4,440.8,1040.9,440.3z M1052.6,397.8
			C1052.9,397.9,1052.8,397.9,1052.6,397.8l0.4,0.7C1050.4,397,1052,397.6,1052.6,397.8L1052.6,397.8z M1028.3,472.2
			c0-0.6,0.3-1.5,0.7-2.2c-2-2.8-1-5,2.9-5.6C1031.9,467.6,1030.3,470.4,1028.3,472.2z M1037.7,413.5c0.6,0.7,0.6,0.9-0.1,0.7
			C1038.3,414.4,1038.3,414.1,1037.7,413.5z M1038.3,415c-0.7,1.7-1.3,1.7-1.3-0.2C1037.4,415.5,1037.8,415.6,1038.3,415z
			 M1035.7,442.3c0,2-0.7,2.8-3.2-0.4C1033.2,441,1033.8,440,1035.7,442.3z M1034.1,463.4c-0.6,0.1-1.3,0.4-1.6,0.9l-0.3-0.6
			C1032.5,462.8,1033.5,462.7,1034.1,463.4z M1032.2,459.5l-0.6-0.9L1032.2,459.5z M1028,452.7c-0.6-0.5-0.9-1-1.1-1.7
			C1029.7,448,1029,450.2,1028,452.7z M1022,469c0.3,2.6-0.3,6-1.3,8.7c-0.7-0.6-0.7-1.3-0.7-2.2
			C1020.2,473.2,1020.9,471.1,1022,469z M1012.2,483.9C1013.6,487,1013.9,488,1012.2,483.9L1012.2,483.9z M1005.2,490.1
			c0-1.6,0.7-0.9,1.6,1.5c-0.6,0.6-1.6,0.8-2.6,0C1004.3,490.9,1004.6,490.4,1005.2,490.1z M1001.2,481.4l0.6,1.4
			C1000.7,482.7,1000.4,482.3,1001.2,481.4z M1000.4,486.2c0,0.7-0.3,0.9-1,1.4l-0.3-0.5C999.6,486.6,999.9,486.3,1000.4,486.2z
			 M998.5,486.9C996.8,477.4,997.3,479,998.5,486.9L998.5,486.9z M995,462.1l0.7-0.1c0,0.7-0.2,1-0.9,1
			C994.8,462.6,994.8,462.3,995,462.1z M995,487c1.3,1.8,2.6,1.6,3.9,0.3c0,0.9-0.2,1.7-0.3,2.6c-0.5-0.1-0.7-0.4-0.7-0.9
			c-1.3,1.2-2.9,1-4-0.3l0.6-0.2C993.9,487.6,994.2,487.1,995,487z M994.2,468.3c-0.4,0.5-1.2,0.8-1.9,0.6
			C993.1,469,993.8,468.8,994.2,468.3z M993.1,485.7c1.6-0.5-0.4,2.7-0.7,2.9C992.4,487.7,992.7,486.5,993.1,485.7z M966.5,453.5
			l0.6,0.6l-0.6,0.4C966.5,454.2,966.5,453.8,966.5,453.5z M965.9,445.2l-0.3,1L965.9,445.2z M965.2,444.4l-0.7-2.1
			C965.6,442.9,965.9,443.6,965.2,444.4z M964.8,444.6c0.4,1.1,0,1.3-0.9,0.9C964.8,445.9,965.2,445.7,964.8,444.6z M964.8,448.6
			l-0.9-1.3C964.5,447.8,965.9,446.8,964.8,448.6z M1101.4,394.8c0-0.1-0.1-0.1-0.1-0.1S1101.4,394.7,1101.4,394.8
			c0.1,0.2,0.4,0.6,1,1.3C1101.8,395.4,1101.5,395.1,1101.4,394.8z M1232.3,337.7c0.1-0.2-0.2-0.4-1.4,0.2
			C1232.1,337.4,1232.5,337.5,1232.3,337.7z M1289.4,267.1c-0.1-0.1-0.5-0.6-1.1-1.4C1288.9,266.5,1289.3,267.1,1289.4,267.1z
			 M1285.5,264.2c-0.3,0.7-1,1.1-1.7,0.7C1283.8,263.8,1284.4,263.5,1285.5,264.2z M1392.8,235.3
			C1390.3,227.1,1391.6,230.9,1392.8,235.3L1392.8,235.3z M1342.8,196.5c-0.1-1.1-0.4-2-0.9-3.1
			C1344.4,193.6,1344.7,194.8,1342.8,196.5z M1335.3,183.4c-1.3,0.1-3.6-0.2-4.6-0.5C1333,180.9,1335.3,179.8,1335.3,183.4z
			 M1329.1,182.9C1330.3,177.9,1329.5,181.7,1329.1,182.9L1329.1,182.9z M1302.7,220c-0.6,0.4-0.9,0.3-1.3-0.3
			C1303,219,1304.6,218.3,1302.7,220z M1308.2,220.2C1307.1,218.2,1306.6,216.9,1308.2,220.2L1308.2,220.2z M1308.7,225.8
			C1312.9,224.4,1316.8,223.1,1308.7,225.8L1308.7,225.8z M1310.8,215c-0.4-1,0.4-1.3,1.6-1C1311.9,214.8,1311.3,215.1,1310.8,215z
			 M1312.3,215.8c0-0.6,0,1.3,0,1.6C1312.3,217.1,1312.3,215.2,1312.3,215.8z M1307.7,173.5c0.7-1.4,0.7-2.5-0.1-4
			c11.1,4.3,19.8,25.6,0.3,25.6c-3.3-5.1-4.3-11-2.5-15.5c-2.4-2.4-4.2-5.6-4.7-9.2C1301.8,168.7,1303.6,166.6,1307.7,173.5z
			 M1302.4,214c0.4-1.9-1.7-0.5-2.6,0.1C1304,209.6,1306.3,207.6,1302.4,214z M1272.2,268.5C1271.8,267,1271.6,265.8,1272.2,268.5
			L1272.2,268.5z M1275.4,267.5c-0.6,0.1-1.1-0.2-1.6-0.9C1275.4,266,1276.8,265.6,1275.4,267.5z M1275.1,216.2
			C1278.3,212.6,1275.7,215.6,1275.1,216.2L1275.1,216.2z M1280.2,268.3c-0.6,0.3-1.2,0.2-1.9-0.4c1-0.8,1.7-0.8,2.6,0.1
			L1280.2,268.3z M1280,260.2C1279,261,1277.3,261.8,1280,260.2L1280,260.2z M1280,256.7C1278.7,253.8,1279.6,255.7,1280,256.7
			L1280,256.7z M1281.3,206.5C1281.1,206,1281.1,204.3,1281.3,206.5L1281.3,206.5z M1285.4,254.1c-4.3-4.1-0.3-1.4,0-1.2
			C1285.8,253.3,1285.9,253.9,1285.4,254.1z M1281.1,170.1c7.1-13.2,12.6-1.4,17,8.4C1270.5,175.8,1261.7,172.9,1281.1,170.1z
			 M1259.6,241.9c0.7-1.7,2-1.7,3.5-0.8C1262.1,242.3,1260.7,241.2,1259.6,241.9z M1262.1,246.9c0.9,2.2,1,3.5,0.4,5.8
			c-1.6-1.9-1.6-1.7-2.3-4c0.1,0.4,0.4,0.7,0.9,0.9C1260.4,248.3,1260.4,247.3,1262.1,246.9z M1261.4,292
			C1264.6,295.6,1263,294,1261.4,292L1261.4,292z M1260.7,175c0,0.3-3.8-13.1,3.5-0.7C1263,174.9,1262,175.1,1260.7,175z
			 M1265.4,281.8C1266.4,288.7,1266.6,290.4,1265.4,281.8L1265.4,281.8z M1265.9,167.4C1256.5,143.6,1257.5,146,1265.9,167.4
			L1265.9,167.4z M1259.5,242.8C1256.8,242.3,1255.6,242.1,1259.5,242.8L1259.5,242.8z M1257.8,263.4c-1.1-0.9-1.7-1.3-1.7-1.4
			C1256.1,262,1256.7,262.5,1257.8,263.4z M1250.7,283.9C1254.9,285.2,1254.3,285,1250.7,283.9L1250.7,283.9z M1247.8,290.8
			C1245.8,287.2,1245.3,286.1,1247.8,290.8L1247.8,290.8z M1249.3,279.7c-0.9,1.6-1.8,2.3-3.3,3
			C1245.9,280.6,1247.2,279.4,1249.3,279.7z M1245.6,150c-0.7,2.4-2.4,3.1-4.4,1.8C1242,149.9,1243.6,149.1,1245.6,150z M1228,291.5
			l-0.6-0.2C1232.5,281.7,1230.3,286.9,1228,291.5z M1209.4,193C1215.6,192.7,1211.4,193,1209.4,193L1209.4,193z M1206.7,169.5
			C1213.4,166.6,1210.1,171.3,1206.7,169.5L1206.7,169.5z M1125.8,199.3C1122,199.2,1121.6,199.2,1125.8,199.3L1125.8,199.3z
			 M1125.4,194.8C1124.6,189.8,1125.4,194,1125.4,194.8L1125.4,194.8z M1126.8,197.6c0.9,0.2,1.2,1,1,2.1
			C1128,198.6,1127.7,197.8,1126.8,197.6z M1127.4,196.5c0-1.5,0-2.1,0-2.1C1127.4,194.4,1127.4,195,1127.4,196.5z M1127.7,193.7
			C1128.4,191.8,1128.8,193.7,1127.7,193.7L1127.7,193.7z M1129,197.1C1131.5,197.1,1132.4,197.1,1129,197.1L1129,197.1z
			 M1129.6,195.2c-0.3-0.9,0-1.4,0.7-1.6C1129.6,193.8,1129.2,194.3,1129.6,195.2z M1131.3,377.9
			C1131.1,377.6,1130.6,375.3,1131.3,377.9L1131.3,377.9z M1131.3,194.2c0.8-0.1,1.4-0.1,1.5-0.1
			C1132.7,194,1132.1,194.1,1131.3,194.2z M1131.4,189.8C1132.4,185.7,1131.3,190.7,1131.4,189.8L1131.4,189.8z M1138.1,199.9
			C1131.9,193.4,1133.6,195.2,1138.1,199.9L1138.1,199.9z M1144,201.2c1-0.2,1.7,0.1,2,1.1C1145,202.6,1144,202.4,1144,201.2z
			 M1144.3,198.9C1149.9,200,1148.7,199.9,1144.3,198.9L1144.3,198.9z M1163.2,356c0.3-1.2,1.4-1.4,2.6-0.9
			C1165,355.5,1164.4,355.8,1163.2,356z M1165.8,327.1c-4.2-5.8-2.9-4,0.3,0.1L1165.8,327.1z M1177.2,355.9c0.6-0.4,0.9-0.7,1-0.8
			C1178.1,355.2,1177.8,355.5,1177.2,355.9z M1179.7,356.1l-0.3-0.5c-0.2-0.9,0.3-1.3,1-1.3C1180.5,355.1,1180.4,355.6,1179.7,356.1
			z M1179.9,349.1c0.4-0.5,0.9-0.7,1.3-0.2C1180.8,348.4,1180.4,348.6,1179.9,349.1z M1181.7,349c1.1-0.9,2-0.4,2.3,0.9
			C1183.1,349.6,1182.4,349.4,1181.7,349z M1185,349.2c0.8,0.2,1.1,0.3,1.1,0.3C1186.1,349.5,1185.8,349.4,1185,349.2z
			 M1190.3,350.3c0.6-1.2,1.7-1.8,3-1.3C1192.6,349.8,1191.4,350.3,1190.3,350.3z M1194.1,340.9v-1.3V340.9z M1195.5,340.8
			c1.3,0.7,2.5,1.6,2.9,2.9C1196.8,343.1,1195.5,342,1195.5,340.8z M1199.3,345.3c-0.4-0.6-0.1-0.8,0.7-0.7
			C1199.1,344.5,1198.9,344.7,1199.3,345.3z M1195.1,335.5c-1.2,1.7-3-0.7-4.6-3.5c0.5,0.4,1.4,0.8,2-0.1c1.9-4,5.3,1,8.5,6.5
			C1198.5,338.4,1196.8,337.5,1195.1,335.5z M1167.5,261.6C1170.8,257.5,1169.1,259.9,1167.5,261.6L1167.5,261.6z M1160.2,271.7
			c4.8-0.1,7.4-3,8.9-7.4c-1-2.4,0.9-4.3,3.8-5.6c0.3-2.7,2.9-4.6,7.9-4.4c26.1-19.4,25.2-12.8,1.1,16.7l-0.4-1
			c0.6,3-0.3,5.3-3.2,6.1c-0.4,1.4-2,2.5-4.5,3.3c2,4.2,3.5,8.2-1.4,4.5c3,4.5,3,6.5-1.5,4.6c4.2,4.8,4.2,7.6-2.2,6.6
			c-0.5,0.5-0.5,1,0.3,1.4c-2.9-0.4-5.2-0.3-8.2,0.7c-1.9-4.1-4-7.8,5.2-9.3C1161.5,278.7,1162.9,282.5,1160.2,271.7z M1158.4,308.4
			c-0.7-7.4,3.5-11.2,11.3-8.7c-0.6,5.1,6.1,18.6,16,27.3c-1.3,5.1-4.9,5.2-10.8,1.5c2.8,4.2,0.9,2.6-1.7-0.1v1
			c-2.2,0-4.3-0.8-5.8-2.2c2.6-2.2,1.6-4.6-2.2-8c-2.5,3.6-2.8,1.3-2.5-2c-9.8,5.4-5.9-0.9-1.3-6.9
			C1160.9,308.6,1160.4,307.1,1158.4,308.4z M1154.2,181.7C1153.5,168.6,1153.5,168.2,1154.2,181.7L1154.2,181.7z M1157.3,350.4
			c0.1-0.5,0.3-1.1,0.4-1.7c0.4,0.7,0.4,1.6,0,2.5C1157.6,351,1157.4,350.7,1157.3,350.4c-0.6,1.7-1.9,3-4,3.5
			c-0.3,0.7-0.9,1-1.4,0.8c0.4-1,0-1.3-1-0.9C1150.9,344.1,1153.5,344.4,1157.3,350.4z M1149,179.4
			C1146.3,192.5,1146.3,192.4,1149,179.4L1149,179.4z M1146.3,181.3C1144,178.4,1142.5,176.2,1146.3,181.3L1146.3,181.3z
			 M1140.8,198.9c-2.6-1.1-3.8-3.9-3.8-7.2c2.3,0,4.8,0.6,6.9,1.8C1141.4,194.6,1140,196.5,1140.8,198.9z M1135.7,189.3
			c1.2,0,1.9-0.1,2-0.1C1137.7,189.3,1137,189.3,1135.7,189.3z M1135.7,185.2C1137.6,183.3,1139.1,182,1135.7,185.2L1135.7,185.2z
			 M1135.7,181.3C1135.3,180.6,1133.4,175.8,1135.7,181.3L1135.7,181.3z M1134.9,171.8c-0.1,0.1-0.6,0.7-1.3,1.5
			C1134.3,172.4,1134.9,171.8,1134.9,171.8z M1134,184.5C1124.5,174,1133.4,183.6,1134,184.5L1134,184.5z M1132.4,179.2
			c-3.2,0.5-2.5-0.7-0.6-2.4C1132.9,177.3,1132.9,178.2,1132.4,179.2z M1131.3,168.4c-0.7,0.2-0.7,0.6-0.3,1.1
			C1130.6,169,1130.6,168.6,1131.3,168.4z M1129.6,167.5C1129.1,167.6,1132.4,160.2,1129.6,167.5L1129.6,167.5z M1131.3,173
			C1129.8,172.2,1126.1,169.1,1131.3,173L1131.3,173z M1128.5,178c0.7-3.3,1.4-6.4,0.6,1C1128.7,180.2,1121.5,181.3,1128.5,178z
			 M1134.8,187.5C1120.9,181.3,1123,182.2,1134.8,187.5L1134.8,187.5z M1127.1,186.3c1.9,0.8,3,1.7-0.3,3
			C1127.1,188.8,1119.6,187.3,1127.1,186.3z M1123,192.5c0.4,0.6,0.9,1.7,1.5,2.7C1122.6,195.5,1122.3,194.3,1123,192.5z
			 M1116.6,201.7c2.7,2.6,3.6,5.1-1.3,5.1c0-1-0.4-1.5-1.3-1.8C1116,204.9,1116.7,203.6,1116.6,201.7z M1113.8,203.9
			c-2.2-0.7-2.6-2.1-1.4-3.9C1114.5,200.5,1115,201.9,1113.8,203.9z M1108.8,183.9C1109,183.3,1112.6,180.9,1108.8,183.9
			L1108.8,183.9z M1100.4,193.4c1-0.6,2.6-0.6,4.2-0.4c1.3-1.7,3-3.7,5.1-6.1c0.1,0.7,0.3,1.4,0.1,2.2c0.6-0.9,1.3-2.1,2.3-3
			c-0.1,1.9-0.9,3.7-1.5,5.3c5.2,1.5,2,6.3-2.3,11.8c0.1,1.3-0.4,2.3-1.9,2.5c-2.7-0.6-5.3-1.9-1.7-6.7c-1.4-1.9-1.3-3.7-0.1-5.8
			C1103.1,193.4,1101.5,193.3,1100.4,193.4c-1.4,0.8-1.9,2.7-0.3,6.6c0,0.3,0,0.4-0.1,0.8C1092.7,196.5,1091.9,193.7,1100.4,193.4z
			 M1034.4,344.2c1.4-1,2.4-0.8,2.3,1.1C1035.7,345,1035,344.7,1034.4,344.2z M1044.3,335.7l-0.6-0.1c0-0.6,0.4-0.9,1.2-0.6
			L1044.3,335.7z M1049.7,210.5C1056.6,205.7,1055.6,207.7,1049.7,210.5L1049.7,210.5z M1049.4,335l-0.7,0.9h1.4
			c-1,2-2.6,1.6-4.1,0.4c0.9-0.7,1.2-0.9,1.8-2C1048.2,334.7,1048.8,335,1049.4,335z M1046.4,231.4c-2,0.4-3.9,1.1-5.9,1.9
			C1041.9,230.9,1043.8,230.4,1046.4,231.4z M1042.2,337.4c-0.7,0.9-1,0.9-1.7-0.3C1041.3,336.6,1041.9,336.7,1042.2,337.4z
			 M1040,342c0.2-0.9-0.1-1.4-0.9-1.9C1042.2,339.5,1042.5,340.5,1040,342z M1038,344.5c-1.7-1.4-1.4-2.5,0.9-3.3
			C1039,342.4,1038.9,343.3,1038,344.5z M1035.8,211.5C1038.4,212,1036.7,211.7,1035.8,211.5L1035.8,211.5z M1036.4,236.9
			C1036.4,235.3,1036.7,231.6,1036.4,236.9L1036.4,236.9z M1035.4,341c1.3-1.3,0.7-0.9,2.9-2.3c0.7,1.7-0.2,2.9-2.6,3.7
			c-1.4,0.4-2.5,0-2.9-1.6C1033.8,340.5,1034.4,340.5,1035.4,341z M977.9,415.8C981.8,413.8,981.5,414,977.9,415.8L977.9,415.8z
			 M979.6,238.1C979,236.6,978.8,236.3,979.6,238.1c0.4,0.9,1,2.1,1.6,3.3c0.2,0.5,0.5,1.1,0.8,1.7c0.5,1,0.8,1.8,0.8,1.8
			c-0.4-0.8-0.5-1.2-0.8-1.8c-0.3-0.5-0.5-1.1-0.8-1.7C980.5,239.9,980,238.8,979.6,238.1z M991.2,402.8c-0.1-0.8-0.7-1-1.3-0.6
			c0.7-0.9,1.9-1.3,3.2-1.4C992.4,401.6,991.8,402.2,991.2,402.8z M992.4,400.1c0-0.9,0.7-1.2,1.9-1
			C993.8,400.4,993.1,400.8,992.4,400.1z M994.1,394.7c0,0.1,0-0.2,0-1.2C994.1,394.5,994.1,394.8,994.1,394.7z M995.7,390.8
			l-0.3-1.4l0.8-1.1C996.5,389.3,996.5,390.1,995.7,390.8z M995.5,373.8c0.1,0.6,0.1,1,0.1,1C995.7,374.7,995.6,374.4,995.5,373.8z
			 M996,372.2c0-1.1,0.3-1.9,1-2.9c0.3,0.7,0.3,1.2,0.3,1.7L996,372.2z M996.2,392.2l-0.3-0.8c0.3-0.6,0.9-0.8,1.6-0.3L996.2,392.2z
			 M998.3,370.2c0-0.9,0-1.2,0-1.1C998.3,369,998.3,369.3,998.3,370.2z M999.1,370.1c-0.3-1.8,0.6-2.6,2-2.4
			C1001.5,368.9,1000.7,369.9,999.1,370.1z M1002.6,379.9l-0.6-0.4c0.2-0.7,0.4-0.8,1-0.4L1002.6,379.9z M1004.6,367.9
			c-1-0.9-2-0.8-2.7,0.4c0-1.4,0.7-2.3,2.7-2.5C1004.6,366.4,1004.6,367.1,1004.6,367.9z M1003.2,365.3l0.6-1.1l0.8,0.9
			L1003.2,365.3z M1003.8,363.6l1.1-0.9c-0.9-0.1-1.6,0.1-2.3,1c0-1.5,0.7-2.4,2-3.2c0.2,0,0.3-0.2,0.6-0.2
			C1006.2,362.6,1006.1,364.2,1003.8,363.6z M1010.1,362.8c-0.1,2.3-1.2,3.5-3,2.5c-0.3,1.2-0.9,1.8-1.9,1.7
			c0.7-2.4,1.3-4.3,2.9-6.7c-1,1.4-1.2,2.7-0.8,4C1008,362.9,1008.8,362.5,1010.1,362.8c-0.7-0.5-0.9-1.1-0.7-1.7l0.7,0.5
			C1010.1,362,1010.1,362.3,1010.1,362.8z M1006.5,361C1009.3,354.5,1008.4,356.8,1006.5,361L1006.5,361z M1010.1,360.4l-0.6-0.3
			c1.2-0.6,1.9-0.4,1.9,0.9L1010.1,360.4z M1013.6,240c1.3-1.5,3-2.2,4.2-1.9c6.1,0.7,3.3,3-1.7,5.5
			C1016.8,241.9,1015.8,240.5,1013.6,240z M1015.9,298.2c-0.5-1.7-0.8-2.5-0.8-2.5S1015.4,296.5,1015.9,298.2z M1011.3,230.3
			C1014.3,231.7,1015,232,1011.3,230.3L1011.3,230.3z M1013,362l0.3-1.3l0.6,0.9L1013,362z M1012.2,358.6l0.9-1.2l-1.2-0.1
			c0-1.3,0.9-1.7,2-1.4c-1.4-0.2-1.7-0.8-0.6-1.8l0.9,0.6l-0.3-1.2c1.6,0.1,2.6,1,2.9,2.5C1015.6,358.7,1013.9,359.7,1012.2,358.6z
			 M1016.8,352.7c1.7-0.2,2.3-0.7,3.5-1.7C1020.6,354.1,1019.4,354.6,1016.8,352.7z M1019.4,348.8c-0.5-1.4,0-1.8,1.3-1.7
			C1019.4,347,1018.9,347.5,1019.4,348.8z M1022.2,350.4c-2,0.5-2.8-0.1-0.7-2.3C1023.1,348.4,1023.3,349.1,1022.2,350.4z
			 M1021.2,346.7l0.7-1.1L1021.2,346.7z M1023,350.9l0.3-1.6L1023,350.9z M1023.7,344.9c0.2,1.3,0.6,2.2,1.6,3
			C1023.3,348,1023,346.8,1023.7,344.9z M1028.3,349.5C1027.3,345.2,1027.4,345.7,1028.3,349.5L1028.3,349.5z M1031.6,249.1
			c-3.2,5.1-7.8,13.3-6.8,3.1c-8,6.4-8.5,0.1-8.4-5.9c2.3-1.8,4.9-3.5,7.8-4.9C1024.1,246.6,1026.3,248.9,1031.6,249.1z
			 M1009.4,203.1C1016,204.6,1009.7,203.2,1009.4,203.1L1009.4,203.1z M1004.2,212.6c-0.1-1.1-0.1-1.8-0.1-1.9
			C1004.1,210.8,1004.1,211.5,1004.2,212.6z M1006.5,215.2c0-1.4,0-2.8-0.3-4.5c2.9,1.2,9,1.1,12.6-2.2c0.3-4.9,1,1.7,1.4,4.3
			c0.4-0.3,0.4-0.8,0.4-1.1c0.3,0.4,0.6,0.7,1.3,1c0.3-1.9,0.7-4.9,1.7-2.4c0.4-0.6,0.7-1,1.4-1.7c0,0.7,0,1.3,0,1.9
			c3.2,25.5-9.4,10.7-16,10.7C1004.1,217.4,999.4,213.8,1006.5,215.2z M989.7,229.3c8.5-9.6,19.6-13.4,16.2,26.4
			c0.6,3.7-0.7,10.8-2.6,14.3c-10.5-9-13.9-16.2-1.6-19.4c-5.8-5.7-7.9-11.9-7.9-11.5c-2.8-4.1-1.2,1-0.3,3.5
			c-1.5,1.8-3,2.7-5.9,2.8c-3.9-9.5-5.8-14.4-8.7-13.9C981.5,215.5,985.7,218.7,989.7,229.3z M980.4,413c-0.7,0.7-1.7,1-2.7,0.8
			C978.6,412,979.4,411.7,980.4,413z M976.5,417.9l0.9-1.2C977.6,418.2,977.5,418.8,976.5,417.9z M976.8,416.1
			c-0.6,0.8-1,0.7-1.6-0.7C976.2,414.9,976.6,415.2,976.8,416.1z M966.5,424.7c1.3,0.4,1.6,0.9,0,1.6V424.7z M965.6,425.5l0.3,0.9
			h-1.2L965.6,425.5z M963.6,442.6l-0.6,1.1c-0.2-0.3-0.4-0.5-0.7-0.8L963.6,442.6z M963.5,441.4l-0.6,0.5l-0.3-0.6L963.5,441.4z
			 M962.3,440l0.6-0.7c0,0.4,0,0.8,0,1.3L962.3,440z M963.2,430.3c-0.9,0.4-1.1,0.2-1.1-0.6C962.1,430.5,962.3,430.7,963.2,430.3z
			 M962.3,437.3c0.3,1,0,1.3-0.7,0.7C962.3,438.6,962.6,438.3,962.3,437.3z M961,511.9c-0.6,0.2-1.4,0.1-1.9-0.6
			C959.6,512,960.4,512.2,961,511.9z M960,512.7c-0.6,0.1-0.7,0.1-1.3-0.1C959.3,512.8,959.4,512.8,960,512.7z M522.6,311.7
			c1,1.2,1,2.1-0.3,2.3C522,313.1,522.2,312.3,522.6,311.7z M502.1,327.7c0.2-0.8,0.3-1.3,0.3-1.3
			C502.4,326.4,502.3,326.9,502.1,327.7z M502.8,315C503.7,311,504.3,313.6,502.8,315L502.8,315z M521.8,323.6
			c-0.3-0.4-0.3-0.6-0.7-0.9c-2.6,2.5-4.8,3.1-6.5,0.1l-0.9,1.3c-1.9-1.7-2.8-3.5-3.6-5.6l-0.6,1.1c-1-1.4-1.3-1.9-1.9-3.3
			c-5.6,2.3,3.6-4,4.8-5.1c1-1.7,1.9-1.4,3,0.4c-1-2.8,0.6-4.8,3.2-5.4c0.1,2.1,0.1,3.3-0.4,5.2c3.8-0.7,4.2,3.4,3.3,8.3
			c0-1.2,0.7-1.9,1.7-2.3c-1.2,2-2.5,4.3,0.4,3.7C523.3,322.3,522.6,323.1,521.8,323.6z M524.3,316.1c0.1-0.7,0.1-1.3,0.1-1.9
			c-0.1,0.1-1.4,2.1-1.4,1.2C525.9,312,526.5,312,524.3,316.1z M530.5,290c-0.4-0.4-0.2-1,0.4-1.2C530.4,289,530.1,289.6,530.5,290z
			 M543.3,313.7c0.4-0.3,0.8-0.7,0.9-0.8C544.1,313,543.7,313.4,543.3,313.7z M566.9,359.9c-0.2-0.1-0.8-0.2-1.4-0.4
			C566.2,359.7,566.8,359.8,566.9,359.9z M562,365.7c-1.6-1.7-2.2-3.8-2-6.1C562.6,362.1,564.3,364.4,562,365.7z M555.7,365.2
			C556.7,359.6,556.5,360.6,555.7,365.2L555.7,365.2z M542.8,494.8c0.3-0.9,0.6-1.1,1.4-1.4C544.9,494.8,544,495.1,542.8,494.8z
			 M543,482.4c0.2,0,0.5-0.1,0.7-0.2c0.2,0.6,0.2,1.3-0.4,1.7C542.8,483.5,542.8,483,543,482.4z M548.6,458.4
			c0.9-0.9,1.9-1.7,3.2-2.3C551.3,457.8,550.1,458.7,548.6,458.4z M553.1,460.5c0.6,0.9-2.3,1.4-2.6,1.4c0.6-0.6,1-1.3,1-1.9
			c0.3,0.3-1.9-2.6,0.1-0.9c2.9-2.8,3.9-2.9,3-1l0,0l0.3-0.2c-0.4,1.1-1,2.2-1.9,3.2c0.8-1,1.1-1.9,1.4-2.7
			C554,459.1,553.5,459.9,553.1,460.5z M554.4,455.3c0.6-0.1,0.6,0.1,0.3,0.5C555,455.3,555,455.2,554.4,455.3z M555,460
			c0.6-0.7,1-1.5,1.3-1.9C556.5,458.5,556.3,460.7,555,460z M548.9,401.7c-0.7-3.5,1-5.9,4.8-7.4
			C564.9,397.2,553.1,397.4,548.9,401.7z M565.5,409C568.8,397.4,568,400.8,565.5,409L565.5,409z M539.8,385.5
			c2.7-7.4,7.8-16,13.6-22.6c0.3-0.3,0.5-0.7,0.7-1c-0.3,0.3-0.4,0.7-0.7,1c-0.3,0.1-0.3,0.4-0.3,0.8c1.6-0.1,1.6,1,1.4,2.3
			c1.7,0.9,7.5,10.2,8.5,17.7c1.3,1.1,2.5,1,3.5-0.4c1.7,0.6,3.2,0.9,2.3,2.2C562.2,386.2,546.6,383.2,539.8,385.5z M608.2,436.6
			l0.1-0.6L608.2,436.6z M609.4,438c-0.3-0.7-0.1-1.3,0-1.9C609.2,436.7,609.1,437.3,609.4,438z M529.5,685.1c1.3-1.7,0.2-2.9-1-3.7
			C530.8,683.1,532,684.6,529.5,685.1z M525.2,678.7c1-3,0.4-5.5-2.5-6.9C527.1,672.9,527.8,675.3,525.2,678.7z M525.6,683
			c-0.6,1.2-1.7,1.2-2.8,0.4C523.8,682.6,524.5,682.5,525.6,683z M522.6,673.5c-2.3,1.1-4.5,1.1-6.4-0.7
			C518.4,672.4,520.4,672.5,522.6,673.5z M522.2,688.9C521.5,692.5,521.5,692.1,522.2,688.9L522.2,688.9z M521.5,688.7l-0.4-0.4
			l1-0.4L521.5,688.7z M520.7,688.6l0.3,0.8l-0.6-0.4L520.7,688.6z M520.6,687.5c-0.1-0.3-0.1-0.7-0.1-1
			C520.2,684.6,519.9,682.2,520.6,687.5z M491.8,704.2c-0.7,0.4-1.3,0.4-1.6-0.1C490.6,704.7,491.1,704.7,491.8,704.2
			c0,0,0,0,0.2-0.1c-0.9-0.1-1-0.5-1.2-1C493,703.8,493.5,704.2,491.8,704.2z M498.4,719c0-0.9,0.4-1.2,1.4-0.9
			C498.8,717.8,498.4,718.1,498.4,719z M516.4,723.3C534.3,731.9,519.4,724.8,516.4,723.3L516.4,723.3z M495.7,700
			c1.2-0.4,1.9-0.7,2.9-0.9c-6.1-0.8-11.4,0.8-16.2,4.3c-0.9-0.4-1.6-0.7-2.6-1.1c2,0.1,4.1-0.1,3.5-1.8c12.4-7.4,26.4-5.6,38.7,4.2
			c2.3,0.1,7.4,2.7,8.7,4.7C533.7,721.2,515.7,709.6,495.7,700z M530.4,692.4v-0.9l0.6,0.9H530.4z M532.9,686.1
			C535.2,691.2,534.9,690.8,532.9,686.1L532.9,686.1z M534.6,691.9c0.6,1.7,1.2,3.2,2.2,4.8C534.9,695.7,534.3,694,534.6,691.9z
			 M556.3,581.2c0.4-1.2,4.5-2.8,8.4-3.2c0,0.4-0.3,0.9-0.6,1.3c0.9-0.3,1.3-0.4,2.5-0.5c-3.5,1.2-6.9,2.2-10.7,2.8
			C556,581.5,556,581.4,556.3,581.2z M548.6,714.1c-1.3,0.5-2.3,0.3-3-0.5C546.6,712.7,547.4,712.9,548.6,714.1z M545.6,705.3
			l0.4-0.6v0.9L545.6,705.3z M547.4,700.9c-1.1-0.3-1.7-0.5-2.4-0.9C546,699.2,547.2,699.6,547.4,700.9z M545.6,706.2
			c0.1,2.3-1.3,3.2-3.9,2.8C542.5,707,543.7,706.4,545.6,706.2z M541.8,697.2c0.7,2-0.6,3-2.7,3.1
			C539.8,699.2,540.9,697.9,541.8,697.2z M538.6,696.3c-0.1,1,0.4,1.6,1.4,1.7C539.1,697.9,538.5,697.3,538.6,696.3z M539.1,689.2
			c0.6,0.5,0.6,1.1,0,1.6C537.9,690.4,537.9,689.8,539.1,689.2z M540.2,726c-4.6-3.5-3-4.1,1.3-2.8c6.5,1.1,8.1-1,5.3-6.1
			c-1.4-0.3-2.7-0.8-4-1.6c8-1.4,16.3-0.3,24,3c-1.7,0.1-3.8,0.1-5.8,0c16.9,7.6,1.3,6.2-6.1,5.7C551.8,727.6,547.3,727.6,540.2,726
			z M543.4,720.5c1.4-0.9,2.2-0.2,2.4,1.2C545,721.5,544.1,721.1,543.4,720.5z M559.1,757.2c0.9-0.1,1.3,0.2,1.7,1
			C560.5,757.4,560,757.2,559.1,757.2z M564.3,758.4c0.4,1,1.2,1.4,2.2,1.2C564.9,760.6,564.3,760.2,564.3,758.4z M568.2,758.8
			c1.3-0.1,2.2,0.5,1.9,2C569.1,760.2,568.8,759.7,568.2,758.8z M568.8,724.5c0.3,0.8,0.9,0.9,1.6,0.9
			C569.7,725.4,569.1,725.3,568.8,724.5z M584.4,723.5c0,0.6,0.7,0.9,1.3,0.9C577.8,725.8,571.3,726.8,584.4,723.5z M585.6,726.3
			c0.4-1,1.6-1.3,2.5-0.5C587.5,726.5,586.6,726.6,585.6,726.3z M590.5,726.7l0.7,0.7l-1.9,0.2C589.6,727.4,590.1,727,590.5,726.7z
			 M590.2,766.6C592.8,765,595.8,765.9,590.2,766.6L590.2,766.6z M597.8,725.2c0.4-0.8,1.2-1,2.3-0.8c-1,0.5-1.3,1.2-1,2.2
			C598.3,726.3,598,725.8,597.8,725.2z M600.3,728.7l1,1.5C599.9,730.1,599,729.8,600.3,728.7z M603.1,733.8l0.3-1.1l0.3,0.9
			L603.1,733.8z M610.5,747.5c-0.6-0.4-1.2-0.5-1.7-0.4c-0.2-1-0.6-2.2-1.2-3.1C610.3,744,611,745.4,610.5,747.5z M608.5,752.5
			c-0.2,1-0.3,1.9-0.3,2.9C608.2,754.5,608.4,753.5,608.5,752.5z M607.5,757.5l0.7,1.1h-1C607.2,758.3,607.5,757.9,607.5,757.5z
			 M607.8,739.7C608.5,744.1,606.8,741.5,607.8,739.7L607.8,739.7z M608.2,738.2l0.9-0.6c0,0.4,0,0.6,0,1L608.2,738.2z M608.5,733.9
			l0.8,2.3C607.5,736.1,607.1,735.3,608.5,733.9z M607,738.3c-1.6-1.4-2.2-2.6-0.3-3.3C607.8,735.9,607.8,737,607,738.3z
			 M605.8,726.8c0.6,0.8,0.6,1.3,0.3,2C604.6,728.2,604.6,727.6,605.8,726.8z M606.7,731.1c-1.3,0.8-2,0.2-1.7-1.2L606.7,731.1z
			 M607.1,760c-0.3,1.2-1,1.4-2.2,1C605.3,759.3,606.1,758.8,607.1,760z M604.2,771.7c0.7-3,1.9-4.1,5.5-4.8
			C609.7,770.4,608.4,772.4,604.2,771.7z M610.3,748.7C609.1,752.5,609.1,752.2,610.3,748.7L610.3,748.7z M611.4,766.5l-0.9-0.4
			l1-0.4L611.4,766.5z M618.1,752.9C618.3,756,618.2,755,618.1,752.9L618.1,752.9z M620.8,545.5c-5.5-1.9-8.4-4.5-5.8-8.4
			c-0.9,1.5-0.6,2.7,0.7,4.1c1.6,0.2,5.4,0.5,8,0.6C622.3,542.9,621.4,543.9,620.8,545.5z M627.5,534.6v-0.1c-1,0.7-1.6,1.5-0.7,2
			c-1.4-0.4-0.6-1.4,0.9-2.2L627.5,534.6z M620.4,520.2C641.2,517.3,612,521.5,620.4,520.2L620.4,520.2z M628.6,549.1
			c-1.9-5.1,0.9-8.9,3.7-9.6c2.2,0.8,0.7,2.3-0.7,3.6c2.9,2.3,0.9,0.9,4.2,3C632.8,546.8,630.3,548,628.6,549.1z M847.9,415.5
			c0.2-0.9,0.3-1.5,0.3-1.5C848.2,414,848.1,414.5,847.9,415.5z M850,667.9c-0.1-0.2-0.1-0.2,0.2,0.7
			C849.9,667.7,849.9,667.7,850,667.9z M851,639c1.3-0.5,1.9-0.3,2.2,0.9l-0.7,0.3C851.8,640.1,851.1,639.8,851,639z M855.8,667.5
			C854.3,667.3,848.5,666.3,855.8,667.5L855.8,667.5z M858.1,667.8c0.9,1.1,1.3,1.7,1.3,1.7C859.4,669.4,858.9,668.8,858.1,667.8z
			 M865,668.2c0.4-1.5,1.6-2.5,2.9-3.1C868,667.3,867.2,668.5,865,668.2z M868.5,663.6c0.1-1.7,0.9-2,2.3-0.9
			C869.6,662.8,869.1,663.1,868.5,663.6z M934.4,520.2c0.9-0.8,1.6-0.8,2.5-0.4C936.3,521.3,935.3,521.2,934.4,520.2z M937.1,438.2
			l-0.3,1.2C936,438.9,936.3,438.6,937.1,438.2z M935.3,439.3c0.7,0.6,0.7,1.4,0,2C936,440.7,936,439.9,935.3,439.3z M934.4,440.8
			l-0.1,1.2C932.6,442,933.9,440.9,934.4,440.8z M936.2,442.2c-0.7,0.7-0.9,1.7-0.7,2.5l-0.4-0.1c-0.6-0.9-1.2-1.2-2.2-1.4
			C934.2,442,934.7,441.9,936.2,442.2z M935.3,445.4l-0.9,0.6l0.6-0.9L935.3,445.4z M925.6,454.5l-0.1,0.5l-0.4-0.4L925.6,454.5z
			 M925.1,455.9c1-0.5,1.4-0.1,1.1,0.7c-0.7,0-1.4,0-1.7-0.9l-0.1,0.6c-0.4-0.3-0.4-0.7-0.3-1.3
			C924.9,454.8,925.6,455.1,925.1,455.9z M924.5,457.8l-0.6-1L924.5,457.8z M913.6,467c0.3,0.6,0.7,0.6,1.3,0.2
			c-1.3-0.4-1.4-1.4-1-2.5l0.4,0.8c0.1-0.5,0.1-0.8,0.1-1.3c1.3,0.5,0.7,0.4,2.2,0.7c-0.3-0.7-0.7-1.2-1.5-1.7
			c0.9-0.1,0.9-0.7,0.4-1.6c0.9-0.5,1.4-1.4,1.6-2.7c1.2,0,1.4,0.4,0.9,1.3c1-0.9,1.3-1.2,1.3-0.1c7.1-2.2,6.9-0.2,1.4,4.8
			c0.7,0.4,1,0.4,1.6-0.1c5.3,1.6,7.5,6.2,5.5,12.1c-1.6,1.3-3.3,1.9-5.3,1.4c7.3,2.3,13,7.5,17.6,15c-1,1-0.3,2.5,1.5,3.6
			c-1.5-0.6-2.7-0.8-4-0.6c3.9,0.6,5.8,2.5,3.8,6.2c0.9,0,1.4,0.4,1.7,1.1c5.8-2.5,7.6-0.4,5.5,5.9c-0.4-0.8-0.8-0.9-1.3,0l0.9,0.1
			l-0.1,0.3l0.3,0.1c-1,0.8-1.3,0.9-2.8,1.7c1.8,0.6,0.7,1.1-0.6,1.4c0.3,0,0.6,0.1,0.7,0.1c-0.2,0.2-0.4,0.4-0.7,0.6
			c0.4,0.1,0.7,0.1,1.3,0.1c-0.4-0.1-0.6-0.1-0.7-0.2c0.7-0.5,1.2-0.5,1.5,0.1c-0.2,0.1-0.3,0.1-0.4,0.1c0.9,0.1,2,0,2.9-0.3
			c-0.2,1.6-0.7,2.9-2,3.6c-3,1.4-6.9,1.7-9.8,1.1c-5.6,0.4-11,1.9-13.7,5.1c-2.8-1.2-5.3-1.2-7.5,0.1c-0.3,1-0.3,0.9-0.7,1.8
			c-0.1-0.9-0.7-1.3-1.7-1.2c1.6-1.9,10.3-8.8,15.9-12.4c-3.5,2.4-6.2,2.7-9.5,1.3c0-0.6,0.3-0.8,1-0.7c-0.9,0.1-1.3-0.1-1.2-0.9
			c-1,0.6-2.3,1.1-3.8,0.9l0.3-0.4l-1.2-0.2c1.2-0.7,1-1.1-0.3-1.3c2.9-0.8,5-2.3,6.6-4.8c-0.6-0.7-1-1.6-0.6-2.9
			c-1.6,0.7-1.9,0.7-3.2,0.9c2.1-3.2,5.3-4.5,8.5-3.3c-0.6-0.2-0.9-0.6-0.9-1.2c0.6,0.4,1.3,0.6,2.4,0.2c-2.4-1.1-2.4-3.1-0.7-5.1
			c-0.9-0.2-0.9-0.7,0-1.4c-1.2-0.4-1.7-0.1-2,0.9v-1.2c-2.7-1.7-2.6-3.8,0.7-5.7c-2.6,1.1-4.3,1.4-6.9,0.7c0.7,0.4,1,0.9,0.6,1.7
			c-1.7-1.7-2.9-2.1-2.5,0.2c-0.8-0.7-1.3-1.6-1.2-2.7l0.9,0.5c0.4-3.3,1.2-6.3,2-7.8c-1.3-0.3-1.7-0.9-1-2c-0.6,0.6-0.9,1.5-1,2.4
			l-0.4-1c-0.6,0.2-0.9,0.7-0.7,1.2c-0.3-0.5-0.4-1-0.1-1.5c-0.3,0.1-0.6,0.2-0.9,0.2c0.3,1.8,0,3.5-0.4,5.4c-1.9-0.4-1-1.9,0-3.7
			c-0.6-1.6,0.3-4.7,1.7-6.7l-0.3-0.4c-1,1.8-2.2,1.9-3.3,0.6c0.4,0.1,0.7,0.1,0.7-0.2c-0.7,0-1.3-0.2-1.7-0.5
			c1.7-1.1,2-1.3,2.9-1.6c0-0.7-0.3-0.8-0.9-0.8c0.3-0.4,0.4-0.6,0.9-0.6c-0.4-0.7-0.3-1,0.7-0.7c-0.3-0.2-0.3-0.5,0-0.7
			c-1.4,0.4-1.6,0.2-0.3-0.5l-1.3,0.2C913.6,468,913.6,467.6,913.6,467z M917.8,494.3c0.1-1.3,0.9-2.4,2.2-3
			C918.7,491.9,918,493,917.8,494.3z M921.6,499.9c-0.9,1.2-1.7,1.3-2.9,0.3C918.1,498.2,921.6,499.7,921.6,499.9z M915.2,482
			l0.7-0.7C916.6,484.1,916.4,484.6,915.2,482z M916.4,480c0.6,0.3,0.7,0.7,0.6,1.3C917.1,480.6,917,480.3,916.4,480z M910.2,481.7
			c-0.4-1.4,0-2,1.4-2.1c1,1.4,0.7,2.1-0.6,2.5c0-0.4,0.1-0.7,0.1-1L910.2,481.7z M909.6,474.6l0.7-1.3L909.6,474.6z M911.1,476.9
			c1.2-1.4,0.3-0.5,1.3-1.5l-1.3-0.7c2-0.4,3,0.1,2,2C913.1,475.8,912.2,475.9,911.1,476.9z M911.6,478l-0.3,1.1L911.6,478z
			 M910.8,470.9l0.4,0.9L910.8,470.9z M913.9,477.9c-0.3,1.1-0.6,2-1.6,2.8C911.6,479.5,912.1,478.7,913.9,477.9z M911.6,472.3
			l0.6-0.4L911.6,472.3z M914.2,469.6c-0.6,0.4-1.2,0.9-1.6,1.4c-0.7-0.8-1.4-1.6-2.3-2.9l-0.1,0.4l-0.9-0.7
			c0.1-0.4,0.4-0.5,0.7-0.2v-0.9l1.1,0.8C911.2,464.6,913.4,468.5,914.2,469.6z M908.2,464.9c0.5-0.8,1-1,1.8-0.5
			C909.5,465.7,908.9,465.8,908.2,464.9z M909.2,474.9l-1,0.7L909.2,474.9z M908.2,463.4c-0.3-0.9-0.3-1.9,1.6-1.2
			c-0.5-1.4,0-2.2,2.2-2.6C911.9,462.5,910.9,464.1,908.2,463.4z M909.7,434l-0.9-2.1L909.7,434z M909.5,429.4
			c0.4,0.3,0.6,0.7,0.3,1.2C910.1,430.1,909.9,429.7,909.5,429.4z M910.9,425.7l-0.8-0.6L910.9,425.7z M910.1,426.8
			c-0.7-0.1-1.2-0.8-1.4-1.7C908.9,425.7,910.2,425.2,910.1,426.8z M910.3,428.4c-1.6-0.3-2.9-1.5-2.4-3.1
			C908.6,426.7,909.3,427.7,910.3,428.4z M907.8,427.5c-0.7,0-1.2-0.4-0.9-1.3C906.6,427.1,907,427.5,907.8,427.5z M907.8,466.7
			c-0.7,0.5-1.2,0.4-1.8-0.6C906.9,465.7,907.8,465.6,907.8,466.7z M907.4,467.2l-0.3,0.7C906.3,467.6,906.3,467.3,907.4,467.2z
			 M907.2,470.3c-0.9-0.5-0.9-1.2-0.6-2.3C906.3,469.1,906.3,469.9,907.2,470.3z M906.3,470.7c0.4,0.5,0.3,1-0.6,1.2
			C906.6,471.7,906.7,471.2,906.3,470.7z M897,492.2c0.9-0.7,1.9-0.7,3.2-0.7l-0.6-0.4c1.1-0.2,2-0.9,2.7-2c-0.5-0.1-1.1,0-1.6,0.3
			l0.3-0.4c-2.2-0.1-1.4-0.9-0.6-1.6c0.3-1.3,1.1-2.4,4-2.3l-0.6-0.6c0.7,0,1,0.3,1.1,0.6c0-0.3,0.4-0.6,0.2-0.9h1.3l-0.6-0.8
			c0.6,0.7,1.3,1.1,2.2,1.4c-0.9,0.4-1.6,0.9-2.3,1.5c4.3-2,7.2-1.4,7.2,3.1c1.4-0.4,2.2,0.4,1.7,2.5c0.1-1.4-0.3-2.2-1.2-1.8
			c0.3,0.6,0.3,1,0,1.5c0.9,1.1-0.4,1.7-2.3,2.2l0.2,0.9c-0.4,0.6-0.7,2.9-0.7,4.8c1.4,2.8,0.9,5.5-1.6,7.2l1.1,1.4
			c-1.1-0.3-2.2-0.2-2.9,0.4l-0.6-0.9c-2.2,1.2-4,2.2-6.3,3.2l0.3-0.7l-0.9-0.1c-0.3,2-2.3,2.9-4.8,2.7c-0.4-0.7-1.3-0.7-2.1-0.1
			l0.3-0.6h-0.9c1.3,0,2-0.4,1.7-1.4c-1,0.9-2,1.2-3.2,1c0.9-0.8,1.7-1.5,2.8-2c-1.8,0.9-2.6,0.9-3.6,0.1c0.7-1.2,1.6-1.9,2.9-2.4
			c-5.1,0.3-3.5-0.1-1.8-0.7c0.6-0.2,1.2-0.1,1.8,0.1l-0.3-0.3c0.3-0.3,0.3-0.7-0.3-1c2-0.9,3.7-1.6,6.1-1.9c-1,0.3-1.3,0.1-1.3-0.4
			c-1.4,0.7-2.7,1-4.6,1.1c1.3-0.7,2.3-1.4,2.9-2.7H895c1-1.5,1.3-1.7,2.6-2.4c-2.9-0.2-2.6-0.1-4.6-1l0.6-0.5
			c-0.6,0.4-1.2,0.4-1.5-0.4c0.6,0,0.6-0.4,0.2-1.1l1.5-0.1c-0.7-0.9-0.1-1.5,1.3-1.4c-0.9-0.9-1.4-1.2-3-1.7c1.2,0,1.2,0,2.2,0.4
			c-0.4-0.7-0.9-1.2-1-2l-0.7,0.7c-0.1-1.6,0.3-1.9,1.9-1.2v-0.4C896,490.4,896.9,490.9,897,492.2z M883.5,179
			c0.3,1.7,0,3.6-0.7,5.1C882,182,882.2,180.2,883.5,179z M879.6,187.5C879.4,187.5,880.3,181.8,879.6,187.5L879.6,187.5z
			 M878.9,181.7c-0.3,0.3-0.6,1.1-1.3,2.7C878.3,182.8,878.6,182,878.9,181.7z M819.4,143.6C820.4,140.8,819.9,142.3,819.4,143.6
			L819.4,143.6z M821,144.8c-0.1,0.1-0.7,0.5-1.2,0.9C820.3,145.3,820.8,144.9,821,144.8z M817.8,146.5c-1.3,1.7-2.2,1.4-2.7-0.7
			C815.2,143,816.5,144.3,817.8,146.5z M812.8,147.5c0,0-0.4-0.3-0.8-0.6C812.4,147.2,812.8,147.5,812.8,147.5z M796.4,151.3
			c5.1,0.5,1.9,0.5,0.3,0.5C796.7,151.5,796.7,151.4,796.4,151.3c-0.4-0.1-0.4-0.1-0.7-0.1C796,151.2,796,151.2,796.4,151.3z
			 M795.7,153.8c-0.9-0.1-1.3-0.7-1.2-1.7C795.7,151.9,796,152.6,795.7,153.8z M789,151.9C793.6,153,790.6,152.3,789,151.9
			L789,151.9z M786,162.2C785.9,160.8,785.9,155.6,786,162.2L786,162.2z M772,163.4c0.1-0.5,0-1.3-0.3-2
			C772,162.1,772.1,162.9,772,163.4z M711.3,126.1c-0.4,0.4-0.8,0.4-1.4,0.1C710.3,124.9,710.8,124.7,711.3,126.1z M626.4,191.4
			C632.5,189.6,631.3,190,626.4,191.4L626.4,191.4z M616.6,199.6c0,0-0.5,0.8-1.6,2.4C616.1,200.4,616.6,199.6,616.6,199.6z
			 M612.7,216.2c0.5-0.1,1.2-0.4,1.4-0.5c-2.9-11.6,2-6.8,9.4,2.7c3.9,0.4,8.1-2.7,11.8-8.5c-4.9,5.1-10.1,9.9-10,2.6
			c-3.2,1.6-3.6,1.2-1.6-1.2c-1.9-0.9,0.7-1.2,1.4-1.4c-5.1-0.9-2-1.6,1.9-2c-2.6-0.5-0.9-1.4,0.6-2.2c-1.6-0.4-0.6-1.2,0.6-1.6
			c0-1.7,1-3.2,2.3-4.2c-3.5,3.8-9.5,11-7.4,3.2c-0.7,1.2-1.6,1.5-2.9,1.1c-0.7,2-2.3,1.6-3.8,0c0.4-0.6,0.9-0.8,1.4-0.7
			c4.9-10.6,12.9-12.7,22.7-3.2c-0.4-1.4-0.2-2,1-1.7c-2.4-1.9,0.7-3.1,3.3-5.4c-7.2,1-10.8,0.6-8.7-1.7c0.6-0.8,1-1.7,1.3-2.7
			c-1-16.2,1-26,14-6.9c1.3-1.1,1.9-0.1,2,1.3c0.4-1.1,1.3-1.5,2.2-1.1c0.6-11.8,11-13.6,24.8-11.5c-10.4-3.2-7.1-7.2,3.2-11.4
			c-6.5,2.5-8.7,3.3-12.7,6.5c-5.7,2.2-20.4,8.7-8.8-1.3c-2.8,0.7-7.1,2.2-4.7-1c-3.3-0.5-26.8-2.6-0.8-11.3
			c-10,1.5-21.8,3.6-14.4-3c1-2.6,1.3-3.7,1.7-4c0-0.6,0.2-1.4,0.6-3.4c-1.6,0.1-2.2-0.6-1.6-2.1c-0.4,0.5-0.7,1.1-1.4,1.6
			c-1.2-1-2.8,0-4.5,1.8c-0.4-1.8-0.9-3.4,0.7-3.2c4-4.1,8.5-6.6,10-0.3c0.9-0.7,1.6-1.5,2-2.6c0.1,0.6,0.4,1.1,0.1,1.9
			c4.3-4.1,7.5-1.6,9.7,2.9c0-1.4,0.3-2.2,1.6-2.7c0,0.9,0,1.8,0.7,2.6c0.2-0.6,0.5-0.9,1.2-0.9c-1-10.5,0.4-14.4,6.9-3.3
			c3-1.7,4.8-2.8,8.2-4.8c-1.9-9.2,0.9-2.2,3.2,3.3c-0.2-8.9,0.7-14,4.2-3.3c0-2.4,1-2.3,2.5,0.5c-0.1-1.2-0.3-5.1,0-6
			c-0.9-0.4-1.4-0.7-2.1-1.6c12.4,4.3,12.7,3.8,31.6,3c0.4,1.8,3.5,2.5,5.9,2.9c-0.7,1.8-0.4,2.6,1.7,1.1c6.4,1.6,11.3,4.2-1.2,8.8
			c11-2.2,16.2-1.9,16.3,1.9c4.8,7.6,2.6,14.9-12.6,19.3c-1.2,1.6-3,0.9-5.2-0.4c0.1,1,1,1.2,2.2,1.4c-4.2,0.8-8-0.5-10.5-3.8
			c0.3,1.2,0.9,2.2,1.7,3.1c-1,0.1-1.7,0-2.8-0.6c11.8,6.7-1.6,6.2-8.7,6.5c0.3,0.2,0.3,0.5,0.3,1c6.8-1.1,13.1-2.2,19.9-3.1
			c-10,8.3-24,14.2-30.3,13.3c0.9,5.9-1.6,6.8-6.5,4c-0.6,0.9-0.9,1.2-1.4,1.7c-0.6,4.1-7.3,5.9-16.9,6.2c-0.7-1.4-1.6-2.2-2.9-2.5
			c2.6,4.1,3.5,6.1-2,1.5c7.1,7.4,4.2,8.5-1.4,7.3c1.2,1,1.9,2,0.9,3.7c6.5,4.3,3.9,5.6-3.6,5c3,6.1-1.2,9.4-12.3,11.6
			c1.1,2.4-1.2,4-4.2,5l0.3-0.6c-6.4,3.4-10,0.9-10.3-6.7c-0.3,3.8-1.3,6.2-4.7,6.1c1.1,0.7,1.4,1.4,0.5,2.6
			c2.5-2.5,4.6-2.7,5.2,1.1c5.6-1.4,4.8,2,4.1,3.8c0,0.8-0.3,1.4-0.9,1.8c6.4,4.7-1.4,6.3-11.7,7.4c2.2-1.1,2.3-2.6,0.7-4.3
			c-2.5,0.7-2.9-0.1-1.2-1.9c-1.7-1.1-2.4-2.8-2-4.9c-1.7,8-2.6,9.7-2.3,1c-6.1,5.2-1.6,2.8-8.1,4c-1.2,1.2-4.9,2.3-8.2-5.9
			c-0.7,4.6-1.6,5.8-2.3-0.4c-4.2,5.4-3.6,2.4-1.9-3.3C583.8,230.5,616.3,214.1,612.7,216.2z M621.7,216.1
			C621.9,212.7,621.8,214.6,621.7,216.1L621.7,216.1z M711.3,181.1c-0.6-0.4-1-0.9-1.4-1.7C711.3,179,711.8,179.7,711.3,181.1z
			 M666.9,227.7c1.6-1,3.2-0.4,4.3,1.2C669.8,229.7,668.2,229.3,666.9,227.7z M668.2,520.3c-0.3-0.4-0.3-0.9-0.3-1.3
			C670,519.6,668.2,519.8,668.2,520.3z M670.7,205.1c0.2,0.1,0-0.1-1-0.8C670.8,205,670.9,205.2,670.7,205.1z M665.7,503.1
			c0-0.8,0.4-1.4,1.2-1.7C666.9,502.8,666.1,502.7,665.7,503.1z M666.4,519.4c-0.1,1.2-0.4,2.3-0.9,0.8
			C666.1,520.5,666.4,520.2,666.4,519.4z M660.8,363.1C660.8,362.5,663.7,360,660.8,363.1L660.8,363.1z M656.5,357.9
			C657.2,356.5,657.9,355.3,656.5,357.9L656.5,357.9z M634.8,316C639.3,311.6,636.5,316.6,634.8,316L634.8,316z M630.3,244.9
			c0-2.3,1.9-3.9,4.5-4.4C633.7,243.7,632.2,244.9,630.3,244.9z M634.3,304.5c-0.1,0.1-0.2,0.6-0.3,1.4
			C634.1,305.1,634.2,304.6,634.3,304.5z M632.7,303.6c-0.4,0.3-0.4,0.8-0.4,1.2C632.2,304.4,632.2,303.9,632.7,303.6z M625.9,239.9
			c-0.4,0-0.9-0.1-0.9-0.1v-0.1c0,0,2.7,0.4,0,0.1C625.5,239.9,625.7,239.9,625.9,239.9C626.2,239.9,626.2,239.9,625.9,239.9z
			 M597.3,213.5C603.1,209.6,600,211.7,597.3,213.5L597.3,213.5z M596.1,213.8c0.6,2.3,0.4,2.5-0.3,0.1L596.1,213.8z M593.1,196.8
			C593.1,194.5,593.5,192.6,593.1,196.8L593.1,196.8z M595.5,226.5h-0.7c-1.3-1.2-1.7-3.3-1.7-5.6
			C596.7,221,596.4,223.5,595.5,226.5z M589.9,204.1c4.2,6.3-2.9,4-10.6,1.3C581.7,199.9,585.4,200.1,589.9,204.1z M573,214.5
			c1.3-5.8,5.8-3.5,10-0.4c1.2,3.8,0.1,7.1-3,9.6c1.6-1.1,2.6-2.2,3.9-3.8c8.2,2.7,9.7,6.3,6.9,9.5c-1.2-0.8-4.5-1.9-5.5-1.9
			c1,0.3,1.9,1,2.4,1.9l-0.6,0.4c1.2,0,1.7,0.7,2.2,1.8c-2.3-1.3-3.9-0.9-4.7,1.6c1.3-0.6,3.5-1.7,2.6,0c1.2,0,1.7-0.1,2.9-0.3
			c0,1.2-0.4,2.3-1.2,3c0.4,2.1,0.9,5.6,4.2,1.6c0.4,0.9,0.4,1.8,0,2.6c1.3-0.6,2.7-0.7,2,1.2c2.5-1.4,3.6-1.4,2.6,2.1
			c1.4-0.1,2.9,0.2,4.5,1.1c-2.3-4,0.3-2.7,2.4-1.4c1-1.8,2.6-1.9,4.2-0.4c7.9-1.9,13.9,0.6,15.4,6.4c3.2,1.1,1.9,2.7-0.4,3.7
			c-3.9,1.3-1.6,3.2,0.4,4.9c-1-0.5-1.9-0.4-2.3,0.5c-0.5-1.2-0.8-1.7-1.6-2.8c-0.6,6.3-4.9,6.9-9.9,4.5c-1,0.6-1.6,0.6-2.2,0.1
			c1.1-6.2-3.5-4.9-8.1-5c-0.3,1.3-0.9,2.2-2.2,2.3c0.3-0.9,0.3-1.4,0.3-2.3c-1.6,2.4-3.1,3.3-2.5,0.2c-1.7,2.1-2.7,2.2-2.3-1.1
			c-0.9,2.7-1.6,3.6-2.7,1c-5-1.6-5-4.7-5.6-3.8c0.1-0.9,0.1-1.2,0-1.9c-4.5,3.3-6.6,3.1-5.8-2.4c-3.3-2.5-2.3-12.9,0-22.7
			c-1.2,0.6-2.4-0.5-3.6-2.1c-2.2,0.5-1.9,0.4-4,0.7c0.7-1.8,1.6-2.3,3.2-1.3c-1.9-1.5-3.3-3.2-0.6-4.6c-2-0.6-3.5-2.4-3.3-4.6
			C571.1,214,571.7,214.6,573,214.5z M613.6,287.5c-2.7-17.9,2-16.4,12-1.2v0.1v-0.1C624.4,286.4,617.2,287.5,613.6,287.5z
			 M612.5,289.9l-0.6,0.4C610.8,289.5,610.8,289.2,612.5,289.9z M609.1,289.3c0,0,0,0.2-0.2,1C609.1,289.5,609.1,289.2,609.1,289.3z
			 M577.1,259.8c0,0-0.6-0.2-1.6-0.5C576.5,259.6,577,259.7,577.1,259.8z M570.5,209.3c-0.1,0.1-0.3,0.5-0.4,0.7
			C570.3,209.7,570.5,209.4,570.5,209.3z M570.7,225.4l-0.3,1C569.4,225.7,569.7,225.4,570.7,225.4z M570.7,228.2
			c0-0.2-0.6,3.8-1.6,3.8C568.2,230.1,568.5,228.6,570.7,228.2z M569.1,215.2c0.3,0.9,0,1.4-0.9,1.6
			C569.1,216.6,569.4,216.1,569.1,215.2z M562.2,228.5c0.1-0.1-0.1,0-0.9,1C562.2,228.5,562.3,228.4,562.2,228.5z M561.6,231.7
			c0,0.1-0.3,0.7-0.7,1.6C561.3,232.4,561.6,231.8,561.6,231.7z M560.3,230c-0.2,0.5-0.5,0.8-0.7,1C559.1,230.3,559.7,230,560.3,230
			z M559.6,232.1c0-0.1-0.2,0.6-0.7,2.2C559.4,232.7,559.6,232.1,559.6,232.1z M561,237.9c0.7-1.5,1.6-2.5,0-3
			c0.7-0.9,1.3-0.8,2.1,0.1l0.6,0.1c5.1,7.6,5.1,11.6-6.1,5.2C557.1,238.5,558.6,237.6,561,237.9z M558.5,247.1c0,0-0.1-0.7-0.2-2
			C558.4,246.4,558.5,247.1,558.5,247.1z M556.2,234.1c0,0-0.1,0.4-0.2,0.9C556.1,234.5,556.2,234.1,556.2,234.1z M549.5,244.2
			c0,0-0.8,0.4-2.2,1.2C548.7,244.6,549.5,244.2,549.5,244.2z M536.8,251.5c3.5-1.2,7.2-1,9.7,0.5
			C543.1,253.8,539.8,253.7,536.8,251.5z M543.1,263.4c-0.3,0.6-0.6,0.7-0.6-0.1C542.5,264,542.8,263.9,543.1,263.4z M541.7,267.8
			C542.5,264.4,542.8,263.8,541.7,267.8L541.7,267.8z M541.1,270.1c-1.2-1-0.4-1.5,0.9-1.7C542,269.1,541.7,269.7,541.1,270.1z
			 M546.6,320.7l-0.1-1.4C548,318.9,547.6,319.7,546.6,320.7z M552.2,273.6c-0.3,1.1-5.2,10.2-6.5,9.3c-1.3-1.3-2.6-1.7-4.5-1.4
			c1.7-7.9,8.7-18.9,13.4-21.3c-0.9-1.1-1.3-2.3-0.1-2.9c0.9-3.3,3.7-4,6.8-2.4c4.2,1.2,9.1,3.6,13,6.7
			C565.1,270.7,555,275,552.2,273.6z M555,339.2C556.3,339.7,558,340.7,555,339.2L555,339.2z M555.4,338.6c0.3-1.7,0.9-2.8,2.6-3.8
			C558.6,337.3,558,338.7,555.4,338.6z M566.8,315.6c-0.6-0.5-0.9-0.8-1.7-1.2c-0.7,0.9-1-0.1-1.3-0.9
			C565.9,312.9,569,315.6,566.8,315.6z M577.8,319.2c1,0.1,1.6,0.3,1.2,1.2C578.1,320.5,577.8,320.2,577.8,319.2z M580.1,320.5
			c0.6-0.5,0.7-0.4,0.9,0.3C580.8,320.2,580.7,320,580.1,320.5z M582.5,321c-0.3,0.1-0.6,0.1-0.6,0.1C582.3,321,582.3,321,582.5,321
			C583.1,320.9,583.7,320.8,582.5,321z M583.8,324.2l0.6,1L583.8,324.2z M584.8,325.9c0.9-0.4,1.6-0.3,1.6,0.8
			C585.7,326.6,585.1,326.3,584.8,325.9z M585.6,324.5l0.4,0.2v0.3L585.6,324.5z M577.9,400.5c-1.4-0.5-1.9-0.7,0.1-0.5
			C578.1,400,577.8,400.5,577.9,400.5z M578.8,395.7c-1.1-1.4-1.9-3.2-2.3-4.9C580.4,391.6,583,393,578.8,395.7z M582,386.4
			c0.3-0.9,1-1,1.6-0.1C583,386.6,582.5,386.7,582,386.4z M584.4,393c-1.9-4.7-0.2-3.1,1.6-1C587,393.5,586,393.6,584.4,393z
			 M592.8,400.5c1.3,0.1,2.4,0.7,3.6,1.7C595.2,401.3,594.1,400.6,592.8,400.5z M610.3,401.6C614.7,404.6,613.9,404.1,610.3,401.6
			L610.3,401.6z M616.9,427.8C620.2,424.4,621.1,423.6,616.9,427.8L616.9,427.8z M635.8,419.4C635.1,416.5,634.7,414.3,635.8,419.4
			L635.8,419.4z M637,416C635.4,412.7,635.8,413.5,637,416L637,416z M638,408.8C641.2,408.6,642.2,408.6,638,408.8L638,408.8z
			 M662.7,370.6c1,1.9-2.4,0.7-4,0.6c2.5,2.6,3.8,4.4-1,1.9c1.9,2.8,2.5,4.4-1.1,2.2c0.6,1.8,1.1,4.6-0.6,1.8
			c-1.6,1.6-2,0.1-2.2-1.9c0.3,1.2,0,2.3-1.5,2.5c1.5,0.9,1.3,1.2-0.3,1.1c1.1,1.5,1.1,3.1-0.3,3.7c-0.3,3.5-0.9,3.1-1.7,0.1
			c-1-1-1.9-2.5-3.3-0.1c-1.2-1.7-0.7-2.8,1.2-3.5c-2.4-0.1-3.2-0.6-0.9-2.3c-2.5,0.3-1.6-0.3,0.3-1c1.5-4.8,1.5-4.2-0.9-6.6
			c-3.9,0.8-5.9,0.2-7.7-1.4c0,0.4,0.3,0.7,0.3,1.1c-0.6-0.2-1-0.1-0.9,0.5c-1.3-1.6-2.5-2.7-1.9,0.5c1.9,2,3,3.6-0.1,2.8
			c-0.7-1-2.5-2.2-4.8-3.1c1.2,0.7,1.7,1.5,1,3.4c1.3-0.1,1.3,0.1,0.6,0.9c2.5,0.9,0.7,2.5-1.4,3.8c3.6-2.3,4.9-1.1,5.2,1.4
			c-0.6,0.1-1.3,0.5-1.9,1c0.4,0.4,0.9,0.9,1.2,1.2c0.2,1.1,0.4,2.2,0.7,3.4c1.9-1.7,2.3,0.1,2.9,1l0.3,0.7
			c-0.3-0.5,0.6,0.4,1.4,1.2c0.3-0.5,0.7-0.9,1.4-1.2c0,0.9-0.6,1.2-1.3,1.4c0.6,0.4,1,0.8,1.7,1.2c-0.7,0.8-1.6,1.2-2.5,1.2
			c1,2.5,1.9,3.8,3.5,6.4c-0.3,0.3-0.2,0.9-0.4,1.3c-0.3,1.1-0.4,2.4,0,3.4c-0.4-1-0.3-2.3,0-3.4c-0.6,1.1-1.2,2.3-1.2,3.4
			c-0.6-0.7-1-1.5-1.3-2.1c0.3,3-0.1,5-2.6,4.3c0.4,5.4,0,4.7-1,0.2c-1.3,1.1-1.9,0.5-1.6-1.5c-0.7,0.2-0.9,0.5-0.7,1.2
			c0-1-0.3-1.9-1.2-2.2c0.3,0.4,0.3,0.9,0,1.4c-1.4-1-2-2.7-1.9-4.8c0.2,1.5-0.1,3.2-0.4,4.3c-1.3-2.7-3.9-9.6-3.9-3.8
			c-1.3-2.7-3-4.4-5.3-4.5c0.9,3.2,2.6,5.9,4,7.7c0.6-0.1,1-0.1,1.3,0.1l-0.6,0.8c1.4,0.1,2,1.2,1.6,2.7c2-0.1,2.3,0.9,1,2.3
			c0.7,0,0.9,0.5,0.9,1.3c1.9,0,1.9,1.9,1.3,4.5c-5.5-1.9-10.3-4.5-13.9-8c-1.3-0.4-1.7-1-0.6-2.1c-4-0.6-7.8-3.3-10.1-7.4
			c1.4-0.1,3.2-0.9,4.3-2.3c-2.3,0.4-2.9-0.7-2.6-2.6c-0.8,0.5-1.1,1.1-1.1,2.1c-1-0.9-0.9-2,0-3.3l-0.7,1.1
			c-0.6-0.3-0.9-0.9-0.6-1.5c-1.6-1.5-2.3-4.1-1.5-6.2c-1.4,0.4-2.2,1.3-2,2.4c-0.4-0.7-0.4-1.3,0.4-2c-0.9-0.1-1.1-0.1-1.7-0.2
			c0.1,1.3-0.3,2-1.3,2.4c0.1-1.3,0.3-2.4,0.6-3.8c-6.5,1.9-7.8,2.1-15.7,2.7c-2.5-5.4-0.9-9.5,3.2-13.1c4.6,3.8,9.5,5,12.3,3.7
			c1.9-1.6,3.8-2.7,4.2,0.9c-1.2-6.5,1.4-11.6,9.4-13.7c2.7-4.5,5.3-13.9,4.8-15.8c-2.3-5.7-2.7-6.6-6.8-8.8
			c0.7-0.3,2.2-0.8,0.7-1.5c3.2-2.1-2.2-0.9-2-0.9c-6.3,1.7-3.9-4.6-2.3-9.4c-1.9-1.3-3-1.6-4.5-0.5c2.2-4,4-7.9,0.3-6.9
			c-2.7-2.2-3.1-4.5-1.9-7.2c-1.2,0.7-1.9,1.9-1.9,3.2c1,4.3-0.1,8.7-10.7,4.7c1.3,6.8-4.5-1.5-7.2-4.8c3.7,10.8-6.4,3.6-10.8,0.9
			v0.1c0,0,0,0.1,0,0.2l-1.2-0.8c0.3,0.1,0.6,0.3,1.2,0.5c-2.9-5-4.9-5.7-11.1-5.6c0.3,0.1,0.4,0.2,0.4,0.4c-0.4-0.4-0.7-0.4-1-0.5
			c0.3,0,0.3,0.1,0.6,0.1c-4.8-9.5-0.9-10.8,8.4-6.9c-9.9-4.7-12.3-10.8-3.6-18.5c-0.3,0-0.6,0.2-0.9,0.4c1.3-4,3.6-6.4,5.6-6.3
			c0.1-1.6,0.7-2.9,2.4-3.4c0.3-2.4,1.9-3.5,4.2-3c12.4-7.4,14.3-3,12.1,4.9c2-0.2,3.8,0.6,5,2.3c-2.6-3.5-4.6-6-0.9-3.4
			c1.4-2.7,2.9-2.1,3.9,0.9c14.3-6.7,12.8,0.9,4.5,13.9c1.1-0.9,2.7-1.8,4.5-2.3c-1.7,1.5-3.2,3.2-3.9,5.1c-1.2-0.3-0.9,0.9-1.2,2.3
			c1.7-0.7,3.3-2.2,4.5-4.1c0,0.9,0.3,1.7,0.9,2.2c-0.3-3.1,0-4.7,1.6-1.4c0.6-0.6,1-1.2,1.7-1.8c1.3,2.5,0.3,4.6-2.5,6.2
			c1,0.6,1.9,0.7,3,0.2c-1.2-1.1-0.4-2,0.6-2.8c0.6,0.7,1,1.5,0.7,2.4c-0.1-2.7-0.3-8.2,0.6-3c2,0.7,3.9,1.4,5.6,2.4
			c3.9-6.2,6.4-7.6,3.6,3.3c0.2,0,9-1.4,2.3,4.5c2,0.1,1.7,0.6-0.6,1.5c1-0.1,2.1-0.4,3-1.2c0,1.1-0.9,1.9-2.2,2.2
			c1,0.3,1,0.7,0.7,1.1c0.6-0.5,1.4-1,2.2-1.4c0.9-1.7,2.6-3.4,1-0.6c-0.1,0.1-0.7,0.3-1,0.6c-1,1.5-1.2,3.2,3.5,0
			c0.2,0.1,0.7,0.2,1.3,0.4c0-0.1,0-0.2,0-0.2c0,0,0-0.1,0-0.1c0,0.2,0.3,0.4,0.3,0.5c0.3,0.3,0.6,0.4,1.2,0.5c0,0,0,0.1-0.1,0.1
			c1.5,1,2.2,3.1-1.7,8c3.2,0,1.1,1.3-0.6,2.3c2.8-1.1,5.3-1.2,6.6,0.1c7.5-7.3-1.9,2.3-4.9,5.3c5.4-4.5,4.1-2.3,0.9,1.9
			c7.8-9,11.8-7.4,13.6-1.9c-2.7,1.8-6.1,3.2-9.5,4.2c2.6,0.1,0.9,1.1-0.7,1.8c10.3-3.8,8.1-1.9,1.2,2c12.1-4.3,16.6-4.8,3,2.2
			c10,4,13.6,6,1.3,3.4c0.7,0.7,1.6,0.9,2.3,1c-0.6,0.9-0.9,1.6-1.3,2c1.9-1.8-1.2,1.7,0,0c-0.3,0.2-0.4,0.4-1,0.8
			c1.5,0.5,2.2,1.4,2.3,2.6c-2.3-0.4-4.5-0.8-6.6-1.2c4.8,1.6,5.4,2.5,1.2,2.7c4.1,2.6,3.6,2.5,8.4,2.5c-1,0.4-2.3,1-3.4,1.7
			c0.4-0.1,0.9,0,1.3,0.3c-0.7-0.1-1,0.1-1,0.8c1-0.5,2.2-0.6,2.2,0.5c1.6,0.9,1.4,2.1,0.4,3.6c3.5-3.7,1.6,0.3,0.4,3
			c2.9-4.7,4.3-6.6,2.3,0c0.6-1.9,1.9-3.6,3.9-5.1c-1.9,3.8-0.9,5.4,1.9,7.8c-0.4,0.3-0.9,0.4-1.4,0.2c0.6,0.2,1,0.6,1.4,0.9
			c-0.9,0.4-1.9,0.5-2.9,0.3c1.3,0.8,2.9,0.8,4.6,0.2c-0.7,0.6-1.1,1.3-1.4,2.1c1.4,0,2.3,0,2.8,0c-4.9-0.2,3.3-0.1,0,0
			c0.3,0,0.9,0,1.2,0c-0.3,1.2-0.7,2.6-1.2,3.9c2.2-2,3.5-2.5,4.5-2c1.4-0.1,2.2,0.4,1.2,1.9c3.2,2.5,1.4,2.5-0.3,2.4v0.1l-0.3,0.1
			C665.3,370.6,664,370.6,662.7,370.6z M643.2,391.1h-0.4C642.7,390,642.7,389.9,643.2,391.1z M598,352.3
			C612,339.9,608.5,343,598,352.3L598,352.3z M600.1,327.2C603.6,324.9,603.9,324.7,600.1,327.2L600.1,327.2z M604.9,333
			C607.5,329.2,607.1,329.9,604.9,333L604.9,333z M596.1,334.1c-0.9-0.4-1.7-0.4-2.3,0.1C598,330.1,603.1,325.6,596.1,334.1z
			 M594.7,338.3c0.3-0.6,0.3-1.1,0-2.1C596.4,337.2,596.3,337.8,594.7,338.3z M594.3,339.9c0,0-0.1,0.5-0.5,1.8
			C594.2,340.5,594.4,339.9,594.3,339.9z M594.1,324.1c-0.6,1.4-1.4,0-2-1C592.1,323.2,599.2,321.7,594.1,324.1z M612.9,344.9
			c0.1,0.3,0.1,0.7,0.1,1.1c3.2,4.8,0.9,2.8-2.2-0.2C611.7,345.9,612.5,345.5,612.9,344.9z M612,342c-0.3,0.1-0.6,0.4-0.9,0.6
			C611,338.7,611.1,336.5,612,342z M613,341.3c-0.3-0.8-0.3-1.4,0-2.1C613.6,340,613.9,340.9,613,341.3z M614.5,343.6
			c0.6-0.5,0.6-0.9,0-1.4C615,342.6,615,343.1,614.5,343.6z M604.4,322.1c0-0.5,0.3-0.9,0.7-0.9
			C604.6,321.3,604.4,321.6,604.4,322.1z M607.2,289.3c-0.1-0.7,0-1.3,0.4-1.7C608.2,288.2,608.2,288.8,607.2,289.3z M650.1,333
			c-0.4,0.6-0.9,0.7-1.3,0.3C649.2,333.7,649.7,333.6,650.1,333z M648.4,331.9c0.1,1.2-0.4,1.7-1.7,1.1
			C646.8,332.2,647.2,331.9,648.4,331.9z M647.9,349.4C650.6,349.7,649,349.8,647.9,349.4L647.9,349.4z M644.8,344.7
			c-0.4,0.3-1,0.2-1.3-0.4C643.8,344.9,644.4,345,644.8,344.7z M654,541.4c-0.4-1.3-0.4-2.7,0.2-3.9
			C653.6,538.7,653.6,540.1,654,541.4z M655.2,542.2l-0.1-0.4c-0.1-0.4,0-0.6,0.4-0.6C655.6,541.6,655.6,541.9,655.2,542.2z
			 M668.2,817.9c-0.7-0.6-1.3-1.7-1-2.6C668,815.8,669.8,817.9,668.2,817.9z M668.8,542.9c0-2,0-4.8,0-5.1c-0.9-0.9-1.2-2.6-5.4-1.1
			l0.6-0.4c-7.8,4.4-8.4,4.1-0.6-1.9c-1.3,0.4-2.3,0.3-3.6-0.5c-0.6,1.9-1.9,1.9-3.6,1.2c0.7-0.3,1.7-0.9,2.2-1.4
			c-0.3,0.1-0.6,0.1-0.9,0.2c0.1-0.6,0.1-1.1,0.3-1.7c-0.6,0.3-1,0.7-1.3,1.2c-0.3-0.5-0.2-1.2,0.4-1.5c-0.4,0.1-0.7,0.2-0.7,0.7
			l-0.3-0.4c-2.2,2.5-6.4,2.7-11,1c0.4-0.3,0.6-0.7,0.4-1.2c-8.2,2.8-5.3-0.7-0.3-5.4c-1.3,0-2.6,0.2-3.9,0.4c0.6-1.2,1.6-2.2,3-2.8
			c-0.9,0.5-1.3,1.2-0.7,2.1l0.6-0.7c3.2-2.5,5.5-5.4,8.7-10.8c-0.4-0.1-0.7-0.2-0.9-0.1c0.1-1,1-1.5,1.9-1.7
			c-0.4-1.1,0.4-2.2,2-3.3c0.7-1.6,3.6-3.8,6.5-5c0,0.5,0,0.9,0.4,0.9c2.6,0-0.6,1.8-1.3,2.7c2-0.4,0.3,1.4-1,2.7
			c-0.3-0.4-0.3-0.9,0-1.4c-2.3,2.9-4.2,6.3-5.3,10c1.1-1.7,4.2-5.8,3.9-2.7c0.9,0.1,1.9,0.1,3.3,0c-1.2,0.9-2.5,2-3.9,2.9
			c0.6-0.5,0.9-0.8,1.4-0.8c-1.4,3.1,0.6,3.3,1.9,3.5c2.6-2.5,1.7-0.3,0.6,1.7c1.4-1.8,2.6-2.6,5.2-3.5c-0.6,1.2-0.6,1.9-1,3
			c5.3-2.4,5.6-1.9,0,2c1.7-0.4,2.5-0.3,1.9,1.1c1.5-0.7,0.6,0.1,0.1,0.9l0.3,0.3c-0.3,0.5-0.7,0.9-1.2,1.1c0.3,0.1,0.6,0.1,0.7-0.3
			c0.1,0.4-0.2,0.8-0.2,1.1c0.9-1.2,2.6-2.4,3.5-2.5c0.4-0.2,0.9-0.6,1.2-1c-1.7,1.6-3,3.7-3.3,5c0,0,0,0.1-0.1,0.1c0,0,0,0,0.1,0
			c0,0-0.4,0.2-0.4,0.4c-0.3,0.1-0.7,0.1-1.2,0c0.3,0.3,0.9,0.4,1.2,0.1c-0.3,1.2-0.9,1.5-1.2,0.5c1.2,3.2,3.3,1.3,5.8-1.3
			C674.2,535,673.2,538.2,668.8,542.9z M656.5,534.4l0.4-0.5L656.5,534.4z M700.9,384.8l0.6-0.6
			C702.5,384.4,702.1,384.7,700.9,384.8z M700.8,382.8c0.7,0.2,1.1,0.3,1,0.3C701.9,383,701.5,383,700.8,382.8z M713.5,430.5
			c0.9,0.4,1.3,0.6,1.4,0.6C714.8,431.1,714.4,430.9,713.5,430.5z M721.7,430.1c1.1-0.3,1.5-0.3,1.4-0.3
			C723.2,429.8,722.8,429.9,721.7,430.1z M725.8,437.3c0.4-0.8,0.8-1.4,0.8-1.5C726.5,435.8,726.2,436.5,725.8,437.3z M731.7,440.9
			c0.9-0.4,1.5-0.6,1.6-0.7C733.3,440.3,732.6,440.5,731.7,440.9z M735.2,438.4C731,437.2,733.6,437.9,735.2,438.4L735.2,438.4z
			 M744.7,420.3l-0.3-0.3l0.3-0.1V420.3z M745,419.2v-0.5l0.3-0.3C745.6,418.9,745.3,419.1,745,419.2z M745.6,416.7
			c0.1-0.1,0.3-0.2,0.4-0.1C745.9,416.5,745.7,416.6,745.6,416.7z M749.3,413.8c-0.2-0.5-0.2-0.9,0.4-1.2
			C749.2,412.8,749.2,413.2,749.3,413.8z M755.8,394.3v-0.4c1.3,1.2,1.7,2.7,1.4,4.3C756.5,397.2,755.8,395.8,755.8,394.3z
			 M761,391.1c0.7-0.3,1,0.1,0.7,0.6C762,391.2,761.7,390.8,761,391.1z M762.8,389.7c0-0.1,0-0.3,0-0.3v-0.1
			c0.3,0.1,0.4,0.4,0.3,0.8L762.8,389.7z M771.4,388.9C771.5,385.2,771.5,386,771.4,388.9L771.4,388.9z M774.7,388.3
			c0,0.1,0,0.2-0.1,0.3c-0.6-0.6-0.4-1.1,0.1-1.5C774.4,387.5,774.4,387.9,774.7,388.3z M791.8,601.4c1-0.1,1.6,0.3,1.9,1.1
			C792.6,602.9,791.8,602.9,791.8,601.4z M793.8,600.5c0.6-0.2,1,0.1,1.2,0.6C794.8,600.6,794.4,600.2,793.8,600.5z M798.6,600.5
			c0.6-0.3,1-0.1,1,0.4C799.6,600.4,799.1,600.2,798.6,600.5z M805.4,732.2C804.5,731.9,805.4,729.4,805.4,732.2L805.4,732.2z
			 M806.9,733c0-0.5,0.1-1,0.1-1C807,732.1,806.9,732.5,806.9,733z M807.1,606.5c0.1,0.8,0.1,0.9,0.1,0.8
			C807.2,607.4,807.1,607.3,807.1,606.5z M810.4,733.6c-0.2-0.1-0.2,0.1,0.7,0.7C810.2,733.7,810.2,733.5,810.4,733.6z M813.3,743.8
			c0.2-0.9,0-1.5-0.7-2.1C814.5,742.6,815.9,743.6,813.3,743.8z M811.9,734c0,0,0.3,0.1,1,0.3C812.1,734.1,811.8,734,811.9,734z
			 M816,742.6c-0.3-0.9-0.1-1,0.6-0.2L816,742.6z M817.2,737.6c0.4-0.7,0.6-1.2,0.6-1.2S817.6,736.8,817.2,737.6z M817.8,733.8
			c-0.7-0.7-0.6-1.1,0.3-1.4C817.2,732.7,817.1,733.1,817.8,733.8z M817.1,361.7c-12.7-1.2-18.5-0.4-23.4,11.2
			c-0.3-0.4-0.6-0.6-1-0.6c-0.4,1.5-4.3,6.4-5.2,7c-7.4,6-12.7,8.4-14.2,2.6c-4.5,3.5-10.5,7.3-17,10.4c-0.7-0.3-1.2-0.7-1.6-1.1
			c0,2.5,0.3,4.8,0.9,7.5c-0.3,2.3-1.2,4.2-5.6,5.6c1.7,2.4,1.4,3.4,0.3,3.8c0.3,0.3,0.6,0.4,0.6,0.4s-0.3-0.1-0.6-0.4
			c-0.9,0.1-2,0.1-3.3,0c-0.4,2.6-0.9,4.6-1.9,6.5c0.9,0.4,1.4,0.6,1.4,0.6c0,0-0.5-0.2-1.4-0.6c-0.9,2-2.5,4.3-4.9,7.7
			c2,2.1,1.4,3.2-1.4,3.4c1,3,0.7,4.1-1.3,6c0.4,1.4-0.2,1.5,2.2,2c-4.1-0.7-7.6-0.9-3.5,2.8c2.3,0,1.7,0.7,0.3,1.7
			c-2.4-2.5-4.6-4-5-1.2c-2,0.2-3.3-0.4-1.6-3.7c-2.6-0.4-1.8-1-3.6,1c0-1.6-0.6-1.6-1.4-0.9c5.6-6.4-3.6-7.1-12.6-8.9
			c0.3-2.4-0.3-5.1-2.4-6c0.7-0.6,1.2-1.1,0.6-2c-1.3-2.2-1.7-5.1-1.2-6.8c-2.4-1.5-4.3-3.3-0.1-4.6c-1.3,0.1-2.6-0.1-3.9-0.7
			c1-0.6,1.9-0.8,2.9-1c-0.7-0.1-1.3-0.3-1.6-0.7c2.7,0.3,0.9-1.6,0.6-2.5c-5.4-1.9,1.3-2.7,4.3-3.2c-8.8,1-4.9,0,0.1-1
			c0.7-1.1,1-1.4-0.8-4.3c-4.3,2.6-10.2,5.8-2.6-2c-7.5-2.3-4.9-4.6,3.9-6.9c-4.2,0.7-7.5,1.4-8.4-0.3c0.3-0.2,7.5-6.1-1.3-2.7
			c-0.3-0.6-0.9-0.7-1.9-0.4c16.3-10.2,9.7-7.6,4.8-5.6c0,0.3,0,0.5,0,0.7c-4.8,1.9-2.9,0.8,0-0.7c0.1-1.9-0.3-3.3-2.2-5.5
			c0.9-0.6,12.4-6.2,14.1-6.6c-1,0-21.1,1.4-6.4-2.5c-3-2.5-6.9-5.3-0.6-1.4c0-0.5-0.2-1.2-0.4-1.8c2.4,2,5.4,3.2,8.7,4
			c-1.4-3.7-2.8-8.1-3.3-4.6c-2.9,0.9-5.1,0.9-4.3-1.7c-0.6,0.2-1.6,0.2-2,0c1.9-0.7,3.2-1.4,4.2-1.9c-0.2-0.1-0.2-0.1-0.2-0.1
			c0,0,0.1,0,0.1,0c0,0-0.1-0.1-0.1-0.1c0.3-0.2,0.6-0.2,0.9-0.2c4.6-2.4,4-2.5,9.4-2.5c-2.3-1.4-3.8-3.3,0.2-5.8
			c-2.6-1.2-1-2.4,1.6-3.5c-1.4-0.7-1.7-1.4,0.3-1.4c-24.4-13.4-4.3-9.6-2.2-9c-1.7-3.9-1.3-5.3,0.1-5.3c-3.8-4.7-2.9-4.1-6.1-15
			c0.3,3.4,0.6,7.2-2.2,6.3c0.3,1.4,0,2-1.4,1.8c-4.2,3.5-5.9,2.8-4.3-2.1c2.2-2.5,3.4-6.2,4.1-11.3c0,0.3-0.1,0.6-0.6,0.6
			c0.5,0,0.6-0.3,0.6-0.6c0.4-3.1,0.8-6.6,0.9-11.2c-0.6-1-1.6-3,0-2.1c3-16.7-3.2-31.3-22.7-36.5c-2.3-3.2-4.8-3.7-8.4-2.7
			c-1,0.6-3.3,0.5-7.8-2c-0.1-8.9-0.1-5.1,0-13.9c-2.2,2-4.8,3.8-4.2,0c-0.3-0.5-0.6-0.5-1.1-0.1c0-2.1,0.7-3,2.6-2.2
			c3.5-0.7,10.6,0.1,15.6,1.7c-10.5-4.7-7.8-4.3,1.4-1.4c-11.4-8.3-8.4-5.6-19.3-18.1c1-0.9,2.3-1.4,3.6-1.5c1.2-3.8,8-6.2,16.5-6.2
			c23.2-8.5,27-15.6,25.4-26.8c2.3-4,6.2-9.2,7.5,1.7c5.6-11.8,12.3-19.5,21.7-8.7c-0.4-15.7,7.8-16.2,15.4-12.5
			c0.4-0.8,0.7-0.9,0.7,0.3c-0.2-0.2-0.4-0.2-0.7-0.3c-1.2,3.2-3.3,17.4,6.9,5.6c0.3-0.1,0.6-0.1,0.9-0.3c-0.8-2.7-0.4-5.6,0.9-8.1
			c0.4,2.6,0.6,5.1,0.9,7.4c5.6-1.5,10-0.8,17.8,6.4c0.1-0.6,0.4-1,0.6-1.4c0-0.2,0-0.4,0-0.4s0,0.1,0,0.4c-0.1,0.4-0.4,0.8-0.6,1.4
			c1.4,1.3,3.2,2.7,4.8,4.4c-1.3-5.9-5.8-26.5,19.5-7.9c-9.9-10.2-14-18.4-3.6-23.7c0.3,1.1,1,2.5,2,5.2c3.2-2.6,4.2,0.2,4.3,4.6
			c0.4-1.8,0.4-3.8-0.1-5.6c1.6,2,3.5,3.5,5.9,4.3c12.1-5.6,44.3-21.7,15.7-1.2c-0.6,4.4,16.3,6.9,27.6,9.9
			c-24.8,12.5-22.6,22.5-5.3,33.1c-2.9,2.9-5.5,6.6-7.5,9.9c0.9-0.9,1.7-1.7,2.8-1.7c8.2-5.1,15.1-10.1,22.2-16.6c0.5,2,0.6,4,0.6,6
			c26-3.1,25.4,1.2-5.2,13.6c7.5-0.6,13.7,0,12.7,4.1c-2.6,0.4-6.5,1.2-10.3,2.1c-0.1,0.1-0.3,0.3-0.4,0.4c-0.4,0.4-0.9,0.8-1.4,1.5
			c0.6-0.7,1-1.1,1.4-1.5c0.1-0.1,0.3-0.3,0.4-0.4c-1.9,0.4-3.6,0.9-5,1.4c13.1,4.3,7.1,17.5-3.9,30.9c0.3,0.9,0.6,8.8,0.3,9.2
			c-1.7-0.4-1,0.9-0.6,1.4c1.6,2.3,3.2,3.2,5.1,0.6c2.9,2.7,2.9,6.5,0.4,10.7c-2.6-3-5.2-4.3-8.7-4.9c0.3,0.3,0.4,0.5,0.3,0.9
			c-0.9-0.4-1.6-0.4-2.6-0.1c0.2,1.8,0.3,3.3,0.3,4.4c0.3,3.2,0,5.1-2.4,7.1c2.3,0.5,6.1,2.5,8.4,5.2c-0.4,0.1-1.2-0.1-1.4-0.4
			c-1.6,5.9-4.5,6.1-6.8,4.5c2.2,2.5,2,3.7-3.8,1.5c10.4,7.2,10.5,10.6,1.9,10.9c4.2,4,2.6,2.6,0,0c-1.2,0.1-2.5,0-3.9,0
			c-0.1,2.3,0.6,4.7,1.4,8c6.1,4.8-7.2,2.1-11.3,2c-10.1-0.7-11.8,3.7-11.6,9.3c6.4-0.4,12.5-0.4,2.3,3.5c2-0.4,3.6,0,4.2,1.7
			c6.4-0.2,10.1,2.8,9,8.8c1.3-1.4,2.9-2.9,2-0.2c1.4,1.4,1.9,3,0.9,7.4c1.6-0.8,1.6-0.2,0.9,1c-3.4,9.5-12.6,0.2-24-14.2
			c0,1.5-0.4,2.3-1.7,2.8c3.3,2.1,2.6,3-0.6,3c9.5,2.6,14.1,4.8,0.9,5.1c-0.9,3.1-1.1,5.4-1.1,7.4c13.1-4,13.7-4.1,0,0
			c0,3.2,1,4.8,2.3,5.6c2.7-1.5,5.3-2.5,9-4c2.2,2,7.9,3.6,12.6,3.2c-2.9,2.8-3.5,3.2-5.6,4.4c-5.6,4.8-10.5,7.5-20.4,11.6
			C818.6,361.6,818.6,361.6,817.1,361.7z M740,431.3c0,0-0.3,0-1.1-0.1C739.7,431.3,740,431.3,740,431.3z M708.2,394.8
			c-0.4,1-1.3,1.7-2.2,1.9C706.9,396.4,707.7,395.8,708.2,394.8z M706,395.8v-0.4c0.3-0.7,0.6-1,1.2-0.9
			C707,395.1,706.6,395.6,706,395.8z M702.8,371.7c-0.3,0.8-0.7,0.8-1.3,0.4C702.1,372.5,702.5,372.5,702.8,371.7z M702.1,370.8
			c0.4,0.5,1.3,0.4,1.7-0.1C703.4,371.2,702.5,371.3,702.1,370.8z M702.7,361c0.3-0.5,0.9-0.8,1.3-0.7
			C703.6,361.2,703,362.1,702.7,361z M706.3,332c10.4,6.7,12.7,11.3-0.3,11.2c0.9-0.4,2.5-1.2,4.5-2.2c-3.3,0.9-5.5,0.8-4.8-1.8
			c-1.9-1.8-1.7-2.7,0.9-2.3C704.7,335.3,704.4,333.7,706.3,332z M706.2,329c0.3,0.9,0.6,1.4,0.7,1.4
			C706.8,330.5,706.5,330,706.2,329z M710.6,304.7C710.8,304.4,714.7,298.1,710.6,304.7L710.6,304.7z M712,304.7
			c-0.3,0.1-0.7,0.2-0.3,0.7C711.3,304.9,711.8,304.8,712,304.7z M711.8,298.8l-0.4,0.4c-0.6,0.3-0.8,0.1-0.8-0.4
			C710.8,298.8,711.2,298.8,711.8,298.8z M710.8,297.2c0-0.5,0-0.6,0.4-0.5C710.8,296.6,710.8,296.7,710.8,297.2z M711,295.7
			c0-0.3,0.3-0.4,0.7-0.1C711.3,295.3,711,295.3,711,295.7z M711.3,294.3c-0.1-0.7,0-1.1,0.2-1.7C712,293.3,712.4,294.1,711.3,294.3
			z M710.8,280.1c0.3-0.3,0.6-0.1,0.6,0.3C711.3,280,711,279.8,710.8,280.1z M712.7,287.8c-0.1,0-0.7-0.3-1.6-0.6
			C712,287.5,712.6,287.8,712.7,287.8z M711.8,289.9c-0.7,0.8-1.3,0.8-1.7-0.1C710.5,290.7,711,290.7,711.8,289.9z M710.8,305.4
			l-0.6,0.6L710.8,305.4z M711.8,299.7c1.2-0.5,1.5-0.4,0.6,0.3C712,299.9,712,299.8,711.8,299.7z M709.2,278.4
			c1.6-1.2,3.3-0.7,4.3,1.2C712.4,279,710.8,278.5,709.2,278.4z M709.9,295.3c-0.3,0.1-0.3,0.5-0.2,0.7
			C709.6,295.8,709.6,295.5,709.9,295.3z M709,273.7c0.5,0.7,0.7,0.8,0.6,0.7C709.7,274.4,709.5,274.4,709,273.7z M708.7,302.8
			C710.8,301,708.9,302.7,708.7,302.8L708.7,302.8z M708.2,309.6C711.8,308.6,710.5,310.4,708.2,309.6L708.2,309.6z M708.3,313.8
			c0,0-0.4-0.4-1-0.9C707.9,313.5,708.2,313.8,708.3,313.8z M712.8,351c-0.7,0.7-1.7,0.9-2.6,0C710.8,350.1,711.8,350.1,712.8,351z
			 M710.2,352.6c-1.4,0.7-2.2,0.6-2-0.5C709,351.7,709.9,351.9,710.2,352.6z M711.8,357.1C715.3,356.7,713.4,356.9,711.8,357.1
			L711.8,357.1z M719.1,340v-0.4C722.3,340.8,720.6,340.5,719.1,340z M712.6,323.9c-0.3-1.4,0.3-2.2,2-2.5
			C714.7,323.1,714.4,324.4,712.6,323.9z M716.3,323.6C717.7,322.1,719.1,321.3,716.3,323.6L716.3,323.6z M716.3,319.5
			C717.6,317.9,719,316.6,716.3,319.5L716.3,319.5z M719.1,326.8c0.9-0.1,1.3,0.4,1.3,1.2C720.5,327.2,720,326.8,719.1,326.8z
			 M672.2,227.6c1.4-0.8,2.8,0,3.9,1.4C674.5,229.1,673.2,228.6,672.2,227.6z M875.2,232.2c0-0.6,0-1.2-0.4-1.4
			C877.7,226.3,876.7,229,875.2,232.2z M874.1,249.6c0,3-1.3,3-1.6,3.4C872.9,251.7,873.2,250.6,874.1,249.6z M871.1,287.3
			c0-0.4,0-0.9,0.3-1.4c0.7,2.1,0.7,3.6-1.4,2.3c-3.3,1.2-4.5-0.7-3.3-4.6C869.8,282,870.9,283.8,871.1,287.3z M867.7,266
			c1.3,3.2,1.5,6.9,0.3,10.1C867.6,272.9,867.4,268.6,867.7,266z M869.9,242.6h0.6H869.9z M869.3,246.6c0-0.7,0.3-1.3,0.7-1.8
			C870.5,245.8,870.1,246.7,869.3,246.6z M867.7,250.6c-1.1-0.1-1.9-0.8-2.3-1.9C866.6,248.5,867.4,249.6,867.7,250.6z M860.7,269.4
			c0.2,0.1-0.1,0-1.2-0.7C860.6,269.3,860.8,269.5,860.7,269.4z M865.4,292.9c0,0-0.4,0.4-1.1,1.2
			C865,293.2,865.4,292.9,865.4,292.9z M860.4,289.6c-0.2-0.5-0.3-1-0.6-1.8C860.1,288.6,860.2,289.1,860.4,289.6
			c0,0.2,0.1,0.4,0.3,0.6c0,0.2,0,0.5,0,0.5s0-0.3,0-0.5C860.5,290,860.4,289.8,860.4,289.6z M854,310.9c0,0.9-0.3,1.1-1.2,0.6
			C853.7,312,854,311.7,854,310.9z M840.2,312.4c0-2.1,9.9,0.7,10.9,1.4C849,316.2,845.1,315.3,840.2,312.4z M840.4,314
			C852.4,323.2,849.8,321.3,840.4,314L840.4,314z M836,308.8c2.8-2.6,5.8-2.2,8.8,0.7l0.3-0.1c-0.4-0.6-0.3-0.7-0.2-0.7
			c-0.1-0.1-0.1,0.1,0.2,0.7c0,0,0,0.2,0,0.4c0-0.1,0-0.1-0.3-0.3C844.3,310.1,842.3,310.6,836,308.8z M839,312.9
			c-0.3,0.7-0.6,1.2-1,1.6C837,313.7,837.6,313.2,839,312.9z M833.8,335.1l0.1-0.4C834.5,335.8,834.5,336.5,833.8,335.1z
			 M825.1,337.2c-0.3,0.7-0.6,0.8-1.1,0.6C824.6,338,824.9,337.9,825.1,337.2z M829.9,342.1c0.1,0-0.2,0-1.1,0.1
			C829.7,342.1,830,342.1,829.9,342.1z M841.2,351c0.3,0.7-0.3,0.9-1,0.7C840.9,351.9,841.5,351.7,841.2,351z M845.9,670.8
			c0.2-0.4,0.3-0.7,0.4-0.7C846.3,670.1,846.2,670.4,845.9,670.8z M845.4,410.6c-0.6,0.1-0.9-0.2-0.9-0.9c-3.6,1.4-6.5,1.4-6.9-1.4
			c-0.9-0.1-1-0.7-0.9-1.7c0.6,0.2,0.7,0,0.7-0.4c2.2,0.9,4,0.4,6.6-0.9c-2.3,0.2-4.9,0.4-2.3-2.7c-3.5-0.7-2.2-0.4-7.2-2.4
			c-1.3,0.7-2.2-0.1-2.8-1.8c5.2,0.2,7.8-0.3,11.4-2.5c-5.2,1-3.6,0.1,0.4-1.4c-1.4,0.1-2.7,0-2-1.9c-0.9,1.3-1.6,1.4-1.6-0.1
			c-0.5,1.3-1.3,2-1.7,0.3c-0.9,0.8-1.6,0.5-1.6-0.7c-7.2,1-4.9,0.4-1.3-0.2c-0.3-0.7,0-0.9,0.7-0.9c-1,0.1-1.6-0.6-2-1.4
			c0.7-0.6,1.3-0.6,1.9,0c-1.2-1.7-2.2-3,0.3-1.1c0-3,1-2,1.9,0.1c1.2-0.5,2-0.5,2.6,1c1-1.4-0.3-2.5-1.7-3.4
			c0.6,0.1,1.2,0.1,1.9-0.2c-1.1-0.8-2-1.4-2.1-1.5c-0.2-0.2,0.4,0.1,2.4,1.4c0,0-0.1,0-0.1,0c0,0,0,0,0.1,0c0,0-0.3,0-0.3,0.1
			c0.9,0.7,2.3,1.5,3.2,2.1c1.3-0.3,1.6-0.1,0.4,1.1c1.8,1.1,1.5,1.7-0.4,1.5c1,0.8,1,1.4,0.3,1.9c0.7,1.2,1,2.2,1.8,4.6
			c-0.1-1.7,0.7-3.2,2.3-4c2-4.1,5.6-6.6,10.1,1.2c0.4-6.8,3.2-7.6,6.5-5.8c4.3-3,5.5-3,10.8-2.4c-2,2.4-1.8,3.5-1,6.7
			c1.6-0.5,2.2,0,1.1,1.7c4,5-0.2,10.3-10.8,15.7c-1.3-0.8-2.6-0.1-3.9,1.4c-0.1-0.2-0.6-0.4-0.6-0.6c-0.9,1.2-2,1.9-3.5,0.9
			c-3.5,2.7-7.8,1.7-10.7-1.8L845.4,410.6z M847.2,666C847.7,661.1,847.7,666,847.2,666L847.2,666z M873.8,786.3c0,0,0.3,0.4,1,1.1
			C874.1,786.6,873.8,786.3,873.8,786.3z M977.6,828.1c0.6-0.7,1-1.2,1.1-1.2C978.7,826.9,978.3,827.4,977.6,828.1z M988,810.2
			C992.4,806.5,990.5,808.1,988,810.2L988,810.2z M1207.8,902.8c1-0.2,1.3,0.2,1,1.3c-0.4-0.5-1-0.7-1.3-0.6L1207.8,902.8z
			 M1199.9,880.8c-0.4,0.7-1.1,0.7-2,0.3C1198.5,880.1,1199.1,880.2,1199.9,880.8z M1199.7,882.7l-0.3,0.4v-0.4H1199.7z M1191,902
			l-0.4-0.5C1191.4,898.8,1191.5,899.2,1191,902z M1187.9,896.3c0.6,0.6,0.7,1.3,0,1.7c-0.6-0.4-1-0.9-1.6-1
			C1186.9,897,1187.3,896.7,1187.9,896.3z M1183.1,898.1c-1,0.1-1.4-0.1-1.2-0.9C1181.7,898,1182.1,898.2,1183.1,898.1z
			 M1181.5,895.1C1180.8,892.6,1180.4,890.5,1181.5,895.1L1181.5,895.1z M1216.6,922.3c-0.1,0.6-0.4,1.1-0.8,1.6
			c0,0.1-0.1,0.3-0.1,0.4c-1.9,10.9-6.6,22.5-14.5,36.3c0.3,1.1-0.2,2.2-1.2,2.7c-1.1,6.7-6.5,10.4-14,11c-5.8-2.8-8.4-7.3-6.1-13
			c-0.6-14.2,3.6-31.8,10.2-43.4l0.6,1c0.6-1.4,1.1-1,1.3,0.2c0.2-0.1,0.4-0.1,0.7,0c2.8-1,5.6-2.3,7.2-3.8c0.7,0,0.9,0.3,0.7,0.9
			c1.8-1.3,2-2.7,1.3-4.1l1.2-1.1c0.3,0.6,0.3,1.4,0.1,2.2c0.9-1.5,1.9-2.3,2.9-1.7c1.7-4,2.2-5.7,3.6-10.5c0.1-0.2,0.1-0.4,0.1-0.6
			c0.3-0.7,0.6-1.6,0.9-2.6c1.9,0.7,2.9-0.1,3.6-2c2.8,9.3,3,18,1.7,27.3C1216.2,922.7,1216.3,922.5,1216.6,922.3z M1230.6,760.3
			c0.9-0.6,1.6-0.6,2.5,0.1C1232.2,759.7,1231.5,759.7,1230.6,760.3z M1237.2,758.5C1242.3,757.8,1246.5,757.3,1237.2,758.5
			L1237.2,758.5z M1245.3,946.5c1.6-0.2,2.5,0.8,3,2.1C1246.2,950.6,1245.3,949.3,1245.3,946.5z M1249.7,856.1
			c-0.4-0.6-0.7-1.4-0.1-2.1C1250.7,854.7,1251.1,855.5,1249.7,856.1z M1257.2,942.1c1,1.2,1.6,2,1.7,2
			C1258.8,944.1,1258.2,943.4,1257.2,942.1z M1390.9,775.9c-1.4-0.4-3.2-0.8-2.3-1.8c-0.4-0.1-0.4-0.3-0.3-0.6
			C1389.3,774,1390.1,775,1390.9,775.9z M1385,784.2c-0.2-1.1,0-2,0.6-2.5C1385,782.1,1384.8,783.1,1385,784.2z M1387.3,774.8
			c-0.3-0.9-0.6-1.6-0.6-1.7C1386.7,773.2,1387,773.9,1387.3,774.8z M1387.3,776.1c0.4-0.1,0.4-0.5,0.3-0.9c3.2,0.9,5.5,3.1,5.2,5.8
			C1391.3,803.1,1388.9,788.2,1387.3,776.1z M1425.4,703.9v-0.6l0.6-1.5C1426.7,702.6,1426.3,703.4,1425.4,703.9z M1427,702.9
			c0.4,0.3,0.7,0.8,0.5,1.5C1427.8,703.7,1427.4,703.2,1427,702.9z M1428.3,704c-0.7-0.5-0.7-1,0-1.4
			C1427.6,703,1427.6,703.5,1428.3,704z M1428.9,704.1v-1V704.1z M1440.1,696.6C1440.1,698.2,1440,700.6,1440.1,696.6L1440.1,696.6z
			 M1442,700.1c-0.3-1-0.4-1.8-0.9-2.8v-0.5C1442.9,697.5,1443.5,698.6,1442,700.1z M1443.6,698.6c-0.4-1.1-0.2-1.6,0.6-1
			C1444.3,698.1,1444.1,698.4,1443.6,698.6z M1453,763.4c0.6-0.7,0.9-0.6,1.3,0.3C1453.9,762.8,1453.6,762.7,1453,763.4z
			 M1457.1,758.8c-0.4,1.9-0.9,3.5-1.3,5.8C1455,762.2,1455.2,760.2,1457.1,758.8z M1456.5,758.2c-0.3-2.3,0-5.3,1.2-7.4
			C1458.1,753.5,1457.8,756,1456.5,758.2z M1454.9,769.6c0-1.4-0.3-2.1,1.3-2.7C1456.9,768.5,1456.6,769.6,1454.9,769.6z
			 M1457.1,776.7l1-0.4L1457.1,776.7z M1456.5,720.6c1.4-0.5,2,0,1.6,1.4C1457.1,721.8,1456.7,721.3,1456.5,720.6z M1459.5,780.8
			c0.7,0.1,1.3,0.7,1.2,1.7C1460.8,781.4,1460.2,780.8,1459.5,780.8z"/>
		<path class="st0" d="M625.9,239.9c-0.2,0-0.4,0-0.9-0.1C625,239.8,625.5,239.9,625.9,239.9z"/>
		<path class="st0" d="M641.4,387.4c0-0.1,0-0.2-0.2-0.3c-0.1,0.1-0.1,0.2-0.1,0.3H641.4z"/>
		<path class="st0" d="M585.9,283.6c-1,1.7-0.6,2.3,0.6,2.4c1-2.5,1.9-4.8,2.5-7.1C587.2,278.3,585.9,279.5,585.9,283.6z"/>
		<path class="st0" d="M589.3,278c0.2-0.5,0.2-0.9,0.3-1.4c-0.4,0.1-1,0.2-1.6,0.4C588.4,277.3,588.9,277.6,589.3,278z"/>
		<path class="st0" d="M588,287.2c-0.3-0.9,0.3-1.3,1.3-1.4c-1,0.2-2.2,0.4-2.9,0.2c-0.4,0.8-0.6,1.4-0.9,2
			C586,287.9,586.7,287.7,588,287.2z"/>
		<path class="st0" d="M856.8,283.5c-1.2-1.1-2.7-2.8-4.6-4.5C853.5,280.5,854.9,282.5,856.8,283.5z"/>
		<path class="st0" d="M787.3,174C788.9,177,790,179,787.3,174L787.3,174z"/>
		<path class="st0" d="M982.5,474.2c0.9-0.3,1.6-1.2,1.6-2C982.8,472.1,982.1,472.9,982.5,474.2z"/>
		<path class="st0" d="M1297.2,314.6c0.7-1.7,0.4-3.6-1-4.7c0,0.1,0,0.1,0,0.2C1296.7,311.6,1296.9,313.2,1297.2,314.6z"/>
		<path class="st0" d="M713.5,351.5c-0.3,0.1-0.6,0.2-0.7,0.4c0.4,0.4,1.2,0.4,1.7-0.1C714.2,351.6,714,351.5,713.5,351.5z"/>
		<path class="st0" d="M770,170.8c0-1.7-0.3-3.4-0.3-5.1c-0.6,0.2-1.2,0.4-1.7,0.6c0.3,1.3,0.9,2.7,1.7,4L770,170.8z"/>
		<path class="st0" d="M1308.9,321.8c2.3,1.2,4.3,2.5,6.3,3.8C1313.2,321.9,1311.1,320,1308.9,321.8z"/>
		<path class="st0" d="M1085.1,353.9L1085.1,353.9c-0.6,0.4-0.9,0.8-1.2,1.6C1084.2,354.7,1084.5,354.2,1085.1,353.9z"/>
		<path class="st0" d="M996.2,461.1c0-0.6-0.1-1,0-1.7C995.2,459.8,995.4,460.4,996.2,461.1z"/>
		<polygon class="st0" points="991.6,479.2 991.6,479.2 991.8,479.2 		"/>
		<path class="st0" d="M1043,482.4c0,0.2-0.1,0.4-0.3,0.6C1042.6,485.7,1042.6,486.4,1043,482.4z"/>
		<path class="st0" d="M1248.4,366.1c0.6-0.7,1.2-1.1,1.7-1.7c-0.9,0.4-2,0.8-2.9,1.2C1247.8,365.4,1248.1,365.7,1248.4,366.1z"/>
		<path class="st0" d="M1289.1,348c-0.4,0.1-0.6,0-0.7,0.1c0.3,0.1,0.7,0.1,0.9,0.3C1289.2,348.2,1289.1,348.2,1289.1,348z"/>
		<path class="st0" d="M1256.5,365.2c3.9,1,5.5-0.1,3.9-3.8c2.2-2.1,3.6-5.7,3.6-10.1c-4.2,3.1-8.5,7.6-13.9,13
			C1254,363,1257,362.5,1256.5,365.2z"/>
		<path class="st0" d="M1284,346.8c0.4,1.1,1.9,1.6,4.3,1.2C1287.1,347.6,1285.4,347,1284,346.8z"/>
		<path class="st0" d="M982.1,474.8c0.6-0.1,0.9-0.5,1.3-0.6C983.1,474.3,982.7,474.4,982.1,474.8L982.1,474.8z"/>
		<path class="st0" d="M546.4,591c0.4-1.5,0.9-2.8,1.1-4.2C546.3,588.4,546.1,589.8,546.4,591z"/>
		<path class="st0" d="M663.4,140.2c0,0,0,0.2-0.1,0.2c0,0.3,0,0.7,0.1,1.1V140.2z"/>
		<path class="st0" d="M512.4,793.5c1.9,3.4,3.9,6.8,5.8,10.1c-0.6-1.7-0.8-3.8-0.8-5.8C515.7,796.4,513.9,794.9,512.4,793.5z"/>
		<path class="st0" d="M661.7,197.7c0.7,0.1,1.4,0.3,1.7,0.4c-0.7-0.4-1.3-0.9-2.6-1.3C661.1,197.1,661.5,197.3,661.7,197.7z"/>
		<path class="st0" d="M527.2,358.7c0.9,0.1,1.7,0.4,2.7,0.8c-1.3-0.7-2.2-1.5-3.3-2.5C526.5,357.8,526.6,358.3,527.2,358.7z"/>
		<path class="st0" d="M544.1,320.2c0-0.2,0-0.2,0.3-0.4c-0.3-0.1-0.3-0.3-0.6-0.4C544,319.6,544.1,319.8,544.1,320.2z"/>
		<path class="st0" d="M1106.4,193.5c-0.6-0.1-1.1-0.4-1.9-0.4v0.4C1105.3,193.4,1105.7,193.4,1106.4,193.5z"/>
		<path class="st0" d="M568,457.8c-0.4,0.3-1.2,0.6-1.6,1.2c0.1,0.2,0.1,0.3,0.1,0.5C566.8,459.1,567.5,458.4,568,457.8z"/>
		<path class="st0" d="M546,321.4c0,0,0-0.1,0-0.3c-0.1-0.1-0.2-0.1-0.2-0.2C545.8,321.1,545.8,321.3,546,321.4z"/>
		<path class="st0" d="M533.2,486.4c0-0.1,0-0.4,0-0.6c-0.1,0.1-0.3,0.1-0.6,0.2C532.9,486.2,533,486.3,533.2,486.4z"/>
		<path class="st0" d="M1210.5,900c-0.3,0.1-0.4,0.3-0.6,0.4c0,0.2,0,0.4-0.1,0.6c0.1,0.1,0,0.2,0.1,0.3
			C1210.4,901,1210.5,900.5,1210.5,900z"/>
		<path class="st0" d="M610.5,182.9c-0.3,0.2,1.4,0.7,5.3,1.6C613.9,183.9,612,183.2,610.5,182.9z"/>
		<path class="st0" d="M623.3,148.5c-0.7,0-1-0.2-1.2-0.6c-2,2-4.3,4.1-6.4,6c-1,1.3-2.4,2.4-3.8,3.6c0.6,0.2,1,0.4,1.6,0.9
			C618.3,153.3,617.8,153.8,623.3,148.5z"/>
		<path class="st0" d="M551.8,227.3l-0.3,0.4c0.3-0.1,0.6-0.1,0.9-0.3C552.2,227.4,551.9,227.3,551.8,227.3z"/>
		<path class="st0" d="M1221.7,591.7c-5.1-34.4-8.5-53.4-28.9-46.9c0.6,0.6,0.7,1-0.2,1.1c0.4,0.1,0.7,0.4,0.4,0.9
			c-1-0.1-2-0.2-2.9-0.1c2.9,2,1,1.9-1,1.5c1.3,1.6-0.3,1.5-1.5,1.2c-0.6,1.1-1.2,1-1.9,0.4c-3.9,6.9-2.9,11.8,3,13.7
			c-0.3,0.7-0.4,1.3-0.6,2l-0.5-0.3l-0.1,1c3.9,7.8,11.4,16.3,18.5,21.3c-4.3,1.7-5.8,5.4-5.5,10.6c-3.2-5-0.7,4.4-0.3,7.7
			c20.9,8.4,31.8,7.5,22.1-10C1224.4,592.4,1225,589.9,1221.7,591.7z"/>
		<path class="st0" d="M528.7,261.6c-0.1,0.4-0.3,0.7-0.6,0.9c0.9,0.1,2,0.2,2.9,0.4C530.1,262.5,529.4,262.1,528.7,261.6z"/>
	</g>
	<g>
		<path class="st1" d="M985.1,1078c-297,0-538.2-241.3-538.2-538.1C446.9,243.3,688.1,2,985.1,2c296.6,0,538,241.3,538,537.9
			C1523.1,836.7,1281.7,1078,985.1,1078z"/>
	</g>
</g>
</svg>
